<svg xmlns="http://www.w3.org/2000/svg" width="410.356" height="137.917" viewBox="0 0 410.356 137.917">
  <g id="Group_5517" data-name="Group 5517" transform="translate(-388 -6429)">
    <path id="Path_3827" data-name="Path 3827" d="M8.79,136.917A7.8,7.8,0,0,1,1,129.126V23.033H409.355V129.126a7.8,7.8,0,0,1-7.791,7.791Z" transform="translate(388 6429)" fill="#fff"/>
    <path id="Path_3828" data-name="Path 3828" d="M408.356,24.033V129.126a6.8,6.8,0,0,1-6.791,6.791H8.791A6.8,6.8,0,0,1,2,129.126V24.033Zm2-2H0V129.126a8.791,8.791,0,0,0,8.791,8.791H401.565a8.791,8.791,0,0,0,8.791-8.791Z" transform="translate(388 6429)" fill="#999"/>
    <path id="Path_3829" data-name="Path 3829" d="M299.185,95.593H71.613a2.034,2.034,0,0,1-2.034-2.034V66.391a2.034,2.034,0,0,1,2.034-2.034H299.185a2.034,2.034,0,0,1,2.034,2.034V93.559a2.034,2.034,0,0,1-2.034,2.034" transform="translate(388 6429)" fill="#fff"/>
    <rect id="Rectangle_4098" data-name="Rectangle 4098" width="231.64" height="31.236" rx="2.034" transform="translate(457.579 6493.357)" fill="none" stroke="#999" stroke-miterlimit="10" stroke-width="1"/>
    <path id="Path_3830" data-name="Path 3830" d="M338.743,95.593H311.575a2.034,2.034,0,0,1-2.034-2.034V66.391a2.033,2.033,0,0,1,2.034-2.034h27.168a2.034,2.034,0,0,1,2.034,2.034V93.559a2.034,2.034,0,0,1-2.034,2.034" transform="translate(388 6429)" fill="#999"/>
    <path id="Path_3831" data-name="Path 3831" d="M333.441,87,329.433,83a7.012,7.012,0,1,0-1.255,1.255l4.008,4.009ZM318.7,78.724a5.212,5.212,0,1,1,5.212,5.212,5.212,5.212,0,0,1-5.212-5.212" transform="translate(388 6429)" fill="#fff"/>
    <path id="Path_3832" data-name="Path 3832" d="M85.892,79.278h-3.56v2.911h4.135v.885H81.249V74.861h5.162v.886H82.332v2.645h3.56Z" transform="translate(388 6429)" fill="#999"/>
    <path id="Path_3833" data-name="Path 3833" d="M88.64,76.971l.034.767a2.226,2.226,0,0,1,1.828-.88q1.935,0,1.951,2.184v4.033H91.41V79.036a1.409,1.409,0,0,0-.3-.976,1.207,1.207,0,0,0-.922-.316,1.5,1.5,0,0,0-.891.271,1.821,1.821,0,0,0-.6.711v4.349H87.653v-6.1Z" transform="translate(388 6429)" fill="#999"/>
    <path id="Path_3834" data-name="Path 3834" d="M95.444,75.493v1.478h1.139v.807H95.444v3.79a.849.849,0,0,0,.152.55.64.64,0,0,0,.519.184,2.554,2.554,0,0,0,.5-.068v.841a3.04,3.04,0,0,1-.8.113,1.3,1.3,0,0,1-1.055-.424,1.815,1.815,0,0,1-.356-1.2V77.778H93.289v-.807H94.4V75.493Z" transform="translate(388 6429)" fill="#999"/>
    <path id="Path_3835" data-name="Path 3835" d="M100.335,83.188a2.668,2.668,0,0,1-2.02-.815,3.028,3.028,0,0,1-.779-2.18V80a3.653,3.653,0,0,1,.348-1.622,2.7,2.7,0,0,1,.97-1.117,2.44,2.44,0,0,1,1.351-.4,2.287,2.287,0,0,1,1.85.784,3.4,3.4,0,0,1,.66,2.246v.434H98.58a2.175,2.175,0,0,0,.528,1.459,1.657,1.657,0,0,0,1.283.555,1.814,1.814,0,0,0,.937-.226,2.346,2.346,0,0,0,.671-.6l.638.5a2.565,2.565,0,0,1-2.3,1.179m-.13-5.472a1.392,1.392,0,0,0-1.061.46,2.233,2.233,0,0,0-.53,1.288h3.058v-.078a1.992,1.992,0,0,0-.429-1.233,1.313,1.313,0,0,0-1.038-.437" transform="translate(388 6429)" fill="#999"/>
    <path id="Path_3836" data-name="Path 3836" d="M106.872,77.907a3.168,3.168,0,0,0-.514-.039,1.374,1.374,0,0,0-1.393.874v4.332h-1.043v-6.1h1.015l.017.705a1.623,1.623,0,0,1,1.455-.818,1.066,1.066,0,0,1,.463.079Z" transform="translate(388 6429)" fill="#999"/>
    <path id="Path_3837" data-name="Path 3837" d="M112.689,81.546l1.422-4.575h1.116l-2.454,7.046q-.57,1.524-1.81,1.523l-.2-.017-.389-.073V84.6l.282.022a1.385,1.385,0,0,0,.826-.214,1.555,1.555,0,0,0,.489-.784l.23-.621-2.177-6.036h1.14Z" transform="translate(388 6429)" fill="#999"/>
    <path id="Path_3838" data-name="Path 3838" d="M115.8,79.967a3.6,3.6,0,0,1,.353-1.614,2.623,2.623,0,0,1,.981-1.1,2.668,2.668,0,0,1,1.436-.39,2.571,2.571,0,0,1,2.016.864,3.315,3.315,0,0,1,.77,2.295v.074a3.629,3.629,0,0,1-.341,1.6,2.594,2.594,0,0,1-.976,1.1,2.7,2.7,0,0,1-1.458.4,2.569,2.569,0,0,1-2.011-.863,3.307,3.307,0,0,1-.77-2.285Zm1.049.124a2.61,2.61,0,0,0,.471,1.63,1.6,1.6,0,0,0,2.525-.008,2.858,2.858,0,0,0,.468-1.746,2.607,2.607,0,0,0-.477-1.628,1.515,1.515,0,0,0-1.266-.623,1.5,1.5,0,0,0-1.247.615,2.834,2.834,0,0,0-.474,1.76" transform="translate(388 6429)" fill="#999"/>
    <path id="Path_3839" data-name="Path 3839" d="M126.431,82.471a2.218,2.218,0,0,1-1.789.716,1.9,1.9,0,0,1-1.486-.566,2.461,2.461,0,0,1-.516-1.679V76.971h1.043v3.943q0,1.387,1.129,1.387a1.56,1.56,0,0,0,1.59-.891V76.971h1.044v6.1h-.993Z" transform="translate(388 6429)" fill="#999"/>
    <path id="Path_3840" data-name="Path 3840" d="M131.982,77.907a3.168,3.168,0,0,0-.514-.039,1.374,1.374,0,0,0-1.393.874v4.332h-1.043v-6.1h1.015l.017.705a1.623,1.623,0,0,1,1.455-.818,1.065,1.065,0,0,1,.463.079Z" transform="translate(388 6429)" fill="#999"/>
    <path id="Path_3841" data-name="Path 3841" d="M139.355,81.456a.767.767,0,0,0-.319-.657,3.076,3.076,0,0,0-1.111-.4,5.2,5.2,0,0,1-1.258-.406,1.779,1.779,0,0,1-.688-.564,1.344,1.344,0,0,1-.223-.778,1.584,1.584,0,0,1,.634-1.269,2.476,2.476,0,0,1,1.622-.52,2.546,2.546,0,0,1,1.684.537,1.7,1.7,0,0,1,.646,1.37h-1.049a.942.942,0,0,0-.364-.739,1.361,1.361,0,0,0-.917-.31,1.428,1.428,0,0,0-.891.248.784.784,0,0,0-.322.649.633.633,0,0,0,.3.57,3.654,3.654,0,0,0,1.08.366,5.636,5.636,0,0,1,1.266.418,1.832,1.832,0,0,1,.719.584,1.428,1.428,0,0,1,.235.832,1.563,1.563,0,0,1-.655,1.311,2.738,2.738,0,0,1-1.7.494,3.086,3.086,0,0,1-1.3-.259,2.1,2.1,0,0,1-.883-.725,1.746,1.746,0,0,1-.319-1.007h1.043a1.081,1.081,0,0,0,.421.832,1.628,1.628,0,0,0,1.035.307A1.683,1.683,0,0,0,139,82.1a.736.736,0,0,0,.358-.64" transform="translate(388 6429)" fill="#999"/>
    <path id="Path_3842" data-name="Path 3842" d="M144.291,83.188a2.668,2.668,0,0,1-2.02-.815,3.028,3.028,0,0,1-.779-2.18V80a3.653,3.653,0,0,1,.348-1.622,2.7,2.7,0,0,1,.97-1.117,2.44,2.44,0,0,1,1.351-.4,2.287,2.287,0,0,1,1.85.784,3.4,3.4,0,0,1,.66,2.246v.434h-4.135a2.175,2.175,0,0,0,.528,1.459,1.657,1.657,0,0,0,1.283.555,1.814,1.814,0,0,0,.937-.226,2.346,2.346,0,0,0,.671-.6l.638.5a2.565,2.565,0,0,1-2.3,1.179m-.13-5.472a1.392,1.392,0,0,0-1.061.46,2.233,2.233,0,0,0-.53,1.288h3.058v-.078a1.993,1.993,0,0,0-.429-1.233,1.313,1.313,0,0,0-1.038-.437" transform="translate(388 6429)" fill="#999"/>
    <path id="Path_3843" data-name="Path 3843" d="M151.647,83.075a2.217,2.217,0,0,1-.147-.643,2.326,2.326,0,0,1-1.737.755,2.155,2.155,0,0,1-1.481-.51,1.654,1.654,0,0,1-.579-1.295,1.723,1.723,0,0,1,.726-1.48,3.412,3.412,0,0,1,2.039-.528h1.015v-.479a1.171,1.171,0,0,0-.327-.872,1.313,1.313,0,0,0-.965-.325,1.522,1.522,0,0,0-.936.283.829.829,0,0,0-.378.682h-1.049a1.441,1.441,0,0,1,.324-.883,2.212,2.212,0,0,1,.88-.674,2.953,2.953,0,0,1,1.222-.248,2.413,2.413,0,0,1,1.652.527,1.9,1.9,0,0,1,.621,1.453v2.809a3.432,3.432,0,0,0,.214,1.337v.091Zm-1.732-.8a1.83,1.83,0,0,0,.931-.254,1.539,1.539,0,0,0,.637-.659V80.113h-.818q-1.918,0-1.918,1.122a.95.95,0,0,0,.328.768,1.258,1.258,0,0,0,.84.276" transform="translate(388 6429)" fill="#999"/>
    <path id="Path_3844" data-name="Path 3844" d="M157.114,77.907a3.168,3.168,0,0,0-.514-.039,1.374,1.374,0,0,0-1.393.874v4.332h-1.043v-6.1h1.015l.017.705a1.623,1.623,0,0,1,1.455-.818,1.065,1.065,0,0,1,.463.079Z" transform="translate(388 6429)" fill="#999"/>
    <path id="Path_3845" data-name="Path 3845" d="M160.413,82.336a1.5,1.5,0,0,0,.976-.339,1.186,1.186,0,0,0,.463-.846h.987a1.894,1.894,0,0,1-.361,1,2.384,2.384,0,0,1-.889.756,2.561,2.561,0,0,1-1.176.282,2.515,2.515,0,0,1-1.983-.833,3.315,3.315,0,0,1-.736-2.275V79.9a3.681,3.681,0,0,1,.327-1.585,2.49,2.49,0,0,1,.94-1.077,2.664,2.664,0,0,1,1.446-.384,2.448,2.448,0,0,1,1.707.615,2.2,2.2,0,0,1,.725,1.6h-.987a1.44,1.44,0,0,0-.449-.974,1.4,1.4,0,0,0-1-.38,1.461,1.461,0,0,0-1.232.572,2.694,2.694,0,0,0-.437,1.656v.2a2.639,2.639,0,0,0,.434,1.625,1.468,1.468,0,0,0,1.241.57" transform="translate(388 6429)" fill="#999"/>
    <path id="Path_3846" data-name="Path 3846" d="M165.056,77.71a2.217,2.217,0,0,1,1.8-.852q1.935,0,1.952,2.183v4.034h-1.044V79.036a1.4,1.4,0,0,0-.3-.976,1.206,1.206,0,0,0-.922-.316,1.506,1.506,0,0,0-.891.27,1.835,1.835,0,0,0-.6.711v4.35h-1.044V74.41h1.044Z" transform="translate(388 6429)" fill="#999"/>
    <path id="Path_3847" data-name="Path 3847" d="M172.982,79.973a3.58,3.58,0,0,1,.66-2.277,2.328,2.328,0,0,1,3.48-.11l.045-.615h.959v8.451h-1.043V82.511a2.193,2.193,0,0,1-1.681.677,2.1,2.1,0,0,1-1.763-.86,3.666,3.666,0,0,1-.657-2.282Zm1.043.118a2.716,2.716,0,0,0,.443,1.647,1.407,1.407,0,0,0,1.193.6,1.565,1.565,0,0,0,1.422-.823V78.522a1.57,1.57,0,0,0-1.411-.806,1.417,1.417,0,0,0-1.2.6,2.956,2.956,0,0,0-.446,1.774" transform="translate(388 6429)" fill="#999"/>
    <path id="Path_3848" data-name="Path 3848" d="M183.571,82.471a2.218,2.218,0,0,1-1.789.716,1.9,1.9,0,0,1-1.486-.566,2.461,2.461,0,0,1-.516-1.679V76.971h1.043v3.943q0,1.387,1.129,1.387a1.56,1.56,0,0,0,1.59-.891V76.971h1.044v6.1h-.993Z" transform="translate(388 6429)" fill="#999"/>
    <path id="Path_3849" data-name="Path 3849" d="M188.705,83.188a2.668,2.668,0,0,1-2.02-.815,3.028,3.028,0,0,1-.779-2.18V80a3.653,3.653,0,0,1,.348-1.622,2.7,2.7,0,0,1,.97-1.117,2.44,2.44,0,0,1,1.351-.4,2.287,2.287,0,0,1,1.85.784,3.4,3.4,0,0,1,.66,2.246v.434H186.95a2.175,2.175,0,0,0,.528,1.459,1.657,1.657,0,0,0,1.283.555,1.814,1.814,0,0,0,.937-.226,2.346,2.346,0,0,0,.671-.6l.638.5a2.565,2.565,0,0,1-2.3,1.179m-.13-5.472a1.392,1.392,0,0,0-1.061.46,2.233,2.233,0,0,0-.53,1.288h3.058v-.078a1.993,1.993,0,0,0-.429-1.233,1.313,1.313,0,0,0-1.038-.437" transform="translate(388 6429)" fill="#999"/>
    <path id="Path_3850" data-name="Path 3850" d="M195.243,77.907a3.168,3.168,0,0,0-.514-.039,1.374,1.374,0,0,0-1.393.874v4.332h-1.043v-6.1h1.015l.017.705a1.623,1.623,0,0,1,1.455-.818,1.065,1.065,0,0,1,.463.079Z" transform="translate(388 6429)" fill="#999"/>
    <path id="Path_3851" data-name="Path 3851" d="M198.3,81.546l1.422-4.575h1.116l-2.454,7.046q-.57,1.524-1.81,1.523l-.2-.017-.389-.073V84.6l.282.022a1.385,1.385,0,0,0,.826-.214,1.555,1.555,0,0,0,.489-.784l.23-.621-2.177-6.036h1.14Z" transform="translate(388 6429)" fill="#999"/>
    <path id="Path_3852" data-name="Path 3852" d="M201.189,82.527a.654.654,0,0,1,.161-.451.614.614,0,0,1,.482-.181.633.633,0,0,1,.488.181.64.64,0,0,1,.167.451.608.608,0,0,1-.167.435.645.645,0,0,1-.488.175.581.581,0,0,1-.643-.61" transform="translate(388 6429)" fill="#999"/>
    <path id="Path_3853" data-name="Path 3853" d="M204.229,82.527a.654.654,0,0,1,.161-.451.614.614,0,0,1,.482-.181.633.633,0,0,1,.488.181.64.64,0,0,1,.167.451.608.608,0,0,1-.167.435.645.645,0,0,1-.488.175.581.581,0,0,1-.643-.61" transform="translate(388 6429)" fill="#999"/>
    <path id="Path_3854" data-name="Path 3854" d="M207.27,82.527a.654.654,0,0,1,.161-.451.614.614,0,0,1,.482-.181.633.633,0,0,1,.488.181.64.64,0,0,1,.167.451.608.608,0,0,1-.167.435.645.645,0,0,1-.488.175.581.581,0,0,1-.643-.61" transform="translate(388 6429)" fill="#999"/>
    <path id="Path_3855" data-name="Path 3855" d="M210.31,82.527a.654.654,0,0,1,.161-.451.614.614,0,0,1,.482-.181.6.6,0,0,1,.654.632.607.607,0,0,1-.166.435.645.645,0,0,1-.488.175.581.581,0,0,1-.643-.61" transform="translate(388 6429)" fill="#999"/>
    <path id="Path_3856" data-name="Path 3856" d="M401.565,0H8.791A8.791,8.791,0,0,0,0,8.791V22.174H410.356V8.791A8.791,8.791,0,0,0,401.565,0" transform="translate(388 6429)" fill="#999"/>
    <path id="Path_3857" data-name="Path 3857" d="M15.629,12.241a3.106,3.106,0,1,1-3.106-3.106,3.106,3.106,0,0,1,3.106,3.106" transform="translate(388 6429)" fill="#fff"/>
    <path id="Path_3858" data-name="Path 3858" d="M25.383,12.241a3.106,3.106,0,1,1-3.106-3.106,3.106,3.106,0,0,1,3.106,3.106" transform="translate(388 6429)" fill="#fff"/>
    <path id="Path_3859" data-name="Path 3859" d="M35.138,12.241a3.107,3.107,0,1,1-3.106-3.106,3.106,3.106,0,0,1,3.106,3.106" transform="translate(388 6429)" fill="#fff"/>
    <line id="Line_10" data-name="Line 10" x2="8.337" y2="8.337" transform="translate(780.093 6460.982)" fill="none" stroke="#999" stroke-miterlimit="10" stroke-width="1"/>
    <line id="Line_11" data-name="Line 11" x1="8.337" y2="8.337" transform="translate(780.092 6460.982)" fill="none" stroke="#999" stroke-miterlimit="10" stroke-width="1"/>
  </g>
</svg>
