<?xml version="1.0" encoding="utf-8"?>
<!-- Generator: Adobe Illustrator 27.5.0, SVG Export Plug-In . SVG Version: 6.00 Build 0)  -->
<svg version="1.1" id="Layer_1" xmlns="http://www.w3.org/2000/svg" xmlns:xlink="http://www.w3.org/1999/xlink" x="0px" y="0px"
	 viewBox="0 0 410.4 137.9" style="enable-background:new 0 0 410.4 137.9;" xml:space="preserve">
<style type="text/css">
	.st0{fill:#F4F4F4;}
	.st1{fill:#999999;}
	.st2{opacity:0.2;}
	.st3{clip-path:url(#SVGID_00000158013223731761876380000004423755275310343582_);}
	.st4{clip-path:url(#SVGID_00000090265974849201455520000012691023759910601883_);}
	.st5{fill:#FFFFFF;}
	.st6{fill:#636363;}
	.st7{fill:none;stroke:#999999;stroke-miterlimit:10;}
</style>
<g id="Group_5523" transform="translate(-443 -6118)">
	<path id="Path_3860" class="st0" d="M451.8,6254.9c-4.3,0-7.8-3.5-7.8-7.8V6141h408.4v106.1c0,4.3-3.5,7.8-7.8,7.8H451.8z"/>
	<path id="Path_3861" class="st1" d="M851.4,6142v105.1c0,3.7-3,6.8-6.8,6.8H451.8c-3.7,0-6.8-3-6.8-6.8V6142H851.4z M853.4,6140
		H443v107.1c0,4.9,3.9,8.8,8.8,8.8l0,0h392.8c4.9,0,8.8-3.9,8.8-8.8l0,0L853.4,6140z"/>
	<g id="Group_5522" transform="translate(443 6118)" class="st2">
		<g id="Group_5521">
			<g>
				<defs>
					<rect id="SVGID_1_" x="2.6" y="18.2" width="406" height="87"/>
				</defs>
				<clipPath id="SVGID_00000026883388494543454010000011072747636944812468_">
					<use xlink:href="#SVGID_1_"  style="overflow:visible;"/>
				</clipPath>
				<g id="Group_5520" style="clip-path:url(#SVGID_00000026883388494543454010000011072747636944812468_);">
					<g id="Group_5519">
						<g>
							<defs>
								<rect id="SVGID_00000119103770833930009510000015238107583129081003_" x="2.6" y="18.2" width="406" height="87"/>
							</defs>
							<clipPath id="SVGID_00000165947695495476844160000015129047762934286252_">
								<use xlink:href="#SVGID_00000119103770833930009510000015238107583129081003_"  style="overflow:visible;"/>
							</clipPath>
							<g id="Group_5518" style="clip-path:url(#SVGID_00000165947695495476844160000015129047762934286252_);">
								
									<image style="overflow:visible;enable-background:new    ;" width="406" height="87" id="Rectangle_4099" xlink:href="647A4527053E1A4.png"  transform="matrix(1 0 0 1 2.56 18.183)">
								</image>
							</g>
						</g>
					</g>
				</g>
			</g>
		</g>
	</g>
	<path id="Path_3862" class="st5" d="M832.5,6203.4H463.9c-3.2,0.2-5.9-2.3-6.1-5.5V6142h380.9v55.9
		C838.5,6201.1,835.7,6203.6,832.5,6203.4"/>
	<path id="Path_3863" class="st6" d="M845.8,6204.9H450.5c-3.1,0-5.5-2.5-5.5-5.5l0,0V6142h406.4v57.3
		C851.4,6202.4,848.9,6204.9,845.8,6204.9"/>
	<path id="Path_3864" class="st5" d="M742.2,6189.1H514.6c-1.1,0-2-0.9-2-2v-27.2c0-1.1,0.9-2,2-2h227.6c1.1,0,2,0.9,2,2v27.2
		C744.2,6188.2,743.3,6189.1,742.2,6189.1"/>
	<path id="Path_3865" class="st5" d="M781.7,6189.1h-27.2c-1.1,0-2-0.9-2-2v-27.2c0-1.1,0.9-2,2-2c0,0,0,0,0,0h27.2c1.1,0,2,0.9,2,2
		v27.2C783.8,6188.2,782.9,6189.1,781.7,6189.1"/>
	<path id="Path_3866" class="st6" d="M776.4,6180.5l-4-4c2.4-3.1,1.8-7.5-1.3-9.8c-3.1-2.4-7.5-1.8-9.8,1.3
		c-2.4,3.1-1.8,7.5,1.3,9.8c2.5,2,6.1,2,8.6,0l4,4L776.4,6180.5z M761.7,6172.2c0-2.9,2.3-5.2,5.2-5.2c2.9,0,5.2,2.3,5.2,5.2
		s-2.3,5.2-5.2,5.2C764,6177.4,761.7,6175.1,761.7,6172.2L761.7,6172.2"/>
	<path id="Path_3867" class="st1" d="M528.9,6172.8h-3.6v2.9h4.1v0.9h-5.2v-8.2h5.2v0.9h-4.1v2.6h3.6V6172.8z"/>
	<path id="Path_3868" class="st1" d="M531.6,6170.5l0,0.8c0.4-0.6,1.1-0.9,1.8-0.9c1.3,0,1.9,0.7,2,2.2v4h-1v-4c0-0.4-0.1-0.7-0.3-1
		c-0.2-0.2-0.6-0.3-0.9-0.3c-0.3,0-0.6,0.1-0.9,0.3c-0.3,0.2-0.5,0.4-0.6,0.7v4.3h-1v-6.1L531.6,6170.5z"/>
	<path id="Path_3869" class="st1" d="M538.4,6169v1.5h1.1v0.8h-1.1v3.8c0,0.2,0,0.4,0.2,0.6c0.1,0.1,0.3,0.2,0.5,0.2
		c0.2,0,0.3,0,0.5-0.1v0.8c-0.3,0.1-0.5,0.1-0.8,0.1c-0.4,0-0.8-0.1-1.1-0.4c-0.3-0.3-0.4-0.8-0.4-1.2v-3.8h-1.1v-0.8h1.1v-1.5
		H538.4z"/>
	<path id="Path_3870" class="st1" d="M543.3,6176.7c-0.8,0-1.5-0.3-2-0.8c-0.5-0.6-0.8-1.4-0.8-2.2v-0.2c0-0.6,0.1-1.1,0.3-1.6
		c0.2-0.5,0.5-0.8,1-1.1c0.4-0.3,0.9-0.4,1.4-0.4c0.7,0,1.4,0.3,1.8,0.8c0.5,0.6,0.7,1.4,0.7,2.2v0.4h-4.1c0,0.5,0.2,1.1,0.5,1.5
		c0.3,0.4,0.8,0.6,1.3,0.6c0.3,0,0.7-0.1,0.9-0.2c0.3-0.2,0.5-0.4,0.7-0.6l0.6,0.5C545.1,6176.3,544.3,6176.7,543.3,6176.7
		 M543.2,6171.2c-0.4,0-0.8,0.2-1.1,0.5c-0.3,0.4-0.5,0.8-0.5,1.3h3.1v-0.1c0-0.4-0.2-0.9-0.4-1.2
		C544,6171.3,543.6,6171.2,543.2,6171.2"/>
	<path id="Path_3871" class="st1" d="M549.9,6171.4c-0.2,0-0.3,0-0.5,0c-0.6,0-1.2,0.3-1.4,0.9v4.3h-1v-6.1h1l0,0.7
		c0.3-0.5,0.9-0.8,1.5-0.8c0.2,0,0.3,0,0.5,0.1V6171.4z"/>
	<path id="Path_3872" class="st1" d="M555.7,6175l1.4-4.6h1.1l-2.5,7c-0.4,1-1,1.5-1.8,1.5l-0.2,0l-0.4-0.1v-0.8l0.3,0
		c0.3,0,0.6-0.1,0.8-0.2c0.2-0.2,0.4-0.5,0.5-0.8l0.2-0.6l-2.2-6h1.1L555.7,6175z"/>
	<path id="Path_3873" class="st1" d="M558.8,6173.5c0-0.6,0.1-1.1,0.4-1.6c0.2-0.5,0.6-0.8,1-1.1c0.4-0.3,0.9-0.4,1.4-0.4
		c0.8,0,1.5,0.3,2,0.9c0.5,0.6,0.8,1.5,0.8,2.3v0.1c0,0.6-0.1,1.1-0.3,1.6c-0.2,0.5-0.6,0.8-1,1.1c-0.4,0.3-0.9,0.4-1.5,0.4
		c-0.8,0-1.5-0.3-2-0.9C559,6175.2,558.8,6174.4,558.8,6173.5L558.8,6173.5z M559.8,6173.6c0,0.6,0.1,1.2,0.5,1.6
		c0.5,0.7,1.6,0.8,2.2,0.3c0.1-0.1,0.2-0.2,0.3-0.3c0.3-0.5,0.5-1.1,0.5-1.7c0-0.6-0.1-1.2-0.5-1.6c-0.3-0.4-0.8-0.6-1.3-0.6
		c-0.5,0-1,0.2-1.2,0.6C560,6172.3,559.8,6173,559.8,6173.6"/>
	<path id="Path_3874" class="st1" d="M569.4,6176c-0.5,0.5-1.1,0.8-1.8,0.7c-0.6,0-1.1-0.2-1.5-0.6c-0.4-0.5-0.6-1.1-0.5-1.7v-4h1
		v3.9c0,0.9,0.4,1.4,1.1,1.4c0.7,0.1,1.3-0.3,1.6-0.9v-4.4h1v6.1h-1L569.4,6176z"/>
	<path id="Path_3875" class="st1" d="M575,6171.4c-0.2,0-0.3,0-0.5,0c-0.6,0-1.2,0.3-1.4,0.9v4.3h-1v-6.1h1l0,0.7
		c0.3-0.5,0.9-0.8,1.5-0.8c0.2,0,0.3,0,0.5,0.1V6171.4z"/>
	<path id="Path_3876" class="st1" d="M582.4,6174.9c0-0.3-0.1-0.5-0.3-0.7c-0.3-0.2-0.7-0.3-1.1-0.4c-0.4-0.1-0.9-0.2-1.3-0.4
		c-0.3-0.1-0.5-0.3-0.7-0.6c-0.2-0.2-0.2-0.5-0.2-0.8c0-0.5,0.2-1,0.6-1.3c0.5-0.4,1-0.5,1.6-0.5c0.6,0,1.2,0.2,1.7,0.5
		c0.4,0.3,0.7,0.8,0.6,1.4h-1c0-0.3-0.1-0.6-0.4-0.7c-0.3-0.2-0.6-0.3-0.9-0.3c-0.3,0-0.6,0.1-0.9,0.2c-0.2,0.2-0.3,0.4-0.3,0.6
		c0,0.2,0.1,0.4,0.3,0.6c0.3,0.2,0.7,0.3,1.1,0.4c0.4,0.1,0.9,0.2,1.3,0.4c0.3,0.1,0.5,0.3,0.7,0.6c0.2,0.2,0.2,0.5,0.2,0.8
		c0,0.5-0.2,1-0.7,1.3c-0.5,0.3-1.1,0.5-1.7,0.5c-0.4,0-0.9-0.1-1.3-0.3c-0.4-0.2-0.7-0.4-0.9-0.7c-0.2-0.3-0.3-0.6-0.3-1h1
		c0,0.3,0.2,0.6,0.4,0.8c0.3,0.2,0.7,0.3,1,0.3c0.3,0,0.7-0.1,1-0.2C582.2,6175.4,582.4,6175.2,582.4,6174.9"/>
	<path id="Path_3877" class="st1" d="M587.3,6176.7c-0.8,0-1.5-0.3-2-0.8c-0.5-0.6-0.8-1.4-0.8-2.2v-0.2c0-0.6,0.1-1.1,0.3-1.6
		c0.2-0.5,0.5-0.8,1-1.1c0.4-0.3,0.9-0.4,1.4-0.4c0.7,0,1.4,0.3,1.8,0.8c0.5,0.6,0.7,1.4,0.7,2.2v0.4h-4.1c0,0.5,0.2,1.1,0.5,1.5
		c0.3,0.4,0.8,0.6,1.3,0.6c0.3,0,0.7-0.1,0.9-0.2c0.3-0.2,0.5-0.4,0.7-0.6l0.6,0.5C589.1,6176.3,588.2,6176.7,587.3,6176.7
		 M587.2,6171.2c-0.4,0-0.8,0.2-1.1,0.5c-0.3,0.4-0.5,0.8-0.5,1.3h3.1v-0.1c0-0.4-0.2-0.9-0.4-1.2
		C587.9,6171.3,587.6,6171.2,587.2,6171.2"/>
	<path id="Path_3878" class="st1" d="M594.6,6176.6c-0.1-0.2-0.1-0.4-0.1-0.6c-0.4,0.5-1.1,0.8-1.7,0.8c-0.5,0-1.1-0.2-1.5-0.5
		c-0.4-0.3-0.6-0.8-0.6-1.3c0-0.6,0.2-1.1,0.7-1.5c0.6-0.4,1.3-0.6,2-0.5h1v-0.5c0-0.3-0.1-0.6-0.3-0.9c-0.3-0.2-0.6-0.4-1-0.3
		c-0.3,0-0.7,0.1-0.9,0.3c-0.2,0.2-0.4,0.4-0.4,0.7h-1c0-0.3,0.1-0.6,0.3-0.9c0.2-0.3,0.5-0.5,0.9-0.7c0.4-0.2,0.8-0.3,1.2-0.2
		c0.6,0,1.2,0.2,1.7,0.5c0.4,0.4,0.6,0.9,0.6,1.5v2.8c0,0.5,0.1,0.9,0.2,1.3v0.1H594.6z M592.9,6175.8c0.3,0,0.6-0.1,0.9-0.3
		c0.3-0.1,0.5-0.4,0.6-0.7v-1.2h-0.8c-1.3,0-1.9,0.4-1.9,1.1c0,0.3,0.1,0.6,0.3,0.8C592.3,6175.7,592.6,6175.8,592.9,6175.8"/>
	<path id="Path_3879" class="st1" d="M600.1,6171.4c-0.2,0-0.3,0-0.5,0c-0.6,0-1.2,0.3-1.4,0.9v4.3h-1v-6.1h1l0,0.7
		c0.3-0.5,0.9-0.8,1.5-0.8c0.2,0,0.3,0,0.5,0.1V6171.4z"/>
	<path id="Path_3880" class="st1" d="M603.4,6175.8c0.4,0,0.7-0.1,1-0.3c0.3-0.2,0.4-0.5,0.5-0.8h1c0,0.4-0.1,0.7-0.4,1
		c-0.2,0.3-0.5,0.6-0.9,0.8c-0.4,0.2-0.8,0.3-1.2,0.3c-0.8,0-1.5-0.3-2-0.8c-0.5-0.6-0.8-1.5-0.7-2.3v-0.2c0-0.5,0.1-1.1,0.3-1.6
		c0.2-0.4,0.5-0.8,0.9-1.1c0.4-0.3,0.9-0.4,1.4-0.4c0.6,0,1.2,0.2,1.7,0.6c0.5,0.4,0.7,1,0.7,1.6h-1c0-0.4-0.2-0.7-0.4-1
		c-0.3-0.3-0.6-0.4-1-0.4c-0.5,0-0.9,0.2-1.2,0.6c-0.3,0.5-0.5,1.1-0.4,1.7v0.2c0,0.6,0.1,1.1,0.4,1.6
		C602.5,6175.6,602.9,6175.9,603.4,6175.8"/>
	<path id="Path_3881" class="st1" d="M608.1,6171.2c0.4-0.6,1.1-0.9,1.8-0.9c1.3,0,1.9,0.7,2,2.2v4h-1v-4c0-0.4-0.1-0.7-0.3-1
		c-0.2-0.2-0.6-0.3-0.9-0.3c-0.3,0-0.6,0.1-0.9,0.3c-0.3,0.2-0.5,0.4-0.6,0.7v4.4h-1v-8.7h1L608.1,6171.2z"/>
	<path id="Path_3882" class="st1" d="M616,6173.5c0-0.8,0.2-1.6,0.7-2.3c0.8-1,2.3-1.1,3.3-0.3c0.1,0.1,0.1,0.1,0.2,0.2l0-0.6h1v8.4
		h-1v-2.9c-0.4,0.5-1,0.7-1.7,0.7c-0.7,0-1.4-0.3-1.8-0.9C616.2,6175.1,615.9,6174.3,616,6173.5L616,6173.5z M617,6173.6
		c0,0.6,0.1,1.2,0.4,1.6c0.3,0.4,0.7,0.6,1.2,0.6c0.6,0,1.1-0.3,1.4-0.8v-3c-0.3-0.5-0.8-0.8-1.4-0.8c-0.5,0-0.9,0.2-1.2,0.6
		C617.1,6172.3,617,6172.9,617,6173.6"/>
	<path id="Path_3883" class="st1" d="M626.6,6176c-0.5,0.5-1.1,0.8-1.8,0.7c-0.6,0-1.1-0.2-1.5-0.6c-0.4-0.5-0.6-1.1-0.5-1.7v-4h1
		v3.9c0,0.9,0.4,1.4,1.1,1.4c0.7,0.1,1.3-0.3,1.6-0.9v-4.4h1v6.1h-1L626.6,6176z"/>
	<path id="Path_3884" class="st1" d="M631.7,6176.7c-0.8,0-1.5-0.3-2-0.8c-0.5-0.6-0.8-1.4-0.8-2.2v-0.2c0-0.6,0.1-1.1,0.3-1.6
		c0.2-0.5,0.5-0.8,1-1.1c0.4-0.3,0.9-0.4,1.4-0.4c0.7,0,1.4,0.3,1.8,0.8c0.5,0.6,0.7,1.4,0.7,2.2v0.4H630c0,0.5,0.2,1.1,0.5,1.5
		c0.3,0.4,0.8,0.6,1.3,0.6c0.3,0,0.7-0.1,0.9-0.2c0.3-0.2,0.5-0.4,0.7-0.6l0.6,0.5C633.5,6176.3,632.6,6176.7,631.7,6176.7
		 M631.6,6171.2c-0.4,0-0.8,0.2-1.1,0.5c-0.3,0.4-0.5,0.8-0.5,1.3h3.1v-0.1c0-0.4-0.2-0.9-0.4-1.2
		C632.4,6171.3,632,6171.2,631.6,6171.2"/>
	<path id="Path_3885" class="st1" d="M638.2,6171.4c-0.2,0-0.3,0-0.5,0c-0.6,0-1.2,0.3-1.4,0.9v4.3h-1v-6.1h1l0,0.7
		c0.3-0.5,0.9-0.8,1.5-0.8c0.2,0,0.3,0,0.5,0.1V6171.4z"/>
	<path id="Path_3886" class="st1" d="M641.3,6175l1.4-4.6h1.1l-2.5,7c-0.4,1-1,1.5-1.8,1.5l-0.2,0l-0.4-0.1v-0.8l0.3,0
		c0.3,0,0.6-0.1,0.8-0.2c0.2-0.2,0.4-0.5,0.5-0.8l0.2-0.6l-2.2-6h1.1L641.3,6175z"/>
	<path id="Path_3887" class="st1" d="M644.2,6176c0-0.2,0.1-0.3,0.2-0.5c0.1-0.1,0.3-0.2,0.5-0.2c0.2,0,0.4,0.1,0.5,0.2
		c0.1,0.1,0.2,0.3,0.2,0.5c0,0.2-0.1,0.3-0.2,0.4c-0.1,0.1-0.3,0.2-0.5,0.2C644.5,6176.7,644.2,6176.4,644.2,6176
		C644.2,6176.1,644.2,6176,644.2,6176"/>
	<path id="Path_3888" class="st1" d="M647.2,6176c0-0.2,0.1-0.3,0.2-0.5c0.1-0.1,0.3-0.2,0.5-0.2c0.2,0,0.4,0.1,0.5,0.2
		c0.1,0.1,0.2,0.3,0.2,0.5c0,0.2-0.1,0.3-0.2,0.4c-0.1,0.1-0.3,0.2-0.5,0.2C647.6,6176.7,647.3,6176.4,647.2,6176
		C647.2,6176.1,647.2,6176,647.2,6176"/>
	<path id="Path_3889" class="st1" d="M650.3,6176c0-0.2,0.1-0.3,0.2-0.5c0.1-0.1,0.3-0.2,0.5-0.2c0.2,0,0.4,0.1,0.5,0.2
		c0.1,0.1,0.2,0.3,0.2,0.5c0,0.2-0.1,0.3-0.2,0.4c-0.1,0.1-0.3,0.2-0.5,0.2C650.6,6176.7,650.3,6176.4,650.3,6176
		C650.3,6176.1,650.3,6176,650.3,6176"/>
	<path id="Path_3890" class="st1" d="M653.3,6176c0-0.2,0.1-0.3,0.2-0.5c0.1-0.1,0.3-0.2,0.5-0.2c0.3,0,0.6,0.2,0.7,0.5
		c0,0,0,0.1,0,0.1c0,0.2-0.1,0.3-0.2,0.4c-0.1,0.1-0.3,0.2-0.5,0.2C653.6,6176.7,653.3,6176.4,653.3,6176
		C653.3,6176.1,653.3,6176,653.3,6176"/>
	<path id="Path_3891" class="st1" d="M844.6,6118H451.8c-4.9,0-8.8,3.9-8.8,8.8c0,0,0,0,0,0v13.4h410.4v-13.4
		C853.4,6121.9,849.4,6118,844.6,6118"/>
	<path id="Path_3892" class="st5" d="M458.6,6130.2c0,1.7-1.4,3.1-3.1,3.1s-3.1-1.4-3.1-3.1c0-1.7,1.4-3.1,3.1-3.1l0,0
		C457.2,6127.1,458.6,6128.5,458.6,6130.2"/>
	<path id="Path_3893" class="st5" d="M468.4,6130.2c0,1.7-1.4,3.1-3.1,3.1s-3.1-1.4-3.1-3.1c0-1.7,1.4-3.1,3.1-3.1c0,0,0,0,0,0
		C467,6127.1,468.4,6128.5,468.4,6130.2"/>
	<path id="Path_3894" class="st5" d="M478.1,6130.2c0,1.7-1.4,3.1-3.1,3.1c-1.7,0-3.1-1.4-3.1-3.1c0-1.7,1.4-3.1,3.1-3.1
		c0,0,0,0,0,0C476.7,6127.1,478.1,6128.5,478.1,6130.2"/>
	<line id="Line_12" class="st7" x1="835" y1="6150" x2="843.4" y2="6158.4"/>
	<line id="Line_13" class="st7" x1="843.4" y1="6150" x2="835" y2="6158.4"/>
</g>
</svg>
