<svg xmlns="http://www.w3.org/2000/svg" width="103.753" height="103.752" viewBox="0 0 103.753 103.752">
  <g id="Group_4116" data-name="Group 4116" transform="translate(2692.859 -3156.001)">
    <path id="Path_2201" data-name="Path 2201" d="M571.894,51.877A51.876,51.876,0,1,1,520.018,0a51.876,51.876,0,0,1,51.876,51.876" transform="translate(-3161 3156)" fill="#298aff"/>
    <path id="Path_2202" data-name="Path 2202" d="M507.509,51.877a6.642,6.642,0,1,1-6.642-6.642,6.642,6.642,0,0,1,6.642,6.642" transform="translate(-3161 3156)" fill="#fff"/>
    <path id="Path_2203" data-name="Path 2203" d="M526.66,51.877a6.642,6.642,0,1,1-6.642-6.642,6.642,6.642,0,0,1,6.642,6.642" transform="translate(-3161 3156)" fill="#a4d4ff"/>
    <path id="Path_2204" data-name="Path 2204" d="M545.811,51.877a6.642,6.642,0,1,1-6.642-6.642,6.642,6.642,0,0,1,6.642,6.642" transform="translate(-3161 3156)" fill="#a4d4ff"/>
  </g>
</svg>
