<svg xmlns="http://www.w3.org/2000/svg" width="103.753" height="103.752" viewBox="0 0 103.753 103.752">
  <g id="Group_4117" data-name="Group 4117" transform="translate(2841.51 -3156.001)">
    <path id="Path_2198" data-name="Path 2198" d="M423.243,51.877A51.877,51.877,0,1,1,371.367,0a51.876,51.876,0,0,1,51.876,51.876" transform="translate(-3161 3156)" fill="#298aff"/>
    <path id="Path_2199" data-name="Path 2199" d="M397.129,41.02,382.074,67.266a4.4,4.4,0,0,0-.583,2.189v6.2a1.447,1.447,0,0,1-.507,1.1l-6.528,5.573a1.446,1.446,0,0,1-2.385-1.1V69.455a4.4,4.4,0,0,0-.583-2.189L356.433,41.02a4.4,4.4,0,0,1,3.816-6.587h33.064a4.4,4.4,0,0,1,3.816,6.587" transform="translate(-3161 3156)" fill="#fff"/>
    <path id="Path_2200" data-name="Path 2200" d="M360.643,59.394,349.7,40.449a7.756,7.756,0,0,1,6.716-11.634H378.3A7.543,7.543,0,0,1,384.83,40.13L373.709,59.394A7.544,7.544,0,0,1,360.643,59.394Z" transform="translate(-3161 3156)" fill="none" stroke="#fff" stroke-miterlimit="10" stroke-width="2.5"/>
  </g>
</svg>
