<svg xmlns="http://www.w3.org/2000/svg" width="103.753" height="103.752" viewBox="0 0 103.753 103.752">
  <g id="Group_4112" data-name="Group 4112" transform="translate(2120.888 -3156.001)">
    <path id="Path_2216" data-name="Path 2216" d="M1143.865,51.877A51.876,51.876,0,1,1,1091.989,0a51.876,51.876,0,0,1,51.876,51.876" transform="translate(-3161 3156)" fill="#298aff"/>
    <path id="Path_2217" data-name="Path 2217" d="M1063.83,68.6v-.019a.617.617,0,0,1,.506-.609,5.906,5.906,0,0,0,2.288-.835,8.083,8.083,0,0,0,2.489-3.962c1.332-3.8,7.981-23.6,9.713-28.782a.618.618,0,0,1,.587-.423h2.464a.617.617,0,0,1,.586.416c2.257,6.553,9.32,28.176,10.065,30.313a4.279,4.279,0,0,0,1.778,2.387,6.327,6.327,0,0,0,2.2.88.617.617,0,0,1,.489.6V68.6a.621.621,0,0,1-.62.62h-15.062a.62.62,0,0,1-.094-1.233c1.562-.225,3.79-.832,3.79-1.967a3.164,3.164,0,0,0-.152-1.067l-2.067-6.285a1.863,1.863,0,0,0-1.769-1.28h-6.769a1.861,1.861,0,0,0-1.784,1.327c-.394,1.313-.914,3.076-1.019,3.5a13.076,13.076,0,0,0-.508,3.149c0,1.594,2.654,2.371,4.3,2.625a.62.62,0,0,1-.1,1.232h-10.7a.621.621,0,0,1-.62-.62m10.556-13.194h6.458a.621.621,0,0,0,.62-.62.612.612,0,0,0-.033-.2l-3.289-9.706a.62.62,0,0,0-1.177.006l-3.168,9.706a.62.62,0,0,0,.4.782.611.611,0,0,0,.194.031" transform="translate(-3161 3156)" fill="#fff"/>
    <path id="Path_2218" data-name="Path 2218" d="M1119.765,61.63a.619.619,0,0,1,.345.783c-1.639,4.462-3.638,7.368-6.81,7.368-2.692,0-5.13-1.27-5.232-4.571h-.1c-1.625,2.539-3.352,4.571-6.5,4.571-2.692,0-5.435-1.829-5.435-8.127,0-8.837,6.5-16.355,12.647-16.355a3.661,3.661,0,0,1,3.758,3.149h.051l.272-.817a2.593,2.593,0,0,1,2.46-1.773h3.742a.621.621,0,0,1,.62.62.61.61,0,0,1-.027.18l-4.883,15.908a28,28,0,0,0-1.219,4.724.63.63,0,0,0,.54.707.688.688,0,0,0,.12,0c1.791,0,3.26-2.076,4.757-6.052a.618.618,0,0,1,.8-.359l.019.007Zm-7.878-11.161a.63.63,0,0,0,.016-.29c-.361-1.983-1.024-2.95-2.412-2.95-3.606,0-7.009,11.327-7.009,17.93,0,1.422.66,2.082,1.219,2.082,1.025,0,1.973-.759,2.88-1.917a13.135,13.135,0,0,0,2.221-4.4Z" transform="translate(-3161 3156)" fill="#fff"/>
  </g>
</svg>
