<svg xmlns="http://www.w3.org/2000/svg" width="103.753" height="103.752" viewBox="0 0 103.753 103.752">
  <g id="Group_4115" data-name="Group 4115" transform="translate(2549.866 -3156.001)">
    <path id="Path_2205" data-name="Path 2205" d="M714.887,51.877A51.877,51.877,0,1,1,663.011,0a51.876,51.876,0,0,1,51.876,51.876" transform="translate(-3161 3156)" fill="#298aff"/>
    <path id="Path_2206" data-name="Path 2206" d="M648.981,27.1h28.06a1.539,1.539,0,0,1,1.539,1.539V75.112a1.539,1.539,0,0,1-1.539,1.539h-28.06a1.539,1.539,0,0,1-1.539-1.539V28.641a1.539,1.539,0,0,1,1.539-1.539" transform="translate(-3161 3156)" fill="#fff"/>
    <path id="Path_2207" data-name="Path 2207" d="M683.558,31.554h4.151a1.539,1.539,0,0,1,1.539,1.539V70.661a1.539,1.539,0,0,1-1.539,1.538h-4.151a1.539,1.539,0,0,1-1.539-1.538V33.093a1.539,1.539,0,0,1,1.539-1.539" transform="translate(-3161 3156)" fill="#a4d4ff"/>
    <path id="Path_2208" data-name="Path 2208" d="M638.313,31.554h4.151A1.539,1.539,0,0,1,644,33.093V70.661a1.539,1.539,0,0,1-1.539,1.538h-4.151a1.539,1.539,0,0,1-1.539-1.538V33.093a1.539,1.539,0,0,1,1.539-1.539" transform="translate(-3161 3156)" fill="#a4d4ff"/>
    <path id="Path_2209" data-name="Path 2209" d="M654.927,54.328a.716.716,0,0,1-.507-.21l-3.961-3.96L654.42,46.2a.717.717,0,1,1,1.014,1.014l-2.949,2.948,2.949,2.947a.716.716,0,0,1-.507,1.223" transform="translate(-3161 3156)" fill="#298aff"/>
    <path id="Path_2210" data-name="Path 2210" d="M671.095,54.328a.716.716,0,0,1-.5-1.225l2.948-2.947L670.59,47.21A.717.717,0,1,1,671.6,46.2l3.961,3.962-3.961,3.96a.711.711,0,0,1-.508.21" transform="translate(-3161 3156)" fill="#298aff"/>
    <path id="Path_2211" data-name="Path 2211" d="M673.207,65.746H652.814a.716.716,0,1,1,0-1.433h20.393a.716.716,0,0,1,0,1.433" transform="translate(-3161 3156)" fill="#298aff"/>
    <path id="Path_2212" data-name="Path 2212" d="M663.655,71.019H652.813a.716.716,0,1,1,0-1.433h10.842a.716.716,0,0,1,0,1.433" transform="translate(-3161 3156)" fill="#298aff"/>
  </g>
</svg>
