<svg xmlns="http://www.w3.org/2000/svg" width="103.753" height="103.752" viewBox="0 0 103.753 103.752">
  <g id="Group_4119" data-name="Group 4119" transform="translate(3161 -3156.001)">
    <path id="Path_2190" data-name="Path 2190" d="M103.753,51.877A51.876,51.876,0,1,1,51.877,0a51.876,51.876,0,0,1,51.876,51.876" transform="translate(-3161 3156)" fill="#298aff"/>
    <path id="Path_2191" data-name="Path 2191" d="M80.738,61.809,75.261,57a4.122,4.122,0,0,1-1.379-3.433c.043-.552.065-1.111.065-1.681s-.023-1.146-.067-1.71a4.124,4.124,0,0,1,1.38-3.431l5.474-4.8a4.1,4.1,0,0,0,.843-5.145l-1.8-3.1a4.1,4.1,0,0,0-4.868-1.825l-6.891,2.339a4.124,4.124,0,0,1-3.652-.514,22.509,22.509,0,0,0-2.916-1.681,4.214,4.214,0,0,1-2.327-2.969L57.7,21.924a4.1,4.1,0,0,0-4.024-3.3h-3.6a4.1,4.1,0,0,0-4.024,3.3l-1.422,7.144a4.192,4.192,0,0,1-2.3,2.947A22.69,22.69,0,0,0,39.417,33.7a4.125,4.125,0,0,1-3.651.516l-6.921-2.344a4.1,4.1,0,0,0-4.866,1.826l-1.8,3.108a4.1,4.1,0,0,0,.843,5.144l5.5,4.829A4.129,4.129,0,0,1,29.9,50.209c-.043.553-.066,1.111-.066,1.681,0,.554.022,1.107.065,1.655a4.132,4.132,0,0,1-1.378,3.432l-5.507,4.832a4.1,4.1,0,0,0-.845,5.139l1.812,3.132a4.1,4.1,0,0,0,4.868,1.831l6.917-2.343a4.125,4.125,0,0,1,3.651.516,22.69,22.69,0,0,0,2.908,1.682,4.191,4.191,0,0,1,2.3,2.947l1.42,7.117a4.1,4.1,0,0,0,4.024,3.3h3.608a4.1,4.1,0,0,0,4.023-3.3l1.416-7.1a4.221,4.221,0,0,1,2.328-2.97,22.5,22.5,0,0,0,2.916-1.68,4.124,4.124,0,0,1,3.652-.514L74.9,71.908a4.1,4.1,0,0,0,4.87-1.831l1.811-3.129a4.1,4.1,0,0,0-.846-5.139" transform="translate(-3161 3156)" fill="#fff"/>
    <path id="Path_2192" data-name="Path 2192" d="M66.841,51.877A14.965,14.965,0,1,1,51.877,36.913,14.964,14.964,0,0,1,66.841,51.877Z" transform="translate(-3161 3156)" fill="none" stroke="#298aff" stroke-miterlimit="10" stroke-width="2.5"/>
    <path id="Path_2193" data-name="Path 2193" d="M51.337,43.74V52.2l5.326,5.326" transform="translate(-3161 3156)" fill="none" stroke="#298aff" stroke-miterlimit="10" stroke-width="2.5"/>
  </g>
</svg>
