<svg xmlns="http://www.w3.org/2000/svg" width="103.753" height="103.752" viewBox="0 0 103.753 103.752">
  <g id="Group_4118" data-name="Group 4118" transform="translate(3007.699 -3156.001)">
    <path id="Path_2194" data-name="Path 2194" d="M257.054,51.877A51.876,51.876,0,1,1,205.178,0a51.876,51.876,0,0,1,51.876,51.876" transform="translate(-3161 3156)" fill="#298aff"/>
    <path id="Path_2195" data-name="Path 2195" d="M219.59,81.192H190.764a10.538,10.538,0,0,1-10.527-10.527v-21.2a6.689,6.689,0,0,1,6.68-6.682h5.424a7.923,7.923,0,0,1,5.827,2.57l3.245,3.54a6.222,6.222,0,0,0,4.576,2.012h17.447a6.69,6.69,0,0,1,6.682,6.682V70.671A10.538,10.538,0,0,1,219.59,81.192M186.917,44.485a5,5,0,0,0-4.982,4.983v21.2a8.839,8.839,0,0,0,8.829,8.829H219.59a8.84,8.84,0,0,0,8.828-8.829V57.58a4.988,4.988,0,0,0-4.982-4.982H205.989a7.922,7.922,0,0,1-5.829-2.569l-3.244-3.539a6.224,6.224,0,0,0-4.575-2.014Z" transform="translate(-3161 3156)" fill="#fff"/>
    <path id="Path_2196" data-name="Path 2196" d="M223.541,49.458V66.5A7.543,7.543,0,0,1,216,74.047H202.766a4,4,0,0,1-4-4V41.512a4.109,4.109,0,0,1,4.108-4.109h8.608a5.333,5.333,0,0,1,3.777,1.571l6.709,6.708a5.345,5.345,0,0,1,1.569,3.776" transform="translate(-3161 3156)" fill="#7dc4ff"/>
    <path id="Path_2197" data-name="Path 2197" d="M219.939,37.971V65.193a5.251,5.251,0,0,1-5.251,5.252H193.523a5.251,5.251,0,0,1-5.251-5.252V27.812a5.251,5.251,0,0,1,5.251-5.251h11.006a6.832,6.832,0,0,1,4.827,2l8.582,8.582a6.829,6.829,0,0,1,2,4.83" transform="translate(-3161 3156)" fill="#fff"/>
    <rect id="Rectangle_2661" data-name="Rectangle 2661" width="15.065" height="8.55" transform="translate(-2967.111 3188.135)" fill="#57abff"/>
    <rect id="Rectangle_2662" data-name="Rectangle 2662" width="10.736" height="1.7" transform="translate(-2967.111 3217.578)" fill="#298aff"/>
    <rect id="Rectangle_2663" data-name="Rectangle 2663" width="17.363" height="1.7" transform="translate(-2967.111 3210.047)" fill="#298aff"/>
    <rect id="Rectangle_2664" data-name="Rectangle 2664" width="20.432" height="1.7" transform="translate(-2967.111 3202.516)" fill="#298aff"/>
  </g>
</svg>
