<svg version="1.1" id="Layer_1" xmlns="http://www.w3.org/2000/svg" x="0" y="0" viewBox="0 0 43 38" style="enable-background:new 0 0 43 38" xml:space="preserve"><style>.st0{fill:#037fff}</style><path class="st0" d="M36.6 0H6.4C2.9 0 0 2.9 0 6.4v25.2C0 35.1 2.9 38 6.4 38h30.2c3.5 0 6.4-2.9 6.4-6.4V6.4C43 2.9 40.1 0 36.6 0zM40 31.6c0 1.9-1.5 3.4-3.4 3.4H6.4C4.5 35 3 33.5 3 31.6V6.4C3 4.5 4.5 3 6.4 3h30.2C38.5 3 40 4.5 40 6.4v25.2z"/><path class="st0" d="M14.2 17.9c2 0 3.6-1.6 3.6-3.6s-1.6-3.6-3.6-3.6-3.6 1.6-3.6 3.6c0 1.9 1.6 3.6 3.6 3.6zM14.2 20.1c-4 0-7.2 3.2-7.2 7.2h14.4c0-4-3.3-7.2-7.2-7.2zM25.1 11.3H36v3H25.1zM25.1 17.5H36v3H25.1zM25.1 23.7h8.4v3h-8.4z"/></svg>