<svg version="1.1" id="Layer_1" xmlns="http://www.w3.org/2000/svg" x="0" y="0" viewBox="0 0 40 17.2" style="enable-background:new 0 0 40 17.2" xml:space="preserve"><style>.st0{fill:#037fff}</style><path class="st0" d="M3 .5c-1.1-1-3-.2-3 1.3v13.7c0 1.5 1.8 2.3 3 1.3l7.4-6.8c.8-.7.8-1.9 0-2.6L3 .5zM17.5.5c-1.1-1-3-.2-3 1.3v13.7c0 1.5 1.8 2.3 3 1.3l7.4-6.8c.8-.7.8-1.9 0-2.6L17.5.5zM39.4 7.3 32 .5c-.3-.4-.7-.5-1.1-.5-.9 0-1.8.7-1.8 1.8v13.7c0 1.1.9 1.8 1.8 1.8.4 0 .8-.1 1.2-.5l7.4-6.8c.7-.8.7-2-.1-2.7zm-7.3 5.3v-8l4.3 4-4.3 4z"/></svg>