<svg version="1.1" id="Layer_1" xmlns="http://www.w3.org/2000/svg" x="0" y="0" viewBox="0 0 43 39.6" style="enable-background:new 0 0 43 39.6" xml:space="preserve"><style>.st0{fill:#037fff}</style><path class="st0" d="M36.7 39.6H7.5V13.8c0-3.5 2.8-6.3 6.3-6.3h22.9c3.5 0 6.3 2.8 6.3 6.3v19.5c0 3.5-2.8 6.3-6.3 6.3zm-26.2-3h26.2c1.8 0 3.3-1.5 3.3-3.3V13.8c0-1.8-1.5-3.3-3.3-3.3H13.8c-1.8 0-3.3 1.5-3.3 3.3v22.8z"/><path class="st0" d="M11.5 39.6H6.9c-3.8 0-6.9-3.1-6.9-6.9V6.9C0 3.1 3.1 0 6.9 0h14c2.1 0 4.1.8 5.6 2.3l5.2 5.2-2.1 2.1-5.2-5.2c-1-.9-2.2-1.4-3.5-1.4h-14C4.7 3 3 4.7 3 6.9v25.8c0 2.1 1.7 3.9 3.9 3.9h4.6v3z"/></svg>