<svg xmlns="http://www.w3.org/2000/svg" viewBox="0 0 43 39.1" style="enable-background:new 0 0 43 39.1" xml:space="preserve"><path d="M38.7 9.2h-9.5V4.3c0-2.4-1.9-4.3-4.3-4.3H4.3C1.9 0 0 1.9 0 4.3v22.9c0 1.1.6 2 1.6 2.4.3.1.7.2 1 .2.7 0 1.4-.3 1.9-.8l4.1-4.1c.2-.2.6-.4.9-.4h4.3v4.8c0 2.4 1.9 4.3 4.3 4.3h15.4c.4 0 .7.1.9.4l4.1 4.1c.5.5 1.2.8 1.9.8.3 0 .7-.1 1-.2 1-.4 1.6-1.4 1.6-2.4V13.5c0-2.4-1.9-4.3-4.3-4.3zM9.5 21.7c-1.1 0-2.2.5-3.1 1.3L3 26.4V4.3C3 3.6 3.6 3 4.3 3h20.5c.7 0 1.3.6 1.3 1.3v4.8h-8c-2.4 0-4.3 1.9-4.3 4.3v8.2H9.5zM40 35.6l-3.4-3.4c-.8-.8-1.9-1.3-3.1-1.3H18.2c-.7 0-1.3-.6-1.3-1.3v-16c0-.7.6-1.3 1.3-1.3h20.5c.7 0 1.3.6 1.3 1.3v22z" style="fill:#037fff"/></svg>