<svg version="1.1" id="Layer_1" xmlns="http://www.w3.org/2000/svg" x="0" y="0" viewBox="0 0 38 32.3" style="enable-background:new 0 0 38 32.3" xml:space="preserve"><style>.st0{fill:#037fff}</style><path class="st0" d="M33.5 0h-29C2 0 0 2 0 4.5v15.6c0 2.5 2 4.5 4.5 4.5h6.8l7.7 7.7 7.7-7.7h6.8c2.5 0 4.5-2 4.5-4.5V4.5C38 2 36 0 33.5 0zM35 20.1c0 .8-.7 1.5-1.5 1.5h-8.1L19 28l-6.5-6.5h-8c-.8 0-1.5-.7-1.5-1.5V4.5C3 3.7 3.7 3 4.5 3h29.1c.7 0 1.4.7 1.4 1.5v15.6z"/><path class="st0" d="M25.4 10.2c-.2-.2-.4-.4-.6-.5-.2-.1-.5-.1-.7-.1-.3 0-.5 0-.7.1-.2.1-.4.3-.6.5-.2.2-.3.5-.4.8-.1.3-.1.7-.1 1.1s0 .8.1 1.2c.1.3.2.6.4.8.2.2.4.4.6.5.2.1.5.2.7.2.3 0 .5 0 .7-.2.2-.1.4-.3.6-.5.2-.2.3-.5.4-.8.1-.3.2-.7.2-1.2s0-.8-.2-1.1c-.1-.4-.2-.6-.4-.8zM25 13c-.1.2-.1.4-.2.6l-.3.3c-.1 0-.2.1-.4.1-.1 0-.2 0-.4-.1l-.3-.3c-.1-.2-.2-.3-.2-.6-.1-.2-.1-.5-.1-.9s0-.7.1-.9c0-.2.1-.4.2-.6l.3-.3c.1-.1.2-.1.4-.1.1 0 .2 0 .4.1l.3.3c.1.1.2.3.2.6.1.2.1.5.1.9-.1.4-.1.7-.1.9zM29.4 9.6h-.8l-2.4 3.2.1.4s0 .1.1.1c0 0 .1.1.2.1h2.1v1.2h.8v-1.2h.5c.1 0 .1 0 .1-.1v-.6h-.6V9.6zm-.7 1.2v1.9h-1.5l1.6-2.2c-.1.2-.1.3-.1.3zM14.1 5.4C10.7 5.4 8 8.1 8 11.5c0 1.4.5 2.7 1.3 3.7v3.6l3.4-1.4c.5.1 1 .2 1.5.2 3.4 0 6.1-2.7 6.1-6.1s-2.8-6.1-6.2-6.1zm-3 7.1c-.6 0-1.1-.5-1.1-1.1s.5-1.1 1.1-1.1c.6 0 1.1.5 1.1 1.1s-.5 1.1-1.1 1.1zm3 0c-.6 0-1.1-.5-1.1-1.1s.5-1.1 1.1-1.1c.6 0 1.1.5 1.1 1.1s-.5 1.1-1.1 1.1zm2.9 0c-.6 0-1.1-.5-1.1-1.1s.5-1.1 1.1-1.1 1.1.5 1.1 1.1-.5 1.1-1.1 1.1z"/></svg>