<svg version="1.1" id="Layer_1" xmlns="http://www.w3.org/2000/svg" x="0" y="0" viewBox="0 0 40 34.8" style="enable-background:new 0 0 40 34.8" xml:space="preserve"><style>.st0{fill:#037fff}</style><path class="st0" d="M0 22.6h19.4v3H0zM0 4.2h25.5v3H0zM0 13.4h22.2v3H0zM0 31.8h40v3H0zM39.7 4.2l-.5 1L34 2.7l.5-1C35.2.2 36.9-.4 38.4.3c.7.3 1.2.9 1.5 1.6.2.7.2 1.5-.2 2.3zM33.2 4.3l5.3 2.5-8.3 17.6-5.2 4.3-.1-6.8z"/><path class="st0" d="m28.3 11.1-.9-.4 2.9-6.1c.4-.8 1.3-1.1 2.1-.7l.9.4-.4.9-.9-.4c-.3-.1-.6 0-.7.3l-3 6z"/></svg>