<svg version="1.1" id="Layer_1" xmlns="http://www.w3.org/2000/svg" x="0" y="0" viewBox="0 0 40 43" style="enable-background:new 0 0 40 43" xml:space="preserve"><style>.st0{fill:#037fff}</style><path class="st0" d="M0 30.8h40v3H0zM0 40h40v3H0zM9.7 12.4h6.2v6.3c0 1.1-.9 2-2 2H9.1v3h4.7c2.8 0 5-2.2 5-5V3.2c0-1.8-1.4-3.2-3.2-3.2h-6C7.9 0 6.5 1.4 6.5 3.2v6c0 1.8 1.4 3.2 3.2 3.2zM26.7 15.2H30.6v4.4c0 .6-.5 1.1-1.1 1.1h-3.6v3h3.6c2.3 0 4.1-1.9 4.1-4.1V8.3c0-1.8-1.4-3.2-3.2-3.2h-3.7c-1.8 0-3.2 1.4-3.2 3.2V12c0 1.7 1.4 3.2 3.2 3.2z"/></svg>