<svg version="1.1" id="Layer_1" xmlns="http://www.w3.org/2000/svg" x="0" y="0" viewBox="0 0 38 28.9" style="enable-background:new 0 0 38 28.9" xml:space="preserve"><style>.st0{fill:#037fff}</style><path class="st0" d="M33.5 0h-29C2 0 0 2 0 4.5v19.9c0 2.5 2 4.5 4.5 4.5h29c2.5 0 4.5-2 4.5-4.5V4.5C38 2 36 0 33.5 0zM6.2 25.9l7.7-7.7c1.1-1.1 3-1.1 4.2 0l7.7 7.7H6.2zM35 24.4c0 .8-.7 1.5-1.5 1.5h-3.6l-9.8-9.8c-2.3-2.3-6.1-2.3-8.4 0L3 24.8V4.5C3 3.7 3.7 3 4.5 3h29c.8 0 1.5.7 1.5 1.5v19.9z"/><circle class="st0" cx="28.3" cy="9.7" r="4.2"/></svg>