<svg xmlns="http://www.w3.org/2000/svg" viewBox="0 0 40 40" style="enable-background:new 0 0 40 40" xml:space="preserve"><path d="M39.5 4.2c-.1-2-1.7-3.6-3.7-3.7l-14-.5c-1.1 0-2.1.4-2.9 1.1L1.1 19c-1.5 1.5-1.5 4 0 5.5l14.4 14.4c1.5 1.5 4 1.5 5.5 0L38.9 21c.8-.8 1.2-1.8 1.1-2.9l-.5-13.9zM13.7 29.7l-8.1-8.1 2.1-2.1 8.1 8.1-2.1 2.1zm11-1.6L11.9 15.3l2.1-2.1L26.8 26l-2.1 2.1zm8.9-17.2c-1.2 1.2-3.2 1.2-4.4 0-1.2-1.2-1.2-3.2 0-4.4 1.2-1.2 3.2-1.2 4.4 0 1.2 1.1 1.2 3.1 0 4.4z" style="fill:#037fff"/></svg>