<svg xmlns="http://www.w3.org/2000/svg" xml:space="preserve" id="Layer_1" x="0" y="0" style="enable-background:new 0 0 43 36.6" version="1.1" viewBox="0 0 43 36.6"><style>.st0{fill:#037fff}</style><path d="M38 6.2h-4.1V2c0-1.1-.9-2-2-2s-2 .9-2 2v4.2H13.1V2c0-1.1-.9-2-2-2s-2 .9-2 2v4.2H5c-2.8 0-5 2.3-5 5v20.3c0 2.8 2.3 5 5 5h33c2.8 0 5-2.3 5-5V11.3c0-2.8-2.3-5.1-5-5.1zm0 27.4H5c-1.1 0-2-.9-2-2V13.3h37v18.3c0 1.1-.9 2-2 2z" class="st0"/><path d="M7 16.8h4.2V21H7zM7 26h4.2v4.2H7zm12.4-9.2h4.2V21h-4.2zm0 9.2h4.2v4.2h-4.2zm12.3-9.2h4.2V21h-4.2zm0 9.2h4.2v4.2h-4.2z" class="st0"/></svg>