<svg version="1.1" id="Layer_1" xmlns="http://www.w3.org/2000/svg" x="0" y="0" viewBox="0 0 40 39.1" style="enable-background:new 0 0 40 39.1" xml:space="preserve"><style>.st0{fill:#037fff}</style><path class="st0" d="M0 29.1h40v3H0zM0 36.1h30.6v3H0zM2.3 9.7c.4-2.5 1-4.4 1.8-5.6 1-1.4 2.1-2 3.5-2 .6 0 .8.1.9.2.1.1.2.2.2.5v19.5c0 .2-.1.3-.1.4-.1.1-.3.1-.5.1H4.7v2.3h12.2v-2.3H14c-.5 0-.7-.1-.8-.2 0 0-.1-.1-.1-.5V3c0-.3.1-.6.2-.7 0 0 .3-.2.9-.2 2.9 0 4.6 2.5 5.3 7.6l.1.5h2.1L21.1 0H.6L0 10.1h2.2l.1-.4z"/></svg>