<svg version="1.1" id="Layer_1" xmlns="http://www.w3.org/2000/svg" x="0" y="0" viewBox="0 0 34 41.5" style="enable-background:new 0 0 34 41.5" xml:space="preserve"><style>.st0{fill:#037fff}</style><path class="st0" d="M17 7.5c-9.4 0-17 7.6-17 17s7.6 17 17 17 17-7.6 17-17-7.6-17-17-17zm10.4 26.3-1.3-1.3-1.1 1.1 1.3 1.3C24 37 21 38.3 17.7 38.5v-1.8h-1.5v1.8c-3.3-.2-6.3-1.5-8.6-3.6l1.3-1.3-1.1-1.1-1.3 1.3c-2.1-2.3-3.4-5.3-3.6-8.6h1.8v-1.5H3c.2-3.3 1.5-6.3 3.6-8.6l1.3 1.3L9 15.3 7.7 14c2.3-2.1 5.3-3.4 8.6-3.6v1.8h1.5v-1.8c3.3.2 6.3 1.5 8.6 3.6L25 15.4l1.1 1.1 1.3-1.3c2.1 2.3 3.4 5.3 3.6 8.6h-1.8v1.5H31c-.2 3.3-1.6 6.2-3.6 8.5z"/><path class="st0" d="M18 15.2h-2v9.7l6.9 6.9 1.4-1.4-6.3-6.3zM11.8 4.7h10.5c1.3 0 2.4-1.1 2.4-2.4S23.5 0 22.2 0H11.8c-1.3 0-2.4 1.1-2.4 2.4s1.1 2.3 2.4 2.3z"/></svg>