<svg version="1.1" id="Layer_1" xmlns="http://www.w3.org/2000/svg" x="0" y="0" viewBox="0 0 40 38" style="enable-background:new 0 0 40 38" xml:space="preserve"><style>.st0{fill:#037fff}</style><path class="st0" d="m25.7 23.7-3-3H5c-1.1 0-2-.9-2-2V5c0-1.1.9-2 2-2h26.3c1.1 0 2 .9 2 2v6.4l3 3V5c0-2.8-2.2-5-5-5H5C2.2 0 0 2.2 0 5v13.7c0 2.7 2.2 5 5 5h20.7zM1.5 27.8h18.6v3H1.5zM1.5 35h36.1v3H1.5z"/><path class="st0" d="M21.2 8.8c.1-.1.3-.2.4-.3.2-.1.3-.2.5-.3.4-.1.8-.2 1.2-.2.8 0 1.7.3 2.3 1l3 3c.4-.1.8-.1 1.2-.1.4 0 .7 0 1 .1l-4.1-4.1c-1.6-1.6-4-1.9-5.9-.8-.2.1-.3.2-.5.3-.1.1-.3.2-.4.3l-.1.1c-.9.9-1.4 2.1-1.4 3.4 0 1.3.5 2.5 1.4 3.4l5.3 5.3c.2.2.4.4.6.5.8.6 1.8.9 2.8.9h.3c1.2-.1 2.3-.6 3.2-1.4l.1-.1c.1-.1.2-.3.3-.4.1-.1.2-.3.3-.5.2-.3.3-.6.4-.9l-1.4-1.4c0 .4-.1.8-.2 1.1-.1.2-.2.3-.3.5-.1.2-.2.3-.3.4l-.1.1c-.6.6-1.4 1-2.3 1-.6 0-1.2-.2-1.7-.5-.2-.1-.5-.3-.6-.5l-1.4-1.4-3.8-3.7c-.6-.6-1-1.4-1-2.3 0-.9.3-1.7 1-2.3l.2-.2z"/><path class="st0" d="m38.6 19.6-5.3-5.3c-.2-.2-.4-.4-.6-.5-.8-.6-1.8-.9-2.8-.9h-.3c-1.2.1-2.2.5-3.1 1.3l-.1.1c-.1.1-.2.2-.2.3-.1.1-.2.3-.3.4-.3.4-.5.8-.6 1.2l1.4 1.4c0-.5.2-1 .4-1.4.1-.2.2-.3.3-.5.1-.1.2-.2.2-.3l.1-.1c.6-.5 1.4-.8 2.2-.8.6 0 1.2.2 1.7.5.2.1.5.3.7.5l1.4 1.4 3.9 3.9c.6.6 1 1.4 1 2.3 0 .8-.3 1.6-.8 2.2l-.1.1c-.1.1-.2.2-.3.2-.1.1-.3.2-.5.3-1.2.7-2.8.5-3.9-.5l-3-3c-.4.1-.8.1-1.2.1-.3 0-.7 0-1-.1l4.1 4.1c.9.9 2.2 1.4 3.4 1.4 1 0 1.9-.3 2.8-.8.2-.1.3-.2.4-.3.1-.1.2-.2.3-.2l.1-.1c.8-.9 1.3-2.1 1.3-3.3-.2-1.4-.7-2.7-1.6-3.6z"/></svg>