<svg xmlns="http://www.w3.org/2000/svg" viewBox="0 0 34 39.7" style="enable-background:new 0 0 34 39.7" xml:space="preserve"><path d="M28.7 29c-1 0-1.9.3-2.7.8l-11.6-7.9c.2-.7.3-1.3.3-2.1 0-1-.2-1.9-.6-2.8l11.1-7.6c.9.8 2.1 1.2 3.4 1.2 2.9 0 5.3-2.4 5.3-5.3S31.6 0 28.7 0s-5.3 2.4-5.3 5.3c0 .6.1 1.1.3 1.6l-11.2 7.6c-1.3-1.3-3.1-2.1-5.1-2.1-4.1 0-7.4 3.3-7.4 7.4 0 4.1 3.3 7.4 7.4 7.4 2.3 0 4.3-1 5.6-2.6L23.9 32c-.4.7-.6 1.5-.6 2.4 0 2.9 2.4 5.3 5.3 5.3s5.3-2.4 5.3-5.3-2.3-5.4-5.2-5.4z" style="fill:#037fff"/></svg>