<svg version="1.1" id="Layer_1" xmlns="http://www.w3.org/2000/svg" x="0" y="0" viewBox="0 0 43 43" style="enable-background:new 0 0 43 43" xml:space="preserve"><style>.st0{fill:#037fff}</style><path class="st0" d="M34.1 43H8.9C4 43 0 39 0 34.1V8.9C0 4 4 0 8.9 0h25.2C39 0 43 4 43 8.9v25.2c0 4.9-4 8.9-8.9 8.9zM8.9 3C5.7 3 3 5.7 3 8.9v25.2C3 37.3 5.7 40 8.9 40h25.2c3.3 0 5.9-2.7 5.9-5.9V8.9C40 5.7 37.3 3 34.1 3H8.9z"/><path class="st0" d="m30.2 20.5-12-9.4c-.8-.7-2.1-.1-2.1 1V31c0 1.1 1.2 1.7 2.1 1l12-9.4c.6-.6.6-1.6 0-2.1z"/></svg>