<svg xmlns="http://www.w3.org/2000/svg" viewBox="0 0 40.4 25.6" style="enable-background:new 0 0 40.4 25.6" xml:space="preserve"><path d="M40 12.1C36.2 4.6 28.6 0 20.2 0S4.2 4.6.4 12.1l-.4.7.4.7C4.2 21 11.9 25.6 20.2 25.6c8.4 0 16-4.6 19.8-12.1l.4-.7-.4-.7zM19.9 7.2c0 1.4-1.1 2.5-2.5 2.5s-2.5-1.1-2.5-2.5 1.1-2.5 2.5-2.5c1.3 0 2.5 1.1 2.5 2.5zm.3 15.4c-7 0-13.4-3.7-16.8-9.8C5.8 8.5 9.7 5.4 14.2 4c-1.6 1.6-2.6 3.7-2.6 6.2 0 4.8 3.9 8.6 8.6 8.6s8.6-3.9 8.6-8.6c0-2.4-1-4.6-2.6-6.2 4.5 1.5 8.4 4.6 10.8 8.8-3.4 6-9.8 9.8-16.8 9.8z" style="fill:#037fff"/></svg>