<svg xmlns="http://www.w3.org/2000/svg" width="43.66" height="50" viewBox="0 0 43.66 50">
  <g id="Group_2768" data-name="Group 2768" transform="translate(626 9156)">
    <path id="Path_558" data-name="Path 558" d="M41.057,11.23,32.431,2.6A8.829,8.829,0,0,0,26.146,0H8.888A8.9,8.9,0,0,0,0,8.889V41.112A8.9,8.9,0,0,0,8.888,50H34.772a8.9,8.9,0,0,0,8.888-8.888v-23.6a8.828,8.828,0,0,0-2.6-6.285m.486,29.882a6.779,6.779,0,0,1-6.771,6.771H8.888a6.779,6.779,0,0,1-6.771-6.771V8.889A6.779,6.779,0,0,1,8.888,2.118H26.146A6.726,6.726,0,0,1,30.934,4.1l8.626,8.626a6.726,6.726,0,0,1,1.983,4.788Z" transform="translate(-626 -9156.001)"/>
    <path id="Path_559" data-name="Path 559" d="M16.508,32.18H14.869l-4.1,6.426.046.967h4.108v2.115h1.587V39.573H17.69V38.3H16.508ZM14.921,38.3H12.433L14.8,34.537l.117-.209Z" transform="translate(-626 -9156.001)"/>
    <path id="Path_560" data-name="Path 560" d="M21.824,32.05a2.736,2.736,0,0,0-2.341,1.025,5.106,5.106,0,0,0-.768,3.076V37.8a4.966,4.966,0,0,0,.8,3.007,2.747,2.747,0,0,0,2.322,1.016,2.71,2.71,0,0,0,2.335-1.042,5.188,5.188,0,0,0,.767-3.092V36.04a4.948,4.948,0,0,0-.787-2.991,2.75,2.75,0,0,0-2.328-1m1.528,6.008a3.882,3.882,0,0,1-.385,1.891,1.229,1.229,0,0,1-1.13.6,1.251,1.251,0,0,1-1.169-.653,4.132,4.132,0,0,1-.372-1.986V35.759a3.716,3.716,0,0,1,.385-1.845,1.4,1.4,0,0,1,2.305.033,4.021,4.021,0,0,1,.366,1.962Z" transform="translate(-626 -9156.001)"/>
    <path id="Path_561" data-name="Path 561" d="M31.712,32.18H30.073l-4.1,6.426.047.967h4.108v2.115h1.587V39.573h1.181V38.3H31.712ZM30.125,38.3H27.636l2.371-3.762.118-.209Z" transform="translate(-626 -9156.001)"/>
    <path id="Path_562" data-name="Path 562" d="M21.83,7.118A11.263,11.263,0,1,0,33.093,18.381,11.276,11.276,0,0,0,21.83,7.118m0,20.409a9.146,9.146,0,1,1,9.146-9.146,9.157,9.157,0,0,1-9.146,9.146" transform="translate(-626 -9156.001)"/>
    <path id="Path_563" data-name="Path 563" d="M19.322,19.569l1.5-1.5-1.364-1.364,1.364-1.364-1.5-1.5-1.364,1.364-1.364-1.364-1.5,1.5,1.364,1.364L15.1,18.072l1.5,1.5,1.364-1.364Z" transform="translate(-626 -9156.001)"/>
    <path id="Path_564" data-name="Path 564" d="M27.067,13.847,25.7,15.211l-1.364-1.364-1.5,1.5,1.364,1.364-1.364,1.364,1.5,1.5L25.7,18.205l1.364,1.364,1.5-1.5L27.2,16.708l1.364-1.364Z" transform="translate(-626 -9156.001)"/>
    <path id="Path_565" data-name="Path 565" d="M21.829,20.929a5.154,5.154,0,0,0-4.464,2.586L19.2,24.567a3.028,3.028,0,0,1,5.25,0L26.3,23.519a5.135,5.135,0,0,0-4.466-2.59" transform="translate(-626 -9156.001)"/>
  </g>
</svg>
