<svg xmlns="http://www.w3.org/2000/svg" fill="#454545" viewBox="0 0 43.657 49.997"><path d="m41.054 11.227-8.626-8.626a8.824 8.824 0 0 0-6.285-2.6H8.887A8.9 8.9 0 0 0-.001 8.889V41.11a8.9 8.9 0 0 0 8.888 8.888h25.882a8.9 8.9 0 0 0 8.888-8.888v-23.6a8.83 8.83 0 0 0-2.603-6.283zm.486 29.88a6.78 6.78 0 0 1-6.771 6.77H8.887a6.78 6.78 0 0 1-6.771-6.77V8.886a6.78 6.78 0 0 1 6.771-6.771h17.256a6.726 6.726 0 0 1 4.788 1.983l8.626 8.626a6.73 6.73 0 0 1 1.983 4.787zM14.048 10.703H4.986v7.1h9.062zm-2.117 4.985H7.104V12.82h4.827zm4.336-4.985h9.204v2.117h-9.204zm0 4.985h9.204v2.117h-9.204zM4.986 29.515h6.817v-6.539H4.986zm2.118-4.421h2.582v2.3H7.104zm5.859-2.118h6.229v2.117h-6.229zm0 4.422h6.229v2.117h-6.229zm10.442 2.117h6.817v-6.539h-6.817zm2.118-4.421h2.582v2.3h-2.582zm5.859-2.118h6.229v2.117h-6.229zm0 4.422h6.229v2.117h-6.229zM4.986 41.227h6.817v-6.539H4.986zm2.118-4.421h2.582v2.3H7.104zm5.859-2.12h6.229v2.117h-6.229zm0 4.422h6.229v2.117h-6.229zm10.442 2.119h6.817v-6.539h-6.817zm2.118-4.421h2.582v2.3h-2.582zm5.859-2.12h6.229v2.117h-6.229zm0 4.422h6.229v2.117h-6.229z"/></svg>