<svg xmlns="http://www.w3.org/2000/svg" fill="#454545" viewBox="0 0 43.658 49.994"><path d="M34.769 0H8.892A8.9 8.9 0 0 0 0 8.891v32.212a8.9 8.9 0 0 0 8.892 8.891h25.877a8.9 8.9 0 0 0 8.891-8.891V8.891A8.9 8.9 0 0 0 34.769 0zm6.774 41.1a6.78 6.78 0 0 1-6.774 6.774H8.892A6.78 6.78 0 0 1 2.118 41.1V8.888a6.78 6.78 0 0 1 6.774-6.774h25.877a6.782 6.782 0 0 1 6.774 6.774zM21.829 11.064a3.63 3.63 0 0 0 2.566-6.193 3.63 3.63 0 0 0-6.193 2.566 3.63 3.63 0 0 0 3.627 3.627zm0-5.137a1.51 1.51 0 1 1-1.51 1.51 1.51 1.51 0 0 1 1.51-1.511z"/><path d="M17.269 18.263h9.126a1.47 1.47 0 0 0 1.463-1.6 6.05 6.05 0 0 0-12.052 0 1.47 1.47 0 0 0 1.463 1.6zm4.562-4.992a3.97 3.97 0 0 1 3.789 2.875h-7.575a3.963 3.963 0 0 1 3.783-2.875zM5.86 31.326h12.327v-9.217H5.86zm2.118-7.1h8.091v4.982H7.977zm12.389-1.274h18.165v2.117H20.367zm0 4.999h10.561v2.117H20.367zM5.86 43.617h12.327V34.4H5.86zm2.118-7.1h8.091v4.982H7.977zm12.389-1.272h18.165v2.117H20.367zm0 4.999h10.561v2.117H20.367z"/></svg>