<svg xmlns="http://www.w3.org/2000/svg" fill="#454545" viewBox="0 0 43.658 49.997"><path d="M39.356 8.097h-14.69a2.164 2.164 0 0 1-1.541-.64l-6.2-6.2a4.27 4.27 0 0 0-3.041-1.258H4.303a4.305 4.305 0 0 0-4.3 4.3v41.4a4.31 4.31 0 0 0 4.3 4.3h35.053a4.31 4.31 0 0 0 4.3-4.3v-33.3a4.3 4.3 0 0 0-4.3-4.302zm2.185 18.234H2.118V13.148c0-1.207.978-2.185 2.185-2.185h9.58a2.167 2.167 0 0 1 1.546.64l6.2 6.195a4.273 4.273 0 0 0 3.04 1.262h14.69c1.207 0 2.185.978 2.185 2.185zM2.118 4.298a2.184 2.184 0 0 1 2.185-2.18h9.58a2.16 2.16 0 0 1 1.546.639l6.2 6.2a4.273 4.273 0 0 0 3.04 1.262h14.69a2.184 2.184 0 0 1 2.185 2.181v5.145a4.3 4.3 0 0 0-2.185-.6h-14.69a2.164 2.164 0 0 1-1.541-.64l-6.2-6.2a4.287 4.287 0 0 0-3.041-1.258H4.303a4.3 4.3 0 0 0-2.185.6zm39.423 41.4a2.19 2.19 0 0 1-2.185 2.185H4.303a2.19 2.19 0 0 1-2.185-2.185V28.451h39.423zm-29.786-2.603h18.878v-9.862H11.755zm2.118-7.745h14.643v5.628H13.873z"/></svg>