<svg xmlns="http://www.w3.org/2000/svg" fill="#454545" viewBox="0 0 43.657 48.936"><path d="M34.766 2.959h-.849V0H31.8v2.959h-5.236V0h-2.118v2.959H19.21V0h-2.117v2.959h-5.236V0H9.739v2.959h-.848A8.9 8.9 0 0 0 0 11.85v28.2a8.9 8.9 0 0 0 8.891 8.891h25.875a8.9 8.9 0 0 0 8.891-8.891v-28.2a8.9 8.9 0 0 0-8.891-8.891zM8.891 5.076h.848v3h2.118v-3h5.236v3h2.117v-3h5.236v3h2.118v-3H31.8v3h2.117v-3h.849a6.782 6.782 0 0 1 6.774 6.774v3.8H2.117v-3.8a6.78 6.78 0 0 1 6.774-6.774zm25.875 41.743H8.891a6.78 6.78 0 0 1-6.774-6.774V17.768H41.54v22.276a6.78 6.78 0 0 1-6.774 6.775zM4.963 30.69H17.29v-9.217H4.963zm2.117-7.1h8.092v4.982H7.08zm12.39-1.272h18.165v2.117H19.47zm0 4.999h10.561v2.117H19.47zM4.963 42.982H17.29v-9.214H4.963zm2.117-7.1h8.092v4.982H7.08zm12.39-1.272h18.165v2.117H19.47zm0 4.999h10.561v2.117H19.47z"/></svg>