<svg xmlns="http://www.w3.org/2000/svg" width="43.663" height="50" viewBox="0 0 43.663 50">
  <g id="Group_2770" data-name="Group 2770" transform="translate(497.349 9156)">
    <path id="Path_566" data-name="Path 566" d="M163.422,0H137.544a8.9,8.9,0,0,0-8.893,8.892V41.108A8.9,8.9,0,0,0,137.544,50h25.878a8.9,8.9,0,0,0,8.892-8.893V8.893A8.9,8.9,0,0,0,163.422,0M137.544,2.118h25.878A6.782,6.782,0,0,1,170.2,8.893v1.529H130.769V8.893a6.782,6.782,0,0,1,6.775-6.775M170.2,30.445H130.769V12.54H170.2Zm-6.775,17.438H137.544a6.782,6.782,0,0,1-6.775-6.775V32.562H170.2v8.546a6.782,6.782,0,0,1-6.775,6.775" transform="translate(-626 -9156.001)"/>
    <path id="Path_567" data-name="Path 567" d="M136.353,8.027a1.694,1.694,0,1,0-1.694-1.694,1.693,1.693,0,0,0,1.694,1.694" transform="translate(-626 -9156.001)"/>
    <path id="Path_568" data-name="Path 568" d="M141.4,8.027a1.694,1.694,0,1,0-1.694-1.694A1.693,1.693,0,0,0,141.4,8.027" transform="translate(-626 -9156.001)"/>
    <path id="Path_569" data-name="Path 569" d="M146.455,8.027a1.694,1.694,0,1,0-1.694-1.694,1.693,1.693,0,0,0,1.694,1.694" transform="translate(-626 -9156.001)"/>
    <rect id="Rectangle_2752" data-name="Rectangle 2752" width="6.138" height="2.118" transform="translate(-490.628 -9120.97)"/>
    <rect id="Rectangle_2753" data-name="Rectangle 2753" width="6.138" height="2.118" transform="translate(-490.628 -9116.839)"/>
    <rect id="Rectangle_2754" data-name="Rectangle 2754" width="4.444" height="2.118" transform="translate(-488.934 -9112.707)"/>
    <rect id="Rectangle_2755" data-name="Rectangle 2755" width="6.138" height="2.118" transform="translate(-466.545 -9120.97)"/>
    <rect id="Rectangle_2756" data-name="Rectangle 2756" width="6.138" height="2.118" transform="translate(-466.545 -9116.839)"/>
    <rect id="Rectangle_2757" data-name="Rectangle 2757" width="4.444" height="2.118" transform="translate(-466.545 -9112.707)"/>
    <rect id="Rectangle_2758" data-name="Rectangle 2758" width="6.138" height="2.118" transform="translate(-478.586 -9120.97)"/>
    <rect id="Rectangle_2759" data-name="Rectangle 2759" width="6.138" height="2.118" transform="translate(-478.586 -9116.839)"/>
    <rect id="Rectangle_2760" data-name="Rectangle 2760" width="6.138" height="2.118" transform="translate(-478.586 -9112.707)"/>
  </g>
</svg>
