<?xml version="1.0" encoding="utf-8"?>
<!-- Generator: Adobe Illustrator 27.1.1, SVG Export Plug-In . SVG Version: 6.00 Build 0)  -->
<svg version="1.1" id="Group_3585" xmlns="http://www.w3.org/2000/svg" xmlns:xlink="http://www.w3.org/1999/xlink" x="0px" y="0px"
	 viewBox="0 0 102.1 116.9" style="enable-background:new 0 0 102.1 116.9;" xml:space="preserve">
<g id="Group_3584">
	<path id="Path_2352" d="M81.3,0H20.8C9.3,0,0,9.3,0,20.8v75.3c0,11.5,9.3,20.8,20.8,20.8h60.5c11.5,0,20.8-9.3,20.8-20.8V20.8
		C102.1,9.3,92.8,0,81.3,0 M20.8,5h60.5c8.7,0,15.8,7.1,15.8,15.8v3.6H5v-3.6C5,12,12,5,20.8,5 M81.3,112H20.8
		C12,112,5,104.9,5,96.1V29.3h92.2v66.8C97.1,104.9,90.1,112,81.3,112"/>
	<path id="Path_2353" d="M18,18.8c2.2,0,4-1.8,4-4c0-2.2-1.8-4-4-4s-4,1.8-4,4S15.8,18.8,18,18.8L18,18.8"/>
	<path id="Path_2354" d="M29.8,18.8c2.2,0,4-1.8,4-4s-1.8-4-4-4s-4,1.8-4,4S27.6,18.8,29.8,18.8L29.8,18.8"/>
	<path id="Path_2355" d="M41.6,18.8c2.2,0,4-1.8,4-4c0-2.2-1.8-4-4-4s-4,1.8-4,4S39.4,18.8,41.6,18.8"/>
	<path id="Path_2356" d="M69.6,55.6v-8.8c0-1.4-1.2-2.5-2.5-2.4c-1.3,0-2.4,1.1-2.4,2.4v3.8L53.1,39.1c-0.5-0.6-1.3-0.9-2.1-0.9l0,0
		c-0.8,0-1.5,0.3-2.1,0.9L18.5,69.6c-1.1,1.1-1.1,3,0,4.1c0.5,0.6,1.3,0.9,2.1,0.9h6.4v23c0,1.6,1.3,2.9,2.9,2.9h14.5
		c1.6,0,2.9-1.3,2.9-2.9V80.5h7.7v17.1c0,1.6,1.3,2.9,2.9,2.9h14.5c1.6,0,2.9-1.3,2.9-2.9v-23h6.4c1.6,0,2.9-1.3,2.9-2.9
		c0-0.8-0.3-1.5-0.9-2.1L69.6,55.6z M73.2,69.6c-1.6,0-2.9,1.3-2.9,2.9v23H59.8V78.4c0-1.6-1.3-2.9-2.9-2.9H45.2
		c-1.6,0-2.9,1.3-2.9,2.9v17.1H31.9v-23c0-1.6-1.3-2.9-2.9-2.9h-3.5L51,44l25.6,25.6L73.2,69.6z"/>
</g>
</svg>
