<svg xmlns="http://www.w3.org/2000/svg" width="43.663" height="50" viewBox="0 0 43.663 50">
  <g id="Group_2769" data-name="Group 2769" transform="translate(558.329 9153.883)">
    <path id="Path_570" data-name="Path 570" d="M102.442,2.118H76.563a8.9,8.9,0,0,0-8.892,8.892V43.225a8.9,8.9,0,0,0,8.892,8.893h25.879a8.9,8.9,0,0,0,8.892-8.893V11.01a8.9,8.9,0,0,0-8.892-8.892M76.563,4.235h25.879a6.782,6.782,0,0,1,6.775,6.775v1.529H69.789V11.01a6.782,6.782,0,0,1,6.774-6.775m32.654,20.628H69.789V14.656h39.428ZM102.442,50H76.563a6.782,6.782,0,0,1-6.774-6.775V26.98h39.428V43.225A6.782,6.782,0,0,1,102.442,50" transform="translate(-626 -9156.001)"/>
    <path id="Path_571" data-name="Path 571" d="M75.372,10.144A1.694,1.694,0,1,0,73.678,8.45a1.693,1.693,0,0,0,1.694,1.694" transform="translate(-626 -9156.001)"/>
    <path id="Path_572" data-name="Path 572" d="M80.424,10.144a1.694,1.694,0,1,0-1.7-1.694,1.693,1.693,0,0,0,1.7,1.694" transform="translate(-626 -9156.001)"/>
    <path id="Path_573" data-name="Path 573" d="M85.475,10.144A1.694,1.694,0,1,0,83.781,8.45a1.693,1.693,0,0,0,1.694,1.694" transform="translate(-626 -9156.001)"/>
    <rect id="Rectangle_2761" data-name="Rectangle 2761" width="5.395" height="2.118" transform="translate(-525.18 -9137.301)"/>
    <rect id="Rectangle_2762" data-name="Rectangle 2762" width="5.396" height="2.118" transform="translate(-533.355 -9137.301)"/>
    <rect id="Rectangle_2763" data-name="Rectangle 2763" width="5.396" height="2.118" transform="translate(-541.53 -9137.301)"/>
    <path id="Path_574" data-name="Path 574" d="M75.8,23.4a3.641,3.641,0,1,0-3.641-3.64A3.645,3.645,0,0,0,75.8,23.4m0-5.163a1.523,1.523,0,1,1-1.523,1.523A1.524,1.524,0,0,1,75.8,18.237" transform="translate(-626 -9156.001)"/>
  </g>
</svg>
