<svg xmlns="http://www.w3.org/2000/svg" fill="#454545" viewBox="0 0 43.658 49.994"><path d="M34.767 0H8.891A8.9 8.9 0 0 0 0 8.891v32.212a8.9 8.9 0 0 0 8.891 8.891h25.876a8.9 8.9 0 0 0 8.891-8.891V8.891A8.9 8.9 0 0 0 34.767 0zM8.891 2.117h25.876a6.782 6.782 0 0 1 6.774 6.774v4.674H2.117V8.891a6.782 6.782 0 0 1 6.774-6.774zm25.876 45.76H8.891a6.78 6.78 0 0 1-6.774-6.774V15.682h39.424v25.421a6.78 6.78 0 0 1-6.774 6.774zM6.679 11.27h19.175a1.284 1.284 0 0 0 1.282-1.281v-3.78a1.284 1.284 0 0 0-1.282-1.281H6.679a1.283 1.283 0 0 0-1.281 1.281v3.78c.001.707.574 1.28 1.281 1.281zm.836-4.225h17.5v2.108h-17.5zm23.244 4.225h6.22a1.283 1.283 0 0 0 1.281-1.281v-3.78a1.283 1.283 0 0 0-1.281-1.281h-6.22a1.28 1.28 0 0 0-1.281 1.281v3.78a1.28 1.28 0 0 0 1.281 1.281zm.836-4.225h4.548v2.108h-4.545zm3.503 25.498a8.634 8.634 0 1 0-3.324 6.779l5.39 5.389 1.5-1.5-5.389-5.389a8.555 8.555 0 0 0 1.823-5.279zm-8.605 6.488a6.49 6.49 0 0 1-6.487-6.487 6.49 6.49 0 0 1 6.486-6.487 6.49 6.49 0 0 1 6.488 6.486 6.5 6.5 0 0 1-6.482 6.488zm-5.314-6.488h2.119a3.2 3.2 0 0 1 3.2-3.2v-2.117a5.32 5.32 0 0 0-5.319 5.317zM7.066 20.277h16.047v2.117H7.066zm0 6.962h9.052v2.117H7.066zm0 6.963h9.052v2.117H7.066zm0 6.962h12.526v2.117H7.066z"/></svg>