<svg xmlns="http://www.w3.org/2000/svg" fill="#454545" viewBox="0 0 43.657 49.997"><path d="m41.054 11.227-8.625-8.626a8.83 8.83 0 0 0-6.285-2.6H8.888A8.9 8.9 0 0 0 0 8.889V41.11a8.9 8.9 0 0 0 8.888 8.888h25.881a8.9 8.9 0 0 0 8.888-8.888v-23.6a8.823 8.823 0 0 0-2.603-6.283zm.486 29.88a6.78 6.78 0 0 1-6.771 6.77H8.888a6.78 6.78 0 0 1-6.771-6.77V8.886a6.78 6.78 0 0 1 6.771-6.771h17.256a6.726 6.726 0 0 1 4.788 1.983l8.625 8.626a6.72 6.72 0 0 1 1.983 4.787zm-34.634-9.68h29.845v-17.83H6.906zm2.117-2.117v-2.944l6.338-6.338a.149.149 0 0 1 .111-.045.15.15 0 0 1 .111.046l5.066 5.069a2.26 2.26 0 0 0 1.609.667 2.267 2.267 0 0 0 1.608-.666l2.483-2.483c.025-.036.067-.057.111-.057s.086.021.111.057l6.691 6.694zm25.611-13.6v11.973l-6.566-6.568a2.27 2.27 0 0 0-3.216 0l-2.483 2.483a.153.153 0 0 1-.111.046c-.015.013-.073-.008-.111-.047l-5.066-5.069a2.26 2.26 0 0 0-1.609-.667 2.26 2.26 0 0 0-1.608.667l-4.841 4.84V15.71zM6.906 35.463h29.845v2.117H6.906zm0 6.161h29.845v2.117H6.906zM22.04 20.517a1.6 1.6 0 1 0-1.6-1.6 1.6 1.6 0 0 0 1.6 1.6zM6.906 8.931h3.943v2.117H6.906zm6.478 0h3.943v2.117h-3.943zm6.477 0h3.943v2.117h-3.943z"/></svg>