<svg xmlns="http://www.w3.org/2000/svg" fill="#454545" viewBox="0 0 43.658 49.997"><path d="M42.055 14.267 31.885 2.35A6.69 6.69 0 0 0 26.791 0h-4.029a6.69 6.69 0 0 0-5.1 2.351l-1.2 1.407-3.639-2.4A8.277 8.277 0 0 0-.004 8.272v28.875h2.117V8.272a6.16 6.16 0 0 1 9.546-5.145l3.419 2.249-7.581 8.887a6.7 6.7 0 0 0-1.6 4.346v24.685a6.706 6.706 0 0 0 6.7 6.7H36.96a6.71 6.71 0 0 0 6.7-6.7V18.61a6.7 6.7 0 0 0-1.605-4.343zm-.515 29.032a4.583 4.583 0 0 1-4.58 4.58H12.597a4.585 4.585 0 0 1-4.581-4.58V18.614a4.59 4.59 0 0 1 1.1-2.973l7.752-9.087 3.44 2.264a4.794 4.794 0 1 0 1.165-1.769l-3.22-2.118 1.028-1.206a4.574 4.574 0 0 1 3.485-1.608h4.029a4.575 4.575 0 0 1 3.484 1.607l10.17 11.918a4.58 4.58 0 0 1 1.095 2.973zm-17.344-31.92L25.36 9.61l-2.042-1.344a2.69 2.69 0 1 1-1.163 1.769zM11.469 32.172h10.029v-9.216H11.469zm2.117-7.1h5.8v4.982h-5.8zm9.364-1.271h14.079v2.117H22.95zm0 4.998h8.186v2.117H22.95zM11.469 44.464h10.029v-9.216H11.469zm2.117-7.1h5.8v4.982h-5.8zm9.364-1.271h14.079v2.117H22.95zm0 4.999h8.186v2.117H22.95z"/></svg>