<?xml version="1.0" encoding="utf-8"?>
<!-- Generator: Adobe Illustrator 27.5.0, SVG Export Plug-In . SVG Version: 6.00 Build 0)  -->
<svg version="1.1" id="Layer_1" xmlns="http://www.w3.org/2000/svg" xmlns:xlink="http://www.w3.org/1999/xlink" x="0px" y="0px"
	  viewBox="-60 0 180 32.2"  xml:space="preserve" style="enable-background:new 0 0 80 32.2;">
<style type="text/css">
	.st0{fill:url(#SVGID_1_);}
</style>
<linearGradient id="SVGID_1_" gradientUnits="userSpaceOnUse" x1="40" y1="-0.5554" x2="40" y2="31.7341">
	<stop  offset="0" style="stop-color:#989898"/>
	<stop  offset="1" style="stop-color:#4D4D4D"/>
</linearGradient>
<path class="st0" d="M53,15.7c-0.2-0.2-0.5-0.3-0.8-0.3c-0.4,0-0.6,0.1-0.9,0.4c-0.2,0.2-0.4,0.6-0.4,1h2.4v-0.1
	C53.4,16.2,53.2,15.9,53,15.7z M53,15.7c-0.2-0.2-0.5-0.3-0.8-0.3c-0.4,0-0.6,0.1-0.9,0.4c-0.2,0.2-0.4,0.6-0.4,1h2.4v-0.1
	C53.4,16.2,53.2,15.9,53,15.7z M77.2,0H2.8C1.3,0,0,1.3,0,2.8v26.6c0,1.6,1.3,2.8,2.8,2.8h74.4c1.6,0,2.8-1.3,2.8-2.8V2.8
	C80,1.3,78.7,0,77.2,0z M17.8,18.5c0.3,0.4,0.7,0.6,1.3,0.6c0.5,0,0.9-0.1,1.2-0.4c0.3-0.2,0.4-0.6,0.5-1.2H22
	c-0.1,0.8-0.4,1.4-0.9,1.9c-0.5,0.5-1.2,0.7-2.1,0.7c-0.6,0-1.1-0.1-1.6-0.4c-0.5-0.3-0.8-0.7-1.1-1.2C16.1,18,16,17.4,16,16.7V16
	c0-0.7,0.1-1.3,0.4-1.9c0.3-0.5,0.6-1,1.1-1.3c0.5-0.3,1-0.5,1.6-0.5c0.8,0,1.5,0.2,2,0.7c0.5,0.5,0.8,1.1,0.9,1.9h-1.3
	c-0.1-0.5-0.2-0.9-0.5-1.2c-0.3-0.2-0.6-0.4-1.1-0.4c-0.6,0-1,0.2-1.3,0.6c-0.3,0.4-0.5,1-0.5,1.8v0.7C17.3,17.4,17.5,18,17.8,18.5z
	 M24.4,20.1h-1.3v-8h1.3V20.1z M27.1,20.1h-1.3v-5.6h1.3V20.1z M27,13.4c-0.1,0.1-0.3,0.2-0.5,0.2c-0.2,0-0.4-0.1-0.5-0.2
	c-0.1-0.1-0.2-0.3-0.2-0.5c0-0.2,0.1-0.4,0.2-0.5c0.1-0.1,0.3-0.2,0.5-0.2c0.2,0,0.4,0.1,0.5,0.2c0.1,0.1,0.2,0.3,0.2,0.5
	C27.2,13.1,27.2,13.3,27,13.4z M29.9,18.7c0.2,0.3,0.5,0.5,1,0.5c0.3,0,0.6-0.1,0.8-0.3c0.2-0.2,0.3-0.4,0.3-0.7h1.2
	c0,0.4-0.1,0.7-0.3,1c-0.2,0.3-0.5,0.6-0.8,0.7c-0.4,0.2-0.7,0.3-1.1,0.3c-0.8,0-1.4-0.3-1.9-0.8c-0.5-0.5-0.7-1.2-0.7-2.1v-0.1
	c0-0.9,0.2-1.5,0.7-2.1c0.5-0.5,1.1-0.8,1.9-0.8c0.7,0,1.2,0.2,1.6,0.6c0.4,0.4,0.7,0.9,0.7,1.5h-1.2c0-0.3-0.1-0.6-0.3-0.8
	c-0.2-0.2-0.5-0.3-0.8-0.3c-0.4,0-0.7,0.2-1,0.4c-0.2,0.3-0.3,0.8-0.3,1.4v0.2C29.5,17.9,29.7,18.4,29.9,18.7z M37.6,20.1l-1.7-2.4
	l-0.6,0.6v1.8h-1.3v-8h1.3v4.6l0.4-0.5l1.6-1.8h1.5l-2.1,2.3l2.3,3.3H37.6z M48.5,20.1h-1.3v-3.4h-3.4v3.4h-1.3v-7.6h1.3v3.1h3.4
	v-3.1h1.3V20.1z M54.6,17.6H51c0,0.5,0.2,0.8,0.5,1.1c0.3,0.3,0.6,0.4,1,0.4c0.6,0,1.1-0.2,1.4-0.7l0.7,0.7
	c-0.2,0.3-0.5,0.6-0.9,0.8c-0.4,0.2-0.8,0.3-1.3,0.3c-0.8,0-1.5-0.3-2-0.8c-0.5-0.5-0.8-1.2-0.8-2v-0.2c0-0.6,0.1-1.1,0.3-1.5
	c0.2-0.5,0.5-0.8,0.9-1c0.4-0.2,0.8-0.4,1.3-0.4c0.8,0,1.4,0.2,1.8,0.7c0.4,0.5,0.6,1.2,0.6,2.1V17.6z M58.6,15.6
	c-0.2,0-0.3,0-0.5,0c-0.6,0-1,0.2-1.2,0.7v3.9h-1.3v-5.6h1.2l0,0.6c0.3-0.5,0.7-0.7,1.3-0.7c0.2,0,0.3,0,0.5,0.1V15.6z M64,17.6
	h-3.7c0,0.5,0.2,0.8,0.5,1.1c0.3,0.3,0.6,0.4,1,0.4c0.6,0,1.1-0.2,1.4-0.7l0.7,0.7c-0.2,0.3-0.5,0.6-0.9,0.8
	c-0.4,0.2-0.8,0.3-1.3,0.3c-0.8,0-1.5-0.3-2-0.8c-0.5-0.5-0.8-1.2-0.8-2v-0.2c0-0.6,0.1-1.1,0.3-1.5c0.2-0.5,0.5-0.8,0.9-1
	c0.4-0.2,0.8-0.4,1.3-0.4c0.8,0,1.4,0.2,1.8,0.7c0.4,0.5,0.6,1.2,0.6,2.1V17.6z M61.6,15.3c-0.4,0-0.6,0.1-0.9,0.4
	c-0.2,0.2-0.3,0.6-0.4,1h2.4v-0.1c0-0.4-0.1-0.7-0.3-1C62.2,15.4,62,15.3,61.6,15.3z M52.2,15.3c-0.4,0-0.6,0.1-0.9,0.4
	c-0.2,0.2-0.4,0.6-0.4,1h2.4v-0.1c0-0.4-0.1-0.7-0.3-1C52.8,15.4,52.6,15.3,52.2,15.3z M53,15.7c-0.2-0.2-0.5-0.3-0.8-0.3
	c-0.4,0-0.6,0.1-0.9,0.4c-0.2,0.2-0.4,0.6-0.4,1h2.4v-0.1C53.4,16.2,53.2,15.9,53,15.7z M53,15.7c-0.2-0.2-0.5-0.3-0.8-0.3
	c-0.4,0-0.6,0.1-0.9,0.4c-0.2,0.2-0.4,0.6-0.4,1h2.4v-0.1C53.4,16.2,53.2,15.9,53,15.7z"/>
</svg>
