<svg xmlns="http://www.w3.org/2000/svg" width="280" height="29"><g data-name="Group 1148"><g data-name="Rectangle 1730" fill="none" stroke="#707070"><path stroke="none" d="M0 0h280v29H0z"/><path d="M.5.5h279v28H.5z"/></g><path data-name="Rectangle 1731" fill="#707070" d="M0 0h42v29H0z"/><path data-name="Rectangle 1732" fill="#707070" d="M248 0h32v29h-32z"/><path data-name="Polygon 1" d="m46.969 14.035-6.293 5.035V9Z" fill="#707070"/><text data-name="Latest News" transform="translate(5 17)" fill="#fff" font-size="6" font-family="Roboto-Medium, Roboto" font-weight="500"><tspan x="0" y="0">Latest News</tspan></text><path data-name="Path 353" d="m258.102 9.583-4.918 4.917 4.918 4.918" fill="none" stroke="#fff"/><path data-name="Path 354" d="m269.031 9.582 4.918 4.918-4.918 4.918" fill="none" stroke="#fff"/><path data-name="Path 355" d="M262 11.612v5.776" fill="none" stroke="#fff"/><path data-name="Path 356" d="M265 11.612v5.776" fill="none" stroke="#fff"/><text data-name="Donec ullamcorper ut risus auctor." transform="translate(59 17)" fill="#707070" font-size="6" font-family="Roboto-Medium, Roboto" font-weight="500"><tspan x="0" y="0">Donec ullamcorper ut risus auctor.</tspan></text><text data-name="Sed vehicula pretium non maxi" transform="translate(165 17)" fill="#707070" font-size="6" font-family="Roboto-Medium, Roboto" font-weight="500"><tspan x="0" y="0">Sed vehicula pretium non maxi</tspan></text><g data-name="Group 1146" transform="translate(1472.663 1333.94)"><circle data-name="Ellipse 51" cx="3.5" cy="3.5" r="3.5" transform="translate(-1422.663 -1322.94)" fill="#707070"/><g data-name="Group 1145" transform="translate(-1421.05 -1321.716)" fill="#fff"><circle data-name="Ellipse 52" cx=".982" cy=".982" r=".982" transform="translate(.905)"/><path data-name="Path 357" d="M3.371 4.241a.4.4 0 0 0 .389-.5A1.931 1.931 0 0 0 3.375 3a1.935 1.935 0 0 0-1.489-.7 1.936 1.936 0 0 0-1.538.758 1.932 1.932 0 0 0-.335.679.4.4 0 0 0 .389.5h2.969Z"/></g></g><g data-name="Group 1147" transform="translate(1578.663 1333.94)"><circle data-name="Ellipse 51" cx="3.5" cy="3.5" r="3.5" transform="translate(-1422.663 -1322.94)" fill="#707070"/><g data-name="Group 1145" transform="translate(-1421.05 -1321.716)" fill="#fff"><circle data-name="Ellipse 52" cx=".982" cy=".982" r=".982" transform="translate(.905)"/><path data-name="Path 357" d="M3.371 4.241a.4.4 0 0 0 .389-.5A1.931 1.931 0 0 0 3.375 3a1.935 1.935 0 0 0-1.489-.7 1.936 1.936 0 0 0-1.538.758 1.932 1.932 0 0 0-.335.679.4.4 0 0 0 .389.5h2.969Z"/></g></g></g></svg>