<svg xmlns="http://www.w3.org/2000/svg" width="280" height="276.935"><path d="M0 126.935h135.773m8.227 0h136" fill="none" stroke="#707070" stroke-width=".3" stroke-dasharray="2"/><path fill="#919191" d="M0 0h135.773v73.208H0z"/><path d="M0 57.429v15.779h135.773v-4.453l-26.291-26.287a10.008 10.008 0 0 0-14.154 0l-9.671 9.671a10.008 10.008 0 0 1-14.154 0L45.477 26.108a10.008 10.008 0 0 0-14.154 0zm100.878-41.764a8.318 8.318 0 1 1-8.318 8.318 8.318 8.318 0 0 1 8.318-8.318z" fill="#848484"/><path fill="#919191" d="M0 135.935h135.773v73.208H0z"/><path d="M0 193.364v15.779h135.773v-4.453l-26.291-26.287a10.008 10.008 0 0 0-14.154 0l-9.671 9.671a10.008 10.008 0 0 1-14.154 0l-26.026-26.031a10.008 10.008 0 0 0-14.154 0zM100.878 151.6a8.318 8.318 0 1 1-8.318 8.318 8.318 8.318 0 0 1 8.318-8.318z" fill="#848484"/><path fill="#919191" d="M144 0h135.773v73.208H144z"/><path d="M144 57.429v15.779h135.773v-4.453l-26.291-26.287a10.008 10.008 0 0 0-14.154 0l-9.671 9.671a10.008 10.008 0 0 1-14.154 0l-26.026-26.031a10.008 10.008 0 0 0-14.154 0zm100.878-41.764a8.318 8.318 0 1 1-8.318 8.318 8.318 8.318 0 0 1 8.318-8.318z" fill="#848484"/><path fill="#919191" d="M144 135.935h135.773v73.208H144z"/><path d="M144 193.364v15.779h135.773v-4.453l-26.291-26.287a10.008 10.008 0 0 0-14.154 0l-9.671 9.671a10.008 10.008 0 0 1-14.154 0l-26.026-26.031a10.008 10.008 0 0 0-14.154 0zM244.878 151.6a8.318 8.318 0 1 1-8.318 8.318 8.318 8.318 0 0 1 8.318-8.318z" fill="#848484"/><text transform="translate(59 81.935)" fill="#43a8ff" font-size="5" font-family="Roboto-Regular, Roboto" style="isolation:isolate"><tspan x="0" y="0">Lifestyle</tspan></text><text transform="translate(59 217.87)" fill="#43a8ff" font-size="5" font-family="Roboto-Regular, Roboto" style="isolation:isolate"><tspan x="0" y="0">Lifestyle</tspan></text><text transform="translate(203 217.87)" fill="#43a8ff" font-size="5" font-family="Roboto-Regular, Roboto" style="isolation:isolate"><tspan x="0" y="0">Lifestyle</tspan></text><text transform="translate(68 91.935)" fill="#2c2c2c" font-size="8" font-family="Roboto-Medium, Roboto" font-weight="500"><tspan x="-56.898" y="0">Fusce velit metus, sodales vitae</tspan></text><text transform="translate(68 227.87)" fill="#2c2c2c" font-size="8" font-family="Roboto-Medium, Roboto" font-weight="500"><tspan x="-50.908" y="0">Orems ipsum dolor sit Amet,</tspan></text><text transform="translate(212 91.935)" fill="#2c2c2c" font-size="8" font-family="Roboto-Medium, Roboto" font-weight="500"><tspan x="-50.908" y="0">Orems ipsum dolor sit Amet,</tspan></text><text transform="translate(212 227.87)" fill="#2c2c2c" font-size="8" font-family="Roboto-Medium, Roboto" font-weight="500"><tspan x="-56.898" y="0">Fusce velit metus, sodales vitae</tspan></text><text transform="translate(86.282 99.757)" fill="#8d8d8d" font-size="3" font-family="Roboto-Regular, Roboto"><tspan x="0" y="0">12 Minute Read</tspan></text><g fill="#8d8d8d"><path d="M84.337 98.177h-2.652a.447.447 0 0 1 0-.893h2.653a.12.12 0 0 0 0-.239h-2.653a.686.686 0 0 0-.685.685v2.984a.686.686 0 0 0 .685.685h2.653a.119.119 0 0 0 .119-.119v-2.984a.121.121 0 0 0-.12-.119zm-.119 2.984h-2.533a.447.447 0 0 1-.447-.447V98.25a.684.684 0 0 0 .447.166h2.533z"/><path d="M81.723 97.622a.12.12 0 1 0 0 .239h2.24a.12.12 0 1 0 0-.239zm.419 3.017a.128.128 0 0 0 .04.007.119.119 0 0 0 .112-.079l.145-.406h.574l.145.407a.119.119 0 0 0 .112.079.128.128 0 0 0 .04-.007.119.119 0 0 0 .072-.152l-.543-1.524a.054.054 0 0 0 0-.011l-.005-.011a.041.041 0 0 1 0-.006v-.005h-.156l-.011.005h-.011v.01l-.005.011a.056.056 0 0 0 0 .011l-.545 1.524a.123.123 0 0 0 .074.153zm.586-1.282.2.565h-.4l.2-.565z"/></g><text transform="translate(31.588 99.757)" fill="#8d8d8d" font-size="3" font-family="Roboto-Regular, Roboto"><tspan x="0" y="0">Jon Doe</tspan></text><path d="M29.942 101.193a.219.219 0 0 1-.438 0v-.438a.657.657 0 0 0-.657-.657h-1.752a.657.657 0 0 0-.657.657v.438a.219.219 0 0 1-.438 0v-.438a1.1 1.1 0 0 1 1.095-1.095h1.752a1.1 1.1 0 0 1 1.095 1.095zm-1.971-1.971a1.095 1.095 0 1 1 1.095-1.095 1.1 1.1 0 0 1-1.095 1.095zm0-.438a.657.657 0 1 0-.657-.657.657.657 0 0 0 .657.657z" fill="#8d8d8d"/><text transform="translate(55.918 99.757)" fill="#8d8d8d" font-size="3" font-family="Roboto-Regular, Roboto"><tspan x="0" y="0">June 19, 2021</tspan></text><path d="M51.074 97.901h-.33a.34.34 0 0 0-.34.34v.427h3.463v-.428a.34.34 0 0 0-.34-.34H53.2v.112a.204.204 0 0 1-.408 0v-.111h-1.31v.112a.204.204 0 0 1-.408 0zm.408-.408h1.311v-.34a.204.204 0 1 1 .408 0v.34h.326a.748.748 0 0 1 .748.748v2.507a.748.748 0 0 1-.748.748h-2.783a.748.748 0 0 1-.748-.748V98.24a.748.748 0 0 1 .748-.747h.33v-.34a.204.204 0 1 1 .408 0zm-1.074 1.582v1.673a.34.34 0 0 0 .34.34h2.779a.34.34 0 0 0 .34-.34v-1.673z" fill="#8d8d8d"/><text transform="translate(48 96.935)" fill="#8d8d8d" font-size="1" font-family="Roboto-Regular, Roboto"><tspan x="0" y="0">.</tspan></text><text transform="translate(115 96.935)" fill="#8d8d8d" font-size="1" font-family="Roboto-Regular, Roboto"><tspan x="0" y="0">.</tspan></text><g fill="#8d8d8d"><text transform="translate(86.282 235.692)" font-size="3" font-family="Roboto-Regular, Roboto"><tspan x="0" y="0">12 Minute Read</tspan></text><path d="M84.337 234.112h-2.652a.447.447 0 0 1 0-.893h2.653a.12.12 0 0 0 0-.239h-2.653a.686.686 0 0 0-.685.685v2.984a.686.686 0 0 0 .685.685h2.653a.119.119 0 0 0 .119-.119v-2.984a.121.121 0 0 0-.12-.119zm-.119 2.984h-2.533a.447.447 0 0 1-.447-.447v-2.464a.684.684 0 0 0 .447.166h2.533z"/><path d="M81.723 233.557a.12.12 0 1 0 0 .239h2.24a.12.12 0 1 0 0-.239zm.419 3.017a.128.128 0 0 0 .04.007.119.119 0 0 0 .112-.079l.145-.406h.574l.145.407a.119.119 0 0 0 .112.079.128.128 0 0 0 .04-.007.119.119 0 0 0 .072-.152l-.543-1.524a.054.054 0 0 0 0-.011l-.005-.011a.041.041 0 0 1 0-.006v-.005h-.156l-.011.005h-.011v.01l-.005.011a.056.056 0 0 0 0 .011l-.545 1.524a.123.123 0 0 0 .074.153zm.586-1.282.2.565h-.4l.2-.565z"/><text transform="translate(31.588 235.692)" font-size="3" font-family="Roboto-Regular, Roboto"><tspan x="0" y="0">Jon Doe</tspan></text><path d="M29.942 237.128a.219.219 0 0 1-.438 0v-.438a.657.657 0 0 0-.657-.657h-1.752a.657.657 0 0 0-.657.657v.438a.219.219 0 0 1-.438 0v-.438a1.1 1.1 0 0 1 1.095-1.095h1.752a1.1 1.1 0 0 1 1.095 1.095zm-1.971-1.971a1.095 1.095 0 1 1 1.095-1.095 1.1 1.1 0 0 1-1.095 1.095zm0-.438a.657.657 0 1 0-.657-.657.657.657 0 0 0 .657.657z"/><text transform="translate(55.918 235.692)" font-size="3" font-family="Roboto-Regular, Roboto"><tspan x="0" y="0">June 19, 2021</tspan></text><path d="M51.074 233.836h-.33a.34.34 0 0 0-.34.34v.427h3.463v-.428a.34.34 0 0 0-.34-.34H53.2v.112a.204.204 0 0 1-.408 0v-.111h-1.31v.112a.204.204 0 0 1-.408 0zm.408-.408h1.311v-.34a.204.204 0 1 1 .408 0v.34h.326a.748.748 0 0 1 .748.748v2.507a.748.748 0 0 1-.748.748h-2.783a.748.748 0 0 1-.748-.748v-2.508a.748.748 0 0 1 .748-.747h.33v-.34a.204.204 0 1 1 .408 0zm-1.074 1.582v1.673a.34.34 0 0 0 .34.34h2.779a.34.34 0 0 0 .34-.34v-1.673z"/><text transform="translate(48 232.87)" font-size="1" font-family="Roboto-Regular, Roboto"><tspan x="0" y="0">.</tspan></text><text transform="translate(115 232.87)" font-size="1" font-family="Roboto-Regular, Roboto"><tspan x="0" y="0">.</tspan></text></g><g fill="#8d8d8d"><text transform="translate(230.282 99.757)" font-size="3" font-family="Roboto-Regular, Roboto"><tspan x="0" y="0">12 Minute Read</tspan></text><path d="M228.337 98.177h-2.652a.447.447 0 0 1 0-.893h2.653a.12.12 0 0 0 0-.239h-2.653a.686.686 0 0 0-.685.685v2.984a.686.686 0 0 0 .685.685h2.653a.119.119 0 0 0 .119-.119v-2.984a.121.121 0 0 0-.12-.119zm-.119 2.984h-2.533a.447.447 0 0 1-.447-.447V98.25a.684.684 0 0 0 .447.166h2.533z"/><path d="M225.723 97.622a.12.12 0 1 0 0 .239h2.24a.12.12 0 1 0 0-.239zm.419 3.017a.128.128 0 0 0 .04.007.119.119 0 0 0 .112-.079l.145-.406h.574l.145.407a.119.119 0 0 0 .112.079.128.128 0 0 0 .04-.007.119.119 0 0 0 .072-.152l-.543-1.524a.054.054 0 0 0 0-.011l-.005-.011a.041.041 0 0 1 0-.006v-.005h-.156l-.011.005h-.011v.01l-.005.011a.056.056 0 0 0 0 .011l-.545 1.524a.123.123 0 0 0 .074.153zm.586-1.282.2.565h-.4l.2-.565z"/><text transform="translate(175.588 99.757)" font-size="3" font-family="Roboto-Regular, Roboto"><tspan x="0" y="0">Jon Doe</tspan></text><path d="M173.942 101.193a.219.219 0 0 1-.438 0v-.438a.657.657 0 0 0-.657-.657h-1.752a.657.657 0 0 0-.657.657v.438a.219.219 0 0 1-.438 0v-.438a1.1 1.1 0 0 1 1.095-1.095h1.752a1.1 1.1 0 0 1 1.095 1.095zm-1.971-1.971a1.095 1.095 0 1 1 1.095-1.095 1.1 1.1 0 0 1-1.095 1.095zm0-.438a.657.657 0 1 0-.657-.657.657.657 0 0 0 .657.657z"/><text transform="translate(199.918 99.757)" font-size="3" font-family="Roboto-Regular, Roboto"><tspan x="0" y="0">June 19, 2021</tspan></text><path d="M195.074 97.901h-.33a.34.34 0 0 0-.34.34v.427h3.463v-.428a.34.34 0 0 0-.34-.34h-.327v.112a.204.204 0 0 1-.408 0v-.111h-1.31v.112a.204.204 0 0 1-.408 0zm.408-.408h1.311v-.34a.204.204 0 1 1 .408 0v.34h.326a.748.748 0 0 1 .748.748v2.507a.748.748 0 0 1-.748.748h-2.783a.748.748 0 0 1-.748-.748V98.24a.748.748 0 0 1 .748-.747h.33v-.34a.204.204 0 1 1 .408 0zm-1.074 1.582v1.673a.34.34 0 0 0 .34.34h2.779a.34.34 0 0 0 .34-.34v-1.673z"/><text transform="translate(192 96.935)" font-size="1" font-family="Roboto-Regular, Roboto"><tspan x="0" y="0">.</tspan></text><text transform="translate(259 96.935)" font-size="1" font-family="Roboto-Regular, Roboto"><tspan x="0" y="0">.</tspan></text></g><g fill="#8d8d8d"><text transform="translate(230.282 235.692)" font-size="3" font-family="Roboto-Regular, Roboto"><tspan x="0" y="0">12 Minute Read</tspan></text><path d="M228.337 234.112h-2.652a.447.447 0 0 1 0-.893h2.653a.12.12 0 0 0 0-.239h-2.653a.686.686 0 0 0-.685.685v2.984a.686.686 0 0 0 .685.685h2.653a.119.119 0 0 0 .119-.119v-2.984a.121.121 0 0 0-.12-.119zm-.119 2.984h-2.533a.447.447 0 0 1-.447-.447v-2.464a.684.684 0 0 0 .447.166h2.533z"/><path d="M225.723 233.557a.12.12 0 1 0 0 .239h2.24a.12.12 0 1 0 0-.239zm.419 3.017a.128.128 0 0 0 .04.007.119.119 0 0 0 .112-.079l.145-.406h.574l.145.407a.119.119 0 0 0 .112.079.128.128 0 0 0 .04-.007.119.119 0 0 0 .072-.152l-.543-1.524a.054.054 0 0 0 0-.011l-.005-.011a.041.041 0 0 1 0-.006v-.005h-.156l-.011.005h-.011v.01l-.005.011a.056.056 0 0 0 0 .011l-.545 1.524a.123.123 0 0 0 .074.153zm.586-1.282.2.565h-.4l.2-.565z"/><text transform="translate(175.588 235.692)" font-size="3" font-family="Roboto-Regular, Roboto"><tspan x="0" y="0">Jon Doe</tspan></text><path d="M173.942 237.128a.219.219 0 0 1-.438 0v-.438a.657.657 0 0 0-.657-.657h-1.752a.657.657 0 0 0-.657.657v.438a.219.219 0 0 1-.438 0v-.438a1.1 1.1 0 0 1 1.095-1.095h1.752a1.1 1.1 0 0 1 1.095 1.095zm-1.971-1.971a1.095 1.095 0 1 1 1.095-1.095 1.1 1.1 0 0 1-1.095 1.095zm0-.438a.657.657 0 1 0-.657-.657.657.657 0 0 0 .657.657z"/><text transform="translate(199.918 235.692)" font-size="3" font-family="Roboto-Regular, Roboto"><tspan x="0" y="0">June 19, 2021</tspan></text><path d="M195.074 233.836h-.33a.34.34 0 0 0-.34.34v.427h3.463v-.428a.34.34 0 0 0-.34-.34h-.327v.112a.204.204 0 0 1-.408 0v-.111h-1.31v.112a.204.204 0 0 1-.408 0zm.408-.408h1.311v-.34a.204.204 0 1 1 .408 0v.34h.326a.748.748 0 0 1 .748.748v2.507a.748.748 0 0 1-.748.748h-2.783a.748.748 0 0 1-.748-.748v-2.508a.748.748 0 0 1 .748-.747h.33v-.34a.204.204 0 1 1 .408 0zm-1.074 1.582v1.673a.34.34 0 0 0 .34.34h2.779a.34.34 0 0 0 .34-.34v-1.673z"/><text transform="translate(192 232.87)" font-size="1" font-family="Roboto-Regular, Roboto"><tspan x="0" y="0">.</tspan></text><text transform="translate(259 232.87)" font-size="1" font-family="Roboto-Regular, Roboto"><tspan x="0" y="0">.</tspan></text></g><text transform="translate(0 106.935)" fill="#2c2c2c" font-size="4" font-family="Roboto-Regular, Roboto"><tspan x="-67.862" y="4">Nam ultrices blandit nisi. In vulputate leo nisl, at varius purus consectetur ac. </tspan><tspan x="-22.76" y="10.5">Donec efficitur est mauris</tspan></text><text transform="translate(0 242.87)" fill="#2c2c2c" font-size="4" font-family="Roboto-Regular, Roboto"><tspan x="-67.862" y="4">Nam ultrices blandit nisi. In vulputate leo nisl, at varius purus consectetur ac. </tspan><tspan x="-22.76" y="10.5">Donec efficitur est mauris</tspan></text><text transform="translate(144 106.935)" fill="#2c2c2c" font-size="4" font-family="Roboto-Regular, Roboto"><tspan x="-67.862" y="4">Nam ultrices blandit nisi. In vulputate leo nisl, at varius purus consectetur ac. </tspan><tspan x="-22.76" y="10.5">Donec efficitur est mauris</tspan></text><text transform="translate(144 242.87)" fill="#2c2c2c" font-size="4" font-family="Roboto-Regular, Roboto"><tspan x="-67.862" y="4">Nam ultrices blandit nisi. In vulputate leo nisl, at varius purus consectetur ac. </tspan><tspan x="-22.76" y="10.5">Donec efficitur est mauris</tspan></text><text transform="translate(200 81.935)" fill="#cc43ff" font-size="6" font-family="Roboto-Regular, Roboto" style="isolation:isolate"><tspan x="0" y="0">Fashion</tspan></text><g transform="translate(70 -84.065)"><rect width="34" height="10" rx="1" transform="translate(22 351)" fill="#2c2c2c"/><rect width="24" height="10" rx="1" transform="translate(94 351)" fill="#2c2c2c"/><rect width="10" height="10" rx="1" transform="translate(58 351)" fill="#2c2c2c"/><rect width="10" height="10" rx="1" transform="translate(70 351)" fill="#2c2c2c"/><rect width="10" height="10" rx="1" transform="translate(82 351)" fill="#2c2c2c"/><text transform="translate(32.237 358)" fill="#fff" font-size="5" font-family="Roboto-Regular, Roboto"><tspan x="0" y="0">Previous</tspan></text><path d="M28.86 354.5 27 356.36l1.86 1.86" fill="none" stroke="#fff" stroke-width=".5"/><text transform="translate(98 358)" fill="#fff" font-size="5" font-family="Roboto-Regular, Roboto"><tspan x="0" y="0">Next</tspan></text><path d="m111.377 354.5 1.86 1.86-1.86 1.86" fill="none" stroke="#fff" stroke-width=".5"/><text transform="translate(62 358)" fill="#fff" font-size="5" font-family="Roboto-Regular, Roboto"><tspan x="0" y="0">1</tspan></text><text transform="translate(74 358)" fill="#fff" font-size="5" font-family="Roboto-Regular, Roboto"><tspan x="0" y="0">2</tspan></text><text transform="translate(86 358)" fill="#fff" font-size="5" font-family="Roboto-Regular, Roboto"><tspan x="0" y="0">3</tspan></text></g></svg>