<svg xmlns="http://www.w3.org/2000/svg" width="280" height="140.665"><defs><linearGradient id="a" x1=".5" x2=".5" y2="1" gradientUnits="objectBoundingBox"><stop offset="0" stop-opacity="0"/><stop offset="1" stop-opacity=".353"/></linearGradient></defs><text transform="translate(154 9.747)" fill="#2c2c2c" font-size="5" font-family="Roboto-Medium, Roboto" font-weight="500"><tspan x="0" y="0">Nulla non maximus tellllus, varius aliquam lorem.</tspan></text><text transform="translate(158.768 17.918)" fill="#6f6f6f" font-size="3" font-family="Roboto-Regular, Roboto"><tspan x="0" y="0">Jon Doe</tspan></text><path d="M157.364 18.468a.187.187 0 1 1-.374 0v-.373a.561.561 0 0 0-.561-.561h-1.495a.561.561 0 0 0-.561.561v.373a.187.187 0 1 1-.373 0v-.373a.934.934 0 0 1 .934-.934h1.495a.934.934 0 0 1 .934.934zm-1.682-1.681a.934.934 0 1 1 .934-.935.934.934 0 0 1-.934.935zm0-.374a.561.561 0 1 0-.561-.561.561.561 0 0 0 .561.561z" fill="#6f6f6f"/><text transform="translate(182.187 17.918)" fill="#6f6f6f" font-size="3" font-family="Roboto-Regular, Roboto"><tspan x="0" y="0">June 19, 2021</tspan></text><path d="M178.054 15.73h-.279a.29.29 0 0 0-.29.29v.364h2.952v-.364a.29.29 0 0 0-.29-.29h-.279v.1a.174.174 0 0 1-.348 0v-.1h-1.118v.1a.174.174 0 0 1-.348 0zm.348-.348h1.118v-.29a.174.174 0 1 1 .348 0v.29h.279a.638.638 0 0 1 .638.638v2.142a.638.638 0 0 1-.638.638h-2.372a.638.638 0 0 1-.638-.638V16.02a.638.638 0 0 1 .638-.638h.279v-.29a.174.174 0 1 1 .348 0zm-.921 1.351v1.429a.29.29 0 0 0 .29.29h2.376a.29.29 0 0 0 .29-.29v-1.429z" fill="#6f6f6f"/><text transform="translate(172.601 17.918)" fill="#6f6f6f" font-size="4.5" font-family="Roboto-Medium, Roboto" font-weight="500"><tspan x="0" y="0">.</tspan></text><g><text transform="translate(154 126.747)" fill="#2c2c2c" font-size="5" font-family="Roboto-Medium, Roboto" font-weight="500"><tspan x="0" y="0">Nulla non maximus tellllus, varius aliquam lorem.</tspan></text><text transform="translate(158.768 134.918)" fill="#6f6f6f" font-size="3" font-family="Roboto-Regular, Roboto"><tspan x="0" y="0">Jon Doe</tspan></text><path d="M157.364 135.468a.187.187 0 1 1-.374 0v-.373a.561.561 0 0 0-.561-.561h-1.495a.561.561 0 0 0-.561.561v.373a.187.187 0 1 1-.373 0v-.373a.934.934 0 0 1 .934-.934h1.495a.934.934 0 0 1 .934.934zm-1.682-1.681a.934.934 0 1 1 .934-.935.934.934 0 0 1-.934.935zm0-.374a.561.561 0 1 0-.561-.561.561.561 0 0 0 .561.561z" fill="#6f6f6f"/><text transform="translate(182.187 134.918)" fill="#6f6f6f" font-size="3" font-family="Roboto-Regular, Roboto"><tspan x="0" y="0">June 19, 2021</tspan></text><path d="M178.054 132.73h-.279a.29.29 0 0 0-.29.29v.364h2.952v-.364a.29.29 0 0 0-.29-.29h-.279v.1a.174.174 0 0 1-.348 0v-.1h-1.118v.1a.174.174 0 0 1-.348 0zm.348-.348h1.118v-.29a.174.174 0 1 1 .348 0v.29h.279a.638.638 0 0 1 .638.638v2.142a.638.638 0 0 1-.638.638h-2.372a.638.638 0 0 1-.638-.638v-2.142a.638.638 0 0 1 .638-.638h.279v-.29a.174.174 0 1 1 .348 0zm-.921 1.351v1.429a.29.29 0 0 0 .29.29h2.376a.29.29 0 0 0 .29-.29v-1.429z" fill="#6f6f6f"/><text transform="translate(172.601 134.918)" fill="#6f6f6f" font-size="4.5" font-family="Roboto-Medium, Roboto" font-weight="500"><tspan x="0" y="0">.</tspan></text></g><g><text transform="translate(154 32.747)" fill="#2c2c2c" font-size="5" font-family="Roboto-Medium, Roboto" font-weight="500"><tspan x="0" y="0">Sed vitae sapien lacus. Phasellus pharetra nunc facilisis</tspan></text><text transform="translate(158.768 40.918)" fill="#6f6f6f" font-size="3" font-family="Roboto-Regular, Roboto"><tspan x="0" y="0">Jon Doe</tspan></text><path d="M157.364 41.468a.187.187 0 1 1-.374 0v-.373a.561.561 0 0 0-.561-.561h-1.495a.561.561 0 0 0-.561.561v.373a.187.187 0 1 1-.373 0v-.373a.934.934 0 0 1 .934-.934h1.495a.934.934 0 0 1 .934.934zm-1.682-1.681a.934.934 0 1 1 .934-.935.934.934 0 0 1-.934.935zm0-.374a.561.561 0 1 0-.561-.561.561.561 0 0 0 .561.561z" fill="#6f6f6f"/><text transform="translate(182.187 40.918)" fill="#6f6f6f" font-size="3" font-family="Roboto-Regular, Roboto"><tspan x="0" y="0">June 19, 2021</tspan></text><path d="M178.054 38.73h-.279a.29.29 0 0 0-.29.29v.364h2.952v-.364a.29.29 0 0 0-.29-.29h-.279v.1a.174.174 0 0 1-.348 0v-.1h-1.118v.1a.174.174 0 0 1-.348 0zm.348-.348h1.118v-.29a.174.174 0 1 1 .348 0v.29h.279a.638.638 0 0 1 .638.638v2.142a.638.638 0 0 1-.638.638h-2.372a.638.638 0 0 1-.638-.638V39.02a.638.638 0 0 1 .638-.638h.279v-.29a.174.174 0 1 1 .348 0zm-.921 1.351v1.429a.29.29 0 0 0 .29.29h2.376a.29.29 0 0 0 .29-.29v-1.429z" fill="#6f6f6f"/><text transform="translate(172.601 40.918)" fill="#6f6f6f" font-size="4.5" font-family="Roboto-Medium, Roboto" font-weight="500"><tspan x="0" y="0">.</tspan></text><g><text transform="translate(158.768 40.918)" fill="#6f6f6f" font-size="3" font-family="Roboto-Regular, Roboto"><tspan x="0" y="0">Jon Doe</tspan></text><path d="M157.364 41.468a.187.187 0 1 1-.374 0v-.373a.561.561 0 0 0-.561-.561h-1.495a.561.561 0 0 0-.561.561v.373a.187.187 0 1 1-.373 0v-.373a.934.934 0 0 1 .934-.934h1.495a.934.934 0 0 1 .934.934zm-1.682-1.681a.934.934 0 1 1 .934-.935.934.934 0 0 1-.934.935zm0-.374a.561.561 0 1 0-.561-.561.561.561 0 0 0 .561.561z" fill="#6f6f6f"/><text transform="translate(182.187 40.918)" fill="#6f6f6f" font-size="3" font-family="Roboto-Regular, Roboto"><tspan x="0" y="0">June 19, 2021</tspan></text><path d="M178.054 38.73h-.279a.29.29 0 0 0-.29.29v.364h2.952v-.364a.29.29 0 0 0-.29-.29h-.279v.1a.174.174 0 0 1-.348 0v-.1h-1.118v.1a.174.174 0 0 1-.348 0zm.348-.348h1.118v-.29a.174.174 0 1 1 .348 0v.29h.279a.638.638 0 0 1 .638.638v2.142a.638.638 0 0 1-.638.638h-2.372a.638.638 0 0 1-.638-.638V39.02a.638.638 0 0 1 .638-.638h.279v-.29a.174.174 0 1 1 .348 0zm-.921 1.351v1.429a.29.29 0 0 0 .29.29h2.376a.29.29 0 0 0 .29-.29v-1.429z" fill="#6f6f6f"/><text transform="translate(172.601 40.918)" fill="#6f6f6f" font-size="4.5" font-family="Roboto-Medium, Roboto" font-weight="500"><tspan x="0" y="0">.</tspan></text></g></g><g><text transform="translate(154 55.747)" fill="#2c2c2c" font-size="5" font-family="Roboto-Medium, Roboto" font-weight="500"><tspan x="0" y="0">Cras vitae elit volutpat, dapibus mi quis, cursus orci.</tspan></text><text transform="translate(158.768 63.918)" fill="#6f6f6f" font-size="3" font-family="Roboto-Regular, Roboto"><tspan x="0" y="0">Jon Doe</tspan></text><path d="M157.364 64.468a.187.187 0 1 1-.374 0v-.373a.561.561 0 0 0-.561-.561h-1.495a.561.561 0 0 0-.561.561v.373a.187.187 0 1 1-.373 0v-.373a.934.934 0 0 1 .934-.934h1.495a.934.934 0 0 1 .934.934zm-1.682-1.681a.934.934 0 1 1 .934-.935.934.934 0 0 1-.934.935zm0-.374a.561.561 0 1 0-.561-.561.561.561 0 0 0 .561.561z" fill="#6f6f6f"/><text transform="translate(182.187 63.918)" fill="#6f6f6f" font-size="3" font-family="Roboto-Regular, Roboto"><tspan x="0" y="0">June 19, 2021</tspan></text><path d="M178.054 61.73h-.279a.29.29 0 0 0-.29.29v.364h2.952v-.364a.29.29 0 0 0-.29-.29h-.279v.1a.174.174 0 0 1-.348 0v-.1h-1.118v.1a.174.174 0 0 1-.348 0zm.348-.348h1.118v-.29a.174.174 0 1 1 .348 0v.29h.279a.638.638 0 0 1 .638.638v2.142a.638.638 0 0 1-.638.638h-2.372a.638.638 0 0 1-.638-.638V62.02a.638.638 0 0 1 .638-.638h.279v-.29a.174.174 0 1 1 .348 0zm-.921 1.351v1.429a.29.29 0 0 0 .29.29h2.376a.29.29 0 0 0 .29-.29v-1.429z" fill="#6f6f6f"/><text transform="translate(172.601 63.918)" fill="#6f6f6f" font-size="4.5" font-family="Roboto-Medium, Roboto" font-weight="500"><tspan x="0" y="0">.</tspan></text></g><g><text transform="translate(154 79.747)" fill="#2c2c2c" font-size="5" font-family="Roboto-Medium, Roboto" font-weight="500"><tspan x="0" y="0">Proin nec bibendum neque. Suspendisse</tspan></text><text transform="translate(158.768 87.918)" fill="#6f6f6f" font-size="3" font-family="Roboto-Regular, Roboto"><tspan x="0" y="0">Jon Doe</tspan></text><path d="M157.364 88.468a.187.187 0 1 1-.374 0v-.373a.561.561 0 0 0-.561-.561h-1.495a.561.561 0 0 0-.561.561v.373a.187.187 0 1 1-.373 0v-.373a.934.934 0 0 1 .934-.934h1.495a.934.934 0 0 1 .934.934zm-1.682-1.681a.934.934 0 1 1 .934-.935.934.934 0 0 1-.934.935zm0-.374a.561.561 0 1 0-.561-.561.561.561 0 0 0 .561.561z" fill="#6f6f6f"/><text transform="translate(182.187 87.918)" fill="#6f6f6f" font-size="3" font-family="Roboto-Regular, Roboto"><tspan x="0" y="0">June 19, 2021</tspan></text><path d="M178.054 85.73h-.279a.29.29 0 0 0-.29.29v.364h2.952v-.364a.29.29 0 0 0-.29-.29h-.279v.1a.174.174 0 0 1-.348 0v-.1h-1.118v.1a.174.174 0 0 1-.348 0zm.348-.348h1.118v-.29a.174.174 0 1 1 .348 0v.29h.279a.638.638 0 0 1 .638.638v2.142a.638.638 0 0 1-.638.638h-2.372a.638.638 0 0 1-.638-.638V86.02a.638.638 0 0 1 .638-.638h.279v-.29a.174.174 0 1 1 .348 0zm-.921 1.351v1.429a.29.29 0 0 0 .29.29h2.376a.29.29 0 0 0 .29-.29v-1.429z" fill="#6f6f6f"/><text transform="translate(172.601 87.918)" fill="#6f6f6f" font-size="4.5" font-family="Roboto-Medium, Roboto" font-weight="500"><tspan x="0" y="0">.</tspan></text></g><g><text transform="translate(154 102.747)" fill="#2c2c2c" font-size="5" font-family="Roboto-Medium, Roboto" font-weight="500"><tspan x="0" y="0">Imperdiet bibendum dui. Mauris commodo neque in </tspan></text><text transform="translate(158.768 110.918)" fill="#6f6f6f" font-size="3" font-family="Roboto-Regular, Roboto"><tspan x="0" y="0">Jon Doe</tspan></text><path d="M157.364 111.468a.187.187 0 1 1-.374 0v-.373a.561.561 0 0 0-.561-.561h-1.495a.561.561 0 0 0-.561.561v.373a.187.187 0 1 1-.373 0v-.373a.934.934 0 0 1 .934-.934h1.495a.934.934 0 0 1 .934.934zm-1.682-1.681a.934.934 0 1 1 .934-.935.934.934 0 0 1-.934.935zm0-.374a.561.561 0 1 0-.561-.561.561.561 0 0 0 .561.561z" fill="#6f6f6f"/><text transform="translate(182.187 110.918)" fill="#6f6f6f" font-size="3" font-family="Roboto-Regular, Roboto"><tspan x="0" y="0">June 19, 2021</tspan></text><path d="M178.054 108.73h-.279a.29.29 0 0 0-.29.29v.364h2.952v-.364a.29.29 0 0 0-.29-.29h-.279v.1a.174.174 0 0 1-.348 0v-.1h-1.118v.1a.174.174 0 0 1-.348 0zm.348-.348h1.118v-.29a.174.174 0 1 1 .348 0v.29h.279a.638.638 0 0 1 .638.638v2.142a.638.638 0 0 1-.638.638h-2.372a.638.638 0 0 1-.638-.638v-2.142a.638.638 0 0 1 .638-.638h.279v-.29a.174.174 0 1 1 .348 0zm-.921 1.351v1.429a.29.29 0 0 0 .29.29h2.376a.29.29 0 0 0 .29-.29v-1.429z" fill="#6f6f6f"/><text transform="translate(172.601 110.918)" fill="#6f6f6f" font-size="4.5" font-family="Roboto-Medium, Roboto" font-weight="500"><tspan x="0" y="0">.</tspan></text></g><g transform="translate(-2764 -4069)"><path fill="#919191" d="M2764 4069h145.552v140.604H2764z"/><path d="M2909.55 4169.344v40.273l-145.549.047v-61.766l38.007-38.007a8.4 8.4 0 0 1 11.875 0l16.761 16.761a8.4 8.4 0 0 0 11.877 0l5.656-5.659a8.4 8.4 0 0 1 11.877 0z" fill="#848484"/><circle cx="13.302" cy="13.302" r="13.302" transform="translate(2871.688 4080.829)" fill="#848484"/><path transform="translate(2764 4069)" fill="url(#a)" d="M0 0h145.552v140.604H0z"/><g transform="translate(2770 4147.467)"><rect width="18" height="7" rx="1" fill="#2c2c2c"/><text transform="translate(5 5)" fill="#fff" font-size="3" font-family="Roboto-Regular, Roboto" style="isolation:isolate"><tspan x="0" y="0">FOOD</tspan></text></g><text transform="translate(2770 4165)" fill="#fff" font-size="7" font-family="Roboto-Medium, Roboto" font-weight="500"><tspan x="0" y="0">Fusce veit metus, sodales vita portitor </tspan><tspan x="0" y="7">quis, interdum</tspan></text><text transform="translate(2829.931 4181.006)" fill="#fff" font-size="3" font-family="Roboto-Regular, Roboto"><tspan x="0" y="0">12 Minute Read</tspan></text><path d="M2827.747 4178.832h-2.978a.5.5 0 1 1 0-1h2.979a.134.134 0 0 0 0-.268h-2.979a.771.771 0 0 0-.769.766v3.351a.771.771 0 0 0 .769.769h2.979a.134.134 0 0 0 .134-.134v-3.355a.135.135 0 0 0-.135-.134zm-.134 3.35-2.844-.005a.5.5 0 0 1-.5-.5v-2.763a.768.768 0 0 0 .5.186h2.844z" fill="#fff"/><path d="M2824.812 4178.209a.134.134 0 1 0 0 .268h2.516a.134.134 0 1 0 0-.268zM2825.283 4181.596a.144.144 0 0 0 .045.008.133.133 0 0 0 .126-.089l.163-.456h.645l.163.457a.134.134 0 0 0 .126.089.144.144 0 0 0 .045-.008.134.134 0 0 0 .081-.171l-.61-1.711a.061.061 0 0 0-.005-.012l-.006-.012a.042.042 0 0 1 0-.007l-.005-.006-.005-.005-.005-.005-.006-.005H2826.017l-.012-.005H2825.917l-.012.005-.012.006h-.007l-.006.005-.005.005-.005.005-.005.006v.006l-.006.012a.064.064 0 0 0-.005.012l-.612 1.711a.139.139 0 0 0 .084.172zm.658-1.439.227.634h-.454l.228-.634z" fill="#fff"/><g fill="#fff"><text transform="translate(2776.274 4181.008)" font-size="3" font-family="Roboto-Regular, Roboto"><tspan x="0" y="0">Jon Doe</tspan></text><path d="M2774.426 4182.221a.246.246 0 1 1-.492 0v-.492a.738.738 0 0 0-.734-.738h-1.971a.738.738 0 0 0-.738.738v.492a.246.246 0 1 1-.492 0v-.492a1.23 1.23 0 0 1 1.23-1.229h1.971a1.23 1.23 0 0 1 1.226 1.229zm-2.213-2.213a1.229 1.229 0 1 1 1.229-1.23 1.23 1.23 0 0 1-1.229 1.23zm0-.492a.738.738 0 1 0-.738-.738.738.738 0 0 0 .738.738z"/></g><g><text transform="translate(2799.645 4180.898)" fill="#fff" font-size="3" font-family="Roboto-Regular, Roboto"><tspan x="0" y="0">June 19, 2021</tspan></text><path d="M2794.206 4178.414h-.362a.381.381 0 0 0-.382.382v.479h3.882v-.48a.381.381 0 0 0-.382-.382h-.368v.126a.229.229 0 0 1-.458 0v-.125h-1.472v.125a.229.229 0 0 1-.458 0zm.458-.458h1.472v-.382a.229.229 0 1 1 .458 0v.382h.367a.839.839 0 0 1 .84.84v2.814a.839.839 0 0 1-.84.84h-3.117a.839.839 0 0 1-.84-.84v-2.815a.839.839 0 0 1 .84-.839h.367v-.382a.229.229 0 1 1 .458 0zm-1.206 1.777v1.877a.381.381 0 0 0 .386.379h3.116a.381.381 0 0 0 .384-.379v-1.877z" fill="#fff"/></g><text transform="translate(2789 4180.467)" fill="#fff" font-size="4" font-family="Roboto-Regular, Roboto"><tspan x="0" y="0">.</tspan></text><text transform="translate(2821 4180.467)" fill="#fff" font-size="4" font-family="Roboto-Regular, Roboto"><tspan x="0" y="0">.</tspan></text><text transform="translate(2770 4193)" fill="#fff" font-size="4" font-family="Roboto-Regular, Roboto"><tspan x="0" y="4">Fusce velit metus, sodales vitae porttitor quis, interdum in quam. Proin </tspan><tspan x="0" y="9.5">mollis justo non neque dapibus…</tspan></text></g></svg>