<svg xmlns="http://www.w3.org/2000/svg" width="280" height="150.359"><path fill="#919191" d="M0 0h144.667v96.649H0z"/><path d="M0 79.837v16.812h144.667v-4.744l-28.013-28.014a10.664 10.664 0 0 0-15.081 0l-10.3 10.3a10.664 10.664 0 0 1-15.081 0L48.456 46.464a10.664 10.664 0 0 0-15.081 0zM114.848 15.875A16.225 16.225 0 1 1 98.623 32.1a16.225 16.225 0 0 1 16.225-16.225z" fill="#848484"/><text transform="translate(0 113.716)" fill="#2c2c2c" font-size="8" font-family="Roboto-Medium, Roboto" font-weight="500"><tspan x="0" y="0">Fusce veit metus, sodales vita portitor </tspan><tspan x="0" y="9">Nulla quis, interdum</tspan></text><text transform="translate(59.931 132.788)" fill="#6f6f6f" font-size="3" font-family="Roboto-Regular, Roboto"><tspan x="0" y="0">12 Minute Read</tspan></text><path d="M57.747 130.614h-2.978a.5.5 0 1 1 0-1h2.979a.134.134 0 0 0 0-.268h-2.979a.771.771 0 0 0-.769.766v3.351a.771.771 0 0 0 .769.769h2.979a.134.134 0 0 0 .134-.134v-3.355a.135.135 0 0 0-.135-.134zm-.134 3.35-2.844-.005a.5.5 0 0 1-.5-.5v-2.763a.768.768 0 0 0 .5.186h2.844z" fill="#6f6f6f"/><path d="M54.812 129.991a.134.134 0 1 0 0 .268h2.516a.134.134 0 1 0 0-.268zM55.283 133.378a.144.144 0 0 0 .045.008.133.133 0 0 0 .126-.089l.163-.456h.645l.163.457a.134.134 0 0 0 .126.089.144.144 0 0 0 .045-.008.134.134 0 0 0 .081-.171l-.61-1.711a.061.061 0 0 0-.005-.012l-.006-.012a.042.042 0 0 1 0-.007l-.005-.006-.005-.005-.005-.005-.006-.005H56.017l-.012-.005H55.917l-.012.005-.012.006h-.007l-.006.005-.005.005-.005.005-.005.006v.006l-.006.012a.064.064 0 0 0-.005.012l-.612 1.711a.139.139 0 0 0 .084.172zm.658-1.439.227.634h-.454l.228-.634z" fill="#6f6f6f"/><g fill="#6f6f6f"><text transform="translate(6.274 132.79)" font-size="3" font-family="Roboto-Regular, Roboto"><tspan x="0" y="0">Jon Doe</tspan></text><path d="M4.426 134.003a.246.246 0 1 1-.492 0v-.492a.738.738 0 0 0-.734-.738H1.229a.738.738 0 0 0-.738.738v.492a.246.246 0 1 1-.492 0v-.492a1.23 1.23 0 0 1 1.23-1.229H3.2a1.23 1.23 0 0 1 1.226 1.229zm-2.213-2.213a1.229 1.229 0 1 1 1.229-1.23 1.23 1.23 0 0 1-1.229 1.23zm0-.492a.738.738 0 1 0-.738-.738.738.738 0 0 0 .738.738z"/></g><text transform="translate(29.645 132.68)" fill="#6f6f6f" font-size="3" font-family="Roboto-Regular, Roboto"><tspan x="0" y="0">June 19, 2021</tspan></text><path d="M24.206 130.196h-.362a.381.381 0 0 0-.382.382v.479h3.882v-.48a.381.381 0 0 0-.382-.382h-.368v.126a.229.229 0 0 1-.458 0v-.125h-1.472v.125a.229.229 0 0 1-.458 0zm.458-.458h1.472v-.382a.229.229 0 1 1 .458 0v.382h.367a.839.839 0 0 1 .84.84v2.814a.839.839 0 0 1-.84.84h-3.117a.839.839 0 0 1-.84-.84v-2.815a.839.839 0 0 1 .84-.839h.367v-.382a.229.229 0 1 1 .458 0zm-1.206 1.777v1.877a.381.381 0 0 0 .386.379h3.116a.381.381 0 0 0 .384-.379v-1.877z" fill="#6f6f6f"/><text transform="translate(19 132.249)" fill="#6f6f6f" font-size="4" font-family="Roboto-Regular, Roboto"><tspan x="0" y="0">.</tspan></text><text transform="translate(51 132.249)" fill="#6f6f6f" font-size="4" font-family="Roboto-Regular, Roboto"><tspan x="0" y="0">.</tspan></text><text transform="translate(0 139.36)" fill="#505050" font-size="4" font-family="Roboto-Regular, Roboto"><tspan x="0" y="4">Fusce velit metus, sodales vitae porttitor quis, interdum in quam.</tspan><tspan y="4" font-family="Roboto-Bold, Roboto" font-weight="700"> </tspan><tspan y="4">Proin mollis</tspan><tspan x="0" y="9.5">Proin mollis justo non neque dapibus…</tspan></text><g style="isolation:isolate"><text transform="translate(0 103.183)" fill="#43a8ff" font-size="4" font-family="Roboto-Regular, Roboto" style="isolation:isolate"><tspan x="0" y="0">Lifestyle</tspan></text></g><g><text transform="translate(154 5)" fill="#2c2c2c" font-size="5" font-family="Roboto-Medium, Roboto" font-weight="500"><tspan x="0" y="0">Nulla non maximus tellllus, varius aliquam lorem.</tspan></text><text transform="translate(158.768 13.171)" fill="#6f6f6f" font-size="3" font-family="Roboto-Regular, Roboto"><tspan x="0" y="0">Jon Doe</tspan></text><path d="M157.364 13.721a.187.187 0 1 1-.374 0v-.373a.561.561 0 0 0-.561-.561h-1.495a.561.561 0 0 0-.561.561v.373a.187.187 0 1 1-.373 0v-.373a.934.934 0 0 1 .934-.934h1.495a.934.934 0 0 1 .934.934zm-1.682-1.681a.934.934 0 1 1 .934-.935.934.934 0 0 1-.934.935zm0-.374a.561.561 0 1 0-.561-.561.561.561 0 0 0 .561.561z" fill="#6f6f6f"/><text transform="translate(182.187 13.171)" fill="#6f6f6f" font-size="3" font-family="Roboto-Regular, Roboto"><tspan x="0" y="0">June 19, 2021</tspan></text><path d="M178.054 10.983h-.279a.29.29 0 0 0-.29.29v.364h2.952v-.364a.29.29 0 0 0-.29-.29h-.279v.1a.174.174 0 0 1-.348 0v-.1h-1.118v.1a.174.174 0 0 1-.348 0zm.348-.348h1.118v-.29a.174.174 0 1 1 .348 0v.29h.279a.638.638 0 0 1 .638.638v2.142a.638.638 0 0 1-.638.638h-2.372a.638.638 0 0 1-.638-.638v-2.142a.638.638 0 0 1 .638-.638h.279v-.29a.174.174 0 1 1 .348 0zm-.921 1.351v1.429a.29.29 0 0 0 .29.29h2.376a.29.29 0 0 0 .29-.29v-1.429z" fill="#6f6f6f"/><text transform="translate(172.601 13.171)" fill="#6f6f6f" font-size="4.5" font-family="Roboto-Medium, Roboto" font-weight="500"><tspan x="0" y="0">.</tspan></text></g><g><text transform="translate(154 122)" fill="#2c2c2c" font-size="5" font-family="Roboto-Medium, Roboto" font-weight="500"><tspan x="0" y="0">Nulla non maximus tellllus, varius aliquam lorem.</tspan></text><text transform="translate(158.768 130.171)" fill="#6f6f6f" font-size="3" font-family="Roboto-Regular, Roboto"><tspan x="0" y="0">Jon Doe</tspan></text><path d="M157.364 130.721a.187.187 0 1 1-.374 0v-.373a.561.561 0 0 0-.561-.561h-1.495a.561.561 0 0 0-.561.561v.373a.187.187 0 1 1-.373 0v-.373a.934.934 0 0 1 .934-.934h1.495a.934.934 0 0 1 .934.934zm-1.682-1.681a.934.934 0 1 1 .934-.935.934.934 0 0 1-.934.935zm0-.374a.561.561 0 1 0-.561-.561.561.561 0 0 0 .561.561z" fill="#6f6f6f"/><text transform="translate(182.187 130.171)" fill="#6f6f6f" font-size="3" font-family="Roboto-Regular, Roboto"><tspan x="0" y="0">June 19, 2021</tspan></text><path d="M178.054 127.983h-.279a.29.29 0 0 0-.29.29v.364h2.952v-.364a.29.29 0 0 0-.29-.29h-.279v.1a.174.174 0 0 1-.348 0v-.1h-1.118v.1a.174.174 0 0 1-.348 0zm.348-.348h1.118v-.29a.174.174 0 1 1 .348 0v.29h.279a.638.638 0 0 1 .638.638v2.142a.638.638 0 0 1-.638.638h-2.372a.638.638 0 0 1-.638-.638v-2.142a.638.638 0 0 1 .638-.638h.279v-.29a.174.174 0 1 1 .348 0zm-.921 1.351v1.429a.29.29 0 0 0 .29.29h2.376a.29.29 0 0 0 .29-.29v-1.429z" fill="#6f6f6f"/><text transform="translate(172.601 130.171)" fill="#6f6f6f" font-size="4.5" font-family="Roboto-Medium, Roboto" font-weight="500"><tspan x="0" y="0">.</tspan></text></g><g><text transform="translate(154 28)" fill="#2c2c2c" font-size="5" font-family="Roboto-Medium, Roboto" font-weight="500"><tspan x="0" y="0">Sed vitae sapien lacus. Phasellus pharetra nunc facilisis</tspan></text><text transform="translate(158.768 36.171)" fill="#6f6f6f" font-size="3" font-family="Roboto-Regular, Roboto"><tspan x="0" y="0">Jon Doe</tspan></text><path d="M157.364 36.721a.187.187 0 1 1-.374 0v-.373a.561.561 0 0 0-.561-.561h-1.495a.561.561 0 0 0-.561.561v.373a.187.187 0 1 1-.373 0v-.373a.934.934 0 0 1 .934-.934h1.495a.934.934 0 0 1 .934.934zm-1.682-1.681a.934.934 0 1 1 .934-.935.934.934 0 0 1-.934.935zm0-.374a.561.561 0 1 0-.561-.561.561.561 0 0 0 .561.561z" fill="#6f6f6f"/><text transform="translate(182.187 36.171)" fill="#6f6f6f" font-size="3" font-family="Roboto-Regular, Roboto"><tspan x="0" y="0">June 19, 2021</tspan></text><path d="M178.054 33.983h-.279a.29.29 0 0 0-.29.29v.364h2.952v-.364a.29.29 0 0 0-.29-.29h-.279v.1a.174.174 0 0 1-.348 0v-.1h-1.118v.1a.174.174 0 0 1-.348 0zm.348-.348h1.118v-.29a.174.174 0 1 1 .348 0v.29h.279a.638.638 0 0 1 .638.638v2.142a.638.638 0 0 1-.638.638h-2.372a.638.638 0 0 1-.638-.638v-2.142a.638.638 0 0 1 .638-.638h.279v-.29a.174.174 0 1 1 .348 0zm-.921 1.351v1.429a.29.29 0 0 0 .29.29h2.376a.29.29 0 0 0 .29-.29v-1.429z" fill="#6f6f6f"/><text transform="translate(172.601 36.171)" fill="#6f6f6f" font-size="4.5" font-family="Roboto-Medium, Roboto" font-weight="500"><tspan x="0" y="0">.</tspan></text><g><text transform="translate(158.768 36.171)" fill="#6f6f6f" font-size="3" font-family="Roboto-Regular, Roboto"><tspan x="0" y="0">Jon Doe</tspan></text><path d="M157.364 36.721a.187.187 0 1 1-.374 0v-.373a.561.561 0 0 0-.561-.561h-1.495a.561.561 0 0 0-.561.561v.373a.187.187 0 1 1-.373 0v-.373a.934.934 0 0 1 .934-.934h1.495a.934.934 0 0 1 .934.934zm-1.682-1.681a.934.934 0 1 1 .934-.935.934.934 0 0 1-.934.935zm0-.374a.561.561 0 1 0-.561-.561.561.561 0 0 0 .561.561z" fill="#6f6f6f"/><text transform="translate(182.187 36.171)" fill="#6f6f6f" font-size="3" font-family="Roboto-Regular, Roboto"><tspan x="0" y="0">June 19, 2021</tspan></text><path d="M178.054 33.983h-.279a.29.29 0 0 0-.29.29v.364h2.952v-.364a.29.29 0 0 0-.29-.29h-.279v.1a.174.174 0 0 1-.348 0v-.1h-1.118v.1a.174.174 0 0 1-.348 0zm.348-.348h1.118v-.29a.174.174 0 1 1 .348 0v.29h.279a.638.638 0 0 1 .638.638v2.142a.638.638 0 0 1-.638.638h-2.372a.638.638 0 0 1-.638-.638v-2.142a.638.638 0 0 1 .638-.638h.279v-.29a.174.174 0 1 1 .348 0zm-.921 1.351v1.429a.29.29 0 0 0 .29.29h2.376a.29.29 0 0 0 .29-.29v-1.429z" fill="#6f6f6f"/><text transform="translate(172.601 36.171)" fill="#6f6f6f" font-size="4.5" font-family="Roboto-Medium, Roboto" font-weight="500"><tspan x="0" y="0">.</tspan></text></g></g><g><text transform="translate(154 51)" fill="#2c2c2c" font-size="5" font-family="Roboto-Medium, Roboto" font-weight="500"><tspan x="0" y="0">Cras vitae elit volutpat, dapibus mi quis, cursus orci.</tspan></text><text transform="translate(158.768 59.171)" fill="#6f6f6f" font-size="3" font-family="Roboto-Regular, Roboto"><tspan x="0" y="0">Jon Doe</tspan></text><path d="M157.364 59.721a.187.187 0 1 1-.374 0v-.373a.561.561 0 0 0-.561-.561h-1.495a.561.561 0 0 0-.561.561v.373a.187.187 0 1 1-.373 0v-.373a.934.934 0 0 1 .934-.934h1.495a.934.934 0 0 1 .934.934zm-1.682-1.681a.934.934 0 1 1 .934-.935.934.934 0 0 1-.934.935zm0-.374a.561.561 0 1 0-.561-.561.561.561 0 0 0 .561.561z" fill="#6f6f6f"/><text transform="translate(182.187 59.171)" fill="#6f6f6f" font-size="3" font-family="Roboto-Regular, Roboto"><tspan x="0" y="0">June 19, 2021</tspan></text><path d="M178.054 56.983h-.279a.29.29 0 0 0-.29.29v.364h2.952v-.364a.29.29 0 0 0-.29-.29h-.279v.1a.174.174 0 0 1-.348 0v-.1h-1.118v.1a.174.174 0 0 1-.348 0zm.348-.348h1.118v-.29a.174.174 0 1 1 .348 0v.29h.279a.638.638 0 0 1 .638.638v2.142a.638.638 0 0 1-.638.638h-2.372a.638.638 0 0 1-.638-.638v-2.142a.638.638 0 0 1 .638-.638h.279v-.29a.174.174 0 1 1 .348 0zm-.921 1.351v1.429a.29.29 0 0 0 .29.29h2.376a.29.29 0 0 0 .29-.29v-1.429z" fill="#6f6f6f"/><text transform="translate(172.601 59.171)" fill="#6f6f6f" font-size="4.5" font-family="Roboto-Medium, Roboto" font-weight="500"><tspan x="0" y="0">.</tspan></text></g><g><text transform="translate(154 75)" fill="#2c2c2c" font-size="5" font-family="Roboto-Medium, Roboto" font-weight="500"><tspan x="0" y="0">Proin nec bibendum neque. Suspendisse</tspan></text><text transform="translate(158.768 83.171)" fill="#6f6f6f" font-size="3" font-family="Roboto-Regular, Roboto"><tspan x="0" y="0">Jon Doe</tspan></text><path d="M157.364 83.721a.187.187 0 1 1-.374 0v-.373a.561.561 0 0 0-.561-.561h-1.495a.561.561 0 0 0-.561.561v.373a.187.187 0 1 1-.373 0v-.373a.934.934 0 0 1 .934-.934h1.495a.934.934 0 0 1 .934.934zm-1.682-1.681a.934.934 0 1 1 .934-.935.934.934 0 0 1-.934.935zm0-.374a.561.561 0 1 0-.561-.561.561.561 0 0 0 .561.561z" fill="#6f6f6f"/><text transform="translate(182.187 83.171)" fill="#6f6f6f" font-size="3" font-family="Roboto-Regular, Roboto"><tspan x="0" y="0">June 19, 2021</tspan></text><path d="M178.054 80.983h-.279a.29.29 0 0 0-.29.29v.364h2.952v-.364a.29.29 0 0 0-.29-.29h-.279v.1a.174.174 0 0 1-.348 0v-.1h-1.118v.1a.174.174 0 0 1-.348 0zm.348-.348h1.118v-.29a.174.174 0 1 1 .348 0v.29h.279a.638.638 0 0 1 .638.638v2.142a.638.638 0 0 1-.638.638h-2.372a.638.638 0 0 1-.638-.638v-2.142a.638.638 0 0 1 .638-.638h.279v-.29a.174.174 0 1 1 .348 0zm-.921 1.351v1.429a.29.29 0 0 0 .29.29h2.376a.29.29 0 0 0 .29-.29v-1.429z" fill="#6f6f6f"/><text transform="translate(172.601 83.171)" fill="#6f6f6f" font-size="4.5" font-family="Roboto-Medium, Roboto" font-weight="500"><tspan x="0" y="0">.</tspan></text></g><g><text transform="translate(154 98)" fill="#2c2c2c" font-size="5" font-family="Roboto-Medium, Roboto" font-weight="500"><tspan x="0" y="0">Imperdiet bibendum dui. Mauris commodo neque in </tspan></text><text transform="translate(158.768 106.171)" fill="#6f6f6f" font-size="3" font-family="Roboto-Regular, Roboto"><tspan x="0" y="0">Jon Doe</tspan></text><path d="M157.364 106.721a.187.187 0 1 1-.374 0v-.373a.561.561 0 0 0-.561-.561h-1.495a.561.561 0 0 0-.561.561v.373a.187.187 0 1 1-.373 0v-.373a.934.934 0 0 1 .934-.934h1.495a.934.934 0 0 1 .934.934zm-1.682-1.681a.934.934 0 1 1 .934-.935.934.934 0 0 1-.934.935zm0-.374a.561.561 0 1 0-.561-.561.561.561 0 0 0 .561.561z" fill="#6f6f6f"/><text transform="translate(182.187 106.171)" fill="#6f6f6f" font-size="3" font-family="Roboto-Regular, Roboto"><tspan x="0" y="0">June 19, 2021</tspan></text><path d="M178.054 103.983h-.279a.29.29 0 0 0-.29.29v.364h2.952v-.364a.29.29 0 0 0-.29-.29h-.279v.1a.174.174 0 0 1-.348 0v-.1h-1.118v.1a.174.174 0 0 1-.348 0zm.348-.348h1.118v-.29a.174.174 0 1 1 .348 0v.29h.279a.638.638 0 0 1 .638.638v2.142a.638.638 0 0 1-.638.638h-2.372a.638.638 0 0 1-.638-.638v-2.142a.638.638 0 0 1 .638-.638h.279v-.29a.174.174 0 1 1 .348 0zm-.921 1.351v1.429a.29.29 0 0 0 .29.29h2.376a.29.29 0 0 0 .29-.29v-1.429z" fill="#6f6f6f"/><text transform="translate(172.601 106.171)" fill="#6f6f6f" font-size="4.5" font-family="Roboto-Medium, Roboto" font-weight="500"><tspan x="0" y="0">.</tspan></text></g></svg>