<svg xmlns="http://www.w3.org/2000/svg" width="280" height="200.684"><path fill="#919191" d="M0 75.584h137v59.1H0z"/><path d="M0 119.296v15.386h137L106.771 104.7a9.76 9.76 0 0 0-13.8 0l-9.435 9.431a9.76 9.76 0 0 1-13.8 0L44.351 88.749a9.76 9.76 0 0 0-13.8 0zm120.713-36.552a8.37 8.37 0 1 1-8.37 8.37 8.37 8.37 0 0 1 8.37-8.37z" fill="#848484"/><path fill="rgba(87,255,138,0.26)" d="M0 75.151h137v59H0z"/><path fill="#919191" d="M143 141.584h137v59.1H143z"/><path d="M143 185.296v15.386h137L249.771 170.7a9.76 9.76 0 0 0-13.8 0l-9.435 9.431a9.76 9.76 0 0 1-13.8 0l-25.385-25.382a9.76 9.76 0 0 0-13.8 0zm120.713-36.552a8.37 8.37 0 1 1-8.37 8.37 8.37 8.37 0 0 1 8.37-8.37z" fill="#848484"/><path fill="rgba(87,255,138,0.26)" d="M143 141.151h137v59H143z"/><path fill="#919191" d="M143 75.584h137v59.1H143z"/><path d="M143 119.296v15.386h137L249.771 104.7a9.76 9.76 0 0 0-13.8 0l-9.435 9.431a9.76 9.76 0 0 1-13.8 0l-25.385-25.382a9.76 9.76 0 0 0-13.8 0zm120.713-36.552a8.37 8.37 0 1 1-8.37 8.37 8.37 8.37 0 0 1 8.37-8.37z" fill="#848484"/><path fill="rgba(20,210,255,0.26)" d="M143 75.151h137v59H143z"/><path fill="#919191" d="M0 141.584h137v59.1H0z"/><path d="M0 185.296v15.386h137L106.771 170.7a9.76 9.76 0 0 0-13.8 0l-9.435 9.431a9.76 9.76 0 0 1-13.8 0l-25.385-25.382a9.76 9.76 0 0 0-13.8 0zm120.713-36.552a8.37 8.37 0 1 1-8.37 8.37 8.37 8.37 0 0 1 8.37-8.37z" fill="#848484"/><path fill="rgba(255,20,20,0.26)" d="M0 141.151h137v59H0z"/><path fill="#919191" d="M0 0h280v69.684H0z"/><path d="M0 53.959v15.725h140l-30.891-30.64a9.974 9.974 0 0 0-14.106 0l-9.638 9.638a9.974 9.974 0 0 1-14.106 0L45.326 22.744a9.974 9.974 0 0 0-14.106 0zm214.642-36.864a13.019 13.019 0 1 1-13.019 13.019 13.019 13.019 0 0 1 13.019-13.019z" fill="#848484"/><path fill="rgba(255,20,165,0.26)" d="M0 .151h280v69H0z"/><g transform="translate(-22 -2244.849)"><rect width="18" height="7" rx="1" transform="translate(31 2274)" fill="#2c2c2c"/><text transform="translate(34 2279)" fill="#fff" font-size="3" font-family="Roboto-Regular, Roboto" style="isolation:isolate"><tspan x="0" y="0">FASHION</tspan></text></g><text transform="translate(9 49.151)" fill="#fff" font-size="8" font-family="Roboto-Medium, Roboto" font-weight="500"><tspan x="0" y="0">Fusce velit metus, sodales vita porttitor quis, interdum in quam</tspan></text><g transform="translate(-26 -2177.849)"><rect width="18" height="7" rx="1" transform="translate(31 2274)" fill="#2c2c2c"/><text transform="translate(33 2279)" fill="#fff" font-size="3" font-family="Roboto-Regular, Roboto" style="isolation:isolate"><tspan x="0" y="0">PERSONAL</tspan></text></g><g transform="translate(117 -2111.849)"><rect width="18" height="7" rx="1" transform="translate(31 2274)" fill="#2c2c2c"/><text transform="translate(36 2279)" fill="#fff" font-size="3" font-family="Roboto-Regular, Roboto" style="isolation:isolate"><tspan x="0" y="0">FOOD</tspan></text></g><g transform="translate(117 -2177.849)"><rect width="18" height="7" rx="1" transform="translate(31 2274)" fill="#2c2c2c"/><text transform="translate(35 2279)" fill="#fff" font-size="3" font-family="Roboto-Regular, Roboto" style="isolation:isolate"><tspan x="0" y="0">HEALTH</tspan></text></g><g transform="translate(-26 -2111.849)"><rect width="18" height="7" rx="1" transform="translate(31 2274)" fill="#2c2c2c"/><text transform="translate(35 2279)" fill="#fff" font-size="3" font-family="Roboto-Regular, Roboto" style="isolation:isolate"><tspan x="0" y="0">TRAVEL</tspan></text></g><text transform="translate(5 113.151)" fill="#fff" font-size="6" font-family="Roboto-Medium, Roboto" font-weight="500"><tspan x="0" y="0">Nulla non maximus tellus, varius vitae </tspan><tspan x="0" y="7">porttito aliquam lorem</tspan></text><text transform="translate(148 179.151)" fill="#fff" font-size="6" font-family="Roboto-Medium, Roboto" font-weight="500"><tspan x="0" y="0">Nulla non maximus tellus, varius vitae </tspan><tspan x="0" y="7">porttito aliquam lorem</tspan></text><text transform="translate(148 113.151)" fill="#fff" font-size="6" font-family="Roboto-Medium, Roboto" font-weight="500"><tspan x="0" y="0">Cras vitae elit volutpat, dapibus mi quis, </tspan><tspan x="0" y="7">cursus orci. Ut tristique</tspan></text><text transform="translate(5 179.151)" fill="#fff" font-size="6" font-family="Roboto-Medium, Roboto" font-weight="500"><tspan x="0" y="0">Cras vitae elit volutpat, dapibus mi quis, </tspan><tspan x="0" y="7">cursus orci. Ut tristique</tspan></text><g fill="#fff"><text transform="translate(9.768 127.151)" font-size="3" font-family="Roboto-Regular, Roboto"><tspan x="0" y="0">Jon Doe</tspan></text><path d="M8.364 127.701a.187.187 0 1 1-.374 0v-.373a.561.561 0 0 0-.561-.561H5.934a.561.561 0 0 0-.561.561v.373a.187.187 0 1 1-.373 0v-.373a.934.934 0 0 1 .934-.934h1.495a.934.934 0 0 1 .934.934zm-1.682-1.681a.934.934 0 1 1 .934-.935.934.934 0 0 1-.934.935zm0-.374a.561.561 0 1 0-.561-.561.561.561 0 0 0 .561.561z"/><text transform="translate(33.187 127.151)" font-size="3" font-family="Roboto-Regular, Roboto"><tspan x="0" y="0">June 19, 2021</tspan></text><path d="M29.054 124.963h-.279a.29.29 0 0 0-.29.29v.364h2.952v-.364a.29.29 0 0 0-.29-.29h-.279v.1a.174.174 0 0 1-.348 0v-.1h-1.118v.1a.174.174 0 0 1-.348 0zm.348-.348h1.118v-.29a.174.174 0 1 1 .348 0v.29h.279a.638.638 0 0 1 .638.638v2.142a.638.638 0 0 1-.638.638h-2.372a.638.638 0 0 1-.638-.638v-2.142a.638.638 0 0 1 .638-.638h.279v-.29a.174.174 0 1 1 .348 0zm-.921 1.351v1.429a.29.29 0 0 0 .29.29h2.376a.29.29 0 0 0 .29-.29v-1.429z"/><text transform="translate(23.601 127.151)" font-size="4.5" font-family="Roboto-Medium, Roboto" font-weight="500"><tspan x="0" y="0">.</tspan></text></g><g fill="#fff"><text transform="translate(152.768 193.151)" font-size="3" font-family="Roboto-Regular, Roboto"><tspan x="0" y="0">Jon Doe</tspan></text><path d="M151.364 193.701a.187.187 0 1 1-.374 0v-.373a.561.561 0 0 0-.561-.561h-1.495a.561.561 0 0 0-.561.561v.373a.187.187 0 1 1-.373 0v-.373a.934.934 0 0 1 .934-.934h1.495a.934.934 0 0 1 .934.934zm-1.682-1.681a.934.934 0 1 1 .934-.935.934.934 0 0 1-.934.935zm0-.374a.561.561 0 1 0-.561-.561.561.561 0 0 0 .561.561z"/><text transform="translate(176.187 193.151)" font-size="3" font-family="Roboto-Regular, Roboto"><tspan x="0" y="0">June 19, 2021</tspan></text><path d="M172.054 190.963h-.279a.29.29 0 0 0-.29.29v.364h2.952v-.364a.29.29 0 0 0-.29-.29h-.279v.1a.174.174 0 0 1-.348 0v-.1h-1.118v.1a.174.174 0 0 1-.348 0zm.348-.348h1.118v-.29a.174.174 0 1 1 .348 0v.29h.279a.638.638 0 0 1 .638.638v2.142a.638.638 0 0 1-.638.638h-2.372a.638.638 0 0 1-.638-.638v-2.142a.638.638 0 0 1 .638-.638h.279v-.29a.174.174 0 1 1 .348 0zm-.921 1.351v1.429a.29.29 0 0 0 .29.29h2.376a.29.29 0 0 0 .29-.29v-1.429z"/><text transform="translate(166.601 193.151)" font-size="4.5" font-family="Roboto-Medium, Roboto" font-weight="500"><tspan x="0" y="0">.</tspan></text></g><g fill="#fff"><text transform="translate(152.768 127.151)" font-size="3" font-family="Roboto-Regular, Roboto"><tspan x="0" y="0">Jon Doe</tspan></text><path d="M151.364 127.701a.187.187 0 1 1-.374 0v-.373a.561.561 0 0 0-.561-.561h-1.495a.561.561 0 0 0-.561.561v.373a.187.187 0 1 1-.373 0v-.373a.934.934 0 0 1 .934-.934h1.495a.934.934 0 0 1 .934.934zm-1.682-1.681a.934.934 0 1 1 .934-.935.934.934 0 0 1-.934.935zm0-.374a.561.561 0 1 0-.561-.561.561.561 0 0 0 .561.561z"/><text transform="translate(176.187 127.151)" font-size="3" font-family="Roboto-Regular, Roboto"><tspan x="0" y="0">June 19, 2021</tspan></text><path d="M172.054 124.963h-.279a.29.29 0 0 0-.29.29v.364h2.952v-.364a.29.29 0 0 0-.29-.29h-.279v.1a.174.174 0 0 1-.348 0v-.1h-1.118v.1a.174.174 0 0 1-.348 0zm.348-.348h1.118v-.29a.174.174 0 1 1 .348 0v.29h.279a.638.638 0 0 1 .638.638v2.142a.638.638 0 0 1-.638.638h-2.372a.638.638 0 0 1-.638-.638v-2.142a.638.638 0 0 1 .638-.638h.279v-.29a.174.174 0 1 1 .348 0zm-.921 1.351v1.429a.29.29 0 0 0 .29.29h2.376a.29.29 0 0 0 .29-.29v-1.429z"/><text transform="translate(166.601 127.151)" font-size="4.5" font-family="Roboto-Medium, Roboto" font-weight="500"><tspan x="0" y="0">.</tspan></text></g><g fill="#fff"><text transform="translate(9.768 193.151)" font-size="3" font-family="Roboto-Regular, Roboto"><tspan x="0" y="0">Jon Doe</tspan></text><path d="M8.364 193.701a.187.187 0 1 1-.374 0v-.373a.561.561 0 0 0-.561-.561H5.934a.561.561 0 0 0-.561.561v.373a.187.187 0 1 1-.373 0v-.373a.934.934 0 0 1 .934-.934h1.495a.934.934 0 0 1 .934.934zm-1.682-1.681a.934.934 0 1 1 .934-.935.934.934 0 0 1-.934.935zm0-.374a.561.561 0 1 0-.561-.561.561.561 0 0 0 .561.561z"/><text transform="translate(33.187 193.151)" font-size="3" font-family="Roboto-Regular, Roboto"><tspan x="0" y="0">June 19, 2021</tspan></text><path d="M29.054 190.963h-.279a.29.29 0 0 0-.29.29v.364h2.952v-.364a.29.29 0 0 0-.29-.29h-.279v.1a.174.174 0 0 1-.348 0v-.1h-1.118v.1a.174.174 0 0 1-.348 0zm.348-.348h1.118v-.29a.174.174 0 1 1 .348 0v.29h.279a.638.638 0 0 1 .638.638v2.142a.638.638 0 0 1-.638.638h-2.372a.638.638 0 0 1-.638-.638v-2.142a.638.638 0 0 1 .638-.638h.279v-.29a.174.174 0 1 1 .348 0zm-.921 1.351v1.429a.29.29 0 0 0 .29.29h2.376a.29.29 0 0 0 .29-.29v-1.429z"/><text transform="translate(23.601 193.151)" font-size="4.5" font-family="Roboto-Medium, Roboto" font-weight="500"><tspan x="0" y="0">.</tspan></text></g><g fill="#fff"><text transform="translate(77.931 58.69)" font-size="3" font-family="Roboto-Regular, Roboto"><tspan x="0" y="0">12 Minute Read</tspan></text><path d="M75.747 56.516h-2.978a.5.5 0 1 1 0-1h2.979a.134.134 0 0 0 0-.268h-2.979a.771.771 0 0 0-.769.766v3.351a.771.771 0 0 0 .769.769h2.979a.134.134 0 0 0 .134-.134v-3.355a.135.135 0 0 0-.135-.134zm-.134 3.35-2.844-.005a.5.5 0 0 1-.5-.5v-2.763a.768.768 0 0 0 .5.186h2.844z"/><path d="M72.812 55.893a.134.134 0 1 0 0 .268h2.516a.134.134 0 1 0 0-.268zm.471 3.387a.144.144 0 0 0 .045.008.133.133 0 0 0 .126-.089l.163-.456h.645l.163.457a.134.134 0 0 0 .126.089.144.144 0 0 0 .045-.008.134.134 0 0 0 .081-.171l-.61-1.711a.061.061 0 0 0-.005-.012l-.006-.012a.042.042 0 0 1 0-.007l-.005-.006-.005-.005-.005-.005-.006-.005h-.018l-.012-.005h-.088l-.012.005-.012.006h-.007l-.006.005-.005.005-.005.005-.005.006v.006l-.006.012a.064.064 0 0 0-.005.012l-.612 1.711a.139.139 0 0 0 .084.172zm.658-1.439.227.634h-.454l.228-.634z"/><text transform="translate(15.274 58.692)" font-size="3" font-family="Roboto-Regular, Roboto"><tspan x="0" y="0">Jon Doe</tspan></text><path d="M13.426 59.905a.246.246 0 1 1-.492 0v-.492a.738.738 0 0 0-.734-.738h-1.971a.738.738 0 0 0-.738.738v.492a.246.246 0 1 1-.492 0v-.492a1.23 1.23 0 0 1 1.23-1.229H12.2a1.23 1.23 0 0 1 1.226 1.229zm-2.213-2.213a1.229 1.229 0 1 1 1.229-1.23 1.23 1.23 0 0 1-1.229 1.23zm0-.492a.738.738 0 1 0-.738-.738.738.738 0 0 0 .738.738z"/><text transform="translate(43.645 58.582)" font-size="3" font-family="Roboto-Regular, Roboto"><tspan x="0" y="0">June 19, 2021</tspan></text><path d="M38.206 56.098h-.362a.381.381 0 0 0-.382.382v.479h3.882v-.48a.381.381 0 0 0-.382-.382h-.368v.126a.229.229 0 0 1-.458 0v-.125h-1.472v.125a.229.229 0 0 1-.458 0zm.458-.458h1.472v-.382a.229.229 0 1 1 .458 0v.382h.367a.839.839 0 0 1 .84.84v2.814a.839.839 0 0 1-.84.84h-3.117a.839.839 0 0 1-.84-.84v-2.815a.839.839 0 0 1 .84-.839h.367v-.382a.229.229 0 1 1 .458 0zm-1.206 1.777v1.877a.381.381 0 0 0 .386.379h3.116a.381.381 0 0 0 .384-.379v-1.877z"/><text transform="translate(31 58.151)" font-size="4" font-family="Roboto-Regular, Roboto"><tspan x="0" y="0">.</tspan></text><text transform="translate(67 58.151)" font-size="4" font-family="Roboto-Regular, Roboto"><tspan x="0" y="0">.</tspan></text></g></svg>