<svg xmlns="http://www.w3.org/2000/svg" width="280.06" height="322"><text transform="translate(.004 20.469)" fill="#2f2f2f" font-size="10" font-family="Roboto-Medium, Roboto" font-weight="500" style="isolation:isolate"><tspan x="0" y="0">Maecenas ultricies lectus </tspan></text><text transform="translate(.004 182.482)" fill="#2f2f2f" font-size="10" font-family="Roboto-Medium, Roboto" font-weight="500" style="isolation:isolate"><tspan x="0" y="0">Tincidunt malesuada ipsum</tspan></text><text transform="translate(145.914 20.469)" fill="#2f2f2f" font-size="10" font-family="Roboto-Medium, Roboto" font-weight="500" style="isolation:isolate"><tspan x="0" y="0">Proin mollis justo non urna</tspan></text><text transform="translate(145.914 182.482)" fill="#2f2f2f" font-size="10" font-family="Roboto-Medium, Roboto" font-weight="500" style="isolation:isolate"><tspan x="0" y="0">Vestibulum accumsan</tspan></text><text transform="translate(0 6)" fill="#43a8ff" font-size="6" font-family="Roboto-Regular, Roboto" style="isolation:isolate"><tspan x="0" y="0">Lifestyle</tspan></text><text transform="translate(.003 167)" fill="#57a750" font-size="6" font-family="Roboto-Regular, Roboto" style="isolation:isolate"><tspan x="0" y="0">Health</tspan></text><text transform="translate(145.913 6)" fill="#cc43ff" font-size="6" font-family="Roboto-Regular, Roboto" style="isolation:isolate"><tspan x="0" y="0">Fashion</tspan></text><text transform="translate(145.913 167)" fill="#d66a6a" font-size="6" font-family="Roboto-Regular, Roboto" style="isolation:isolate"><tspan x="0" y="0">Travel</tspan></text><g style="isolation:isolate" fill="#464646" font-size="4.997"><text transform="translate(.003 113.934)" font-family="Lato-Regular, Lato" style="isolation:isolate"><tspan x="0" y="0">orems ipsum dolor sit amet, consectetur adipiscing elit. </tspan></text><text transform="translate(.003 121.929)" font-family="Roboto-Regular, Roboto" style="isolation:isolate"><tspan x="0" y="0">Maecenas ac elit ante. Quisque tellus…</tspan></text></g><g style="isolation:isolate" fill="#464646" font-size="4.997"><text transform="translate(.003 275.947)" font-family="Lato-Regular, Lato" style="isolation:isolate"><tspan x="0" y="0">orems ipsum dolor sit amet, consectetur adipiscing elit. </tspan></text><text transform="translate(.003 283.942)" font-family="Roboto-Regular, Roboto" style="isolation:isolate"><tspan x="0" y="0">Maecenas ac elit ante. Quisque tellus purus…</tspan></text></g><g style="isolation:isolate" fill="#464646" font-size="4.997"><text transform="translate(145.913 113.934)" font-family="Lato-Regular, Lato" style="isolation:isolate"><tspan x="0" y="0">orems ipsum dolor sit amet, consectetur adipiscing elit. </tspan></text><text transform="translate(145.913 121.929)" font-family="Roboto-Regular, Roboto" style="isolation:isolate"><tspan x="0" y="0">Maecenas ac elit ante. Quisque tellus…</tspan></text></g><g style="isolation:isolate" fill="#464646" font-size="4.997"><text transform="translate(145.913 275.947)" font-family="Lato-Regular, Lato" style="isolation:isolate"><tspan x="0" y="0">orems ipsum dolor sit amet, consectetur adipiscing elit. </tspan></text><text transform="translate(145.913 283.942)" font-family="Roboto-Regular, Roboto" style="isolation:isolate"><tspan x="0" y="0">Maecenas ac elit ante. Quisque…</tspan></text></g><path d="M133.918 149.669h-2v-.4h2zm-4 0h-2v-.4h2zm-4 0h-2v-.4h2zm-4 0h-2v-.4h2zm-4 0h-2v-.4h2zm-4 0h-2v-.4h2zm-4 0h-2v-.4h2zm-4 0h-2v-.4h2zm-4 0h-2v-.4h2zm-4 0h-2v-.4h2zm-4 0h-2v-.4h2zm-4 0h-2v-.4h2zm-4 0h-2v-.4h2zm-4 0h-2v-.4h2zm-4 0h-2v-.4h2zm-4 0h-2v-.4h2zm-4 0h-2v-.4h2zm-4 0h-2v-.4h2zm-4 0h-2v-.4h2zm-4 0h-2v-.4h2zm-4 0h-2v-.4h2zm-4 0h-2v-.4h2zm-4 0h-2v-.4h2zm-4 0h-2v-.4h2zm-4 0h-2v-.4h2zm-4 0h-2v-.4h2zm-4 0h-2v-.4h2zm-4 0h-2v-.4h2zm-4 0h-2v-.4h2zm-4 0h-2v-.4h2zm-4 0h-2v-.4h2zm-4 0h-2v-.4h2zm-4 0h-2v-.4h2zm-4 0h-2v-.4h2zM279.593 149.669h-2v-.4h2zm-4 0h-2v-.4h2zm-4 0h-2v-.4h2zm-4 0h-2v-.4h2zm-4 0h-2v-.4h2zm-4 0h-2v-.4h2zm-4 0h-2v-.4h2zm-4 0h-2v-.4h2zm-4 0h-2v-.4h2zm-4 0h-2v-.4h2zm-4 0h-2v-.4h2zm-4 0h-2v-.4h2zm-4 0h-2v-.4h2zm-4 0h-2v-.4h2zm-4 0h-2v-.4h2zm-4 0h-2v-.4h2zm-4 0h-2v-.4h2zm-4 0h-2v-.4h2zm-4 0h-2v-.4h2zm-4 0h-2v-.4h2zm-4 0h-2v-.4h2zm-4 0h-2v-.4h2zm-4 0h-2v-.4h2zm-4 0h-2v-.4h2zm-4 0h-2v-.4h2zm-4 0h-2v-.4h2zm-4 0h-2v-.4h2zm-4 0h-2v-.4h2zm-4 0h-2v-.4h2zm-4 0h-2v-.4h2zm-4 0h-2v-.4h2zm-4 0h-2v-.4h2zm-4 0h-2v-.4h2zm-4 0h-2v-.4h2z" fill="#b9b9b9"/><path fill="#919191" d="M0 37.137h134.15v65.317H0zM0 199.15h134.15v65.317H0zM145.91 37.137h134.15v65.317H145.91zM145.91 199.153h134.15v65.317H145.91z"/><path d="M0 86.864v15.59h134.15v-4.4l-25.977-25.977a9.889 9.889 0 0 0-13.985 0l-9.555 9.555a9.889 9.889 0 0 1-13.985 0L44.933 55.917a9.889 9.889 0 0 0-13.985 0zM0 248.877v15.59h134.15v-4.4l-25.977-25.977a9.889 9.889 0 0 0-13.985 0l-9.555 9.555a9.889 9.889 0 0 1-13.985 0L44.933 217.93a9.889 9.889 0 0 0-13.985 0zM145.91 86.864v15.59h134.15v-4.4l-25.977-25.977a9.889 9.889 0 0 0-13.985 0l-9.555 9.555a9.889 9.889 0 0 1-13.985 0l-25.715-25.715a9.889 9.889 0 0 0-13.985 0zM145.91 248.88v15.59h134.15v-4.4l-25.977-25.977a9.889 9.889 0 0 0-13.985 0l-9.555 9.555a9.889 9.889 0 0 1-13.985 0l-25.715-25.715a9.889 9.889 0 0 0-13.985 0zM99.673 45.599a8.219 8.219 0 1 1-8.219 8.219 8.219 8.219 0 0 1 8.219-8.219zM99.673 207.612a8.219 8.219 0 1 1-8.219 8.219 8.219 8.219 0 0 1 8.219-8.219zM245.583 45.599a8.219 8.219 0 1 1-8.219 8.219 8.219 8.219 0 0 1 8.219-8.219zM245.583 207.614a8.219 8.219 0 1 1-8.219 8.219 8.219 8.219 0 0 1 8.219-8.219z" fill="#848484"/><g transform="translate(-22 -39)"><rect width="34" height="10" rx="1" transform="translate(22 351)" fill="#2c2c2c"/><rect width="24" height="10" rx="1" transform="translate(94 351)" fill="#2c2c2c"/><rect width="10" height="10" rx="1" transform="translate(58 351)" fill="#2c2c2c"/><rect width="10" height="10" rx="1" transform="translate(70 351)" fill="#2c2c2c"/><rect width="10" height="10" rx="1" transform="translate(82 351)" fill="#2c2c2c"/><text transform="translate(32.237 358)" fill="#fff" font-size="5" font-family="Roboto-Regular, Roboto"><tspan x="0" y="0">Previous</tspan></text><path d="M28.86 354.5 27 356.36l1.86 1.86" fill="none" stroke="#fff" stroke-width=".5"/><text transform="translate(98 358)" fill="#fff" font-size="5" font-family="Roboto-Regular, Roboto"><tspan x="0" y="0">Next</tspan></text><path d="m111.377 354.5 1.86 1.86-1.86 1.86" fill="none" stroke="#fff" stroke-width=".5"/><text transform="translate(62 358)" fill="#fff" font-size="5" font-family="Roboto-Regular, Roboto"><tspan x="0" y="0">1</tspan></text><text transform="translate(74 358)" fill="#fff" font-size="5" font-family="Roboto-Regular, Roboto"><tspan x="0" y="0">2</tspan></text><text transform="translate(86 358)" fill="#fff" font-size="5" font-family="Roboto-Regular, Roboto"><tspan x="0" y="0">3</tspan></text></g><text transform="translate(86.428 192.671)" fill="#8d8d8d" font-size="5" font-family="Roboto-Regular, Roboto"><tspan x="0" y="0">12 Minute Read</tspan></text><g fill="#8d8d8d"><path d="M84.062 189.399h-3.228a.544.544 0 1 1 0-1.087h3.229a.145.145 0 0 0 0-.29h-3.229a.835.835 0 0 0-.834.833v3.632a.835.835 0 0 0 .834.834h3.229a.145.145 0 0 0 .145-.145v-3.632a.147.147 0 0 0-.146-.145zm-.145 3.632h-3.083a.544.544 0 0 1-.544-.544v-3a.832.832 0 0 0 .544.2h3.083z"/><path d="M80.88 188.723a.145.145 0 1 0 0 .29h2.727a.145.145 0 1 0 0-.29zM81.391 192.395a.156.156 0 0 0 .049.009.144.144 0 0 0 .136-.1l.177-.494h.7l.177.5a.145.145 0 0 0 .136.1.156.156 0 0 0 .049-.009.145.145 0 0 0 .087-.186l-.665-1.858a.066.066 0 0 0-.005-.013l-.007-.013a.047.047 0 0 1 0-.008l-.005-.007-.005-.005-.005-.005-.007-.005h-.021l-.013-.005H82.073l-.013.005-.013.007h-.008l-.007.005-.005.005-.005.005-.005.007v.007l-.007.013a.068.068 0 0 0-.005.013l-.664 1.855a.15.15 0 0 0 .091.187zm.713-1.56.246.688h-.492l.247-.688z"/></g><text transform="translate(6.801 192.671)" fill="#8d8d8d" font-size="5" font-family="Roboto-Regular, Roboto"><tspan x="0" y="0">Jon Doe</tspan></text><path d="M4.8 193.07a.267.267 0 1 1-.533 0v-.533a.8.8 0 0 0-.8-.8H1.333a.8.8 0 0 0-.8.8v.533a.267.267 0 1 1-.533 0v-.533a1.333 1.333 0 0 1 1.333-1.331h2.132a1.333 1.333 0 0 1 1.335 1.331zm-2.4-2.4a1.333 1.333 0 1 1 1.331-1.331 1.333 1.333 0 0 1-1.331 1.332zm0-.533a.8.8 0 1 0-.8-.8.8.8 0 0 0 .8.801z" fill="#8d8d8d"/><text transform="translate(40.203 192.671)" fill="#8d8d8d" font-size="5" font-family="Roboto-Regular, Roboto"><tspan x="0" y="0">June 19, 2021</tspan></text><path d="M34.307 189.062h-.4a.413.413 0 0 0-.414.414v.52h4.21v-.52a.413.413 0 0 0-.414-.414h-.4v.136a.25.25 0 0 1-.5 0v-.136h-1.585v.136a.25.25 0 0 1-.5 0zm.5-.5h1.6l-.003-.414a.25.25 0 1 1 .5 0v.418h.4a.91.91 0 0 1 .91.91v3.051a.91.91 0 0 1-.91.91H33.91a.91.91 0 0 1-.91-.91v-3.051a.91.91 0 0 1 .91-.91h.4v-.418a.25.25 0 1 1 .5 0zm-1.311 1.93v2.035a.413.413 0 0 0 .414.414h3.383a.413.413 0 0 0 .414-.414v-2.035z" fill="#8d8d8d"/><text transform="translate(29 191.671)" fill="#8d8d8d" font-size="5" font-family="Roboto-Regular, Roboto"><tspan x="0" y="0">.</tspan></text><text transform="translate(75 191.671)" fill="#8d8d8d" font-size="5" font-family="Roboto-Regular, Roboto"><tspan x="0" y="0">.</tspan></text><g><text transform="translate(86.428 30.655)" fill="#8d8d8d" font-size="5" font-family="Roboto-Regular, Roboto"><tspan x="0" y="0">12 Minute Read</tspan></text><g fill="#8d8d8d"><path d="M84.062 27.383h-3.228a.544.544 0 1 1 0-1.087h3.229a.145.145 0 0 0 0-.29h-3.229a.835.835 0 0 0-.834.833v3.632a.835.835 0 0 0 .834.834h3.229a.145.145 0 0 0 .145-.145v-3.632a.147.147 0 0 0-.146-.145zm-.145 3.632h-3.083a.544.544 0 0 1-.544-.544v-3a.832.832 0 0 0 .544.2h3.083z"/><path d="M80.88 26.707a.145.145 0 1 0 0 .29h2.727a.145.145 0 1 0 0-.29zM81.391 30.379a.156.156 0 0 0 .049.009.144.144 0 0 0 .136-.1l.177-.494h.7l.177.5a.145.145 0 0 0 .136.1.156.156 0 0 0 .049-.009.145.145 0 0 0 .087-.186l-.665-1.858a.066.066 0 0 0-.005-.013l-.007-.013a.047.047 0 0 1 0-.008l-.005-.007-.005-.005-.005-.005-.007-.005h-.021l-.013-.005H82.073l-.013.005-.013.007h-.008l-.007.005-.005.005-.005.005-.005.007v.007l-.007.013a.068.068 0 0 0-.005.013l-.664 1.855a.15.15 0 0 0 .091.187zm.713-1.56.246.688h-.492l.247-.688z"/></g><text transform="translate(6.801 30.655)" fill="#8d8d8d" font-size="5" font-family="Roboto-Regular, Roboto"><tspan x="0" y="0">Jon Doe</tspan></text><path d="M4.8 31.054a.267.267 0 1 1-.533 0v-.533a.8.8 0 0 0-.8-.8H1.333a.8.8 0 0 0-.8.8v.533a.267.267 0 1 1-.533 0v-.533a1.333 1.333 0 0 1 1.333-1.331h2.132A1.333 1.333 0 0 1 4.8 30.521zm-2.4-2.4a1.333 1.333 0 1 1 1.331-1.331A1.333 1.333 0 0 1 2.4 28.655zm0-.533a.8.8 0 1 0-.8-.8.8.8 0 0 0 .8.801z" fill="#8d8d8d"/><text transform="translate(40.203 30.655)" fill="#8d8d8d" font-size="5" font-family="Roboto-Regular, Roboto"><tspan x="0" y="0">June 19, 2021</tspan></text><path d="M34.307 27.046h-.4a.413.413 0 0 0-.414.414v.52h4.21v-.52a.413.413 0 0 0-.414-.414h-.4v.136a.25.25 0 0 1-.5 0v-.136h-1.585v.136a.25.25 0 0 1-.5 0zm.5-.5h1.6l-.003-.414a.25.25 0 1 1 .5 0v.418h.4a.91.91 0 0 1 .91.91v3.051a.91.91 0 0 1-.91.91H33.91a.91.91 0 0 1-.91-.91V27.46a.91.91 0 0 1 .91-.91h.4v-.418a.25.25 0 1 1 .5 0zm-1.311 1.93v2.035a.413.413 0 0 0 .414.414h3.383a.413.413 0 0 0 .414-.414v-2.035z" fill="#8d8d8d"/><text transform="translate(29 29.655)" fill="#8d8d8d" font-size="5" font-family="Roboto-Regular, Roboto"><tspan x="0" y="0">.</tspan></text><text transform="translate(75 29.655)" fill="#8d8d8d" font-size="5" font-family="Roboto-Regular, Roboto"><tspan x="0" y="0">.</tspan></text></g><g><text transform="translate(232.342 192.671)" fill="#8d8d8d" font-size="5" font-family="Roboto-Regular, Roboto"><tspan x="0" y="0">12 Minute Read</tspan></text><g fill="#8d8d8d"><path d="M229.976 189.399h-3.228a.544.544 0 1 1 0-1.087h3.229a.145.145 0 0 0 0-.29h-3.229a.835.835 0 0 0-.834.833v3.632a.835.835 0 0 0 .834.834h3.229a.145.145 0 0 0 .145-.145v-3.632a.147.147 0 0 0-.146-.145zm-.145 3.632h-3.083a.544.544 0 0 1-.544-.544v-3a.832.832 0 0 0 .544.2h3.083z"/><path d="M226.794 188.723a.145.145 0 1 0 0 .29h2.727a.145.145 0 1 0 0-.29zM227.305 192.395a.156.156 0 0 0 .049.009.144.144 0 0 0 .136-.1l.177-.494h.7l.177.5a.145.145 0 0 0 .136.1.156.156 0 0 0 .049-.009.145.145 0 0 0 .087-.186l-.665-1.858a.066.066 0 0 0-.005-.013l-.007-.013a.047.047 0 0 1 0-.008l-.005-.007-.005-.005-.005-.005-.007-.005h-.021l-.013-.005H227.987l-.013.005-.013.007h-.008l-.007.005-.005.005-.005.005-.005.007v.007l-.007.013a.068.068 0 0 0-.005.013l-.664 1.855a.15.15 0 0 0 .091.187zm.713-1.56.246.688h-.492l.247-.688z"/></g><text transform="translate(152.715 192.671)" fill="#8d8d8d" font-size="5" font-family="Roboto-Regular, Roboto"><tspan x="0" y="0">Jon Doe</tspan></text><path d="M150.714 193.07a.267.267 0 1 1-.533 0v-.533a.8.8 0 0 0-.8-.8h-2.134a.8.8 0 0 0-.8.8v.533a.267.267 0 1 1-.533 0v-.533a1.333 1.333 0 0 1 1.333-1.331h2.132a1.333 1.333 0 0 1 1.335 1.331zm-2.4-2.4a1.333 1.333 0 1 1 1.331-1.331 1.333 1.333 0 0 1-1.331 1.332zm0-.533a.8.8 0 1 0-.8-.8.8.8 0 0 0 .8.801z" fill="#8d8d8d"/><text transform="translate(186.117 192.671)" fill="#8d8d8d" font-size="5" font-family="Roboto-Regular, Roboto"><tspan x="0" y="0">June 19, 2021</tspan></text><path d="M180.221 189.062h-.4a.413.413 0 0 0-.414.414v.52h4.21v-.52a.413.413 0 0 0-.414-.414h-.4v.136a.25.25 0 0 1-.5 0v-.136h-1.585v.136a.25.25 0 0 1-.5 0zm.5-.5h1.6l-.003-.414a.25.25 0 1 1 .5 0v.418h.4a.91.91 0 0 1 .91.91v3.051a.91.91 0 0 1-.91.91h-3.394a.91.91 0 0 1-.91-.91v-3.051a.91.91 0 0 1 .91-.91h.4v-.418a.25.25 0 1 1 .5 0zm-1.311 1.93v2.035a.413.413 0 0 0 .414.414h3.383a.413.413 0 0 0 .414-.414v-2.035z" fill="#8d8d8d"/><text transform="translate(174.914 191.671)" fill="#8d8d8d" font-size="5" font-family="Roboto-Regular, Roboto"><tspan x="0" y="0">.</tspan></text><text transform="translate(220.914 191.671)" fill="#8d8d8d" font-size="5" font-family="Roboto-Regular, Roboto"><tspan x="0" y="0">.</tspan></text></g><g><text transform="translate(232.342 30.655)" fill="#8d8d8d" font-size="5" font-family="Roboto-Regular, Roboto"><tspan x="0" y="0">12 Minute Read</tspan></text><g fill="#8d8d8d"><path d="M229.976 27.383h-3.228a.544.544 0 1 1 0-1.087h3.229a.145.145 0 0 0 0-.29h-3.229a.835.835 0 0 0-.834.833v3.632a.835.835 0 0 0 .834.834h3.229a.145.145 0 0 0 .145-.145v-3.632a.147.147 0 0 0-.146-.145zm-.145 3.632h-3.083a.544.544 0 0 1-.544-.544v-3a.832.832 0 0 0 .544.2h3.083z"/><path d="M226.794 26.707a.145.145 0 1 0 0 .29h2.727a.145.145 0 1 0 0-.29zM227.305 30.379a.156.156 0 0 0 .049.009.144.144 0 0 0 .136-.1l.177-.494h.7l.177.5a.145.145 0 0 0 .136.1.156.156 0 0 0 .049-.009.145.145 0 0 0 .087-.186l-.665-1.858a.066.066 0 0 0-.005-.013l-.007-.013a.047.047 0 0 1 0-.008l-.005-.007-.005-.005-.005-.005-.007-.005h-.021l-.013-.005H227.987l-.013.005-.013.007h-.008l-.007.005-.005.005-.005.005-.005.007v.007l-.007.013a.068.068 0 0 0-.005.013l-.664 1.855a.15.15 0 0 0 .091.187zm.713-1.56.246.688h-.492l.247-.688z"/></g><text transform="translate(152.715 30.655)" fill="#8d8d8d" font-size="5" font-family="Roboto-Regular, Roboto"><tspan x="0" y="0">Jon Doe</tspan></text><path d="M150.714 31.054a.267.267 0 1 1-.533 0v-.533a.8.8 0 0 0-.8-.8h-2.134a.8.8 0 0 0-.8.8v.533a.267.267 0 1 1-.533 0v-.533a1.333 1.333 0 0 1 1.333-1.331h2.132a1.333 1.333 0 0 1 1.335 1.331zm-2.4-2.4a1.333 1.333 0 1 1 1.331-1.331 1.333 1.333 0 0 1-1.331 1.332zm0-.533a.8.8 0 1 0-.8-.8.8.8 0 0 0 .8.801z" fill="#8d8d8d"/><text transform="translate(186.117 30.655)" fill="#8d8d8d" font-size="5" font-family="Roboto-Regular, Roboto"><tspan x="0" y="0">June 19, 2021</tspan></text><path d="M180.221 27.046h-.4a.413.413 0 0 0-.414.414v.52h4.21v-.52a.413.413 0 0 0-.414-.414h-.4v.136a.25.25 0 0 1-.5 0v-.136h-1.585v.136a.25.25 0 0 1-.5 0zm.5-.5h1.6l-.003-.414a.25.25 0 1 1 .5 0v.418h.4a.91.91 0 0 1 .91.91v3.051a.91.91 0 0 1-.91.91h-3.394a.91.91 0 0 1-.91-.91V27.46a.91.91 0 0 1 .91-.91h.4v-.418a.25.25 0 1 1 .5 0zm-1.311 1.93v2.035a.413.413 0 0 0 .414.414h3.383a.413.413 0 0 0 .414-.414v-2.035z" fill="#8d8d8d"/><text transform="translate(174.914 29.655)" fill="#8d8d8d" font-size="5" font-family="Roboto-Regular, Roboto"><tspan x="0" y="0">.</tspan></text><text transform="translate(220.914 29.655)" fill="#8d8d8d" font-size="5" font-family="Roboto-Regular, Roboto"><tspan x="0" y="0">.</tspan></text></g><g><path d="m31.175 294.931-.3.3 1.33 1.33h-5.901v.423h5.9l-1.33 1.33.3.3 1.841-1.841z" fill="#2c2c2c"/><text transform="translate(.003 298.272)" fill="#2c2c2c" font-size="4" font-family="Roboto-Regular, Roboto"><tspan x="0" y="0">READ MORE</tspan></text></g><g><path d="m177.085 294.931-.3.3 1.33 1.33h-5.901v.423h5.9l-1.33 1.33.3.3 1.841-1.841z" fill="#2c2c2c"/><text transform="translate(145.913 298.272)" fill="#2c2c2c" font-size="4" font-family="Roboto-Regular, Roboto"><tspan x="0" y="0">READ MORE</tspan></text></g><g><path d="m31.175 132.659-.3.3 1.33 1.33h-5.901v.423h5.9l-1.33 1.33.3.3 1.841-1.841z" fill="#2c2c2c"/><text transform="translate(.003 136)" fill="#2c2c2c" font-size="4" font-family="Roboto-Regular, Roboto"><tspan x="0" y="0">READ MORE</tspan></text></g><g><path d="m177.085 132.659-.3.3 1.33 1.33h-5.901v.423h5.9l-1.33 1.33.3.3 1.841-1.841z" fill="#2c2c2c"/><text transform="translate(145.913 136)" fill="#2c2c2c" font-size="4" font-family="Roboto-Regular, Roboto"><tspan x="0" y="0">READ MORE</tspan></text></g></svg>