<svg xmlns="http://www.w3.org/2000/svg" width="280.06" height="278"><path fill="#919191" d="M0 90.823h129.581v69.869H0z"/><path d="M0 145.634v15.058h129.581v-4.25l-25.092-25.092a9.552 9.552 0 0 0-13.509 0l-9.23 9.23a9.552 9.552 0 0 1-13.509 0l-24.838-24.84a9.552 9.552 0 0 0-13.509 0zM96.278 105.774a7.939 7.939 0 1 1-7.939 7.939 7.939 7.939 0 0 1 7.939-7.939z" fill="#848484"/><path fill="#919191" d="M0 0h129.581v69.869H0z"/><path d="M0 54.811v15.058h129.581v-4.25l-25.092-25.092a9.552 9.552 0 0 0-13.509 0l-9.23 9.23a9.552 9.552 0 0 1-13.509 0l-24.838-24.84a9.552 9.552 0 0 0-13.509 0zM96.278 14.951a7.939 7.939 0 1 1-7.939 7.939 7.939 7.939 0 0 1 7.939-7.939z" fill="#848484"/><path fill="#919191" d="M0 183.734h129.581v69.869H0z"/><path d="M0 238.545v15.058h129.581v-4.25l-25.092-25.092a9.552 9.552 0 0 0-13.509 0l-9.23 9.23a9.552 9.552 0 0 1-13.509 0l-24.838-24.84a9.552 9.552 0 0 0-13.509 0zM96.278 198.685a7.939 7.939 0 1 1-7.939 7.939 7.939 7.939 0 0 1 7.939-7.939z" fill="#848484"/><path d="M0 169.779h280.06M0 78.868h280.06" fill="none" stroke="#707070" stroke-width=".3" stroke-dasharray="2"/><path d="m171.073 62.158-.3.3 1.33 1.33h-5.901v.423h5.9l-1.33 1.33.3.3L172.913 64z" fill="#2c2c2c"/><text transform="translate(139.901 65.499)" fill="#2c2c2c" font-size="4" font-family="Roboto-Regular, Roboto"><tspan x="0" y="0">READ MORE</tspan></text><text transform="translate(140 113.008)" fill="#2c2c2c" font-size="10" font-family="Roboto-Medium, Roboto" font-weight="500"><tspan x="0" y="0">Orems ipsum dolor sit Amet,</tspan></text><text transform="translate(140 133.008)" fill="#2c2c2c" font-size="5" font-family="Roboto-Regular, Roboto"><tspan x="0" y="5">Fusce velit metus, sodales vitae porttitor quis, interdum in </tspan><tspan x="0" y="12.5">quam. Proin mollis justo non neque dapibus…</tspan></text><text transform="translate(140 100.008)" fill="#cc43ff" font-size="6" font-family="Roboto-Regular, Roboto" style="isolation:isolate"><tspan x="0" y="0">Fashion</tspan></text><text transform="translate(226.458 124.009)" fill="#8d8d8d" font-size="5" font-family="Roboto-Regular, Roboto"><tspan x="0" y="0">12 Minute Read</tspan></text><g fill="#8d8d8d"><path d="M224.092 120.737h-3.228a.544.544 0 1 1 0-1.087h3.229a.145.145 0 0 0 0-.29h-3.229a.835.835 0 0 0-.834.833v3.632a.835.835 0 0 0 .834.834h3.229a.145.145 0 0 0 .145-.145v-3.632a.147.147 0 0 0-.146-.145zm-.145 3.632h-3.083a.544.544 0 0 1-.544-.544v-3a.832.832 0 0 0 .544.2h3.083z"/><path d="M220.91 120.061a.145.145 0 1 0 0 .29h2.727a.145.145 0 1 0 0-.29zM221.421 123.733a.156.156 0 0 0 .049.009.144.144 0 0 0 .136-.1l.177-.494h.7l.177.5a.145.145 0 0 0 .136.1.156.156 0 0 0 .049-.009.145.145 0 0 0 .087-.186l-.665-1.858a.066.066 0 0 0-.005-.013l-.007-.013a.047.047 0 0 1 0-.008l-.005-.007-.005-.005-.005-.005-.007-.005h-.021l-.013-.005H222.103l-.013.005-.013.007h-.008l-.007.005-.005.005-.005.005-.005.007v.007l-.007.013a.068.068 0 0 0-.005.013l-.664 1.855a.15.15 0 0 0 .091.187zm.713-1.56.246.688h-.492l.247-.688z"/></g><text transform="translate(146.831 124.009)" fill="#8d8d8d" font-size="5" font-family="Roboto-Regular, Roboto"><tspan x="0" y="0">Jon Doe</tspan></text><path d="M144.83 124.408a.267.267 0 1 1-.533 0v-.533a.8.8 0 0 0-.8-.8h-2.134a.8.8 0 0 0-.8.8v.533a.267.267 0 1 1-.533 0v-.533a1.333 1.333 0 0 1 1.333-1.331h2.132a1.333 1.333 0 0 1 1.335 1.331zm-2.4-2.4a1.333 1.333 0 1 1 1.331-1.331 1.333 1.333 0 0 1-1.331 1.332zm0-.533a.8.8 0 1 0-.8-.8.8.8 0 0 0 .8.801z" fill="#8d8d8d"/><text transform="translate(180.233 124.009)" fill="#8d8d8d" font-size="5" font-family="Roboto-Regular, Roboto"><tspan x="0" y="0">June 19, 2021</tspan></text><path d="M174.337 120.4h-.4a.413.413 0 0 0-.414.414v.52h4.21v-.52a.413.413 0 0 0-.414-.414h-.4v.136a.25.25 0 0 1-.5 0v-.136h-1.585v.136a.25.25 0 0 1-.5 0zm.5-.5h1.6l-.003-.414a.25.25 0 1 1 .5 0v.418h.4a.91.91 0 0 1 .91.91v3.051a.91.91 0 0 1-.91.91h-3.394a.91.91 0 0 1-.91-.91v-3.051a.91.91 0 0 1 .91-.91h.4v-.418a.25.25 0 1 1 .5 0zm-1.311 1.93v2.035a.413.413 0 0 0 .414.414h3.383a.413.413 0 0 0 .414-.414v-2.035z" fill="#8d8d8d"/><text transform="translate(169.03 123.009)" fill="#8d8d8d" font-size="5" font-family="Roboto-Regular, Roboto"><tspan x="0" y="0">.</tspan></text><text transform="translate(215.03 123.009)" fill="#8d8d8d" font-size="5" font-family="Roboto-Regular, Roboto"><tspan x="0" y="0">.</tspan></text><g><path d="m171.073 153.166-.3.3 1.33 1.33h-5.901v.423h5.9l-1.33 1.33.3.3 1.841-1.841z" fill="#2c2c2c"/><text transform="translate(139.901 156.507)" fill="#2c2c2c" font-size="4" font-family="Roboto-Regular, Roboto"><tspan x="0" y="0">READ MORE</tspan></text></g><text transform="translate(140 22)" fill="#2c2c2c" font-size="10" font-family="Roboto-Medium, Roboto" font-weight="500"><tspan x="0" y="0">Uisque tellus purus, volutpat</tspan></text><text transform="translate(140 42)" fill="#2c2c2c" font-size="5" font-family="Roboto-Regular, Roboto"><tspan x="0" y="5">Fusce velit metus, sodales vitae porttitor quis, interdum in </tspan><tspan x="0" y="12.5">quam. Proin mollis justo non neque dapibus…</tspan></text><g style="isolation:isolate"><text transform="translate(140 9)" fill="#cc43ff" font-size="6" font-family="Roboto-Regular, Roboto" style="isolation:isolate"><tspan x="0" y="0">Fashion</tspan></text></g><g><text transform="translate(226.458 33)" fill="#8d8d8d" font-size="5" font-family="Roboto-Regular, Roboto"><tspan x="0" y="0">12 Minute Read</tspan></text><g fill="#8d8d8d"><path d="M224.092 29.728h-3.228a.544.544 0 1 1 0-1.087h3.229a.145.145 0 0 0 0-.29h-3.229a.835.835 0 0 0-.834.833v3.632a.835.835 0 0 0 .834.834h3.229a.145.145 0 0 0 .145-.145v-3.632a.147.147 0 0 0-.146-.145zm-.145 3.632h-3.083a.544.544 0 0 1-.544-.544v-3a.832.832 0 0 0 .544.2h3.083z"/><path d="M220.91 29.052a.145.145 0 1 0 0 .29h2.727a.145.145 0 1 0 0-.29zM221.421 32.724a.156.156 0 0 0 .049.009.144.144 0 0 0 .136-.1l.177-.494h.7l.177.5a.145.145 0 0 0 .136.1.156.156 0 0 0 .049-.009.145.145 0 0 0 .087-.186l-.665-1.858a.066.066 0 0 0-.005-.013l-.007-.013a.047.047 0 0 1 0-.008l-.005-.007-.005-.005-.005-.005-.007-.005h-.021l-.013-.005H222.103l-.013.005-.013.007h-.008l-.007.005-.005.005-.005.005-.005.007v.007l-.007.013a.068.068 0 0 0-.005.013l-.664 1.855a.15.15 0 0 0 .091.187zm.713-1.56.246.688h-.492l.247-.688z"/></g><text transform="translate(146.831 33)" fill="#8d8d8d" font-size="5" font-family="Roboto-Regular, Roboto"><tspan x="0" y="0">Jon Doe</tspan></text><path d="M144.83 33.399a.267.267 0 1 1-.533 0v-.533a.8.8 0 0 0-.8-.8h-2.134a.8.8 0 0 0-.8.8v.533a.267.267 0 1 1-.533 0v-.533a1.333 1.333 0 0 1 1.333-1.331h2.132a1.333 1.333 0 0 1 1.335 1.331zm-2.4-2.4a1.333 1.333 0 1 1 1.331-1.331A1.333 1.333 0 0 1 142.43 31zm0-.533a.8.8 0 1 0-.8-.8.8.8 0 0 0 .8.801z" fill="#8d8d8d"/><text transform="translate(180.233 33)" fill="#8d8d8d" font-size="5" font-family="Roboto-Regular, Roboto"><tspan x="0" y="0">June 19, 2021</tspan></text><path d="M174.337 29.391h-.4a.413.413 0 0 0-.414.414v.52h4.21v-.52a.413.413 0 0 0-.414-.414h-.4v.136a.25.25 0 0 1-.5 0v-.136h-1.585v.136a.25.25 0 0 1-.5 0zm.5-.5h1.6l-.003-.414a.25.25 0 1 1 .5 0v.418h.4a.91.91 0 0 1 .91.91v3.051a.91.91 0 0 1-.91.91h-3.394a.91.91 0 0 1-.91-.91v-3.051a.91.91 0 0 1 .91-.91h.4v-.418a.25.25 0 1 1 .5 0zm-1.311 1.93v2.035a.413.413 0 0 0 .414.414h3.383a.413.413 0 0 0 .414-.414v-2.035z" fill="#8d8d8d"/><text transform="translate(169.03 32)" fill="#8d8d8d" font-size="5" font-family="Roboto-Regular, Roboto"><tspan x="0" y="0">.</tspan></text><text transform="translate(215.03 32)" fill="#8d8d8d" font-size="5" font-family="Roboto-Regular, Roboto"><tspan x="0" y="0">.</tspan></text></g><g transform="translate(-22 -83)"><rect width="34" height="10" rx="1" transform="translate(22 351)" fill="#2c2c2c"/><rect width="24" height="10" rx="1" transform="translate(94 351)" fill="#2c2c2c"/><rect width="10" height="10" rx="1" transform="translate(58 351)" fill="#2c2c2c"/><rect width="10" height="10" rx="1" transform="translate(70 351)" fill="#2c2c2c"/><rect width="10" height="10" rx="1" transform="translate(82 351)" fill="#2c2c2c"/><text transform="translate(32.237 358)" fill="#fff" font-size="5" font-family="Roboto-Regular, Roboto"><tspan x="0" y="0">Previous</tspan></text><path d="M28.86 354.5 27 356.36l1.86 1.86" fill="none" stroke="#fff" stroke-width=".5"/><text transform="translate(98 358)" fill="#fff" font-size="5" font-family="Roboto-Regular, Roboto"><tspan x="0" y="0">Next</tspan></text><path d="m111.377 354.5 1.86 1.86-1.86 1.86" fill="none" stroke="#fff" stroke-width=".5"/><text transform="translate(62 358)" fill="#fff" font-size="5" font-family="Roboto-Regular, Roboto"><tspan x="0" y="0">1</tspan></text><text transform="translate(74 358)" fill="#fff" font-size="5" font-family="Roboto-Regular, Roboto"><tspan x="0" y="0">2</tspan></text><text transform="translate(86 358)" fill="#fff" font-size="5" font-family="Roboto-Regular, Roboto"><tspan x="0" y="0">3</tspan></text></g><g><path d="m171.073 246.078-.3.3 1.33 1.33h-5.901v.423h5.9l-1.33 1.33.3.3 1.841-1.841z" fill="#2c2c2c"/><text transform="translate(139.901 249.419)" fill="#2c2c2c" font-size="4" font-family="Roboto-Regular, Roboto"><tspan x="0" y="0">READ MORE</tspan></text></g><text transform="translate(140 205.92)" fill="#2c2c2c" font-size="10" font-family="Roboto-Medium, Roboto" font-weight="500"><tspan x="0" y="0">Visque tellus purus, volutpat</tspan></text><text transform="translate(140 225.92)" fill="#2c2c2c" font-size="5" font-family="Roboto-Regular, Roboto"><tspan x="0" y="5">Fusce velit metus, sodales vitae porttitor quis, interdum in </tspan><tspan x="0" y="12.5">quam. Proin mollis justo non neque dapibus…</tspan></text><g style="isolation:isolate"><text transform="translate(140 192.92)" fill="#cc43ff" font-size="6" font-family="Roboto-Regular, Roboto" style="isolation:isolate"><tspan x="0" y="0">Fashion</tspan></text></g><g><text transform="translate(226.458 216.921)" fill="#8d8d8d" font-size="5" font-family="Roboto-Regular, Roboto"><tspan x="0" y="0">12 Minute Read</tspan></text><g fill="#8d8d8d"><path d="M224.092 213.649h-3.228a.544.544 0 1 1 0-1.087h3.229a.145.145 0 0 0 0-.29h-3.229a.835.835 0 0 0-.834.833v3.632a.835.835 0 0 0 .834.834h3.229a.145.145 0 0 0 .145-.145v-3.632a.147.147 0 0 0-.146-.145zm-.145 3.632h-3.083a.544.544 0 0 1-.544-.544v-3a.832.832 0 0 0 .544.2h3.083z"/><path d="M220.91 212.973a.145.145 0 1 0 0 .29h2.727a.145.145 0 1 0 0-.29zM221.421 216.645a.156.156 0 0 0 .049.009.144.144 0 0 0 .136-.1l.177-.494h.7l.177.5a.145.145 0 0 0 .136.1.156.156 0 0 0 .049-.009.145.145 0 0 0 .087-.186l-.665-1.858a.066.066 0 0 0-.005-.013l-.007-.013a.047.047 0 0 1 0-.008l-.005-.007-.005-.005-.005-.005-.007-.005h-.021l-.013-.005H222.103l-.013.005-.013.007h-.008l-.007.005-.005.005-.005.005-.005.007v.007l-.007.013a.068.068 0 0 0-.005.013l-.664 1.855a.15.15 0 0 0 .091.187zm.713-1.56.246.688h-.492l.247-.688z"/></g><text transform="translate(146.831 216.921)" fill="#8d8d8d" font-size="5" font-family="Roboto-Regular, Roboto"><tspan x="0" y="0">Jon Doe</tspan></text><path d="M144.83 217.32a.267.267 0 1 1-.533 0v-.533a.8.8 0 0 0-.8-.8h-2.134a.8.8 0 0 0-.8.8v.533a.267.267 0 1 1-.533 0v-.533a1.333 1.333 0 0 1 1.333-1.331h2.132a1.333 1.333 0 0 1 1.335 1.331zm-2.4-2.4a1.333 1.333 0 1 1 1.331-1.331 1.333 1.333 0 0 1-1.331 1.332zm0-.533a.8.8 0 1 0-.8-.8.8.8 0 0 0 .8.801z" fill="#8d8d8d"/><text transform="translate(180.233 216.921)" fill="#8d8d8d" font-size="5" font-family="Roboto-Regular, Roboto"><tspan x="0" y="0">June 19, 2021</tspan></text><path d="M174.337 213.312h-.4a.413.413 0 0 0-.414.414v.52h4.21v-.52a.413.413 0 0 0-.414-.414h-.4v.136a.25.25 0 0 1-.5 0v-.136h-1.585v.136a.25.25 0 0 1-.5 0zm.5-.5h1.6l-.003-.414a.25.25 0 1 1 .5 0v.418h.4a.91.91 0 0 1 .91.91v3.051a.91.91 0 0 1-.91.91h-3.394a.91.91 0 0 1-.91-.91v-3.051a.91.91 0 0 1 .91-.91h.4v-.418a.25.25 0 1 1 .5 0zm-1.311 1.93v2.035a.413.413 0 0 0 .414.414h3.383a.413.413 0 0 0 .414-.414v-2.035z" fill="#8d8d8d"/><text transform="translate(169.03 215.921)" fill="#8d8d8d" font-size="5" font-family="Roboto-Regular, Roboto"><tspan x="0" y="0">.</tspan></text><text transform="translate(215.03 215.921)" fill="#8d8d8d" font-size="5" font-family="Roboto-Regular, Roboto"><tspan x="0" y="0">.</tspan></text></g></svg>