<svg xmlns="http://www.w3.org/2000/svg" width="280" height="123.408"><path data-name="Path 1" d="M9 0h262.2v123.408H9Z" fill="#919191"/><path data-name="Path 2" d="M9 92.936v30.471h262.2v-8.6l-50.774-50.773a19.328 19.328 0 0 0-27.334 0L174.416 82.71a19.328 19.328 0 0 1-27.334 0L96.826 32.449a19.328 19.328 0 0 0-27.334 0Zm194.814-80.655a16.064 16.064 0 1 1-16.064 16.064 16.064 16.064 0 0 1 16.064-16.064Z" fill="#848484"/><path data-name="Path 3" d="M61 18h159v82H61Z" fill="#fff"/><g data-name="Group 1" transform="translate(-22 -1644)"><rect data-name="Rectangle 1" width="28" height="10" rx="1" transform="translate(148 1657)" fill="#2c2c2c"/><text transform="translate(155 1664)" fill="#fff" font-size="4" font-family="Roboto-Regular, Roboto"><tspan x="0" y="0">LEAGUE</tspan></text></g><g fill="#2c2c2c" font-size="7" font-family="Roboto-Medium, Roboto" font-weight="500"><text data-name="Duis pharetra mi sit amet ex mollis, finibus" transform="translate(76.531 36)"><tspan x="0" y="0">Duis pharetra mi sit amet ex mollis, finibus </tspan></text><text data-name="Venenatis mi" transform="translate(123.593 45.1)"><tspan x="0" y="0">Venenatis mi</tspan></text></g><text data-name="12 Minute Read" transform="translate(162.487 56.639)" fill="#8d8d8d" font-size="4" font-family="Roboto-Regular, Roboto"><tspan x="0" y="0">12 Minute Read</tspan></text><g data-name="Group 2" fill="#8d8d8d"><path data-name="Path 4" d="M160.5 54.088h-2.707a.456.456 0 0 1 0-.912h2.707a.122.122 0 0 0 0-.244h-2.708a.7.7 0 0 0-.7.7v3.046a.7.7 0 0 0 .7.7h2.708a.122.122 0 0 0 .122-.122V54.21a.123.123 0 0 0-.123-.122Zm-.122 3.045h-2.585a.457.457 0 0 1-.456-.456v-2.514a.7.7 0 0 0 .456.17h2.585Z"/><path data-name="Path 5" d="M157.833 53.522a.122.122 0 0 0 0 .244h2.287a.122.122 0 0 0 0-.244Zm.429 3.079a.13.13 0 0 0 .041.007.121.121 0 0 0 .114-.081l.148-.415h.586l.148.416a.122.122 0 0 0 .114.081.13.13 0 0 0 .041-.007.122.122 0 0 0 .073-.156l-.555-1.555a.053.053 0 0 0 0-.011l-.005-.011a.039.039 0 0 1 0-.006h-.114l-.011.005h-.012v.01l-.005.011a.054.054 0 0 0 0 .011l-.557 1.555a.126.126 0 0 0 .076.157Zm.6-1.308.206.577h-.413Z"/></g><text data-name="Jon Doe" transform="translate(95.704 56.639)" fill="#8d8d8d" font-size="4" font-family="Roboto-Regular, Roboto"><tspan x="0" y="0">Jon Doe</tspan></text><path data-name="Path 6" d="M94.024 57.167a.224.224 0 1 1-.447 0v-.447a.671.671 0 0 0-.671-.671h-1.788a.671.671 0 0 0-.671.671v.447a.224.224 0 1 1-.447 0v-.447a1.118 1.118 0 0 1 1.118-1.12h1.788a1.118 1.118 0 0 1 1.118 1.118Zm-2.012-2.012a1.118 1.118 0 1 1 1.117-1.117 1.118 1.118 0 0 1-1.117 1.117Zm0-.447a.671.671 0 1 0-.671-.671.671.671 0 0 0 .671.671Z" fill="#8d8d8d"/><text data-name="June 19, 2021" transform="translate(123.718 56.639)" fill="#8d8d8d" font-size="4" font-family="Roboto-Regular, Roboto"><tspan x="0" y="0">June 19, 2021</tspan></text><path data-name="Path 7" d="M118.774 53.806h-.334a.347.347 0 0 0-.347.347v.436h3.528v-.436a.347.347 0 0 0-.347-.347h-.33v.114a.208.208 0 1 1-.416 0v-.114h-1.338v.114a.208.208 0 1 1-.416 0Zm.416-.416h1.338v-.347a.208.208 0 0 1 .416 0v.347h.333a.763.763 0 0 1 .763.763v2.56a.763.763 0 0 1-.763.763h-2.837a.763.763 0 0 1-.763-.763v-2.56a.763.763 0 0 1 .763-.763h.333v-.347a.208.208 0 0 1 .416 0Zm-1.1 1.616v1.707a.347.347 0 0 0 .347.347h2.837a.347.347 0 0 0 .344-.347v-1.707Z" fill="#8d8d8d"/><text data-name="." transform="translate(114.322 52.8)" fill="#8d8d8d" font-size="1" font-family="Roboto-Regular, Roboto"><tspan x="0" y="0">.</tspan></text><text data-name="." transform="translate(152.902 52.8)" fill="#8d8d8d" font-size="1" font-family="Roboto-Regular, Roboto"><tspan x="0" y="0">.</tspan></text><g data-name="Group" fill="#717171" font-size="4.5" font-family="Roboto-Regular, Roboto"><text data-name="Quis rutrum ipsum Mollis sed. In vehicula congue semper." transform="translate(81.855 73)"><tspan x="0" y="0">Quis rutrum ipsum Mollis sed. In vehicula congue semper. </tspan></text><text data-name="Proin nec bibendum Neque. Suspendisse…" transform="translate(97.583 80.5)"><tspan x="0" y="0">Proin nec bibendum Neque. Suspendisse…</tspan></text></g><g data-name="Group 3" fill="#2c2c2c"><path data-name="Path 8" d="m155.172 88.459-.3.3 1.33 1.33h-5.9v.423h5.9l-1.33 1.33.3.3 1.841-1.841Z"/><text data-name="READ MORE" transform="translate(124 91.8)" font-size="4" font-family="Roboto-Regular, Roboto"><tspan x="0" y="0">READ MORE</tspan></text></g><g data-name="Group 4" stroke="#2c2c2c"><g data-name="Ellipse 1" transform="translate(0 53)" fill="#fff"><circle cx="9" cy="9" r="9" stroke="none"/><circle cx="9" cy="9" r="8.5" fill="none"/></g><path data-name="Path 9" d="M10.884 58.5 7.5 61.884l3.384 3.384" fill="none"/><g data-name="Ellipse 2" transform="translate(262 53)" fill="#fff"><circle cx="9" cy="9" r="9" stroke="none"/><circle cx="9" cy="9" r="8.5" fill="none"/></g><path data-name="Path 10" d="m269.5 58.5 3.384 3.384-3.384 3.384" fill="none"/></g><g data-name="Group 5" transform="translate(-6 -1641)"><circle data-name="Ellipse 3" cx="1.5" cy="1.5" r="1.5" transform="translate(135 1752)" fill="#fff"/><circle data-name="Ellipse 4" cx="2.5" cy="2.5" r="2.5" transform="translate(141 1751)" fill="#2c2c2c"/><circle data-name="Ellipse 5" cx="1.5" cy="1.5" r="1.5" transform="translate(149 1752)" fill="#fff"/><circle data-name="Ellipse 6" cx="1.5" cy="1.5" r="1.5" transform="translate(155 1752)" fill="#fff"/></g></svg>