<svg xmlns="http://www.w3.org/2000/svg" width="542.847" height="293.3"><g data-name="Group 201" transform="translate(-1276.66 -489.74)"><path fill="#afafaf" d="M1376.43 489.74h343.31v293.3h-343.31z" data-name="Rectangle 63"/><g data-name="Group 199"><path fill="#afafaf" d="M1276.66 516.3h86.531v240.19h-86.531z" data-name="Rectangle 64"/><path fill="#a0a0a0" d="M1363.191 584.25v172.24h-86.531V599.91c3.455-4.81 7.2-9.45 12.016-13.14 6.272-4.81 14.755-7.81 22.744-6.11 7.163 1.53 12.808 6.5 19.553 9.16a32.376 32.376 0 0 0 23.679-.17 29.137 29.137 0 0 0 8.539-5.4Z" data-name="Path 65"/><circle cx="10.274" cy="10.274" r="10.274" fill="#a0a0a0" data-name="Ellipse 18" transform="translate(1330.243 554.468)"/><path fill="#757575" d="M1326.867 607.97h36.324v56.846h-36.324z" data-name="Rectangle 65"/><path fill="none" stroke="#fff" stroke-miterlimit="10" stroke-width="4" d="m1351.925 650.186-13.792-13.792 13.792-13.792" data-name="Path 66"/></g><g data-name="Group 200"><path fill="#afafaf" d="M1732.976 516.3h86.531v240.19h-86.531z" data-name="Rectangle 66"/><path fill="#a0a0a0" d="M1819.507 584.25v172.24h-86.531V599.91c3.455-4.81 7.2-9.45 12.016-13.14 6.272-4.81 14.756-7.81 22.744-6.11 7.163 1.53 12.808 6.5 19.553 9.16a32.376 32.376 0 0 0 23.679-.17 29.137 29.137 0 0 0 8.539-5.4Z" data-name="Path 67"/><circle cx="10.274" cy="10.274" r="10.274" fill="#a0a0a0" data-name="Ellipse 19" transform="translate(1786.559 554.468)"/><path fill="#757575" d="M1769.3 664.817h-36.324v-56.846h36.324z" data-name="Rectangle 67"/><path fill="none" stroke="#fff" stroke-miterlimit="10" stroke-width="4" d="m1744.242 650.186 13.792-13.792-13.792-13.794" data-name="Path 68"/></g><path fill="#a0a0a0" d="M1719.74 657.161V783.04h-343.31V647.511l86.56-76.72c11.71-10.38 24.8-21.33 40.44-21.8 20.32-.6 36.3 16.39 49.35 31.98l38.77 46.33c5.56 6.65 12.21 13.86 20.88 14.13 11.78.38 19.52-11.79 24.7-22.38s12.79-22.8 24.57-22.59c9.14.16 16.06 7.95 21.75 15.1q18.15 22.8 36.29 45.6Z" data-name="Path 69"/><circle cx="27.49" cy="27.49" r="27.49" fill="#a0a0a0" data-name="Ellipse 20" transform="translate(1580.894 539.264)"/><g fill="#fff" data-name="One man practicing sportsmanship is far better than 50 preaching it" font-family="Roboto-Bold, Roboto" font-size="15.004" font-weight="700" style="isolation:isolate"><text data-name="One man practicing sportsmanship is far" style="isolation:isolate" transform="translate(1398.031 671.966)"><tspan x="0" y="0">One man practicing sportsmanship is far </tspan></text><text data-name="better than 50 preaching it" style="isolation:isolate" transform="translate(1398.031 689.971)"><tspan x="0" y="0">better than 50 preaching it</tspan></text></g><g data-name="Group 15"><path fill="#fff" d="M1398.031 639.615h28.132v11.253h-28.132z" data-name="Rectangle 36"/><text fill="#606060" data-name="SPORTS" font-family="Roboto-Regular, Roboto" font-size="5.626" style="isolation:isolate" transform="translate(1401.782 647.118)"><tspan x="0" y="0">SPORTS</tspan></text></g><g data-name="By Matte Prior 16 August 2022" style="isolation:isolate"><text fill="#fff" data-name="By Matte Prior / 16 August 2022" font-family="Roboto-Regular, Roboto" font-size="5.626" style="isolation:isolate" transform="translate(1398.031 715.725)"><tspan xml:space="preserve" x="0" y="0">By Matte Prior   /   16 August 2022</tspan></text></g><g fill="#fff" data-name="Morbi ut consectetur orci. Morbi mauris est aliquam rutrum leo sed dictum consequat odio. Sed sit amet odio eu odio imperdiet pretium .." font-family="Roboto-Regular, Roboto" font-size="7.502" opacity=".9" style="isolation:isolate"><text data-name="Morbi ut consectetur orci. Morbi mauris est, aliquam rutrum leo sed, dictum consequat odio." style="isolation:isolate" transform="translate(1398.031 737.541)"><tspan x="0" y="0">Morbi ut consectetur orci. Morbi mauris est, aliquam rutrum leo sed, dictum consequat odio. </tspan></text><text data-name="Sed sit amet odio eu odio imperdiet pretium…….." style="isolation:isolate" transform="translate(1398.031 749.544)"><tspan x="0" y="0">Sed sit amet odio eu odio imperdiet pretium……..</tspan></text></g><g data-name="Group 13"><g data-name="Path 13"><path fill="#fff" d="M1523.269 770.206h4.667v1h-4.667z" data-name="Rectangle 68"/></g><g data-name="Path 14"><path fill="#fff" d="M1532.935 770.206h4.667v1h-4.667z" data-name="Rectangle 69"/></g><g data-name="Path 15"><path fill="#fff" d="M1542.602 770.206h4.667v1h-4.667z" data-name="Rectangle 70"/></g><g data-name="Path 17"><path fill="#fff" d="M1568.235 770.206h4.667v1h-4.667z" data-name="Rectangle 71"/></g><g data-name="Path 16"><path fill="#fff" d="M1552.269 769.956h10.967v1.5h-10.967z" data-name="Rectangle 72"/></g></g></g></svg>