<svg xmlns="http://www.w3.org/2000/svg" width="280" height="141.071"><defs><linearGradient id="a" x1=".5" x2=".5" y2="1" gradientUnits="objectBoundingBox"><stop offset="0" stop-opacity="0"/><stop offset="1" stop-opacity=".353"/></linearGradient></defs><path fill="#919191" d="M0 0h150.455v140.604H0z"/><path d="M0 123.828v16.773h149.36l-32.956-32.685a10.641 10.641 0 0 0-15.049 0l-10.282 10.285a10.641 10.641 0 0 1-15.049 0L48.352 90.526a10.641 10.641 0 0 0-15.049 0zM122.193 44.264a13.019 13.019 0 1 1-13.019 13.019 13.019 13.019 0 0 1 13.019-13.019z" fill="#848484"/><path transform="translate(0 .071)" fill="url(#a)" d="M0 0h150.552v140.108H0z"/><g transform="translate(6 78.538)"><rect width="18" height="7" rx="1" fill="#2c2c2c"/><text transform="translate(5 5)" fill="#fff" font-size="3" font-family="Roboto-Regular, Roboto" style="isolation:isolate"><tspan x="0" y="0">FOOD</tspan></text></g><text transform="translate(6 96.071)" fill="#fff" font-size="7" font-family="Roboto-Medium, Roboto" font-weight="500"><tspan x="0" y="0">Fusce veit metus, sodales vita portitor </tspan><tspan x="0" y="7">quis, interdum</tspan></text><text transform="translate(65.931 112.077)" fill="#fff" font-size="3" font-family="Roboto-Regular, Roboto"><tspan x="0" y="0">12 Minute Read</tspan></text><path d="M63.747 109.903h-2.978a.5.5 0 1 1 0-1h2.979a.134.134 0 0 0 0-.268h-2.979a.771.771 0 0 0-.769.766v3.351a.771.771 0 0 0 .769.769h2.979a.134.134 0 0 0 .134-.134v-3.355a.135.135 0 0 0-.135-.134zm-.134 3.35-2.844-.005a.5.5 0 0 1-.5-.5v-2.763a.768.768 0 0 0 .5.186h2.844z" fill="#fff"/><path d="M60.812 109.28a.134.134 0 1 0 0 .268h2.516a.134.134 0 1 0 0-.268zM61.283 112.667a.144.144 0 0 0 .045.008.133.133 0 0 0 .126-.089l.163-.456h.645l.163.457a.134.134 0 0 0 .126.089.144.144 0 0 0 .045-.008.134.134 0 0 0 .081-.171l-.61-1.711a.061.061 0 0 0-.005-.012l-.006-.012a.042.042 0 0 1 0-.007l-.005-.006-.005-.005-.005-.005-.006-.005H62.017l-.012-.005H61.917l-.012.005-.012.006h-.007l-.006.005-.005.005-.005.005-.005.006v.006l-.006.012a.064.064 0 0 0-.005.012l-.612 1.711a.139.139 0 0 0 .084.172zm.658-1.439.227.634h-.454l.228-.634z" fill="#fff"/><g fill="#fff"><text transform="translate(12.274 112.079)" font-size="3" font-family="Roboto-Regular, Roboto"><tspan x="0" y="0">Jon Doe</tspan></text><path d="M10.426 113.292a.246.246 0 1 1-.492 0v-.492a.738.738 0 0 0-.734-.738H7.229a.738.738 0 0 0-.738.738v.492a.246.246 0 1 1-.492 0v-.492a1.23 1.23 0 0 1 1.23-1.229H9.2a1.23 1.23 0 0 1 1.226 1.229zm-2.213-2.213a1.229 1.229 0 1 1 1.229-1.23 1.23 1.23 0 0 1-1.229 1.23zm0-.492a.738.738 0 1 0-.738-.738.738.738 0 0 0 .738.738z"/></g><text transform="translate(35.645 111.969)" fill="#fff" font-size="3" font-family="Roboto-Regular, Roboto"><tspan x="0" y="0">June 19, 2021</tspan></text><path d="M30.206 109.485h-.362a.381.381 0 0 0-.382.382v.479h3.882v-.48a.381.381 0 0 0-.382-.382h-.368v.126a.229.229 0 0 1-.458 0v-.125h-1.472v.125a.229.229 0 0 1-.458 0zm.458-.458h1.472v-.382a.229.229 0 1 1 .458 0v.382h.367a.839.839 0 0 1 .84.84v2.814a.839.839 0 0 1-.84.84h-3.117a.839.839 0 0 1-.84-.84v-2.815a.839.839 0 0 1 .84-.839h.367v-.382a.229.229 0 1 1 .458 0zm-1.206 1.777v1.877a.381.381 0 0 0 .386.379h3.116a.381.381 0 0 0 .384-.379v-1.877z" fill="#fff"/><text transform="translate(25 111.538)" fill="#fff" font-size="4" font-family="Roboto-Regular, Roboto"><tspan x="0" y="0">.</tspan></text><text transform="translate(57 111.538)" fill="#fff" font-size="4" font-family="Roboto-Regular, Roboto"><tspan x="0" y="0">.</tspan></text><text transform="translate(6 124.071)" fill="#fff" font-size="4" font-family="Roboto-Regular, Roboto"><tspan x="0" y="4">Fusce velit metus, sodales vitae porttitor quis, interdum in quam. Proin mollis </tspan><tspan x="0" y="9.5">justo non neque dapibus…</tspan></text><g><path fill="#919191" d="M155 .224h124.448V68.07H155z"/><path d="M155 54.237V68.07h122.332L250.34 41.116a8.674 8.674 0 0 0-12.326 0l-8.421 8.482a8.674 8.674 0 0 1-12.326 0l-22.665-22.821a8.674 8.674 0 0 0-12.326 0zM264.713 7.466a8.37 8.37 0 1 1-8.37 8.37 8.37 8.37 0 0 1 8.37-8.37z" fill="#848484"/></g><g><path fill="#919191" d="M155 72.377h124.448v68.388H155z"/><path d="M155 127.024v13.741h122.332l-26.992-26.778a8.715 8.715 0 0 0-12.326 0l-8.421 8.421a8.715 8.715 0 0 1-12.326 0l-22.665-22.66a8.715 8.715 0 0 0-12.326 0zM264.713 79.231a8.37 8.37 0 1 1-8.37 8.37 8.37 8.37 0 0 1 8.37-8.37z" fill="#848484"/></g><path transform="translate(155 .071)" fill="url(#a)" d="M0 0h125v68H0z"/><path transform="translate(155 73.071)" fill="url(#a)" d="M0 0h125v68H0z"/><g transform="translate(129 -2240.462)"><rect width="18" height="7" rx="1" transform="translate(31 2274)" fill="#2c2c2c"/><text transform="translate(36 2279)" fill="#fff" font-size="3" font-family="Roboto-Regular, Roboto" style="isolation:isolate"><tspan x="0" y="0">FOOD</tspan></text></g><text transform="translate(160 48.538)" fill="#fff" font-size="6" font-family="Roboto-Medium, Roboto" font-weight="500"><tspan x="0" y="0">Cras vitae elit volutpat, dapibus mi quis, </tspan><tspan x="0" y="7">cursus orci. Ut tristique</tspan></text><g><text transform="translate(164.768 62.538)" fill="#fff" font-size="3" font-family="Roboto-Regular, Roboto"><tspan x="0" y="0">Jon Doe</tspan></text><path d="M163.364 63.088a.187.187 0 1 1-.374 0v-.373a.561.561 0 0 0-.561-.561h-1.495a.561.561 0 0 0-.561.561v.373a.187.187 0 1 1-.373 0v-.373a.934.934 0 0 1 .934-.934h1.495a.934.934 0 0 1 .934.934zm-1.682-1.681a.934.934 0 1 1 .934-.935.934.934 0 0 1-.934.935zm0-.374a.561.561 0 1 0-.561-.561.561.561 0 0 0 .561.561z" fill="#fff"/><text transform="translate(188.187 62.538)" fill="#fff" font-size="3" font-family="Roboto-Regular, Roboto"><tspan x="0" y="0">June 19, 2021</tspan></text><path d="M184.054 60.35h-.279a.29.29 0 0 0-.29.29v.364h2.952v-.364a.29.29 0 0 0-.29-.29h-.279v.1a.174.174 0 0 1-.348 0v-.1h-1.118v.1a.174.174 0 0 1-.348 0zm.348-.348h1.118v-.29a.174.174 0 1 1 .348 0v.29h.279a.638.638 0 0 1 .638.638v2.142a.638.638 0 0 1-.638.638h-2.372a.638.638 0 0 1-.638-.638V60.64a.638.638 0 0 1 .638-.638h.279v-.29a.174.174 0 1 1 .348 0zm-.921 1.351v1.429a.29.29 0 0 0 .29.29h2.376a.29.29 0 0 0 .29-.29v-1.429z" fill="#fff"/><text transform="translate(178.601 62.538)" fill="#fff" font-size="4.5" font-family="Roboto-Medium, Roboto" font-weight="500"><tspan x="0" y="0">.</tspan></text></g><g transform="translate(129 -2169.768)"><rect width="18" height="7" rx="1" transform="translate(31 2274)" fill="#2c2c2c"/><text transform="translate(36 2279)" fill="#fff" font-size="3" font-family="Roboto-Regular, Roboto" style="isolation:isolate"><tspan x="0" y="0">FOOD</tspan></text></g><text transform="translate(160 119.232)" fill="#fff" font-size="6" font-family="Roboto-Medium, Roboto" font-weight="500"><tspan x="0" y="0">Nulla non maximus tellus, varius vitae </tspan><tspan x="0" y="7">porttito aliquam lorem</tspan></text><g><text transform="translate(164.768 133.232)" fill="#fff" font-size="3" font-family="Roboto-Regular, Roboto"><tspan x="0" y="0">Jon Doe</tspan></text><path d="M163.364 133.782a.187.187 0 1 1-.374 0v-.373a.561.561 0 0 0-.561-.561h-1.495a.561.561 0 0 0-.561.561v.373a.187.187 0 1 1-.373 0v-.373a.934.934 0 0 1 .934-.934h1.495a.934.934 0 0 1 .934.934zm-1.682-1.681a.934.934 0 1 1 .934-.935.934.934 0 0 1-.934.935zm0-.374a.561.561 0 1 0-.561-.561.561.561 0 0 0 .561.561z" fill="#fff"/><text transform="translate(188.187 133.232)" fill="#fff" font-size="3" font-family="Roboto-Regular, Roboto"><tspan x="0" y="0">June 19, 2021</tspan></text><path d="M184.054 131.044h-.279a.29.29 0 0 0-.29.29v.364h2.952v-.364a.29.29 0 0 0-.29-.29h-.279v.1a.174.174 0 0 1-.348 0v-.1h-1.118v.1a.174.174 0 0 1-.348 0zm.348-.348h1.118v-.29a.174.174 0 1 1 .348 0v.29h.279a.638.638 0 0 1 .638.638v2.142a.638.638 0 0 1-.638.638h-2.372a.638.638 0 0 1-.638-.638v-2.142a.638.638 0 0 1 .638-.638h.279v-.29a.174.174 0 1 1 .348 0zm-.921 1.351v1.429a.29.29 0 0 0 .29.29h2.376a.29.29 0 0 0 .29-.29v-1.429z" fill="#fff"/><text transform="translate(178.601 133.232)" fill="#fff" font-size="4.5" font-family="Roboto-Medium, Roboto" font-weight="500"><tspan x="0" y="0">.</tspan></text></g></svg>