<svg xmlns="http://www.w3.org/2000/svg" width="280" height="154.178"><defs><linearGradient id="a" x1=".5" x2=".5" y2="1" gradientUnits="objectBoundingBox"><stop offset="0" stop-opacity="0"/><stop offset="1" stop-opacity=".392"/></linearGradient></defs><path fill="#919191" d="M0 0h138.552v154.178H0z"/><path d="M0 137.169v17.009h138.552l-30.571-33.14a9.289 9.289 0 0 0-13.96 0l-9.538 10.423a9.289 9.289 0 0 1-13.96 0l-25.67-28.054a9.289 9.289 0 0 0-13.96 0zM107.201 11.908a20.9 20.9 0 1 1-20.9 20.9 20.9 20.9 0 0 1 20.9-20.9z" fill="#848484"/><path transform="translate(0 .496)" fill="url(#a)" d="M0 0h138.552v153.681H0z"/><path fill="#919191" d="M141.448 78.951h67.327v75.062h-67.327z"/><path d="M141.448 145.887v8.126h66.195l-14.606-15.834a4.438 4.438 0 0 0-6.67 0l-4.557 4.98a4.438 4.438 0 0 1-6.67 0l-12.266-13.403a4.438 4.438 0 0 0-6.67 0zM196.701 84.167a7.952 7.952 0 1 1-7.952 7.952 7.952 7.952 0 0 1 7.952-7.952z" fill="#848484"/><path transform="translate(141.335 78.837)" fill="url(#a)" d="M0 0h67.552v75H0z"/><path fill="#919191" d="M141.448.114h67.327v75.062h-67.327z"/><path d="M141.448 67.05v8.126h66.195l-14.606-15.834a4.438 4.438 0 0 0-6.67 0l-4.557 4.98a4.438 4.438 0 0 1-6.67 0l-12.266-13.403a4.438 4.438 0 0 0-6.67 0zM196.701 5.33a7.952 7.952 0 1 1-7.952 7.952 7.952 7.952 0 0 1 7.952-7.952z" fill="#848484"/><path transform="translate(141.335)" fill="url(#a)" d="M0 0h67.552v75H0z"/><path fill="#919191" d="M212.561 78.951h67.327v75.062h-67.327z"/><path d="M212.561 145.887v8.126h66.195l-14.606-15.834a4.438 4.438 0 0 0-6.67 0l-4.557 4.98a4.438 4.438 0 0 1-6.67 0l-12.266-13.403a4.438 4.438 0 0 0-6.67 0zM267.814 84.167a7.952 7.952 0 1 1-7.952 7.952 7.952 7.952 0 0 1 7.952-7.952z" fill="#848484"/><path transform="translate(212.448 78.837)" fill="url(#a)" d="M0 0h67.552v75H0z"/><g><path fill="#919191" d="M212.561.114h67.327v75.062h-67.327z"/><path d="M212.561 67.05v8.126h66.195L264.15 59.342a4.438 4.438 0 0 0-6.67 0l-4.557 4.98a4.438 4.438 0 0 1-6.67 0l-12.266-13.403a4.438 4.438 0 0 0-6.67 0zM267.814 5.33a7.952 7.952 0 1 1-7.952 7.952 7.952 7.952 0 0 1 7.952-7.952z" fill="#848484"/><path transform="translate(212.448)" fill="url(#a)" d="M0 0h67.552v75H0z"/></g><g transform="translate(6 86.148)"><rect width="18" height="7" rx="1" fill="#2c2c2c"/><text transform="translate(5 5)" fill="#fff" font-size="3" font-family="Roboto-Regular, Roboto" style="isolation:isolate"><tspan x="0" y="0">FOOD</tspan></text></g><text transform="translate(6 104.681)" fill="#fff" font-size="7" font-family="Roboto-Medium, Roboto" font-weight="500"><tspan x="0" y="0">Fusce veit metus, sodales vita portitor </tspan><tspan x="0" y="7">quis, interdum</tspan></text><g><text transform="translate(65.931 121.754)" fill="#fff" font-size="3" font-family="Roboto-Regular, Roboto"><tspan x="0" y="0">12 Minute Read</tspan></text><path d="M63.747 119.58h-2.978a.5.5 0 1 1 0-1h2.979a.134.134 0 0 0 0-.268h-2.979a.771.771 0 0 0-.769.766v3.351a.771.771 0 0 0 .769.769h2.979a.134.134 0 0 0 .134-.134v-3.355a.135.135 0 0 0-.135-.134zm-.134 3.35-2.844-.005a.5.5 0 0 1-.5-.5v-2.763a.768.768 0 0 0 .5.186h2.844z" fill="#fff"/><path d="M60.812 118.957a.134.134 0 1 0 0 .268h2.516a.134.134 0 1 0 0-.268zM61.283 122.344a.144.144 0 0 0 .045.008.133.133 0 0 0 .126-.089l.163-.456h.645l.163.457a.134.134 0 0 0 .126.089.144.144 0 0 0 .045-.008.134.134 0 0 0 .081-.171l-.61-1.711a.061.061 0 0 0-.005-.012l-.006-.012a.042.042 0 0 1 0-.007l-.005-.006-.005-.005-.005-.005-.006-.005H62.017l-.012-.005H61.917l-.012.005-.012.006h-.007l-.006.005-.005.005-.005.005-.005.006v.006l-.006.012a.064.064 0 0 0-.005.012l-.612 1.711a.139.139 0 0 0 .084.172zm.658-1.439.227.634h-.454l.228-.634z" fill="#fff"/><g fill="#fff"><text transform="translate(12.274 121.756)" font-size="3" font-family="Roboto-Regular, Roboto"><tspan x="0" y="0">Jon Doe</tspan></text><path d="M10.426 122.969a.246.246 0 1 1-.492 0v-.492a.738.738 0 0 0-.734-.738H7.229a.738.738 0 0 0-.738.738v.492a.246.246 0 1 1-.492 0v-.492a1.23 1.23 0 0 1 1.23-1.229H9.2a1.23 1.23 0 0 1 1.226 1.229zm-2.213-2.213a1.229 1.229 0 1 1 1.229-1.23 1.23 1.23 0 0 1-1.229 1.23zm0-.492a.738.738 0 1 0-.738-.738.738.738 0 0 0 .738.738z"/></g><g><text transform="translate(35.645 121.646)" fill="#fff" font-size="3" font-family="Roboto-Regular, Roboto"><tspan x="0" y="0">June 19, 2021</tspan></text><path d="M30.206 119.162h-.362a.381.381 0 0 0-.382.382v.479h3.882v-.48a.381.381 0 0 0-.382-.382h-.368v.126a.229.229 0 0 1-.458 0v-.125h-1.472v.125a.229.229 0 0 1-.458 0zm.458-.458h1.472v-.382a.229.229 0 1 1 .458 0v.382h.367a.839.839 0 0 1 .84.84v2.814a.839.839 0 0 1-.84.84h-3.117a.839.839 0 0 1-.84-.84v-2.815a.839.839 0 0 1 .84-.839h.367v-.382a.229.229 0 1 1 .458 0zm-1.206 1.777v1.877a.381.381 0 0 0 .386.379h3.116a.381.381 0 0 0 .384-.379v-1.877z" fill="#fff"/></g><text transform="translate(25 121.215)" fill="#fff" font-size="4" font-family="Roboto-Regular, Roboto"><tspan x="0" y="0">.</tspan></text><text transform="translate(57 121.215)" fill="#fff" font-size="4" font-family="Roboto-Regular, Roboto"><tspan x="0" y="0">.</tspan></text></g><text transform="translate(6 133.681)" fill="#fff" font-size="4" font-family="Roboto-Regular, Roboto"><tspan x="0" y="4">Fusce velit metus, sodales vitae porttitor quis, interdum in quam. </tspan><tspan x="0" y="9.5">Proin mollis justo non neque dapibus…</tspan></text><text transform="translate(146 138.681)" fill="#fff" font-size="5" font-family="Roboto-Medium, Roboto" font-weight="500"><tspan x="0" y="0">Nulla non maximus tellus, </tspan><tspan x="0" y="7">porttito aliquam</tspan></text><text transform="translate(146 59.844)" fill="#fff" font-size="5" font-family="Roboto-Medium, Roboto" font-weight="500"><tspan x="0" y="0">Nulla non maximus tellus, </tspan><tspan x="0" y="7">porttito aliquam</tspan></text><text transform="translate(217.113 138.681)" fill="#fff" font-size="5" font-family="Roboto-Medium, Roboto" font-weight="500"><tspan x="0" y="0">Vivamus ac metus frment</tspan><tspan x="0" y="7">suscipit libero</tspan></text><text transform="translate(217.113 59.844)" fill="#fff" font-size="5" font-family="Roboto-Medium, Roboto" font-weight="500"><tspan x="0" y="0">Vivamus ac metus frment</tspan><tspan x="0" y="7">suscipit libero</tspan></text></svg>