<svg xmlns="http://www.w3.org/2000/svg" width="280" height="166"><defs><linearGradient id="a" x1=".5" x2=".5" y2="1" gradientUnits="objectBoundingBox"><stop offset="0" stop-opacity="0"/><stop offset="1" stop-opacity=".502"/></linearGradient></defs><path fill="#ffc3c3" d="M114 0h82v166h-82z"/><path fill="#919191" d="M198 0h82v82h-82zM198 84h82v82h-82z"/><g transform="translate(-251.05 -135.06)"><path fill="#919191" d="M251.05 135.06h112v166h-112z"/><path d="M363.05 222.13v78.93h-112v-63.84l39.283-39.283a8.68 8.68 0 0 1 12.274 0l17.324 17.324a8.678 8.678 0 0 0 12.276 0l5.846-5.849a8.679 8.679 0 0 1 12.276 0z" fill="#848484"/><circle cx="13.302" cy="13.302" r="13.302" transform="translate(323.738 148.239)" fill="#848484"/></g><g transform="translate(-137.05 -135.06)"><path fill="#919191" d="M251.05 135.06h82v166h-82z"/><path d="M333.05 243.272v57.788h-82v-46.74l28.761-28.761a6.355 6.355 0 0 1 8.986 0l12.684 12.684a6.354 6.354 0 0 0 8.988 0l4.28-4.282a6.355 6.355 0 0 1 8.988 0z" fill="#848484"/><circle cx="9.302" cy="9.302" r="9.302" transform="translate(300.738 172.239)" fill="#848484"/></g><path d="M198.203 156.494V166h81.8v-2.683l-15.842-15.839a6.03 6.03 0 0 0-8.527 0l-5.826 5.826a6.03 6.03 0 0 1-8.527 0l-15.68-15.679a6.03 6.03 0 0 0-8.527 0zM198.203 72.494V82h81.8v-2.683l-15.842-15.839a6.03 6.03 0 0 0-8.527 0l-5.826 5.826a6.03 6.03 0 0 1-8.527 0l-15.68-15.679a6.03 6.03 0 0 0-8.527 0zM260.013 104.905a10.047 10.047 0 1 1-10.047 10.047 10.047 10.047 0 0 1 10.047-10.047zM260.013 20.905a10.047 10.047 0 1 1-10.047 10.047 10.047 10.047 0 0 1 10.047-10.047z" fill="#848484"/><path fill="url(#a)" d="M0 0h112v166H0z"/><path transform="translate(114)" fill="url(#a)" d="M0 0h82v166H0z"/><path transform="translate(198)" fill="url(#a)" d="M0 0h82v82H0z"/><path transform="translate(198 84)" fill="url(#a)" d="M0 0h82v82H0z"/><g transform="translate(8 97.306)"><rect width="18" height="7" rx="1" fill="#2c2c2c"/><text transform="translate(5 5)" fill="#fff" font-size="3" font-family="Roboto-Regular, Roboto" style="isolation:isolate"><tspan x="0" y="0">FOOD</tspan></text></g><text transform="translate(8 115.839)" fill="#fff" font-size="7" font-family="Roboto-Medium, Roboto" font-weight="500"><tspan x="0" y="0">Fusce veit metus, sodales vita </tspan><tspan x="0" y="7">quis, interdum</tspan></text><text transform="translate(121 137.82)" fill="#fff" font-size="5" font-family="Roboto-Medium, Roboto" font-weight="500"><tspan x="0" y="0">Nulla non maximus tellllus, </tspan><tspan x="0" y="7">varius aliquam lorem.</tspan></text><text transform="translate(205 52.82)" fill="#fff" font-size="5" font-family="Roboto-Medium, Roboto" font-weight="500"><tspan x="0" y="0">Nulla non maximus tellllus, </tspan><tspan x="0" y="7">varius aliquam lorem.</tspan></text><text transform="translate(205 137.82)" fill="#fff" font-size="5" font-family="Roboto-Medium, Roboto" font-weight="500"><tspan x="0" y="0">porttitor quis, intrdum in quam </tspan><tspan x="0" y="7">Proin mollis</tspan></text><text transform="translate(67.931 132.912)" fill="#fff" font-size="3" font-family="Roboto-Regular, Roboto"><tspan x="0" y="0">12 Minute Read</tspan></text><path d="M65.747 130.738h-2.978a.5.5 0 1 1 0-1h2.979a.134.134 0 0 0 0-.268h-2.979a.771.771 0 0 0-.769.766v3.351a.771.771 0 0 0 .769.769h2.979a.134.134 0 0 0 .134-.134v-3.355a.135.135 0 0 0-.135-.134zm-.134 3.35-2.844-.005a.5.5 0 0 1-.5-.5v-2.763a.768.768 0 0 0 .5.186h2.844z" fill="#fff"/><path d="M62.812 130.115a.134.134 0 1 0 0 .268h2.516a.134.134 0 1 0 0-.268zM63.283 133.502a.144.144 0 0 0 .045.008.133.133 0 0 0 .126-.089l.163-.456h.645l.163.457a.134.134 0 0 0 .126.089.144.144 0 0 0 .045-.008.134.134 0 0 0 .081-.171l-.61-1.711a.061.061 0 0 0-.005-.012l-.006-.012a.042.042 0 0 1 0-.007l-.005-.006-.005-.005-.005-.005-.006-.005H64.017l-.012-.005H63.917l-.012.005-.012.006h-.007l-.006.005-.005.005-.005.005-.005.006v.006l-.006.012a.064.064 0 0 0-.005.012l-.612 1.711a.139.139 0 0 0 .084.172zm.658-1.439.227.634h-.454l.228-.634z" fill="#fff"/><g fill="#fff"><text transform="translate(14.274 132.914)" font-size="3" font-family="Roboto-Regular, Roboto"><tspan x="0" y="0">Jon Doe</tspan></text><path d="M12.426 134.127a.246.246 0 1 1-.492 0v-.492a.738.738 0 0 0-.734-.738H9.229a.738.738 0 0 0-.738.738v.492a.246.246 0 1 1-.492 0v-.492a1.23 1.23 0 0 1 1.23-1.229H11.2a1.23 1.23 0 0 1 1.226 1.229zm-2.213-2.213a1.229 1.229 0 1 1 1.229-1.23 1.23 1.23 0 0 1-1.229 1.23zm0-.492a.738.738 0 1 0-.738-.738.738.738 0 0 0 .738.738z"/></g><g><text transform="translate(37.645 132.804)" fill="#fff" font-size="3" font-family="Roboto-Regular, Roboto"><tspan x="0" y="0">June 19, 2021</tspan></text><path d="M32.206 130.32h-.362a.381.381 0 0 0-.382.382v.479h3.882v-.48a.381.381 0 0 0-.382-.382h-.368v.126a.229.229 0 0 1-.458 0v-.125h-1.472v.125a.229.229 0 0 1-.458 0zm.458-.458h1.472v-.382a.229.229 0 1 1 .458 0v.382h.367a.839.839 0 0 1 .84.84v2.814a.839.839 0 0 1-.84.84h-3.117a.839.839 0 0 1-.84-.84v-2.815a.839.839 0 0 1 .84-.839h.367v-.382a.229.229 0 1 1 .458 0zm-1.206 1.777v1.877a.381.381 0 0 0 .386.379h3.116a.381.381 0 0 0 .384-.379v-1.877z" fill="#fff"/></g><text transform="translate(27 132.373)" fill="#fff" font-size="4" font-family="Roboto-Regular, Roboto"><tspan x="0" y="0">.</tspan></text><text transform="translate(59 132.373)" fill="#fff" font-size="4" font-family="Roboto-Regular, Roboto"><tspan x="0" y="0">.</tspan></text><text transform="translate(8 144.839)" fill="#fff" font-size="4" font-family="Roboto-Regular, Roboto"><tspan x="0" y="4">Fusce velit metus, sodales vitae porttitor quis, interdum</tspan><tspan x="0" y="9.5">justo non neque dapibus…</tspan></text><g><text transform="translate(127.645 154.287)" fill="#fff" font-size="3" font-family="Roboto-Regular, Roboto"><tspan x="0" y="0">June 19, 2021</tspan></text><path d="M122.206 151.803h-.362a.381.381 0 0 0-.382.382v.479h3.882v-.48a.381.381 0 0 0-.382-.382h-.368v.126a.229.229 0 0 1-.458 0v-.125h-1.472v.125a.229.229 0 0 1-.458 0zm.458-.458h1.472v-.382a.229.229 0 1 1 .458 0v.382h.367a.839.839 0 0 1 .84.84v2.814a.839.839 0 0 1-.84.84h-3.117a.839.839 0 0 1-.84-.84v-2.815a.839.839 0 0 1 .84-.839h.367v-.382a.229.229 0 1 1 .458 0zm-1.206 1.777v1.877a.381.381 0 0 0 .386.379h3.116a.381.381 0 0 0 .384-.379v-1.877z" fill="#fff"/></g><g><text transform="translate(211.645 69.287)" fill="#fff" font-size="3" font-family="Roboto-Regular, Roboto"><tspan x="0" y="0">June 19, 2021</tspan></text><path d="M206.206 66.803h-.362a.381.381 0 0 0-.382.382v.479h3.882v-.48a.381.381 0 0 0-.382-.382h-.368v.126a.229.229 0 0 1-.458 0v-.125h-1.472v.125a.229.229 0 0 1-.458 0zm.458-.458h1.472v-.382a.229.229 0 1 1 .458 0v.382h.367a.839.839 0 0 1 .84.84v2.814a.839.839 0 0 1-.84.84h-3.117a.839.839 0 0 1-.84-.84v-2.815a.839.839 0 0 1 .84-.839h.367v-.382a.229.229 0 1 1 .458 0zm-1.206 1.777v1.877a.381.381 0 0 0 .386.379h3.116a.381.381 0 0 0 .384-.379v-1.877z" fill="#fff"/></g><g><text transform="translate(211.645 154.287)" fill="#fff" font-size="3" font-family="Roboto-Regular, Roboto"><tspan x="0" y="0">June 19, 2021</tspan></text><path d="M206.206 151.803h-.362a.381.381 0 0 0-.382.382v.479h3.882v-.48a.381.381 0 0 0-.382-.382h-.368v.126a.229.229 0 0 1-.458 0v-.125h-1.472v.125a.229.229 0 0 1-.458 0zm.458-.458h1.472v-.382a.229.229 0 1 1 .458 0v.382h.367a.839.839 0 0 1 .84.84v2.814a.839.839 0 0 1-.84.84h-3.117a.839.839 0 0 1-.84-.84v-2.815a.839.839 0 0 1 .84-.839h.367v-.382a.229.229 0 1 1 .458 0zm-1.206 1.777v1.877a.381.381 0 0 0 .386.379h3.116a.381.381 0 0 0 .384-.379v-1.877z" fill="#fff"/></g></svg>