<svg xmlns="http://www.w3.org/2000/svg" width="226" height="259.354"><defs><linearGradient id="a" x1=".5" x2=".5" y2="1" gradientUnits="objectBoundingBox"><stop offset="0" stop-opacity="0"/><stop offset="1" stop-opacity=".455"/></linearGradient></defs><path fill="#919191" d="M0 104.52h51.481v30.897H0z"/><path d="M0 129.438v5.983h51.481v-1.693l-9.969-9.969a3.8 3.8 0 0 0-5.367 0l-3.667 3.667a3.8 3.8 0 0 1-5.367 0l-9.868-9.868a3.8 3.8 0 0 0-5.367 0zM38.25 113.598a3.154 3.154 0 1 1-3.154 3.154 3.154 3.154 0 0 1 3.154-3.154z" fill="#848484"/><path fill="#919191" d="M0 153.52h51.481v30.897H0z"/><path d="M0 178.438v5.983h51.481v-1.693l-9.969-9.969a3.8 3.8 0 0 0-5.367 0l-3.667 3.667a3.8 3.8 0 0 1-5.367 0l-9.868-9.868a3.8 3.8 0 0 0-5.367 0zM38.25 162.598a3.154 3.154 0 1 1-3.154 3.154 3.154 3.154 0 0 1 3.154-3.154z" fill="#848484"/><path fill="#919191" d="M0 202.52h51.481v30.897H0z"/><path d="M0 227.438v5.983h51.481v-1.693l-9.969-9.969a3.8 3.8 0 0 0-5.367 0l-3.667 3.667a3.8 3.8 0 0 1-5.367 0l-9.868-9.868a3.8 3.8 0 0 0-5.367 0zM38.25 211.598a3.154 3.154 0 1 1-3.154 3.154 3.154 3.154 0 0 1 3.154-3.154z" fill="#848484"/><path fill="#919191" d="M0 153.52h51.481v30.897H0z"/><path d="M0 178.438v5.983h51.481v-1.693l-9.969-9.969a3.8 3.8 0 0 0-5.367 0l-3.667 3.667a3.8 3.8 0 0 1-5.367 0l-9.868-9.868a3.8 3.8 0 0 0-5.367 0zM38.25 162.598a3.154 3.154 0 1 1-3.154 3.154 3.154 3.154 0 0 1 3.154-3.154z" fill="#848484"/><path fill="#919191" d="M0 202.52h51.481v30.897H0z"/><path d="M0 227.438v5.983h51.481v-1.693l-9.969-9.969a3.8 3.8 0 0 0-5.367 0l-3.667 3.667a3.8 3.8 0 0 1-5.367 0l-9.868-9.868a3.8 3.8 0 0 0-5.367 0zM38.25 211.598a3.154 3.154 0 1 1-3.154 3.154 3.154 3.154 0 0 1 3.154-3.154z" fill="#848484"/><path d="M.5 144.354H226M.5 193.354H226" fill="none" stroke="#707070" stroke-width=".3" stroke-dasharray="2"/><g transform="translate(-22 -101.646)"><rect width="34" height="10" rx="1" transform="translate(22 351)" fill="#2c2c2c"/><rect width="24" height="10" rx="1" transform="translate(94 351)" fill="#2c2c2c"/><rect width="10" height="10" rx="1" transform="translate(58 351)" fill="#2c2c2c"/><rect width="10" height="10" rx="1" transform="translate(70 351)" fill="#2c2c2c"/><rect width="10" height="10" rx="1" transform="translate(82 351)" fill="#2c2c2c"/><text transform="translate(32.237 358)" fill="#fff" font-size="5" font-family="Roboto-Regular, Roboto"><tspan x="0" y="0">Previous</tspan></text><path d="M28.86 354.5 27 356.36l1.86 1.86" fill="none" stroke="#fff" stroke-width=".5"/><text transform="translate(98 358)" fill="#fff" font-size="5" font-family="Roboto-Regular, Roboto"><tspan x="0" y="0">Next</tspan></text><path d="m111.377 354.5 1.86 1.86-1.86 1.86" fill="none" stroke="#fff" stroke-width=".5"/><text transform="translate(62 358)" fill="#fff" font-size="5" font-family="Roboto-Regular, Roboto"><tspan x="0" y="0">1</tspan></text><text transform="translate(74 358)" fill="#fff" font-size="5" font-family="Roboto-Regular, Roboto"><tspan x="0" y="0">2</tspan></text><text transform="translate(86 358)" fill="#fff" font-size="5" font-family="Roboto-Regular, Roboto"><tspan x="0" y="0">3</tspan></text></g><g><path fill="#919191" d="M0 0h226v88.714H0z"/><path d="M0 65.883v22.832h203.255L158.407 44.23a14.481 14.481 0 0 0-20.479 0l-13.993 13.992a14.481 14.481 0 0 1-20.479 0L65.799 20.565a14.481 14.481 0 0 0-20.479 0zM186.022 16.324a17.158 17.158 0 1 1-17.158 17.158 17.158 17.158 0 0 1 17.158-17.158z" fill="#848484"/><path transform="translate(0 .354)" fill="url(#a)" d="M0 0h226v88H0z"/></g><g style="isolation:isolate"><text transform="translate(9 32.354)" fill="#83c6ff" font-size="6" font-family="Roboto-Regular, Roboto" style="isolation:isolate"><tspan x="0" y="0">Lifestyle</tspan></text></g><text transform="translate(9 45.354)" fill="#fff" font-size="9" font-family="Roboto-Medium, Roboto" font-weight="500"><tspan x="0" y="0">Fusce velit metus, sodales vitae porttitor quis</tspan></text><g><text transform="translate(95.428 56.354)" fill="#fff" font-size="5" font-family="Roboto-Regular, Roboto"><tspan x="0" y="0">12 Minute Read</tspan></text><g fill="#fff"><path d="M93.062 53.082h-3.228a.544.544 0 1 1 0-1.087h3.229a.145.145 0 0 0 0-.29h-3.229a.835.835 0 0 0-.834.833v3.632a.835.835 0 0 0 .834.834h3.229a.145.145 0 0 0 .145-.145v-3.632a.147.147 0 0 0-.146-.145zm-.145 3.632h-3.083a.544.544 0 0 1-.544-.544v-3a.832.832 0 0 0 .544.2h3.083z"/><path d="M89.88 52.406a.145.145 0 1 0 0 .29h2.727a.145.145 0 1 0 0-.29zM90.391 56.078a.156.156 0 0 0 .049.009.144.144 0 0 0 .136-.1l.177-.494h.7l.177.5a.145.145 0 0 0 .136.1.156.156 0 0 0 .049-.009.145.145 0 0 0 .087-.186l-.665-1.858a.066.066 0 0 0-.005-.013l-.007-.013a.047.047 0 0 1 0-.008l-.005-.007-.005-.005-.005-.005-.007-.005h-.021l-.013-.005H91.073l-.013.005-.013.007h-.008l-.007.005-.005.005-.005.005-.005.007v.007l-.007.013a.068.068 0 0 0-.005.013l-.664 1.855a.15.15 0 0 0 .091.187zm.713-1.56.246.688h-.492l.247-.688z"/></g><text transform="translate(15.801 56.354)" fill="#fff" font-size="5" font-family="Roboto-Regular, Roboto"><tspan x="0" y="0">Jon Doe</tspan></text><path d="M13.8 56.753a.267.267 0 1 1-.533 0v-.533a.8.8 0 0 0-.8-.8h-2.134a.8.8 0 0 0-.8.8v.533a.267.267 0 1 1-.533 0v-.533a1.333 1.333 0 0 1 1.333-1.331h2.132A1.333 1.333 0 0 1 13.8 56.22zm-2.4-2.4a1.333 1.333 0 1 1 1.331-1.331 1.333 1.333 0 0 1-1.331 1.332zm0-.533a.8.8 0 1 0-.8-.8.8.8 0 0 0 .8.801z" fill="#fff"/><text transform="translate(49.203 56.354)" fill="#fff" font-size="5" font-family="Roboto-Regular, Roboto"><tspan x="0" y="0">June 19, 2021</tspan></text><path d="M43.307 52.745h-.4a.413.413 0 0 0-.414.414v.52h4.21v-.52a.413.413 0 0 0-.414-.414h-.4v.136a.25.25 0 0 1-.5 0v-.136h-1.585v.136a.25.25 0 0 1-.5 0zm.5-.5h1.6l-.003-.414a.25.25 0 1 1 .5 0v.418h.4a.91.91 0 0 1 .91.91v3.051a.91.91 0 0 1-.91.91H42.91a.91.91 0 0 1-.91-.91v-3.051a.91.91 0 0 1 .91-.91h.4v-.418a.25.25 0 1 1 .5 0zm-1.311 1.93v2.035a.413.413 0 0 0 .414.414h3.383a.413.413 0 0 0 .414-.414v-2.035z" fill="#fff"/><text transform="translate(38 55.354)" fill="#fff" font-size="5" font-family="Roboto-Regular, Roboto"><tspan x="0" y="0">.</tspan></text><text transform="translate(84 55.354)" fill="#fff" font-size="5" font-family="Roboto-Regular, Roboto"><tspan x="0" y="0">.</tspan></text></g><text transform="translate(9 72.354)" fill="#fff" font-size="5" font-family="Roboto-Regular, Roboto"><tspan x="0" y="0">Fusce velit metus, sodales vitae porttitor quis, interdum in quam. Proin mollis </tspan><tspan x="0" y="7" xml:space="preserve">porttitor quis justo non  metus…</tspan></text><g><text transform="translate(57 112.354)" fill="#2c2c2c" font-size="6" font-family="Roboto-Medium, Roboto" font-weight="500"><tspan x="0" y="0">Duis et consectetur felis. Donec pharetra sem ac turpis</tspan></text><text transform="translate(63.065 119.843)" fill="#8d8d8d" font-size="4" font-family="Roboto-Regular, Roboto"><tspan x="0" y="0">Jon Doe</tspan></text><path d="M61.278 120.658a.238.238 0 1 1-.475 0v-.475a.713.713 0 0 0-.713-.713h-1.9a.713.713 0 0 0-.713.713v.475a.238.238 0 1 1-.475 0v-.475a1.189 1.189 0 0 1 1.186-1.189h1.9a1.189 1.189 0 0 1 1.19 1.189zm-2.139-2.139a1.188 1.188 0 1 1 1.189-1.189 1.189 1.189 0 0 1-1.189 1.189zm0-.475a.713.713 0 1 0-.713-.713.713.713 0 0 0 .713.711z" fill="#8d8d8d"/><text transform="translate(92.423 119.843)" fill="#8d8d8d" font-size="4" font-family="Roboto-Regular, Roboto"><tspan x="0" y="0">June 19, 2021</tspan></text><path d="M87.166 117.084h-.354a.369.369 0 0 0-.368.369v.464h3.753v-.464a.369.369 0 0 0-.369-.369h-.354v.121a.222.222 0 0 1-.443 0v-.121h-1.422v.121a.222.222 0 0 1-.443 0zm.443-.443h1.422v-.369a.222.222 0 1 1 .443 0v.369h.354a.812.812 0 0 1 .812.812v2.721a.812.812 0 0 1-.812.812h-3.016a.812.812 0 0 1-.812-.812v-2.721a.812.812 0 0 1 .812-.812h.354v-.369a.222.222 0 1 1 .443 0zm-1.165 1.718v1.815a.369.369 0 0 0 .369.369h3.015a.369.369 0 0 0 .369-.369v-1.815z" fill="#8d8d8d"/><text transform="translate(82 118.951)" fill="#8d8d8d" font-size="4" font-family="Roboto-Regular, Roboto"><tspan x="0" y="0">.</tspan></text><text transform="translate(57 132.354)" fill="#575757" font-size="5" font-family="Roboto-Regular, Roboto"><tspan x="0" y="0">Nulla non maximus tellus, varius aliquam lorem. Fusce velit metus portitor…</tspan></text></g><g><text transform="translate(57 161.354)" fill="#2c2c2c" font-size="6" font-family="Roboto-Medium, Roboto" font-weight="500"><tspan x="0" y="0">Sed aliquam venenatis mi ut consequat. Duis pharetra mi</tspan></text><text transform="translate(63.065 168.843)" fill="#8d8d8d" font-size="4" font-family="Roboto-Regular, Roboto"><tspan x="0" y="0">Jon Doe</tspan></text><path d="M61.278 169.658a.238.238 0 1 1-.475 0v-.475a.713.713 0 0 0-.713-.713h-1.9a.713.713 0 0 0-.713.713v.475a.238.238 0 1 1-.475 0v-.475a1.189 1.189 0 0 1 1.186-1.189h1.9a1.189 1.189 0 0 1 1.19 1.189zm-2.139-2.139a1.188 1.188 0 1 1 1.189-1.189 1.189 1.189 0 0 1-1.189 1.189zm0-.475a.713.713 0 1 0-.713-.713.713.713 0 0 0 .713.711z" fill="#8d8d8d"/><text transform="translate(92.423 168.843)" fill="#8d8d8d" font-size="4" font-family="Roboto-Regular, Roboto"><tspan x="0" y="0">June 19, 2021</tspan></text><path d="M87.166 166.084h-.354a.369.369 0 0 0-.368.369v.464h3.753v-.464a.369.369 0 0 0-.369-.369h-.354v.121a.222.222 0 0 1-.443 0v-.121h-1.422v.121a.222.222 0 0 1-.443 0zm.443-.443h1.422v-.369a.222.222 0 1 1 .443 0v.369h.354a.812.812 0 0 1 .812.812v2.721a.812.812 0 0 1-.812.812h-3.016a.812.812 0 0 1-.812-.812v-2.721a.812.812 0 0 1 .812-.812h.354v-.369a.222.222 0 1 1 .443 0zm-1.165 1.718v1.815a.369.369 0 0 0 .369.369h3.015a.369.369 0 0 0 .369-.369v-1.815z" fill="#8d8d8d"/><text transform="translate(82 167.951)" fill="#8d8d8d" font-size="4" font-family="Roboto-Regular, Roboto"><tspan x="0" y="0">.</tspan></text><text transform="translate(57 181.354)" fill="#575757" font-size="5" font-family="Roboto-Regular, Roboto"><tspan x="0" y="0">Cras vitae elit volutpat, dapibus mi quis, cursus orci. Ut tristique mauris ut…</tspan></text></g><g><text transform="translate(57 210.354)" fill="#2c2c2c" font-size="6" font-family="Roboto-Medium, Roboto" font-weight="500"><tspan x="0" y="0">Integer at lobortis libero, quis posuere nibh. Proin facilisis</tspan></text><text transform="translate(63.065 217.843)" fill="#8d8d8d" font-size="4" font-family="Roboto-Regular, Roboto"><tspan x="0" y="0">Jon Doe</tspan></text><path d="M61.278 218.658a.238.238 0 1 1-.475 0v-.475a.713.713 0 0 0-.713-.713h-1.9a.713.713 0 0 0-.713.713v.475a.238.238 0 1 1-.475 0v-.475a1.189 1.189 0 0 1 1.186-1.189h1.9a1.189 1.189 0 0 1 1.19 1.189zm-2.139-2.139a1.188 1.188 0 1 1 1.189-1.189 1.189 1.189 0 0 1-1.189 1.189zm0-.475a.713.713 0 1 0-.713-.713.713.713 0 0 0 .713.711z" fill="#8d8d8d"/><text transform="translate(92.423 217.843)" fill="#8d8d8d" font-size="4" font-family="Roboto-Regular, Roboto"><tspan x="0" y="0">June 19, 2021</tspan></text><path d="M87.166 215.084h-.354a.369.369 0 0 0-.368.369v.464h3.753v-.464a.369.369 0 0 0-.369-.369h-.354v.121a.222.222 0 0 1-.443 0v-.121h-1.422v.121a.222.222 0 0 1-.443 0zm.443-.443h1.422v-.369a.222.222 0 1 1 .443 0v.369h.354a.812.812 0 0 1 .812.812v2.721a.812.812 0 0 1-.812.812h-3.016a.812.812 0 0 1-.812-.812v-2.721a.812.812 0 0 1 .812-.812h.354v-.369a.222.222 0 1 1 .443 0zm-1.165 1.718v1.815a.369.369 0 0 0 .369.369h3.015a.369.369 0 0 0 .369-.369v-1.815z" fill="#8d8d8d"/><text transform="translate(82 216.951)" fill="#8d8d8d" font-size="4" font-family="Roboto-Regular, Roboto"><tspan x="0" y="0">.</tspan></text><text transform="translate(57 230.354)" fill="#575757" font-size="5" font-family="Roboto-Regular, Roboto"><tspan x="0" y="0">In gravida vehicula nibh sit amet volutpat. In eget urna ipsum. Sed aliqua…</tspan></text></g></svg>