<svg xmlns="http://www.w3.org/2000/svg" width="280" height="142.533"><g transform="translate(-22 -2243)"><path fill="#919191" d="M22 2317h89.469v68.533H22z"/><path d="M22 2375.484v10.049h89.469l-19.743-19.581a6.374 6.374 0 0 0-9.015 0l-6.159 6.159a6.374 6.374 0 0 1-9.015 0l-16.573-16.575a6.374 6.374 0 0 0-9.015 0zm73.643-39.313a6.793 6.793 0 1 1-6.793 6.793 6.793 6.793 0 0 1 6.793-6.793z" fill="#848484"/><path fill="rgba(87,255,138,0.26)" d="M22 2317h90v68H22z"/><rect width="18" height="7" rx="1" transform="translate(27 2350)" fill="#2c2c2c"/><text transform="translate(31 2355)" fill="#fff" font-size="3" font-family="Roboto-Regular, Roboto" style="isolation:isolate"><tspan x="0" y="0">LEAGUE</tspan></text><text transform="translate(27 2365)" fill="#fff" font-size="4.5" font-family="Roboto-Medium, Roboto" font-weight="500"><tspan x="0" y="0">Nulla non maximus tellus, varius </tspan><tspan x="0" y="5">aliquam lorem</tspan></text><text transform="translate(31.768 2377)" fill="#fff" font-size="3" font-family="Roboto-Regular, Roboto"><tspan x="0" y="0">Jon Doe</tspan></text><path d="M30.364 2377.55a.187.187 0 1 1-.374 0v-.373a.561.561 0 0 0-.561-.561h-1.495a.561.561 0 0 0-.561.561v.373a.187.187 0 1 1-.373 0v-.373a.934.934 0 0 1 .934-.934h1.495a.934.934 0 0 1 .934.934zm-1.682-1.681a.934.934 0 1 1 .934-.935.934.934 0 0 1-.934.935zm0-.374a.561.561 0 1 0-.561-.561.561.561 0 0 0 .561.561z" fill="#fff"/><text transform="translate(55.187 2377)" fill="#fff" font-size="3" font-family="Roboto-Regular, Roboto"><tspan x="0" y="0">June 19, 2021</tspan></text><path d="M51.054 2374.812h-.279a.29.29 0 0 0-.29.29v.364h2.952v-.364a.29.29 0 0 0-.29-.29h-.279v.1a.174.174 0 0 1-.348 0v-.1h-1.118v.1a.174.174 0 0 1-.348 0zm.348-.348h1.118v-.29a.174.174 0 1 1 .348 0v.29h.279a.638.638 0 0 1 .638.638v2.142a.638.638 0 0 1-.638.638h-2.372a.638.638 0 0 1-.638-.638v-2.142a.638.638 0 0 1 .638-.638h.279v-.29a.174.174 0 1 1 .348 0zm-.921 1.351v1.429a.29.29 0 0 0 .29.29h2.376a.29.29 0 0 0 .29-.29v-1.429z" fill="#fff"/><text transform="translate(45.601 2377)" fill="#fff" font-size="4.5" font-family="Roboto-Medium, Roboto" font-weight="500"><tspan x="0" y="0">.</tspan></text><path d="M220.364 2377.55a.187.187 0 1 1-.374 0v-.373a.561.561 0 0 0-.561-.561h-1.495a.561.561 0 0 0-.561.561v.373a.187.187 0 1 1-.373 0v-.373a.934.934 0 0 1 .934-.934h1.495a.934.934 0 0 1 .934.934zm-1.682-1.681a.934.934 0 1 1 .934-.935.934.934 0 0 1-.934.935zm0-.374a.561.561 0 1 0-.561-.561.561.561 0 0 0 .561.561z" fill="#fff"/><path fill="#919191" d="M212 2317h89.469v68.533H212z"/><path d="M212 2375.484v10.049h89.469l-19.743-19.581a6.374 6.374 0 0 0-9.015 0l-6.159 6.159a6.374 6.374 0 0 1-9.015 0l-16.573-16.575a6.374 6.374 0 0 0-9.015 0zm73.643-39.313a6.793 6.793 0 1 1-6.793 6.793 6.793 6.793 0 0 1 6.793-6.793z" fill="#848484"/><path fill="rgba(87,255,138,0.26)" d="M212 2317h90v68h-90z"/><rect width="18" height="7" rx="1" transform="translate(217 2350)" fill="#2c2c2c"/><text transform="translate(221 2355)" fill="#fff" font-size="3" font-family="Roboto-Regular, Roboto" style="isolation:isolate"><tspan x="0" y="0">LEAGUE</tspan></text><text transform="translate(217 2365)" fill="#fff" font-size="4.5" font-family="Roboto-Medium, Roboto" font-weight="500"><tspan x="0" y="0">Nulla non maximus tellus, varius </tspan><tspan x="0" y="5">aliquam lorem</tspan></text><text transform="translate(221.768 2377)" fill="#fff" font-size="3" font-family="Roboto-Regular, Roboto"><tspan x="0" y="0">Jon Doe</tspan></text><text transform="translate(245.187 2377)" fill="#fff" font-size="3" font-family="Roboto-Regular, Roboto"><tspan x="0" y="0">June 19, 2021</tspan></text><path d="M241.054 2374.812h-.279a.29.29 0 0 0-.29.29v.364h2.952v-.364a.29.29 0 0 0-.29-.29h-.279v.1a.174.174 0 0 1-.348 0v-.1h-1.118v.1a.174.174 0 0 1-.348 0zm.348-.348h1.118v-.29a.174.174 0 1 1 .348 0v.29h.279a.638.638 0 0 1 .638.638v2.142a.638.638 0 0 1-.638.638h-2.372a.638.638 0 0 1-.638-.638v-2.142a.638.638 0 0 1 .638-.638h.279v-.29a.174.174 0 1 1 .348 0zm-.921 1.351v1.429a.29.29 0 0 0 .29.29h2.376a.29.29 0 0 0 .29-.29v-1.429z" fill="#fff"/><text transform="translate(235.601 2377)" fill="#fff" font-size="4.5" font-family="Roboto-Medium, Roboto" font-weight="500"><tspan x="0" y="0">.</tspan></text><path d="M125.364 2377.55a.187.187 0 1 1-.374 0v-.373a.561.561 0 0 0-.561-.561h-1.495a.561.561 0 0 0-.561.561v.373a.187.187 0 1 1-.373 0v-.373a.934.934 0 0 1 .934-.934h1.495a.934.934 0 0 1 .934.934zm-1.682-1.681a.934.934 0 1 1 .934-.935.934.934 0 0 1-.934.935zm0-.374a.561.561 0 1 0-.561-.561.561.561 0 0 0 .561.561z" fill="#fff"/><path fill="#919191" d="M117 2317h89.469v68.533H117z"/><path d="M117 2375.484v10.049h89.469l-19.743-19.581a6.374 6.374 0 0 0-9.015 0l-6.159 6.159a6.374 6.374 0 0 1-9.015 0l-16.573-16.575a6.374 6.374 0 0 0-9.015 0zm73.643-39.313a6.793 6.793 0 1 1-6.793 6.793 6.793 6.793 0 0 1 6.793-6.793z" fill="#848484"/><path fill="rgba(255,20,165,0.26)" d="M117 2317h90v68h-90z"/><rect width="18" height="7" rx="1" transform="translate(122 2350)" fill="#2c2c2c"/><text transform="translate(126 2355)" fill="#fff" font-size="3" font-family="Roboto-Regular, Roboto" style="isolation:isolate"><tspan x="0" y="0">LEAGUE</tspan></text><text transform="translate(122 2365)" fill="#fff" font-size="4.5" font-family="Roboto-Medium, Roboto" font-weight="500"><tspan x="0" y="0">Fusce velit metus, sodales vita porttitor </tspan><tspan x="0" y="5">quis, interdum in quam</tspan></text><text transform="translate(126.768 2377)" fill="#fff" font-size="3" font-family="Roboto-Regular, Roboto"><tspan x="0" y="0">Jon Doe</tspan></text><text transform="translate(150.187 2377)" fill="#fff" font-size="3" font-family="Roboto-Regular, Roboto"><tspan x="0" y="0">June 19, 2021</tspan></text><path d="M146.054 2374.812h-.279a.29.29 0 0 0-.29.29v.364h2.952v-.364a.29.29 0 0 0-.29-.29h-.279v.1a.174.174 0 0 1-.348 0v-.1h-1.118v.1a.174.174 0 0 1-.348 0zm.348-.348h1.118v-.29a.174.174 0 1 1 .348 0v.29h.279a.638.638 0 0 1 .638.638v2.142a.638.638 0 0 1-.638.638h-2.372a.638.638 0 0 1-.638-.638v-2.142a.638.638 0 0 1 .638-.638h.279v-.29a.174.174 0 1 1 .348 0zm-.921 1.351v1.429a.29.29 0 0 0 .29.29h2.376a.29.29 0 0 0 .29-.29v-1.429z" fill="#fff"/><text transform="translate(140.601 2377)" fill="#fff" font-size="4.5" font-family="Roboto-Medium, Roboto" font-weight="500"><tspan x="0" y="0">.</tspan></text><path fill="#919191" d="M22 2243h89.469v68.533H22z"/><path d="M22 2301.484v10.049h89.469l-19.743-19.581a6.374 6.374 0 0 0-9.015 0l-6.159 6.159a6.374 6.374 0 0 1-9.015 0l-16.573-16.575a6.374 6.374 0 0 0-9.015 0zm73.643-39.313a6.793 6.793 0 1 1-6.793 6.793 6.793 6.793 0 0 1 6.793-6.793z" fill="#848484"/><path fill="rgba(255,20,20,0.26)" d="M22 2243h90v68H22z"/><rect width="18" height="7" rx="1" transform="translate(27 2277)" fill="#2c2c2c"/><text transform="translate(31 2282)" fill="#fff" font-size="3" font-family="Roboto-Regular, Roboto" style="isolation:isolate"><tspan x="0" y="0">LEAGUE</tspan></text><text transform="translate(27 2292)" fill="#fff" font-size="4.5" font-family="Roboto-Medium, Roboto" font-weight="500"><tspan x="0" y="0">Fusce velit metus, sodales vita porttitor </tspan><tspan x="0" y="5">quis, interdum in quam</tspan></text><text transform="translate(31.768 2304)" fill="#fff" font-size="3" font-family="Roboto-Regular, Roboto"><tspan x="0" y="0">Jon Doe</tspan></text><path d="M30.364 2304.55a.187.187 0 1 1-.374 0v-.373a.561.561 0 0 0-.561-.561h-1.495a.561.561 0 0 0-.561.561v.373a.187.187 0 1 1-.373 0v-.373a.934.934 0 0 1 .934-.934h1.495a.934.934 0 0 1 .934.934zm-1.682-1.681a.934.934 0 1 1 .934-.935.934.934 0 0 1-.934.935zm0-.374a.561.561 0 1 0-.561-.561.561.561 0 0 0 .561.561z" fill="#fff"/><text transform="translate(55.187 2304)" fill="#fff" font-size="3" font-family="Roboto-Regular, Roboto"><tspan x="0" y="0">June 19, 2021</tspan></text><path d="M51.054 2301.812h-.279a.29.29 0 0 0-.29.29v.364h2.952v-.364a.29.29 0 0 0-.29-.29h-.279v.1a.174.174 0 0 1-.348 0v-.1h-1.118v.1a.174.174 0 0 1-.348 0zm.348-.348h1.118v-.29a.174.174 0 1 1 .348 0v.29h.279a.638.638 0 0 1 .638.638v2.142a.638.638 0 0 1-.638.638h-2.372a.638.638 0 0 1-.638-.638v-2.142a.638.638 0 0 1 .638-.638h.279v-.29a.174.174 0 1 1 .348 0zm-.921 1.351v1.429a.29.29 0 0 0 .29.29h2.376a.29.29 0 0 0 .29-.29v-1.429z" fill="#fff"/><text transform="translate(45.601 2304)" fill="#fff" font-size="4.5" font-family="Roboto-Medium, Roboto" font-weight="500"><tspan x="0" y="0">.</tspan></text><path fill="#919191" d="M212 2243h89.469v68.533H212z"/><path d="M212 2301.484v10.049h89.469l-19.743-19.581a6.374 6.374 0 0 0-9.015 0l-6.159 6.159a6.374 6.374 0 0 1-9.015 0l-16.573-16.575a6.374 6.374 0 0 0-9.015 0zm73.643-39.313a6.793 6.793 0 1 1-6.793 6.793 6.793 6.793 0 0 1 6.793-6.793z" fill="#848484"/><path fill="rgba(255,20,20,0.26)" d="M212 2243h90v68h-90z"/><rect width="18" height="7" rx="1" transform="translate(217 2277)" fill="#2c2c2c"/><text transform="translate(221 2282)" fill="#fff" font-size="3" font-family="Roboto-Regular, Roboto" style="isolation:isolate"><tspan x="0" y="0">LEAGUE</tspan></text><text transform="translate(217 2292)" fill="#fff" font-size="4.5" font-family="Roboto-Medium, Roboto" font-weight="500"><tspan x="0" y="0">Fusce velit metus, sodales vita porttitor </tspan><tspan x="0" y="5">quis, interdum in quam</tspan></text><text transform="translate(221.768 2304)" fill="#fff" font-size="3" font-family="Roboto-Regular, Roboto"><tspan x="0" y="0">Jon Doe</tspan></text><path d="M220.364 2304.55a.187.187 0 1 1-.374 0v-.373a.561.561 0 0 0-.561-.561h-1.495a.561.561 0 0 0-.561.561v.373a.187.187 0 1 1-.373 0v-.373a.934.934 0 0 1 .934-.934h1.495a.934.934 0 0 1 .934.934zm-1.682-1.681a.934.934 0 1 1 .934-.935.934.934 0 0 1-.934.935zm0-.374a.561.561 0 1 0-.561-.561.561.561 0 0 0 .561.561z" fill="#fff"/><text transform="translate(245.187 2304)" fill="#fff" font-size="3" font-family="Roboto-Regular, Roboto"><tspan x="0" y="0">June 19, 2021</tspan></text><path d="M241.054 2301.812h-.279a.29.29 0 0 0-.29.29v.364h2.952v-.364a.29.29 0 0 0-.29-.29h-.279v.1a.174.174 0 0 1-.348 0v-.1h-1.118v.1a.174.174 0 0 1-.348 0zm.348-.348h1.118v-.29a.174.174 0 1 1 .348 0v.29h.279a.638.638 0 0 1 .638.638v2.142a.638.638 0 0 1-.638.638h-2.372a.638.638 0 0 1-.638-.638v-2.142a.638.638 0 0 1 .638-.638h.279v-.29a.174.174 0 1 1 .348 0zm-.921 1.351v1.429a.29.29 0 0 0 .29.29h2.376a.29.29 0 0 0 .29-.29v-1.429z" fill="#fff"/><text transform="translate(235.601 2304)" fill="#fff" font-size="4.5" font-family="Roboto-Medium, Roboto" font-weight="500"><tspan x="0" y="0">.</tspan></text><path d="M125.364 2304.55a.187.187 0 1 1-.374 0v-.373a.561.561 0 0 0-.561-.561h-1.495a.561.561 0 0 0-.561.561v.373a.187.187 0 1 1-.373 0v-.373a.934.934 0 0 1 .934-.934h1.495a.934.934 0 0 1 .934.934zm-1.682-1.681a.934.934 0 1 1 .934-.935.934.934 0 0 1-.934.935zm0-.374a.561.561 0 1 0-.561-.561.561.561 0 0 0 .561.561z" fill="#fff"/><path fill="#919191" d="M117 2243h89.469v68.533H117z"/><path d="M117 2301.484v10.049h89.469l-19.743-19.581a6.374 6.374 0 0 0-9.015 0l-6.159 6.159a6.374 6.374 0 0 1-9.015 0l-16.573-16.575a6.374 6.374 0 0 0-9.015 0zm73.643-39.313a6.793 6.793 0 1 1-6.793 6.793 6.793 6.793 0 0 1 6.793-6.793z" fill="#848484"/><path fill="rgba(20,210,255,0.26)" d="M117 2243h90v68h-90z"/><rect width="18" height="7" rx="1" transform="translate(122 2277)" fill="#2c2c2c"/><text transform="translate(126 2282)" fill="#fff" font-size="3" font-family="Roboto-Regular, Roboto" style="isolation:isolate"><tspan x="0" y="0">LEAGUE</tspan></text><text transform="translate(122 2292)" fill="#fff" font-size="4.5" font-family="Roboto-Medium, Roboto" font-weight="500"><tspan x="0" y="0">Nulla non maximus tellus, varius </tspan><tspan x="0" y="5">aliquam lorem</tspan></text><text transform="translate(126.768 2304)" fill="#fff" font-size="3" font-family="Roboto-Regular, Roboto"><tspan x="0" y="0">Jon Doe</tspan></text><text transform="translate(150.187 2304)" fill="#fff" font-size="3" font-family="Roboto-Regular, Roboto"><tspan x="0" y="0">June 19, 2021</tspan></text><path d="M146.054 2301.812h-.279a.29.29 0 0 0-.29.29v.364h2.952v-.364a.29.29 0 0 0-.29-.29h-.279v.1a.174.174 0 0 1-.348 0v-.1h-1.118v.1a.174.174 0 0 1-.348 0zm.348-.348h1.118v-.29a.174.174 0 1 1 .348 0v.29h.279a.638.638 0 0 1 .638.638v2.142a.638.638 0 0 1-.638.638h-2.372a.638.638 0 0 1-.638-.638v-2.142a.638.638 0 0 1 .638-.638h.279v-.29a.174.174 0 1 1 .348 0zm-.921 1.351v1.429a.29.29 0 0 0 .29.29h2.376a.29.29 0 0 0 .29-.29v-1.429z" fill="#fff"/><text transform="translate(140.601 2304)" fill="#fff" font-size="4.5" font-family="Roboto-Medium, Roboto" font-weight="500"><tspan x="0" y="0">.</tspan></text></g></svg>