<svg xmlns="http://www.w3.org/2000/svg" width="280.06" height="377.863"><path fill="#919191" d="M0 0h280.06v136.36H0z"/><path d="M0 103.813v32.547h280.06v-9.186l-54.234-54.231a20.644 20.644 0 0 0-29.2 0l-19.941 19.948a20.644 20.644 0 0 1-29.2 0l-53.68-53.685a20.644 20.644 0 0 0-29.2 0zM208.082 17.665a17.158 17.158 0 1 1-17.158 17.158 17.158 17.158 0 0 1 17.158-17.158z" fill="#848484"/><path fill="#919191" d="M0 210.863h129.581v63.093H0z"/><path d="M0 258.897v15.058h129.581v-4.25l-25.092-25.092a9.552 9.552 0 0 0-13.509 0l-9.23 9.23a9.552 9.552 0 0 1-13.509 0l-24.838-24.84a9.552 9.552 0 0 0-13.509 0zM96.278 219.037a7.939 7.939 0 1 1-7.939 7.939 7.939 7.939 0 0 1 7.939-7.939z" fill="#848484"/><path fill="#919191" d="M0 291.863h129.581v63.093H0z"/><path d="M0 339.897v15.058h129.581v-4.25l-25.092-25.092a9.552 9.552 0 0 0-13.509 0l-9.23 9.23a9.552 9.552 0 0 1-13.509 0l-24.838-24.84a9.552 9.552 0 0 0-13.509 0zM96.278 300.037a7.939 7.939 0 1 1-7.939 7.939 7.939 7.939 0 0 1 7.939-7.939z" fill="#848484"/><text transform="translate(0 149.863)" fill="#43a8ff" font-size="6" font-family="Roboto-Regular, Roboto" style="isolation:isolate"><tspan x="0" y="0">Lifestyle</tspan></text><text transform="translate(86.428 178.534)" fill="#8d8d8d" font-size="5" font-family="Roboto-Regular, Roboto"><tspan x="0" y="0">12 Minute Read</tspan></text><g fill="#8d8d8d"><path d="M84.062 175.262h-3.228a.544.544 0 1 1 0-1.087h3.229a.145.145 0 0 0 0-.29h-3.229a.835.835 0 0 0-.834.833v3.632a.835.835 0 0 0 .834.834h3.229a.145.145 0 0 0 .145-.145v-3.632a.147.147 0 0 0-.146-.145zm-.145 3.632h-3.083a.544.544 0 0 1-.544-.544v-3a.832.832 0 0 0 .544.2h3.083z"/><path d="M80.88 174.586a.145.145 0 1 0 0 .29h2.727a.145.145 0 1 0 0-.29zM81.391 178.258a.156.156 0 0 0 .049.009.144.144 0 0 0 .136-.1l.177-.494h.7l.177.5a.145.145 0 0 0 .136.1.156.156 0 0 0 .049-.009.145.145 0 0 0 .087-.186l-.665-1.858a.066.066 0 0 0-.005-.013l-.007-.013a.047.047 0 0 1 0-.008l-.005-.007-.005-.005-.005-.005-.007-.005h-.021l-.013-.005H82.073l-.013.005-.013.007h-.008l-.007.005-.005.005-.005.005-.005.007v.007l-.007.013a.068.068 0 0 0-.005.013l-.664 1.855a.15.15 0 0 0 .091.187zm.713-1.56.246.688h-.492l.247-.688z"/></g><text transform="translate(6.801 178.534)" fill="#8d8d8d" font-size="5" font-family="Roboto-Regular, Roboto"><tspan x="0" y="0">Jon Doe</tspan></text><path d="M4.8 178.933a.267.267 0 1 1-.533 0v-.533a.8.8 0 0 0-.8-.8H1.333a.8.8 0 0 0-.8.8v.533a.267.267 0 1 1-.533 0v-.533a1.333 1.333 0 0 1 1.333-1.331h2.132A1.333 1.333 0 0 1 4.8 178.4zm-2.4-2.4a1.333 1.333 0 1 1 1.331-1.331 1.333 1.333 0 0 1-1.331 1.332zm0-.533a.8.8 0 1 0-.8-.8.8.8 0 0 0 .8.801z" fill="#8d8d8d"/><text transform="translate(40.203 178.534)" fill="#8d8d8d" font-size="5" font-family="Roboto-Regular, Roboto"><tspan x="0" y="0">June 19, 2021</tspan></text><path d="M34.307 174.925h-.4a.413.413 0 0 0-.414.414v.52h4.21v-.52a.413.413 0 0 0-.414-.414h-.4v.136a.25.25 0 0 1-.5 0v-.136h-1.585v.136a.25.25 0 0 1-.5 0zm.5-.5h1.6l-.003-.414a.25.25 0 1 1 .5 0v.418h.4a.91.91 0 0 1 .91.91v3.051a.91.91 0 0 1-.91.91H33.91a.91.91 0 0 1-.91-.91v-3.051a.91.91 0 0 1 .91-.91h.4v-.418a.25.25 0 1 1 .5 0zm-1.311 1.93v2.035a.413.413 0 0 0 .414.414h3.383a.413.413 0 0 0 .414-.414v-2.035z" fill="#8d8d8d"/><text transform="translate(29 177.534)" fill="#8d8d8d" font-size="5" font-family="Roboto-Regular, Roboto"><tspan x="0" y="0">.</tspan></text><text transform="translate(75 177.534)" fill="#8d8d8d" font-size="5" font-family="Roboto-Regular, Roboto"><tspan x="0" y="0">.</tspan></text><text transform="translate(0 192.863)" fill="#2c2c2c" font-size="5" font-family="Roboto-Regular, Roboto"><tspan x="0" y="0">Nulla non maximus tellus, varius aliquam lorem. Fusce velit metus, sodales vitae porttitor quis, interdum in quam.</tspan></text><text transform="translate(0 155.863)" fill="#2c2c2c" font-size="11" font-family="Roboto-Medium, Roboto" font-weight="500"><tspan x="0" y="10">Cras fermentum dui ac tempus Vulputate. Vestibulum</tspan></text><g><text transform="translate(146.801 246.863)" fill="#8d8d8d" font-size="5" font-family="Roboto-Regular, Roboto"><tspan x="0" y="0">Jon Doe</tspan></text><path d="M144.8 247.262a.267.267 0 1 1-.533 0v-.533a.8.8 0 0 0-.8-.8h-2.134a.8.8 0 0 0-.8.8v.533a.267.267 0 1 1-.533 0v-.533a1.333 1.333 0 0 1 1.333-1.331h2.132a1.333 1.333 0 0 1 1.335 1.331zm-2.4-2.4a1.333 1.333 0 1 1 1.331-1.331 1.333 1.333 0 0 1-1.331 1.332zm0-.533a.8.8 0 1 0-.8-.8.8.8 0 0 0 .8.801z" fill="#8d8d8d"/><text transform="translate(180.203 246.863)" fill="#8d8d8d" font-size="5" font-family="Roboto-Regular, Roboto"><tspan x="0" y="0">June 19, 2021</tspan></text><path d="M174.307 243.254h-.4a.413.413 0 0 0-.414.414v.52h4.21v-.52a.413.413 0 0 0-.414-.414h-.4v.136a.25.25 0 0 1-.5 0v-.136h-1.585v.136a.25.25 0 0 1-.5 0zm.5-.5h1.6l-.003-.414a.25.25 0 1 1 .5 0v.418h.4a.91.91 0 0 1 .91.91v3.051a.91.91 0 0 1-.91.91h-3.394a.91.91 0 0 1-.91-.91v-3.051a.91.91 0 0 1 .91-.91h.4v-.418a.25.25 0 1 1 .5 0zm-1.311 1.93v2.035a.413.413 0 0 0 .414.414h3.383a.413.413 0 0 0 .414-.414v-2.035z" fill="#8d8d8d"/><text transform="translate(169 245.863)" fill="#8d8d8d" font-size="5" font-family="Roboto-Regular, Roboto"><tspan x="0" y="0">.</tspan></text><text transform="translate(140 235.863)" fill="#2c2c2c" font-size="10" font-family="Roboto-Medium, Roboto" font-weight="500"><tspan x="0" y="0">Orems ipsum dolor sit Amet,</tspan></text><text transform="translate(140 253.863)" fill="#2c2c2c" font-size="5" font-family="Roboto-Regular, Roboto"><tspan x="0" y="5">Fusce velit metus, sodales vitae porttitor quis, interdum in </tspan><tspan x="0" y="12.5">quam. Proin mollis justo non neque dapibus…</tspan></text></g><g><text transform="translate(140 303.863)" fill="#43a8ff" font-size="6" font-family="Roboto-Regular, Roboto" style="isolation:isolate"><tspan x="0" y="0">Lifestyle</tspan></text><text transform="translate(146.801 327.863)" fill="#8d8d8d" font-size="5" font-family="Roboto-Regular, Roboto"><tspan x="0" y="0">Jon Doe</tspan></text><path d="M144.8 328.262a.267.267 0 1 1-.533 0v-.533a.8.8 0 0 0-.8-.8h-2.134a.8.8 0 0 0-.8.8v.533a.267.267 0 1 1-.533 0v-.533a1.333 1.333 0 0 1 1.333-1.331h2.132a1.333 1.333 0 0 1 1.335 1.331zm-2.4-2.4a1.333 1.333 0 1 1 1.331-1.331 1.333 1.333 0 0 1-1.331 1.332zm0-.533a.8.8 0 1 0-.8-.8.8.8 0 0 0 .8.801z" fill="#8d8d8d"/><text transform="translate(180.203 327.863)" fill="#8d8d8d" font-size="5" font-family="Roboto-Regular, Roboto"><tspan x="0" y="0">June 19, 2021</tspan></text><path d="M174.307 324.254h-.4a.413.413 0 0 0-.414.414v.52h4.21v-.52a.413.413 0 0 0-.414-.414h-.4v.136a.25.25 0 0 1-.5 0v-.136h-1.585v.136a.25.25 0 0 1-.5 0zm.5-.5h1.6l-.003-.414a.25.25 0 1 1 .5 0v.418h.4a.91.91 0 0 1 .91.91v3.051a.91.91 0 0 1-.91.91h-3.394a.91.91 0 0 1-.91-.91v-3.051a.91.91 0 0 1 .91-.91h.4v-.418a.25.25 0 1 1 .5 0zm-1.311 1.93v2.035a.413.413 0 0 0 .414.414h3.383a.413.413 0 0 0 .414-.414v-2.035z" fill="#8d8d8d"/><text transform="translate(169 326.863)" fill="#8d8d8d" font-size="5" font-family="Roboto-Regular, Roboto"><tspan x="0" y="0">.</tspan></text><text transform="translate(140 316.863)" fill="#2c2c2c" font-size="10" font-family="Roboto-Medium, Roboto" font-weight="500"><tspan x="0" y="0">Visque tellus purus, volutpat</tspan></text><text transform="translate(140 334.863)" fill="#2c2c2c" font-size="5" font-family="Roboto-Regular, Roboto"><tspan x="0" y="5">Fusce velit metus, sodales vitae porttitor quis, interdum in </tspan><tspan x="0" y="12.5">quam. Proin mollis justo non neque dapibus…</tspan></text></g><path d="M0 282.819h280.06" fill="none" stroke="#707070" stroke-width=".3" stroke-dasharray="2"/><g style="isolation:isolate"><text transform="translate(140 222.863)" fill="#cc43ff" font-size="6" font-family="Roboto-Regular, Roboto" style="isolation:isolate"><tspan x="0" y="0">Fashion</tspan></text></g><g transform="translate(-22 16.863)"><rect width="34" height="10" rx="1" transform="translate(22 351)" fill="#2c2c2c"/><rect width="24" height="10" rx="1" transform="translate(94 351)" fill="#2c2c2c"/><rect width="10" height="10" rx="1" transform="translate(58 351)" fill="#2c2c2c"/><rect width="10" height="10" rx="1" transform="translate(70 351)" fill="#2c2c2c"/><rect width="10" height="10" rx="1" transform="translate(82 351)" fill="#2c2c2c"/><text transform="translate(32.237 358)" fill="#fff" font-size="5" font-family="Roboto-Regular, Roboto"><tspan x="0" y="0">Previous</tspan></text><path d="M28.86 354.5 27 356.36l1.86 1.86" fill="none" stroke="#fff" stroke-width=".5"/><text transform="translate(98 358)" fill="#fff" font-size="5" font-family="Roboto-Regular, Roboto"><tspan x="0" y="0">Next</tspan></text><path d="m111.377 354.5 1.86 1.86-1.86 1.86" fill="none" stroke="#fff" stroke-width=".5"/><text transform="translate(62 358)" fill="#fff" font-size="5" font-family="Roboto-Regular, Roboto"><tspan x="0" y="0">1</tspan></text><text transform="translate(74 358)" fill="#fff" font-size="5" font-family="Roboto-Regular, Roboto"><tspan x="0" y="0">2</tspan></text><text transform="translate(86 358)" fill="#fff" font-size="5" font-family="Roboto-Regular, Roboto"><tspan x="0" y="0">3</tspan></text></g></svg>