<svg xmlns="http://www.w3.org/2000/svg" width="768.746" height="94.2" viewBox="-50 -5 258.746 44.2">
  <g id="Group_5535" data-name="Group 5535" transform="translate(-1141 -7152)">
    <path id="Path_4044" data-name="Path 4044" d="M258.746,4.6v25a4.6,4.6,0,0,1-4.6,4.6H195.57a4.607,4.607,0,0,1-4.6-4.6V4.6a4.607,4.607,0,0,1,4.6-4.6h58.576a4.6,4.6,0,0,1,4.6,4.6" transform="translate(1141 7152)" fill="#919191"/>
    <path id="Path_4045" data-name="Path 4045" d="M212.6,21.883l-2.992-2.992a4.61,4.61,0,1,0-.825.825l2.992,2.993Zm-10.049-5.8a3.427,3.427,0,1,1,3.427,3.427,3.427,3.427,0,0,1-3.427-3.427" transform="translate(1141 7152)" fill="#fff"/>
    <path id="Path_4046" data-name="Path 4046" d="M220.111,18.88a.936.936,0,0,0-.358-.785,4.324,4.324,0,0,0-1.292-.557,6.206,6.206,0,0,1-1.484-.625,1.982,1.982,0,0,1-1.055-1.729,1.879,1.879,0,0,1,.761-1.537,3.079,3.079,0,0,1,1.975-.605,3.343,3.343,0,0,1,1.437.3,2.365,2.365,0,0,1,.992.845,2.176,2.176,0,0,1,.36,1.217h-1.336a1.215,1.215,0,0,0-.379-.947,1.566,1.566,0,0,0-1.085-.342,1.634,1.634,0,0,0-1.02.281.937.937,0,0,0-.363.785.845.845,0,0,0,.392.708,4.521,4.521,0,0,0,1.293.551,5.967,5.967,0,0,1,1.448.61,2.3,2.3,0,0,1,.8.785,2.032,2.032,0,0,1,.255,1.037,1.838,1.838,0,0,1-.74,1.534,3.213,3.213,0,0,1-2.008.57,3.776,3.776,0,0,1-1.54-.31,2.593,2.593,0,0,1-1.092-.856,2.137,2.137,0,0,1-.389-1.273h1.341a1.246,1.246,0,0,0,.435,1.018,1.9,1.9,0,0,0,1.245.361,1.655,1.655,0,0,0,1.053-.284.913.913,0,0,0,.353-.75" transform="translate(1141 7152)" fill="#fff"/>
    <path id="Path_4047" data-name="Path 4047" d="M225.03,20.975a2.664,2.664,0,0,1-1.985-.772,2.8,2.8,0,0,1-.761-2.054v-.16a3.445,3.445,0,0,1,.331-1.534,2.513,2.513,0,0,1,.931-1.052,2.465,2.465,0,0,1,1.336-.377,2.252,2.252,0,0,1,1.811.748,3.154,3.154,0,0,1,.639,2.115v.519h-3.749a1.726,1.726,0,0,0,.475,1.125,1.423,1.423,0,0,0,1.047.413,1.74,1.74,0,0,0,1.441-.716l.695.663a2.3,2.3,0,0,1-.92.8,2.866,2.866,0,0,1-1.291.284m-.153-4.915a1.084,1.084,0,0,0-.856.371,1.91,1.91,0,0,0-.417,1.034h2.456v-.1a1.58,1.58,0,0,0-.345-.978,1.081,1.081,0,0,0-.838-.331" transform="translate(1141 7152)" fill="#fff"/>
    <path id="Path_4048" data-name="Path 4048" d="M231.759,20.869a2,2,0,0,1-.149-.536,2,2,0,0,1-1.505.642,2.026,2.026,0,0,1-1.41-.493,1.576,1.576,0,0,1-.546-1.22,1.629,1.629,0,0,1,.68-1.408,3.314,3.314,0,0,1,1.95-.49h.79v-.376a1.011,1.011,0,0,0-.25-.714.987.987,0,0,0-.759-.267,1.134,1.134,0,0,0-.72.22.679.679,0,0,0-.281.559h-1.288a1.431,1.431,0,0,1,.312-.883,2.1,2.1,0,0,1,.852-.644,2.975,2.975,0,0,1,1.2-.233,2.41,2.41,0,0,1,1.606.506,1.805,1.805,0,0,1,.616,1.424v2.587a2.924,2.924,0,0,0,.217,1.236v.09Zm-1.416-.928a1.46,1.46,0,0,0,.719-.186,1.252,1.252,0,0,0,.507-.5v-1.08h-.7a1.9,1.9,0,0,0-1.077.249.81.81,0,0,0-.36.706.753.753,0,0,0,.246.591.96.96,0,0,0,.66.22" transform="translate(1141 7152)" fill="#fff"/>
    <path id="Path_4049" data-name="Path 4049" d="M237.21,16.309a3.3,3.3,0,0,0-.525-.042,1.183,1.183,0,0,0-1.193.678v3.923H234.2V15.132h1.23l.031.641a1.456,1.456,0,0,1,1.294-.748,1.2,1.2,0,0,1,.456.075Z" transform="translate(1141 7152)" fill="#fff"/>
    <path id="Path_4050" data-name="Path 4050" d="M240.279,19.946a1.164,1.164,0,0,0,.8-.281.959.959,0,0,0,.34-.7h1.215a1.9,1.9,0,0,1-.335,1,2.195,2.195,0,0,1-.848.734,2.535,2.535,0,0,1-1.156.271,2.446,2.446,0,0,1-1.908-.78,3.087,3.087,0,0,1-.7-2.152V17.91a3.039,3.039,0,0,1,.7-2.1,2.423,2.423,0,0,1,1.908-.788,2.364,2.364,0,0,1,1.669.6,2.147,2.147,0,0,1,.676,1.567h-1.215a1.18,1.18,0,0,0-.336-.812,1.088,1.088,0,0,0-.8-.317,1.134,1.134,0,0,0-.965.453,2.314,2.314,0,0,0-.344,1.376V18.1a2.336,2.336,0,0,0,.337,1.391,1.13,1.13,0,0,0,.972.459" transform="translate(1141 7152)" fill="#fff"/>
    <path id="Path_4051" data-name="Path 4051" d="M244.876,15.757a2.016,2.016,0,0,1,1.6-.732q1.835,0,1.861,2.1v3.748h-1.288v-3.7a1.133,1.133,0,0,0-.257-.84,1.056,1.056,0,0,0-.756-.246,1.242,1.242,0,0,0-1.156.689v4.1h-1.288V12.725h1.288Z" transform="translate(1141 7152)" fill="#fff"/>
    <path id="Path_4052" data-name="Path 4052" d="M181.366,34.2H4.6A4.61,4.61,0,0,1,0,29.6V4.6A4.61,4.61,0,0,1,4.6,0H181.366a4.61,4.61,0,0,1,4.6,4.6v25a4.607,4.607,0,0,1-4.6,4.6M4.6,2A2.608,2.608,0,0,0,2,4.6v25a2.608,2.608,0,0,0,2.6,2.6H181.366a2.605,2.605,0,0,0,2.6-2.6V4.6a2.608,2.608,0,0,0-2.6-2.6Z" transform="translate(1141 7152)" fill="#919191"/>
    <path id="Path_4053" data-name="Path 4053" d="M14.355,16.434h-3.4v2.783H14.9v.847H9.916V12.21h4.936v.847h-3.9v2.53h3.4Z" transform="translate(1141 7152)" fill="#999"/>
    <path id="Path_4054" data-name="Path 4054" d="M16.982,14.227l.032.734a2.13,2.13,0,0,1,1.748-.842q1.851,0,1.866,2.088v3.857h-1V16.2a1.343,1.343,0,0,0-.289-.933,1.155,1.155,0,0,0-.882-.3,1.442,1.442,0,0,0-.852.259,1.749,1.749,0,0,0-.572.68v4.159h-1V14.227Z" transform="translate(1141 7152)" fill="#999"/>
    <path id="Path_4055" data-name="Path 4055" d="M23.488,12.814v1.413h1.089V15H23.488v3.624a.8.8,0,0,0,.146.526.609.609,0,0,0,.5.176,2.441,2.441,0,0,0,.475-.065v.8a2.894,2.894,0,0,1-.766.108,1.241,1.241,0,0,1-1.009-.405,1.733,1.733,0,0,1-.34-1.149V15H21.427v-.772H22.49V12.814Z" transform="translate(1141 7152)" fill="#999"/>
    <path id="Path_4056" data-name="Path 4056" d="M28.165,20.172a2.548,2.548,0,0,1-1.931-.779,2.9,2.9,0,0,1-.745-2.085v-.183a3.5,3.5,0,0,1,.332-1.551,2.6,2.6,0,0,1,.928-1.069,2.34,2.34,0,0,1,1.292-.385,2.187,2.187,0,0,1,1.77.75,3.252,3.252,0,0,1,.63,2.147v.415H26.487a2.081,2.081,0,0,0,.505,1.4,1.585,1.585,0,0,0,1.227.531,1.741,1.741,0,0,0,.9-.216,2.242,2.242,0,0,0,.641-.572l.61.475a2.452,2.452,0,0,1-2.2,1.127m-.124-5.232a1.33,1.33,0,0,0-1.014.439,2.13,2.13,0,0,0-.507,1.233h2.923v-.075a1.9,1.9,0,0,0-.409-1.179,1.254,1.254,0,0,0-.993-.418" transform="translate(1141 7152)" fill="#999"/>
    <path id="Path_4057" data-name="Path 4057" d="M34.417,15.123a3.012,3.012,0,0,0-.491-.038,1.314,1.314,0,0,0-1.332.836v4.143h-1V14.227h.97l.017.675a1.552,1.552,0,0,1,1.392-.782,1.029,1.029,0,0,1,.442.075Z" transform="translate(1141 7152)" fill="#999"/>
    <path id="Path_4058" data-name="Path 4058" d="M39.979,18.6l1.359-4.375h1.068L40.06,20.965q-.546,1.457-1.732,1.456l-.189-.016-.372-.07v-.809l.27.021a1.325,1.325,0,0,0,.79-.205,1.482,1.482,0,0,0,.467-.749L39.515,20l-2.082-5.772h1.089Z" transform="translate(1141 7152)" fill="#999"/>
    <path id="Path_4059" data-name="Path 4059" d="M42.951,17.092a3.448,3.448,0,0,1,.337-1.543,2.525,2.525,0,0,1,.938-1.057A2.558,2.558,0,0,1,45.6,14.12a2.462,2.462,0,0,1,1.928.825,3.176,3.176,0,0,1,.736,2.2v.07a3.47,3.47,0,0,1-.326,1.529,2.489,2.489,0,0,1-.933,1.055,2.594,2.594,0,0,1-1.4.377,2.453,2.453,0,0,1-1.923-.825,3.159,3.159,0,0,1-.736-2.185Zm1,.119A2.493,2.493,0,0,0,44.4,18.77a1.526,1.526,0,0,0,2.414-.008,2.736,2.736,0,0,0,.448-1.67,2.491,2.491,0,0,0-.457-1.556,1.515,1.515,0,0,0-2.4-.008,2.711,2.711,0,0,0-.453,1.683" transform="translate(1141 7152)" fill="#999"/>
    <path id="Path_4060" data-name="Path 4060" d="M53.119,19.487a2.119,2.119,0,0,1-1.71.685,1.817,1.817,0,0,1-1.422-.542,2.346,2.346,0,0,1-.493-1.6v-3.8h1V18q0,1.328,1.079,1.327a1.494,1.494,0,0,0,1.521-.852V14.227h1v5.837h-.95Z" transform="translate(1141 7152)" fill="#999"/>
    <path id="Path_4061" data-name="Path 4061" d="M58.427,15.123a3.012,3.012,0,0,0-.491-.038,1.314,1.314,0,0,0-1.332.836v4.143h-1V14.227h.97l.017.675a1.552,1.552,0,0,1,1.392-.782,1.029,1.029,0,0,1,.442.075Z" transform="translate(1141 7152)" fill="#999"/>
    <path id="Path_4062" data-name="Path 4062" d="M65.478,18.516a.734.734,0,0,0-.305-.628A2.935,2.935,0,0,0,64.11,17.5a5.017,5.017,0,0,1-1.2-.388,1.716,1.716,0,0,1-.659-.54,1.288,1.288,0,0,1-.213-.745,1.515,1.515,0,0,1,.607-1.213,2.369,2.369,0,0,1,1.551-.5,2.436,2.436,0,0,1,1.61.512,1.628,1.628,0,0,1,.618,1.311h-1a.9.9,0,0,0-.347-.707,1.3,1.3,0,0,0-.877-.3,1.365,1.365,0,0,0-.852.237.747.747,0,0,0-.308.62.6.6,0,0,0,.286.545,3.514,3.514,0,0,0,1.033.351,5.388,5.388,0,0,1,1.211.4,1.759,1.759,0,0,1,.688.558,1.376,1.376,0,0,1,.224.8A1.493,1.493,0,0,1,65.85,19.7a2.621,2.621,0,0,1-1.623.472,2.943,2.943,0,0,1-1.241-.248,2.008,2.008,0,0,1-.844-.693,1.667,1.667,0,0,1-.3-.963h1a1.038,1.038,0,0,0,.4.8,1.561,1.561,0,0,0,.991.294,1.605,1.605,0,0,0,.908-.23.7.7,0,0,0,.343-.612" transform="translate(1141 7152)" fill="#999"/>
    <path id="Path_4063" data-name="Path 4063" d="M70.2,20.172a2.548,2.548,0,0,1-1.931-.779,2.9,2.9,0,0,1-.745-2.085v-.183a3.5,3.5,0,0,1,.332-1.551,2.6,2.6,0,0,1,.928-1.069,2.34,2.34,0,0,1,1.292-.385,2.187,2.187,0,0,1,1.77.75,3.252,3.252,0,0,1,.63,2.147v.415H68.52a2.081,2.081,0,0,0,.505,1.4,1.585,1.585,0,0,0,1.227.531,1.741,1.741,0,0,0,.9-.216,2.242,2.242,0,0,0,.641-.572l.61.475a2.452,2.452,0,0,1-2.2,1.127m-.124-5.232a1.33,1.33,0,0,0-1.014.439,2.13,2.13,0,0,0-.507,1.233h2.923v-.075a1.9,1.9,0,0,0-.409-1.179,1.254,1.254,0,0,0-.993-.418" transform="translate(1141 7152)" fill="#999"/>
    <path id="Path_4064" data-name="Path 4064" d="M77.232,20.064a2.116,2.116,0,0,1-.14-.615,2.227,2.227,0,0,1-1.662.723,2.06,2.06,0,0,1-1.416-.489,1.58,1.58,0,0,1-.553-1.237,1.648,1.648,0,0,1,.694-1.416,3.26,3.26,0,0,1,1.95-.505h.971v-.458a1.121,1.121,0,0,0-.313-.834,1.259,1.259,0,0,0-.923-.31,1.453,1.453,0,0,0-.895.27.793.793,0,0,0-.362.652h-1A1.377,1.377,0,0,1,73.89,15a2.127,2.127,0,0,1,.842-.645,2.832,2.832,0,0,1,1.168-.237,2.308,2.308,0,0,1,1.58.5,1.825,1.825,0,0,1,.594,1.389V18.7a3.273,3.273,0,0,0,.205,1.278v.087ZM75.576,19.3a1.753,1.753,0,0,0,.89-.243,1.468,1.468,0,0,0,.61-.631v-1.2h-.783q-1.833,0-1.834,1.073a.911.911,0,0,0,.313.734,1.205,1.205,0,0,0,.8.264" transform="translate(1141 7152)" fill="#999"/>
    <path id="Path_4065" data-name="Path 4065" d="M82.46,15.123a3.015,3.015,0,0,0-.492-.038,1.314,1.314,0,0,0-1.332.836v4.143h-1V14.227h.97l.017.675a1.553,1.553,0,0,1,1.393-.782,1.032,1.032,0,0,1,.442.075Z" transform="translate(1141 7152)" fill="#999"/>
    <path id="Path_4066" data-name="Path 4066" d="M85.615,19.358a1.44,1.44,0,0,0,.934-.324,1.139,1.139,0,0,0,.442-.809h.944a1.81,1.81,0,0,1-.345.955,2.286,2.286,0,0,1-.85.723,2.448,2.448,0,0,1-1.125.269,2.406,2.406,0,0,1-1.9-.8,3.172,3.172,0,0,1-.7-2.177v-.167a3.511,3.511,0,0,1,.313-1.516,2.384,2.384,0,0,1,.9-1.03,2.546,2.546,0,0,1,1.384-.367,2.339,2.339,0,0,1,1.631.588,2.1,2.1,0,0,1,.694,1.526h-.944a1.375,1.375,0,0,0-.429-.93,1.332,1.332,0,0,0-.952-.364,1.4,1.4,0,0,0-1.179.547,2.578,2.578,0,0,0-.418,1.583v.189a2.526,2.526,0,0,0,.415,1.554,1.405,1.405,0,0,0,1.187.545" transform="translate(1141 7152)" fill="#999"/>
    <path id="Path_4067" data-name="Path 4067" d="M90.055,14.934a2.122,2.122,0,0,1,1.726-.815q1.85,0,1.866,2.088v3.857h-1V16.2a1.347,1.347,0,0,0-.289-.934,1.159,1.159,0,0,0-.882-.3,1.442,1.442,0,0,0-.852.259,1.749,1.749,0,0,0-.572.68v4.159h-1V11.778h1Z" transform="translate(1141 7152)" fill="#999"/>
    <path id="Path_4068" data-name="Path 4068" d="M97.633,17.1a3.425,3.425,0,0,1,.631-2.177,2.228,2.228,0,0,1,3.329-.1l.043-.588h.917v8.081h-1V19.525a2.094,2.094,0,0,1-1.608.647,2.012,2.012,0,0,1-1.685-.822,3.5,3.5,0,0,1-.629-2.182Zm1,.113a2.591,2.591,0,0,0,.424,1.575,1.346,1.346,0,0,0,1.14.572,1.5,1.5,0,0,0,1.36-.788V15.711a1.5,1.5,0,0,0-1.349-.771,1.356,1.356,0,0,0-1.149.574,2.832,2.832,0,0,0-.426,1.7" transform="translate(1141 7152)" fill="#999"/>
    <path id="Path_4069" data-name="Path 4069" d="M107.759,19.487a2.119,2.119,0,0,1-1.71.685,1.817,1.817,0,0,1-1.422-.542,2.346,2.346,0,0,1-.493-1.6v-3.8h1V18q0,1.328,1.079,1.327a1.494,1.494,0,0,0,1.521-.852V14.227h1v5.837h-.95Z" transform="translate(1141 7152)" fill="#999"/>
    <path id="Path_4070" data-name="Path 4070" d="M112.668,20.172a2.548,2.548,0,0,1-1.931-.779,2.9,2.9,0,0,1-.745-2.085v-.183a3.5,3.5,0,0,1,.332-1.551,2.6,2.6,0,0,1,.928-1.069,2.34,2.34,0,0,1,1.292-.385,2.187,2.187,0,0,1,1.77.75,3.252,3.252,0,0,1,.63,2.147v.415H110.99a2.081,2.081,0,0,0,.505,1.4,1.585,1.585,0,0,0,1.227.531,1.741,1.741,0,0,0,.9-.216,2.242,2.242,0,0,0,.641-.572l.61.475a2.452,2.452,0,0,1-2.2,1.127m-.124-5.232a1.33,1.33,0,0,0-1.014.439,2.13,2.13,0,0,0-.507,1.233h2.923v-.075a1.9,1.9,0,0,0-.409-1.179,1.254,1.254,0,0,0-.993-.418" transform="translate(1141 7152)" fill="#999"/>
    <path id="Path_4071" data-name="Path 4071" d="M118.921,15.123a3.024,3.024,0,0,0-.492-.038,1.314,1.314,0,0,0-1.332.836v4.143h-1V14.227h.97l.017.675a1.553,1.553,0,0,1,1.393-.782,1.032,1.032,0,0,1,.442.075Z" transform="translate(1141 7152)" fill="#999"/>
    <path id="Path_4072" data-name="Path 4072" d="M121.844,18.6l1.359-4.375h1.068l-2.346,6.738q-.546,1.457-1.732,1.456L120,22.405l-.372-.07v-.809l.27.021a1.325,1.325,0,0,0,.79-.205,1.482,1.482,0,0,0,.467-.749L121.38,20,119.3,14.227h1.089Z" transform="translate(1141 7152)" fill="#999"/>
    <path id="Path_4073" data-name="Path 4073" d="M124.606,19.541a.622.622,0,0,1,.154-.431.585.585,0,0,1,.461-.173.6.6,0,0,1,.467.173.617.617,0,0,1,.159.431.585.585,0,0,1-.159.416.617.617,0,0,1-.467.167.6.6,0,0,1-.461-.167.59.59,0,0,1-.154-.416" transform="translate(1141 7152)" fill="#999"/>
    <path id="Path_4074" data-name="Path 4074" d="M127.513,19.541a.622.622,0,0,1,.154-.431.585.585,0,0,1,.461-.173.6.6,0,0,1,.467.173.617.617,0,0,1,.159.431.585.585,0,0,1-.159.416.617.617,0,0,1-.467.167.6.6,0,0,1-.461-.167.59.59,0,0,1-.154-.416" transform="translate(1141 7152)" fill="#999"/>
    <path id="Path_4075" data-name="Path 4075" d="M130.421,19.541a.622.622,0,0,1,.154-.431.585.585,0,0,1,.461-.173.6.6,0,0,1,.467.173.617.617,0,0,1,.159.431.585.585,0,0,1-.159.416.617.617,0,0,1-.467.167.6.6,0,0,1-.461-.167.59.59,0,0,1-.154-.416" transform="translate(1141 7152)" fill="#999"/>
    <path id="Path_4076" data-name="Path 4076" d="M133.329,19.541a.622.622,0,0,1,.154-.431.585.585,0,0,1,.461-.173.6.6,0,0,1,.467.173.617.617,0,0,1,.159.431.585.585,0,0,1-.159.416.617.617,0,0,1-.467.167.6.6,0,0,1-.461-.167.59.59,0,0,1-.154-.416" transform="translate(1141 7152)" fill="#999"/>
  </g>
</svg>
