<svg xmlns="http://www.w3.org/2000/svg" width="280" height="212"><g fill="none" stroke="#adadad"><path d="M0 0h280v212H0z" stroke="none"/><path d="M.5.5h279v211H.5z"/></g><path fill="#eaeaea" d="M18 20h203v173H18z"/><text transform="translate(28 35)" fill="#2c2c2c" font-size="8" font-family="Roboto-Bold, Roboto" font-weight="700"><tspan x="0" y="0">DUIS VEL LACINIA </tspan></text><path fill="#919191" d="M28 40.93h124.113v60.43H28z"/><path d="M28 86.937v14.423h124.113v-4.07l-24.034-24.034a9.149 9.149 0 0 0-12.939 0l-8.84 8.84a9.149 9.149 0 0 1-12.939 0l-23.79-23.791a9.149 9.149 0 0 0-12.939 0zm92.211-38.178a7.6 7.6 0 1 1-7.6 7.6 7.6 7.6 0 0 1 7.6-7.6z" fill="#848484"/><text transform="translate(28 122)" fill="#2c2c2c" font-size="7" font-family="Roboto-Bold, Roboto" font-weight="700"><tspan x="0" y="0">Laoreet Sapien</tspan></text><g transform="translate(28 126.93)"><path fill="#919191" d="M0 0h56.116v54.209H0z"/><path d="M56.116 38.687v15.527l-56.115.018v-23.81L14.65 15.765a3.238 3.238 0 0 1 4.578 0l6.462 6.462a3.237 3.237 0 0 0 4.579 0l2.181-2.182a3.238 3.238 0 0 1 4.579 0z" fill="#848484"/><circle cx="5.128" cy="5.128" transform="translate(41.518 4.56)" fill="#848484" r="5.128"/></g><g transform="translate(91.614 126.93)"><path fill="#919191" d="M0 0h56.116v54.209H0z"/><path d="M56.116 38.687v15.527l-56.115.018v-23.81L14.65 15.765a3.238 3.238 0 0 1 4.578 0l6.462 6.462a3.237 3.237 0 0 0 4.579 0l2.181-2.182a3.238 3.238 0 0 1 4.579 0z" fill="#848484"/><circle cx="5.128" cy="5.128" transform="translate(41.518 4.56)" fill="#848484" r="5.128"/></g><g transform="translate(155.228 126.93)"><path fill="#919191" d="M0 0h56.116v54.209H0z"/><path d="M56.116 38.687v15.527l-56.115.018v-23.81L14.65 15.765a3.238 3.238 0 0 1 4.578 0l6.462 6.462a3.237 3.237 0 0 0 4.579 0l2.181-2.182a3.238 3.238 0 0 1 4.579 0z" fill="#848484"/><circle cx="5.128" cy="5.128" transform="translate(41.518 4.56)" fill="#848484" r="5.128"/></g></svg>