<svg xmlns="http://www.w3.org/2000/svg" viewBox="0 0 181 208.9"><g data-name="Group 1683"><path fill="#fff" d="M121 114H2a2 2 0 0 1-2-2v-4a2 2 0 0 1 2-2h119a2 2 0 0 1 1 2v4a1 1 0 0 1-1 2Z" data-name="Path 781"/><path fill="#fff" d="M19 5H2a2 2 0 0 1-2-2V2a2 2 0 0 1 2-2h17a2 2 0 0 1 1 2v1a1 1 0 0 1-1 2Z" data-name="Path 782"/><path fill="#fff" d="M180 133H2a2 2 0 0 1-2-2v-1a2 2 0 0 1 2-1h177a2 2 0 0 1 2 1v1a1 1 0 0 1-1 2Z" data-name="Path 783"/><path fill="#fff" d="M180 148H2a2 2 0 0 1-2-1v-2a2 2 0 0 1 2-1h177a2 2 0 0 1 2 1v2a1 1 0 0 1-1 1Z" data-name="Path 784"/><path fill="#fff" d="M180 163H2a2 2 0 0 1-2-1v-1a2 2 0 0 1 2-2h177a2 2 0 0 1 2 2v1a1 1 0 0 1-1 1Z" data-name="Path 785"/><path fill="#fff" d="M180 179H2a2 2 0 0 1-2-2v-1a2 2 0 0 1 2-2h177a2 2 0 0 1 2 2v1a1 1 0 0 1-1 2Z" data-name="Path 786"/><path fill="#fff" d="M180 194H2a2 2 0 0 1-2-2v-1a2 2 0 0 1 2-1h177a2 2 0 0 1 2 1v1a1 1 0 0 1-1 2Z" data-name="Path 787"/><path fill="#fff" d="M180 209H2a2 2 0 0 1-2-2v-1a2 2 0 0 1 2-1h177a2 2 0 0 1 2 1v1a1 1 0 0 1-1 2Z" data-name="Path 788"/><path fill="#fff" d="M181 13v75a1 1 0 0 1-1 2H1a1 1 0 0 1-1-2V13a1 1 0 0 1 1-2h179a1 1 0 0 1 1 2Z" data-name="Path 789"/><path fill="#fff" d="M47 5H30a2 2 0 0 1-2-2V2a2 2 0 0 1 2-2h17a2 2 0 0 1 1 2v1a1 1 0 0 1-1 2Z" data-name="Path 790"/><path fill="#fff" d="M75 5H58a2 2 0 0 1-1-2V2a2 2 0 0 1 1-2h17a2 2 0 0 1 2 2v1a2 2 0 0 1-2 2Z" data-name="Path 791"/><g fill="#f4f4f4" data-name="Group 1682"><path d="M169 90H1a1 1 0 0 1-1-1V78l47-48a7 7 0 0 1 11 0l41 41a7 7 0 0 0 11 0l15-15a7 7 0 0 1 10 0Z" data-name="Path 792"/><circle cx="8.6" cy="8.6" r="8.6" data-name="Ellipse 1409" transform="translate(95 28)"/></g></g></svg>