<svg xmlns="http://www.w3.org/2000/svg" viewBox="0 0 180.982 209.409"><defs/><g fill="#fff"><rect width="51.708" height="3.105" y="68.546" rx="1.531"/><rect width="35.039" height="3.105" y="75.854" rx="1.531"/><rect width="51.708" height="3.105" x="64.638" y="68.546" rx="1.531"/><rect width="35.039" height="3.105" x="64.638" y="75.854" rx="1.531"/><rect width="51.708" height="3.105" x="129.274" y="68.546" rx="1.531"/><rect width="35.039" height="3.105" x="129.274" y="75.854" rx="1.531"/><path d="M51.708 30.851v30.171a1.324 1.324 0 0 1-1.319 1.318H1.327A1.325 1.325 0 0 1 0 61.022V30.851a1.326 1.326 0 0 1 1.327-1.319h49.062a1.325 1.325 0 0 1 1.319 1.319z"/><rect width="51.704" height="32.809" x="64.64" y="29.532" rx="1.531"/><rect width="51.704" height="32.809" x="129.276" y="29.532" rx="1.531"/></g><g fill="#f4f4f4"><path d="M51.708 55.722v5.3a1.324 1.324 0 0 1-1.319 1.318H1.327A1.325 1.325 0 0 1 0 61.022v-3.016l16.314-16.323a2.605 2.605 0 0 1 3.7 0l14.073 14.073a2.642 2.642 0 0 0 3.714 0l5.111-5.11a2.636 2.636 0 0 1 3.723 0z"/><circle cx="35.112" cy="38.837" r="4.902"/><path d="M116.346 55.722v5.3a1.324 1.324 0 0 1-1.319 1.318H65.965a1.325 1.325 0 0 1-1.327-1.318v-3.016l16.309-16.323a2.605 2.605 0 0 1 3.7 0L98.72 55.756a2.643 2.643 0 0 0 3.715 0l5.11-5.11a2.636 2.636 0 0 1 3.723 0z"/><circle cx="99.751" cy="38.837" r="4.902"/><path d="M180.982 55.722v5.3a1.323 1.323 0 0 1-1.318 1.318h-49.062a1.325 1.325 0 0 1-1.327-1.318v-3.016l16.308-16.323a2.605 2.605 0 0 1 3.7 0l14.074 14.073a2.642 2.642 0 0 0 3.714 0l5.11-5.11a2.636 2.636 0 0 1 3.723 0z"/><circle cx="164.387" cy="38.837" r="4.902"/></g><g fill="#fff"><rect width="51.708" height="3.105" y="133.772" rx="1.531"/><rect width="35.039" height="3.105" y="141.08" rx="1.531"/><rect width="51.708" height="3.105" x="64.638" y="133.772" rx="1.531"/><rect width="35.039" height="3.105" x="64.638" y="141.08" rx="1.531"/><rect width="51.708" height="3.105" x="129.274" y="133.772" rx="1.531"/><rect width="35.039" height="3.105" x="129.274" y="141.08" rx="1.531"/><path d="M51.708 96.076v30.171a1.325 1.325 0 0 1-1.319 1.319H1.327A1.326 1.326 0 0 1 0 126.247V96.076c.004-.73.597-1.32 1.327-1.319h49.062a1.325 1.325 0 0 1 1.319 1.319z"/><rect width="51.704" height="32.809" x="64.64" y="94.757" rx="1.531"/><rect width="51.704" height="32.809" x="129.276" y="94.757" rx="1.531"/></g><g fill="#f4f4f4"><path d="M51.708 120.947v5.3a1.325 1.325 0 0 1-1.319 1.319H1.327A1.326 1.326 0 0 1 0 126.247v-3.018l16.314-16.322a2.606 2.606 0 0 1 3.7 0l14.073 14.073a2.642 2.642 0 0 0 3.714 0l5.111-5.111a2.64 2.64 0 0 1 3.723 0z"/><circle cx="35.112" cy="104.062" r="4.902"/><path d="M116.346 120.947v5.3a1.325 1.325 0 0 1-1.319 1.319H65.965a1.326 1.326 0 0 1-1.327-1.319v-3.018l16.309-16.322a2.606 2.606 0 0 1 3.7 0L98.72 120.98a2.643 2.643 0 0 0 3.715 0l5.11-5.111a2.64 2.64 0 0 1 3.723 0z"/><circle cx="99.751" cy="104.062" r="4.902"/><path d="M180.982 120.947v5.3a1.324 1.324 0 0 1-1.318 1.319h-49.062a1.326 1.326 0 0 1-1.327-1.319v-3.018l16.308-16.322a2.606 2.606 0 0 1 3.7 0l14.074 14.073a2.642 2.642 0 0 0 3.714 0l5.11-5.111a2.64 2.64 0 0 1 3.723 0z"/><circle cx="164.387" cy="104.062" r="4.902"/></g><g fill="#fff"><rect width="51.708" height="3.105" y="198.997" rx="1.531"/><rect width="35.039" height="3.105" y="206.305" rx="1.531"/><rect width="51.708" height="3.105" x="64.638" y="198.997" rx="1.531"/><rect width="35.039" height="3.105" x="64.638" y="206.305" rx="1.531"/><rect width="51.708" height="3.105" x="129.274" y="198.997" rx="1.531"/><rect width="35.039" height="3.105" x="129.274" y="206.305" rx="1.531"/><path d="M51.708 161.301v30.172a1.324 1.324 0 0 1-1.319 1.318H1.327A1.325 1.325 0 0 1 0 191.473v-30.172a1.325 1.325 0 0 1 1.327-1.318h49.062a1.324 1.324 0 0 1 1.319 1.318z"/><rect width="51.704" height="32.809" x="64.64" y="159.983" rx="1.531"/><rect width="51.704" height="32.809" x="129.276" y="159.983" rx="1.531"/></g><g fill="#f4f4f4"><path d="M51.708 186.173v5.3a1.324 1.324 0 0 1-1.319 1.318H1.327A1.325 1.325 0 0 1 0 191.473v-3.017l16.314-16.322a2.606 2.606 0 0 1 3.7 0l14.073 14.073a2.642 2.642 0 0 0 3.714 0l5.111-5.11a2.636 2.636 0 0 1 3.723 0z"/><circle cx="35.112" cy="169.287" r="4.902"/><path d="M116.346 186.173v5.3a1.324 1.324 0 0 1-1.319 1.318H65.965a1.325 1.325 0 0 1-1.327-1.318v-3.017l16.309-16.322a2.606 2.606 0 0 1 3.7 0l14.073 14.073a2.643 2.643 0 0 0 3.715 0l5.11-5.11a2.636 2.636 0 0 1 3.723 0z"/><circle cx="99.751" cy="169.287" r="4.902"/><path d="M180.982 186.173v5.3a1.323 1.323 0 0 1-1.318 1.318h-49.062a1.325 1.325 0 0 1-1.327-1.318v-3.017l16.308-16.322a2.606 2.606 0 0 1 3.7 0l14.074 14.073a2.642 2.642 0 0 0 3.714 0l5.11-5.11a2.636 2.636 0 0 1 3.723 0z"/><circle cx="164.387" cy="169.287" r="4.902"/></g><text fill="#999" font-family="Roboto-Medium, Roboto" font-size="12.299" font-weight="500"><tspan x="54.019" y="11">Author Name</tspan></text></svg>