<svg xmlns="http://www.w3.org/2000/svg" viewBox="0 0 180.983 209.409"><defs/><g fill="#fff"><rect width="51.708" height="3.105" x=".001" y="68.547" rx="1.531"/><rect width="35.039" height="3.105" x=".001" y="75.854" rx="1.531"/><rect width="51.708" height="3.105" x="64.639" y="68.547" rx="1.531"/><rect width="35.039" height="3.105" x="64.639" y="75.854" rx="1.531"/><rect width="51.708" height="3.105" x="129.276" y="68.547" rx="1.531"/><rect width="35.039" height="3.105" x="129.276" y="75.854" rx="1.531"/><path d="M51.709 30.851v30.171a1.325 1.325 0 0 1-1.319 1.319H1.328a1.326 1.326 0 0 1-1.327-1.319V30.851c.004-.73.597-1.32 1.327-1.319H50.39a1.325 1.325 0 0 1 1.319 1.319z"/><rect width="51.704" height="32.809" x="64.641" y="29.532" rx="1.531"/><rect width="51.704" height="32.809" x="129.277" y="29.532" rx="1.531"/></g><g fill="#f4f4f4"><path d="M51.709 55.722v5.3a1.325 1.325 0 0 1-1.319 1.319H1.328a1.326 1.326 0 0 1-1.327-1.319v-3.016l16.314-16.322a2.606 2.606 0 0 1 3.7 0l14.073 14.073a2.642 2.642 0 0 0 3.714 0l5.111-5.111a2.64 2.64 0 0 1 3.723 0z"/><circle cx="35.113" cy="38.837" r="4.902"/><path d="M116.347 55.722v5.3a1.325 1.325 0 0 1-1.319 1.319H65.966a1.326 1.326 0 0 1-1.327-1.319v-3.016l16.309-16.322a2.606 2.606 0 0 1 3.7 0l14.073 14.073a2.643 2.643 0 0 0 3.715 0l5.11-5.111a2.64 2.64 0 0 1 3.723 0z"/><circle cx="99.752" cy="38.837" r="4.902"/><path d="M180.983 55.722v5.3a1.324 1.324 0 0 1-1.318 1.319h-49.062a1.326 1.326 0 0 1-1.327-1.319v-3.016l16.313-16.322a2.6 2.6 0 0 1 3.7 0l14.074 14.073a2.642 2.642 0 0 0 3.714 0l5.11-5.111a2.64 2.64 0 0 1 3.723 0z"/><circle cx="164.388" cy="38.837" r="4.902"/></g><g fill="#fff"><rect width="51.708" height="3.105" x=".001" y="133.772" rx="1.531"/><rect width="35.039" height="3.105" x=".001" y="141.08" rx="1.531"/><rect width="51.708" height="3.105" x="64.639" y="133.772" rx="1.531"/><rect width="35.039" height="3.105" x="64.639" y="141.08" rx="1.531"/><rect width="51.708" height="3.105" x="129.276" y="133.772" rx="1.531"/><rect width="35.039" height="3.105" x="129.276" y="141.08" rx="1.531"/><path d="M51.709 96.076v30.172a1.325 1.325 0 0 1-1.319 1.318H1.328a1.325 1.325 0 0 1-1.327-1.318V96.076a1.325 1.325 0 0 1 1.327-1.318H50.39a1.324 1.324 0 0 1 1.319 1.318z"/><rect width="51.704" height="32.809" x="64.641" y="94.758" rx="1.531"/><rect width="51.704" height="32.809" x="129.277" y="94.758" rx="1.531"/></g><g fill="#f4f4f4"><path d="M51.709 120.947v5.3a1.325 1.325 0 0 1-1.319 1.318H1.328a1.325 1.325 0 0 1-1.327-1.318v-3.017l16.314-16.322a2.606 2.606 0 0 1 3.7 0l14.073 14.073a2.642 2.642 0 0 0 3.714 0l5.111-5.11a2.636 2.636 0 0 1 3.723 0z"/><circle cx="35.113" cy="104.062" r="4.902"/><path d="M116.347 120.947v5.3a1.325 1.325 0 0 1-1.319 1.318H65.966a1.325 1.325 0 0 1-1.327-1.318v-3.017l16.309-16.322a2.606 2.606 0 0 1 3.7 0l14.073 14.073a2.643 2.643 0 0 0 3.715 0l5.11-5.11a2.636 2.636 0 0 1 3.723 0z"/><circle cx="99.752" cy="104.062" r="4.902"/><path d="M180.983 120.947v5.3a1.323 1.323 0 0 1-1.318 1.318h-49.062a1.325 1.325 0 0 1-1.327-1.318v-3.017l16.313-16.322a2.6 2.6 0 0 1 3.7 0l14.074 14.073a2.642 2.642 0 0 0 3.714 0l5.11-5.11a2.636 2.636 0 0 1 3.723 0z"/><circle cx="164.388" cy="104.062" r="4.902"/></g><g fill="#fff"><rect width="51.708" height="3.105" x=".001" y="198.997" rx="1.531"/><rect width="35.039" height="3.105" x=".001" y="206.305" rx="1.531"/><rect width="51.708" height="3.105" x="64.639" y="198.997" rx="1.531"/><rect width="35.039" height="3.105" x="64.639" y="206.305" rx="1.531"/><rect width="51.708" height="3.105" x="129.276" y="198.997" rx="1.531"/><rect width="35.039" height="3.105" x="129.276" y="206.305" rx="1.531"/><path d="M51.709 161.301v30.172a1.324 1.324 0 0 1-1.319 1.318H1.328a1.325 1.325 0 0 1-1.327-1.318v-30.172a1.325 1.325 0 0 1 1.327-1.318H50.39a1.325 1.325 0 0 1 1.319 1.318z"/><rect width="51.704" height="32.809" x="64.641" y="159.983" rx="1.531"/><rect width="51.704" height="32.809" x="129.277" y="159.983" rx="1.531"/></g><g fill="#f4f4f4"><path d="M51.709 186.173v5.3a1.324 1.324 0 0 1-1.319 1.318H1.328a1.325 1.325 0 0 1-1.327-1.318v-3.016l16.314-16.323a2.605 2.605 0 0 1 3.7 0l14.073 14.073a2.642 2.642 0 0 0 3.714 0l5.111-5.11a2.636 2.636 0 0 1 3.723 0z"/><circle cx="35.113" cy="169.288" r="4.902"/><path d="M116.347 186.173v5.3a1.324 1.324 0 0 1-1.319 1.318H65.966a1.325 1.325 0 0 1-1.327-1.318v-3.016l16.309-16.323a2.605 2.605 0 0 1 3.7 0l14.073 14.073a2.643 2.643 0 0 0 3.715 0l5.11-5.11a2.636 2.636 0 0 1 3.723 0z"/><circle cx="99.752" cy="169.288" r="4.902"/><path d="M180.983 186.173v5.3a1.323 1.323 0 0 1-1.318 1.318h-49.062a1.325 1.325 0 0 1-1.327-1.318v-3.016l16.313-16.323a2.605 2.605 0 0 1 3.7 0l14.074 14.073a2.642 2.642 0 0 0 3.714 0l5.11-5.11a2.636 2.636 0 0 1 3.723 0z"/><circle cx="164.388" cy="169.288" r="4.902"/></g><text fill="#999" font-family="Roboto-Medium, Roboto" font-size="12.299" font-weight="500"><tspan x=".001" y="11">Category Name</tspan></text></svg>