<svg xmlns="http://www.w3.org/2000/svg" viewBox="0 0 180.982 209.414"><defs/><g fill="#fff"><rect width="51.708" height="3.105" y="68.55" rx="1.531"/><rect width="35.039" height="3.105" y="75.858" rx="1.531"/><rect width="51.708" height="3.105" x="64.638" y="68.55" rx="1.531"/><rect width="35.039" height="3.105" x="64.638" y="75.858" rx="1.531"/><rect width="51.708" height="3.105" x="129.274" y="68.55" rx="1.531"/><rect width="35.039" height="3.105" x="129.274" y="75.858" rx="1.531"/><path d="M51.702 30.854v30.169a1.323 1.323 0 0 1-1.318 1.318H1.327a1.325 1.325 0 0 1-1.325-1.318V30.854a1.325 1.325 0 0 1 1.327-1.318h49.062a1.324 1.324 0 0 1 1.311 1.318z"/><rect width="51.704" height="32.809" x="64.64" y="29.536" rx="1.531"/><rect width="51.704" height="32.809" x="129.276" y="29.536" rx="1.531"/></g><g fill="#f4f4f4"><path d="M51.702 55.723v5.3a1.323 1.323 0 0 1-1.318 1.318H1.327a1.325 1.325 0 0 1-1.325-1.318v-3.017L16.31 41.684a2.605 2.605 0 0 1 3.7 0l14.074 14.073a2.642 2.642 0 0 0 3.714 0l5.11-5.11a2.636 2.636 0 0 1 3.723 0z"/><circle cx="35.112" cy="38.84" r="4.902"/><path d="M116.345 55.723v5.3a1.323 1.323 0 0 1-1.318 1.318H65.965a1.325 1.325 0 0 1-1.327-1.318v-3.017l16.308-16.322a2.61 2.61 0 0 1 3.7 0l14.073 14.073a2.642 2.642 0 0 0 3.714 0l5.111-5.11a2.636 2.636 0 0 1 3.723 0z"/><circle cx="99.75" cy="38.84" r="4.902"/><path d="M180.982 55.723v5.3a1.324 1.324 0 0 1-1.319 1.318h-49.061a1.325 1.325 0 0 1-1.327-1.318v-3.017l16.314-16.322a2.605 2.605 0 0 1 3.7 0l14.073 14.073a2.642 2.642 0 0 0 3.714 0l5.111-5.11a2.636 2.636 0 0 1 3.723 0z"/><circle cx="164.387" cy="38.84" r="4.902"/></g><g fill="#fff"><rect width="51.708" height="3.105" y="133.776" rx="1.531"/><rect width="35.039" height="3.105" y="141.083" rx="1.531"/><rect width="51.708" height="3.105" x="64.638" y="133.776" rx="1.531"/><rect width="35.039" height="3.105" x="64.638" y="141.083" rx="1.531"/><rect width="51.708" height="3.105" x="129.274" y="133.776" rx="1.531"/><rect width="35.039" height="3.105" x="129.274" y="141.083" rx="1.531"/><path d="M51.702 96.08v30.171a1.324 1.324 0 0 1-1.318 1.319H1.327A1.326 1.326 0 0 1 0 126.251V96.08c.004-.73.597-1.32 1.327-1.319h49.062c.725.006 1.31.594 1.313 1.319z"/><rect width="51.704" height="32.809" x="64.64" y="94.761" rx="1.531"/><rect width="51.704" height="32.809" x="129.276" y="94.761" rx="1.531"/></g><g fill="#f4f4f4"><path d="M51.702 120.951v5.3a1.324 1.324 0 0 1-1.318 1.319H1.327A1.326 1.326 0 0 1 0 126.251v-3.016l16.308-16.323a2.605 2.605 0 0 1 3.7 0l14.074 14.074a2.644 2.644 0 0 0 3.714 0l5.11-5.111a2.64 2.64 0 0 1 3.723 0z"/><circle cx="35.112" cy="104.066" r="4.902"/><path d="M116.345 120.951v5.3a1.324 1.324 0 0 1-1.318 1.319H65.965a1.326 1.326 0 0 1-1.327-1.319v-3.016l16.308-16.323a2.61 2.61 0 0 1 3.7 0l14.073 14.074a2.644 2.644 0 0 0 3.714 0l5.111-5.111a2.64 2.64 0 0 1 3.723 0z"/><circle cx="99.75" cy="104.066" r="4.902"/><path d="M180.982 120.951v5.3a1.325 1.325 0 0 1-1.319 1.319h-49.061a1.326 1.326 0 0 1-1.327-1.319v-3.016l16.314-16.323a2.605 2.605 0 0 1 3.7 0l14.073 14.074a2.644 2.644 0 0 0 3.714 0l5.111-5.111a2.64 2.64 0 0 1 3.723 0z"/><circle cx="164.387" cy="104.066" r="4.902"/></g><g fill="#fff"><rect width="51.708" height="3.105" y="199.001" rx="1.531"/><rect width="35.039" height="3.105" y="206.309" rx="1.531"/><rect width="51.708" height="3.105" x="64.638" y="199.001" rx="1.531"/><rect width="35.039" height="3.105" x="64.638" y="206.309" rx="1.531"/><rect width="51.708" height="3.105" x="129.274" y="199.001" rx="1.531"/><rect width="35.039" height="3.105" x="129.274" y="206.309" rx="1.531"/><path d="M51.702 161.305v30.171a1.324 1.324 0 0 1-1.318 1.319H1.327A1.326 1.326 0 0 1 0 191.476v-30.171c.004-.73.597-1.32 1.327-1.319h49.062c.725.006 1.31.594 1.313 1.319z"/><rect width="51.704" height="32.809" x="64.64" y="159.986" rx="1.531"/><rect width="51.704" height="32.809" x="129.276" y="159.986" rx="1.531"/></g><g fill="#f4f4f4"><path d="M51.702 186.176v5.3a1.324 1.324 0 0 1-1.318 1.319H1.327A1.326 1.326 0 0 1 0 191.476v-3.016l16.308-16.322a2.6 2.6 0 0 1 3.7 0l14.074 14.073a2.642 2.642 0 0 0 3.714 0l5.11-5.111a2.64 2.64 0 0 1 3.723 0z"/><circle cx="35.112" cy="169.291" r="4.902"/><path d="M116.345 186.176v5.3a1.324 1.324 0 0 1-1.318 1.319H65.965a1.326 1.326 0 0 1-1.327-1.319v-3.016l16.308-16.322a2.606 2.606 0 0 1 3.7 0l14.073 14.073a2.642 2.642 0 0 0 3.714 0l5.111-5.111a2.64 2.64 0 0 1 3.723 0z"/><circle cx="99.75" cy="169.291" r="4.902"/><path d="M180.982 186.176v5.3a1.325 1.325 0 0 1-1.319 1.319h-49.061a1.326 1.326 0 0 1-1.327-1.319v-3.016l16.314-16.322a2.606 2.606 0 0 1 3.7 0l14.073 14.073a2.642 2.642 0 0 0 3.714 0l5.111-5.111a2.64 2.64 0 0 1 3.723 0z"/><circle cx="164.387" cy="169.291" r="4.902"/></g><text fill="#999" font-family="Roboto-Medium, Roboto" font-size="12.299" font-weight="500"><tspan x="77.801" y="11">Date</tspan></text></svg>