<?xml version="1.0" encoding="utf-8"?>
<!-- Generator: Adobe Illustrator 27.1.1, SVG Export Plug-In . SVG Version: 6.00 Build 0)  -->
<svg version="1.1" id="Layer_1" xmlns="http://www.w3.org/2000/svg" xmlns:xlink="http://www.w3.org/1999/xlink" x="0px" y="0px"
	 viewBox="0 0 181 209.4" style="enable-background:new 0 0 181 209.4;" xml:space="preserve">
<style type="text/css">
	.st0{fill:#FFFFFF;}
	.st1{fill:#F4F4F4;}
</style>
<g>
	<g>
		<path class="st0" d="M70.6,7.6h-17c-0.8,0-1.5-0.7-1.5-1.5V4.6c0-0.8,0.7-1.5,1.5-1.5h17c0.8,0,1.5,0.7,1.5,1.5v1.5
			C72.2,6.9,71.5,7.6,70.6,7.6z"/>
		<path class="st0" d="M99,7.6H82c-0.8,0-1.5-0.7-1.5-1.5V4.6c0-0.8,0.7-1.5,1.5-1.5h17c0.8,0,1.5,0.7,1.5,1.5v1.5
			C100.5,6.9,99.9,7.6,99,7.6z"/>
		<path class="st0" d="M127.4,7.6h-17c-0.8,0-1.5-0.7-1.5-1.5V4.6c0-0.8,0.7-1.5,1.5-1.5h17c0.8,0,1.5,0.7,1.5,1.5v1.5
			C128.9,6.9,128.2,7.6,127.4,7.6z"/>
	</g>
	<g>
		<path class="st0" d="M181,21v75.6c0,0.7-0.6,1.3-1.3,1.3H1.3c-0.7,0-1.3-0.6-1.3-1.3V21c0-0.7,0.6-1.3,1.3-1.3h178.3
			C180.4,19.7,181,20.3,181,21z"/>
	</g>
	<path class="st0" d="M23.6,10.5H1.1C0.5,10.5,0,10,0,9.4v-8c0-0.6,0.5-1.1,1.1-1.1h22.5c0.6,0,1.1,0.5,1.1,1.1v8
		C24.8,10,24.2,10.5,23.6,10.5z"/>
	<g>
		<circle class="st0" cx="175.2" cy="4.6" r="4.2"/>
		<path class="st0" d="M180.8,10.2L180.8,10.2c-0.3,0.3-0.8,0.3-1.1,0l-3-3c-0.3-0.3-0.3-0.8,0-1.1v0c0.3-0.3,0.8-0.3,1.1,0l3,3
			C181.1,9.4,181.1,9.9,180.8,10.2z"/>
	</g>
	<g>
		<path class="st1" d="M146.4,53.8H34.5c-1,0-1.9-0.9-1.9-1.9v-1.9c0-1,0.9-1.9,1.9-1.9h111.9c1,0,1.9,0.9,1.9,1.9v1.9
			C148.5,52.9,147.6,53.8,146.4,53.8z"/>
		<path class="st1" d="M121.4,69.7H59.5c-1,0-1.9-0.9-1.9-1.9v-1.9c0-1,0.9-1.9,1.9-1.9h61.9c1,0,1.9,0.9,1.9,1.9v1.9
			C123.5,68.8,122.6,69.7,121.4,69.7z"/>
	</g>
	<g>
		<g>
			<path class="st0" d="M1.5,153h48.6c0.8,0,1.5,0.7,1.5,1.5v0c0,0.8-0.7,1.5-1.5,1.5H1.5c-0.8,0-1.5-0.7-1.5-1.5v0
				C0,153.7,0.7,153,1.5,153z"/>
			<path class="st0" d="M1.5,160.3h32c0.8,0,1.5,0.7,1.5,1.5v0c0,0.8-0.7,1.5-1.5,1.5h-32c-0.8,0-1.5-0.7-1.5-1.5v0
				C0,161,0.7,160.3,1.5,160.3z"/>
			<path class="st0" d="M66.2,153h48.6c0.8,0,1.5,0.7,1.5,1.5v0c0,0.8-0.7,1.5-1.5,1.5H66.2c-0.8,0-1.5-0.7-1.5-1.5v0
				C64.6,153.7,65.3,153,66.2,153z"/>
			<path class="st0" d="M66.2,160.3h32c0.8,0,1.5,0.7,1.5,1.5v0c0,0.8-0.7,1.5-1.5,1.5h-32c-0.8,0-1.5-0.7-1.5-1.5v0
				C64.6,161,65.3,160.3,66.2,160.3z"/>
			<path class="st0" d="M130.8,153h48.6c0.8,0,1.5,0.7,1.5,1.5v0c0,0.8-0.7,1.5-1.5,1.5h-48.6c-0.8,0-1.5-0.7-1.5-1.5v0
				C129.3,153.7,130,153,130.8,153z"/>
			<path class="st0" d="M130.8,160.3h32c0.8,0,1.5,0.7,1.5,1.5v0c0,0.8-0.7,1.5-1.5,1.5h-32c-0.8,0-1.5-0.7-1.5-1.5v0
				C129.3,161,130,160.3,130.8,160.3z"/>
			<path class="st0" d="M51.7,115.3v30.2c0,0.7-0.6,1.3-1.3,1.3H1.3c-0.7,0-1.3-0.6-1.3-1.3v-30.2c0-0.7,0.6-1.3,1.3-1.3h49.1
				C51.1,114,51.7,114.6,51.7,115.3z"/>
			<path class="st0" d="M66.2,114h48.6c0.8,0,1.5,0.7,1.5,1.5v29.7c0,0.8-0.7,1.5-1.5,1.5H66.2c-0.8,0-1.5-0.7-1.5-1.5v-29.7
				C64.6,114.7,65.3,114,66.2,114z"/>
			<path class="st0" d="M130.8,114h48.6c0.8,0,1.5,0.7,1.5,1.5v29.7c0,0.8-0.7,1.5-1.5,1.5h-48.6c-0.8,0-1.5-0.7-1.5-1.5v-29.7
				C129.3,114.7,130,114,130.8,114z"/>
		</g>
		<g>
			<path class="st1" d="M51.7,140.2v5.3c0,0.7-0.6,1.3-1.3,1.3H1.3c-0.7,0-1.3-0.6-1.3-1.3v-3l16.3-16.3c1-1,2.7-1,3.7,0
				c0,0,0,0,0,0l14.1,14.1c1,1,2.7,1,3.7,0l5.1-5.1c1-1,2.7-1,3.7,0L51.7,140.2z"/>
			<circle class="st1" cx="35.1" cy="123.3" r="4.9"/>
			<path class="st1" d="M116.4,140.2v5.3c0,0.7-0.6,1.3-1.3,1.3H66c-0.7,0-1.3-0.6-1.3-1.3v-3L81,126.1c1-1,2.7-1,3.7,0c0,0,0,0,0,0
				l14.1,14.1c1,1,2.7,1,3.7,0l5.1-5.1c1-1,2.7-1,3.7,0L116.4,140.2z"/>
			<circle class="st1" cx="99.8" cy="123.3" r="4.9"/>
			<path class="st1" d="M181,140.2v5.3c0,0.7-0.6,1.3-1.3,1.3h-49.1c-0.7,0-1.3-0.6-1.3-1.3v-3l16.3-16.3c1-1,2.7-1,3.7,0
				c0,0,0,0,0,0l14.1,14.1c1,1,2.7,1,3.7,0l5.1-5.1c1-1,2.7-1,3.7,0L181,140.2z"/>
			<circle class="st1" cx="164.4" cy="123.3" r="4.9"/>
		</g>
	</g>
	<path class="st0" d="M157.3,184.6H23.7c-0.9,0-1.6,0.7-1.6,1.6v21.5c0,0.9,0.7,1.6,1.6,1.6h133.6c0.9,0,1.6-0.7,1.6-1.6v-21.5
		C158.9,185.3,158.2,184.6,157.3,184.6z M33.8,193c0-0.8,0.7-1.5,1.5-1.5H84c0.8,0,1.5,0.7,1.5,1.5v0c0,0.8-0.7,1.5-1.5,1.5H35.3
		C34.5,194.6,33.8,193.9,33.8,193L33.8,193z M94.5,200.7c0,0.9-0.7,1.5-1.5,1.5H35.3c-0.8,0-1.5-0.7-1.5-1.5v0
		c0-0.8,0.7-1.5,1.5-1.5h57.6C93.8,199.1,94.5,199.8,94.5,200.7L94.5,200.7z M145.4,200.2c-0.8,0.9-2,1.4-3.3,1.4h-27.5
		c-2.7,0-5-2.2-5-4.9c0-1.2,0.6-2.4,1.4-3.2c0.9-0.9,2-1.4,3.3-1.4h27.5c2.7,0,5.1,2.2,5,4.9C146.8,198.3,146.2,199.4,145.4,200.2z"
		/>
</g>
</svg>
