<svg xmlns="http://www.w3.org/2000/svg" viewBox="0 0 181.08 209.414"><defs/><g fill="#fff"><rect width="51.708" height="3.105" y="68.55" rx="1.531"/><rect width="35.039" height="3.105" y="75.858" rx="1.531"/><rect width="51.708" height="3.105" x="64.638" y="68.55" rx="1.531"/><rect width="35.039" height="3.105" x="64.638" y="75.858" rx="1.531"/><rect width="51.708" height="3.105" x="129.274" y="68.55" rx="1.531"/><rect width="35.039" height="3.105" x="129.274" y="75.858" rx="1.531"/><path d="M51.708 30.854v30.172a1.324 1.324 0 0 1-1.319 1.318H1.327A1.325 1.325 0 0 1 0 61.026V30.854a1.325 1.325 0 0 1 1.327-1.318h49.062a1.324 1.324 0 0 1 1.319 1.318z"/><rect width="51.704" height="32.809" x="64.64" y="29.536" rx="1.531"/><rect width="51.704" height="32.809" x="129.276" y="29.536" rx="1.531"/></g><g fill="#f4f4f4"><path d="M51.708 55.726v5.3a1.324 1.324 0 0 1-1.319 1.318H1.327A1.325 1.325 0 0 1 0 61.026v-3.017l16.309-16.322a2.605 2.605 0 0 1 3.7 0L34.082 55.76a2.642 2.642 0 0 0 3.714 0l5.111-5.11a2.636 2.636 0 0 1 3.723 0z"/><circle cx="35.112" cy="38.84" r="4.902"/><path d="M116.346 55.726v5.3a1.324 1.324 0 0 1-1.319 1.318H65.965a1.325 1.325 0 0 1-1.327-1.318v-3.017l16.319-16.318a2.605 2.605 0 0 1 3.7 0L98.73 55.764a2.642 2.642 0 0 0 3.714 0l5.111-5.11a2.636 2.636 0 0 1 3.723 0z"/><circle cx="99.75" cy="38.84" r="4.902"/><path d="M180.982 55.726v5.3a1.324 1.324 0 0 1-1.319 1.318h-49.061a1.326 1.326 0 0 1-1.328-1.318v-3.017l16.309-16.322a2.605 2.605 0 0 1 3.7 0l14.073 14.073a2.643 2.643 0 0 0 3.715 0l5.11-5.11a2.636 2.636 0 0 1 3.723 0z"/><circle cx="164.387" cy="38.84" r="4.902"/></g><g fill="#fff"><rect width="51.708" height="3.105" y="133.775" rx="1.531"/><rect width="35.039" height="3.105" y="141.083" rx="1.531"/><rect width="51.708" height="3.105" x="64.638" y="133.775" rx="1.531"/><rect width="35.039" height="3.105" x="64.638" y="141.083" rx="1.531"/><rect width="51.708" height="3.105" x="129.274" y="133.775" rx="1.531"/><rect width="35.039" height="3.105" x="129.274" y="141.083" rx="1.531"/><path d="M51.708 96.08v30.171a1.325 1.325 0 0 1-1.319 1.319H1.327A1.326 1.326 0 0 1 0 126.251V96.08c.004-.73.597-1.32 1.327-1.319h49.062a1.325 1.325 0 0 1 1.319 1.319z"/><rect width="51.704" height="32.809" x="64.64" y="94.761" rx="1.531"/><rect width="51.704" height="32.809" x="129.276" y="94.761" rx="1.531"/></g><g fill="#f4f4f4"><path d="M51.708 120.951v5.3a1.325 1.325 0 0 1-1.319 1.319H1.327A1.326 1.326 0 0 1 0 126.251v-3.016l16.309-16.323a2.605 2.605 0 0 1 3.7 0l14.073 14.074a2.644 2.644 0 0 0 3.714 0l5.111-5.111a2.64 2.64 0 0 1 3.723 0z"/><circle cx="35.112" cy="104.066" r="4.902"/><path d="M116.346 120.951v5.3a1.325 1.325 0 0 1-1.319 1.319H65.965a1.326 1.326 0 0 1-1.327-1.319v-3.016l16.309-16.323a2.605 2.605 0 0 1 3.7 0l14.073 14.074a2.644 2.644 0 0 0 3.714 0l5.111-5.111a2.64 2.64 0 0 1 3.723 0z"/><circle cx="99.75" cy="104.066" r="4.902"/><path d="M180.982 120.951v5.3a1.325 1.325 0 0 1-1.319 1.319h-49.061a1.327 1.327 0 0 1-1.328-1.319v-3.016l16.309-16.323a2.605 2.605 0 0 1 3.7 0l14.073 14.074a2.645 2.645 0 0 0 3.715 0l5.11-5.111a2.64 2.64 0 0 1 3.723 0z"/><circle cx="164.387" cy="104.066" r="4.902"/></g><g fill="#fff"><rect width="51.708" height="3.105" y="199.001" rx="1.531"/><rect width="35.039" height="3.105" y="206.309" rx="1.531"/><rect width="51.708" height="3.105" x="64.638" y="199.001" rx="1.531"/><rect width="35.039" height="3.105" x="64.638" y="206.309" rx="1.531"/><rect width="51.708" height="3.105" x="129.274" y="199.001" rx="1.531"/><rect width="35.039" height="3.105" x="129.274" y="206.309" rx="1.531"/><path d="M51.708 161.305v30.171a1.325 1.325 0 0 1-1.319 1.319H1.327c-.73 0-1.323-.589-1.327-1.319v-30.171a1.326 1.326 0 0 1 1.327-1.319h49.062a1.325 1.325 0 0 1 1.319 1.319z"/><rect width="51.704" height="32.809" x="64.64" y="159.986" rx="1.531"/><rect width="51.704" height="32.809" x="129.276" y="159.986" rx="1.531"/></g><g fill="#f4f4f4"><path d="M51.708 186.176v5.3a1.325 1.325 0 0 1-1.319 1.319H1.327c-.73 0-1.323-.589-1.327-1.319v-3.016l16.309-16.322a2.606 2.606 0 0 1 3.7 0l14.073 14.073a2.642 2.642 0 0 0 3.714 0l5.111-5.111a2.64 2.64 0 0 1 3.723 0z"/><circle cx="35.112" cy="169.291" r="4.902"/><path d="M116.346 186.176v5.3a1.325 1.325 0 0 1-1.319 1.319H65.965c-.73 0-1.323-.589-1.327-1.319v-3.016l16.309-16.322a2.606 2.606 0 0 1 3.7 0l14.073 14.073a2.642 2.642 0 0 0 3.714 0l5.111-5.111a2.64 2.64 0 0 1 3.723 0z"/><circle cx="99.75" cy="169.291" r="4.902"/><path d="M180.982 186.176v5.3a1.325 1.325 0 0 1-1.319 1.319h-49.061a1.327 1.327 0 0 1-1.328-1.319v-3.016l16.309-16.322a2.606 2.606 0 0 1 3.7 0l14.074 14.073a2.643 2.643 0 0 0 3.715 0l5.11-5.111a2.64 2.64 0 0 1 3.723 0z"/><circle cx="164.387" cy="169.291" r="4.902"/></g><text fill="#999" font-family="Roboto-Medium, Roboto" font-size="12.299" font-weight="500"><tspan x="105.08" y="11">Search Result</tspan></text></svg>