<svg xmlns="http://www.w3.org/2000/svg" width="144.325" height="110.381"><g data-name="Group 3302" fill="#5a5a5a"><path data-name="Path 2163" d="M0 47.849h83.251V0H0ZM6.04 21.28a.2.2 0 0 1 .2-.2h12.248a.2.2 0 0 1 .2.2v2.539a.2.2 0 0 1-.2.2H6.244a.2.2 0 0 1-.2-.2Zm10.477 20.411a.407.407 0 0 1-.29.121H6.451a.412.412 0 0 1-.29-.7.4.4 0 0 1 .29-.121h9.776a.411.411 0 0 1 .411.413.4.4 0 0 1-.121.29m15.714 0a.407.407 0 0 1-.29.121h-9.776a.412.412 0 1 1 0-.824h9.776a.411.411 0 0 1 .411.413.4.4 0 0 1-.121.29m10.243-4.724a1.419 1.419 0 0 1-1.011.419H7.472a1.432 1.432 0 1 1 0-2.863h33.991a1.43 1.43 0 0 1 1.011 2.444m29.946-6.687a1.423 1.423 0 0 1-1.013.419H7.472a1.431 1.431 0 1 1 0-2.861h63.935a1.43 1.43 0 0 1 1.013 2.442"/><path data-name="Path 2164" d="M87.069 47.849h57.256V0H87.069Zm6.04-26.569a.2.2 0 0 1 .2-.2h12.244a.2.2 0 0 1 .2.2v2.539a.2.2 0 0 1-.2.2h-12.24a.2.2 0 0 1-.2-.2Zm10.477 20.411a.407.407 0 0 1-.29.121H93.52a.412.412 0 0 1-.29-.7.4.4 0 0 1 .29-.121h9.78a.411.411 0 0 1 .411.413.4.4 0 0 1-.121.29m15.714 0a.409.409 0 0 1-.29.121h-9.776a.412.412 0 1 1 0-.824h9.776a.412.412 0 0 1 .29.7m6.536-4.724a1.423 1.423 0 0 1-1.013.419H94.541a1.432 1.432 0 1 1 0-2.863h30.282a1.432 1.432 0 0 1 1.013 2.444m11.419-6.681a1.422 1.422 0 0 1-1.011.419h-41.7a1.431 1.431 0 1 1 0-2.861h41.7a1.43 1.43 0 0 1 1.011 2.442"/><path data-name="Path 2165" d="M61.071 99.381h83.253V51.53H61.071Zm9.8-26.571a.206.206 0 0 1 .2-.2h12.254a.206.206 0 0 1 .2.2v2.539a.2.2 0 0 1-.2.2H71.079a.2.2 0 0 1-.2-.2ZM81.35 93.22a.411.411 0 0 1-.29.121h-9.772a.414.414 0 0 1-.413-.413.407.407 0 0 1 .121-.29.415.415 0 0 1 .292-.121h9.776a.412.412 0 0 1 .29.7m15.714 0a.415.415 0 0 1-.292.121H87a.413.413 0 0 1-.411-.413.413.413 0 0 1 .411-.408h9.776a.412.412 0 0 1 .292.7m10.243-4.726a1.432 1.432 0 0 1-1.013.419H72.307a1.431 1.431 0 1 1 0-2.861H106.3a1.43 1.43 0 0 1 1.013 2.442m29.944-6.679a1.422 1.422 0 0 1-1.011.419H72.307a1.432 1.432 0 1 1 0-2.863h63.937a1.432 1.432 0 0 1 1.011 2.444"/><path data-name="Path 2166" d="M0 99.381h57.26v-47.85H0Zm6.04-26.57a.2.2 0 0 1 .2-.2h12.25a.2.2 0 0 1 .2.2v2.54a.2.2 0 0 1-.2.2H6.24a.2.2 0 0 1-.2-.2Zm10.48 20.41a.445.445 0 0 1-.29.12H6.45a.412.412 0 0 1-.41-.41.407.407 0 0 1 .12-.29.385.385 0 0 1 .29-.12h9.78a.412.412 0 0 1 .41.41.445.445 0 0 1-.12.29m15.71 0a.407.407 0 0 1-.29.12h-9.77a.421.421 0 0 1-.42-.41.41.41 0 0 1 .42-.41h9.77a.406.406 0 0 1 .41.41.4.4 0 0 1-.12.29m6.54-4.73a1.435 1.435 0 0 1-1.02.42H7.47a1.43 1.43 0 0 1 0-2.86h30.28a1.432 1.432 0 0 1 1.44 1.43 1.412 1.412 0 0 1-.42 1.01m11.42-6.68a1.435 1.435 0 0 1-1.02.42H7.47a1.43 1.43 0 0 1 0-2.86h41.7a1.438 1.438 0 0 1 1.44 1.43 1.454 1.454 0 0 1-.42 1.01"/></g></svg>