<svg xmlns="http://www.w3.org/2000/svg" width="77.014" height="16.899" viewBox="0 0 77.014 16.899">
  <g id="Group_5534" data-name="Group 5534" transform="translate(-1212 -6864)">
    <path id="Path_4029" data-name="Path 4029" d="M29.3,8.62a7.769,7.769,0,0,1-3.089-1.5,2.864,2.864,0,0,1-.967-2.2A3.028,3.028,0,0,1,26.423,2.48,4.7,4.7,0,0,1,29.5,1.514a5.127,5.127,0,0,1,2.3.5,3.771,3.771,0,0,1,1.564,1.375A3.51,3.51,0,0,1,33.911,5.3H32.253a2.289,2.289,0,0,0-.722-1.789A2.934,2.934,0,0,0,29.5,2.863a3.005,3.005,0,0,0-1.9.538,1.8,1.8,0,0,0-.683,1.493,1.614,1.614,0,0,0,.649,1.3,6.35,6.35,0,0,0,2.208.968,10.287,10.287,0,0,1,2.441.968,3.712,3.712,0,0,1,1.306,1.233,3.151,3.151,0,0,1,.425,1.658,2.925,2.925,0,0,1-1.186,2.437,5.054,5.054,0,0,1-3.17.915,5.882,5.882,0,0,1-2.406-.494,4.047,4.047,0,0,1-1.723-1.354,3.3,3.3,0,0,1-.606-1.95H26.5a2.155,2.155,0,0,0,.838,1.791,3.525,3.525,0,0,0,2.239.658,3.245,3.245,0,0,0,2-.533,1.731,1.731,0,0,0,.7-1.452,1.7,1.7,0,0,0-.645-1.423A7.442,7.442,0,0,0,29.3,8.62" transform="translate(1212 6864)" fill="#999"/>
    <path id="Path_4030" data-name="Path 4030" d="M39.66,14.369a4.064,4.064,0,0,1-3.077-1.241A4.614,4.614,0,0,1,35.4,9.806V9.514a5.6,5.6,0,0,1,.529-2.47,4.116,4.116,0,0,1,1.478-1.7,3.721,3.721,0,0,1,2.059-.614,3.484,3.484,0,0,1,2.818,1.194,5.174,5.174,0,0,1,1.005,3.42V10h-6.3a3.3,3.3,0,0,0,.805,2.221,2.523,2.523,0,0,0,1.954.847,2.775,2.775,0,0,0,1.427-.344,3.587,3.587,0,0,0,1.022-.911l.972.756a3.906,3.906,0,0,1-3.507,1.8m-.2-8.335a2.12,2.12,0,0,0-1.616.7A3.4,3.4,0,0,0,37.04,8.7H41.7v-.12A3.027,3.027,0,0,0,41.043,6.7a2,2,0,0,0-1.58-.666" transform="translate(1212 6864)" fill="#999"/>
    <path id="Path_4031" data-name="Path 4031" d="M50.865,14.2a3.338,3.338,0,0,1-.223-.98,3.547,3.547,0,0,1-2.647,1.151,3.279,3.279,0,0,1-2.256-.777,2.517,2.517,0,0,1-.88-1.972,2.627,2.627,0,0,1,1.1-2.256,5.2,5.2,0,0,1,3.106-.8h1.547V7.83a1.786,1.786,0,0,0-.5-1.327,2,2,0,0,0-1.469-.495,2.312,2.312,0,0,0-1.426.43,1.267,1.267,0,0,0-.576,1.04h-1.6a2.192,2.192,0,0,1,.494-1.345,3.374,3.374,0,0,1,1.34-1.027,4.509,4.509,0,0,1,1.861-.378,3.672,3.672,0,0,1,2.517.8,2.9,2.9,0,0,1,.946,2.212v4.28a5.222,5.222,0,0,0,.326,2.036V14.2Zm-2.638-1.212a2.794,2.794,0,0,0,1.418-.387,2.338,2.338,0,0,0,.971-1.005V9.686H49.37q-2.922,0-2.922,1.71a1.444,1.444,0,0,0,.5,1.169,1.918,1.918,0,0,0,1.28.421" transform="translate(1212 6864)" fill="#999"/>
    <path id="Path_4032" data-name="Path 4032" d="M59.192,6.326a4.786,4.786,0,0,0-.782-.06A2.092,2.092,0,0,0,56.288,7.6v6.6H54.7V4.9h1.547l.025,1.074a2.474,2.474,0,0,1,2.217-1.246,1.615,1.615,0,0,1,.705.12Z" transform="translate(1212 6864)" fill="#999"/>
    <path id="Path_4033" data-name="Path 4033" d="M64.219,13.072a2.292,2.292,0,0,0,1.487-.516,1.815,1.815,0,0,0,.7-1.289h1.5a2.885,2.885,0,0,1-.55,1.521,3.622,3.622,0,0,1-1.353,1.152,3.9,3.9,0,0,1-1.792.43A3.829,3.829,0,0,1,61.2,13.1a5.047,5.047,0,0,1-1.122-3.467V9.368a5.582,5.582,0,0,1,.5-2.414,3.786,3.786,0,0,1,1.43-1.642,4.069,4.069,0,0,1,2.2-.584,3.733,3.733,0,0,1,2.6.937,3.348,3.348,0,0,1,1.1,2.432h-1.5a2.2,2.2,0,0,0-.683-1.483,2.129,2.129,0,0,0-1.517-.58,2.225,2.225,0,0,0-1.877.872,4.1,4.1,0,0,0-.666,2.523v.3a4.011,4.011,0,0,0,.662,2.475,2.231,2.231,0,0,0,1.89.868" transform="translate(1212 6864)" fill="#999"/>
    <path id="Path_4034" data-name="Path 4034" d="M71.291,6.025a3.381,3.381,0,0,1,2.75-1.3q2.946,0,2.973,3.326V14.2h-1.59V8.044a2.145,2.145,0,0,0-.459-1.486,1.843,1.843,0,0,0-1.4-.481,2.293,2.293,0,0,0-1.358.412,2.8,2.8,0,0,0-.911,1.083V14.2H69.7V1h1.59Z" transform="translate(1212 6864)" fill="#999"/>
    <path id="Path_4035" data-name="Path 4035" d="M16.9,15.658l-4.5-4.495a6.922,6.922,0,1,0-1.239,1.24l4.494,4.5ZM1.8,6.945A5.148,5.148,0,1,1,6.95,12.093,5.148,5.148,0,0,1,1.8,6.945" transform="translate(1212 6864)" fill="#999"/>
  </g>
</svg>
