<svg xmlns="http://www.w3.org/2000/svg" width="77.015" height="16.899" viewBox="0 0 77.015 16.899">
  <g id="Group_5533" data-name="Group 5533" transform="translate(-1212 -6904.306)">
    <path id="Path_4036" data-name="Path 4036" d="M4.451,48.925a7.756,7.756,0,0,1-3.089-1.5A2.866,2.866,0,0,1,.4,45.23a3.03,3.03,0,0,1,1.182-2.445,4.7,4.7,0,0,1,3.072-.966,5.127,5.127,0,0,1,2.3.5,3.771,3.771,0,0,1,1.564,1.375,3.51,3.51,0,0,1,.554,1.916H7.407a2.292,2.292,0,0,0-.722-1.79,2.939,2.939,0,0,0-2.036-.651,3,3,0,0,0-1.9.539A1.8,1.8,0,0,0,2.062,45.2a1.614,1.614,0,0,0,.649,1.3,6.368,6.368,0,0,0,2.208.968,10.333,10.333,0,0,1,2.441.967,3.714,3.714,0,0,1,1.306,1.234,3.149,3.149,0,0,1,.425,1.658A2.924,2.924,0,0,1,7.905,53.76a5.06,5.06,0,0,1-3.17.914,5.882,5.882,0,0,1-2.406-.493A4.041,4.041,0,0,1,.606,52.826,3.3,3.3,0,0,1,0,50.876H1.658A2.155,2.155,0,0,0,2.5,52.667a3.52,3.52,0,0,0,2.239.659,3.245,3.245,0,0,0,2-.534,1.729,1.729,0,0,0,.7-1.452,1.7,1.7,0,0,0-.645-1.422,7.463,7.463,0,0,0-2.337-.993" transform="translate(1212 6864)" fill="#999"/>
    <path id="Path_4037" data-name="Path 4037" d="M14.815,54.674a4.062,4.062,0,0,1-3.077-1.241,4.614,4.614,0,0,1-1.186-3.322v-.292a5.584,5.584,0,0,1,.529-2.47,4.123,4.123,0,0,1,1.478-1.7,3.72,3.72,0,0,1,2.058-.614,3.486,3.486,0,0,1,2.819,1.194,5.174,5.174,0,0,1,1,3.42v.662h-6.3a3.3,3.3,0,0,0,.8,2.221,2.525,2.525,0,0,0,1.955.847,2.771,2.771,0,0,0,1.426-.344,3.6,3.6,0,0,0,1.023-.911l.971.756a3.9,3.9,0,0,1-3.506,1.8m-.2-8.335a2.121,2.121,0,0,0-1.616.7A3.41,3.41,0,0,0,12.194,49h4.657v-.12a3.033,3.033,0,0,0-.653-1.878,2,2,0,0,0-1.581-.666" transform="translate(1212 6864)" fill="#999"/>
    <path id="Path_4038" data-name="Path 4038" d="M26.02,54.5a3.337,3.337,0,0,1-.223-.98,3.547,3.547,0,0,1-2.647,1.151,3.279,3.279,0,0,1-2.256-.777,2.517,2.517,0,0,1-.88-1.972,2.627,2.627,0,0,1,1.1-2.256,5.2,5.2,0,0,1,3.106-.8h1.547v-.731a1.786,1.786,0,0,0-.5-1.327,2,2,0,0,0-1.469-.495,2.312,2.312,0,0,0-1.426.43,1.267,1.267,0,0,0-.576,1.04H20.2a2.192,2.192,0,0,1,.494-1.345,3.374,3.374,0,0,1,1.34-1.027,4.509,4.509,0,0,1,1.861-.378,3.674,3.674,0,0,1,2.517.8,2.9,2.9,0,0,1,.946,2.212v4.28a5.222,5.222,0,0,0,.326,2.036V54.5Zm-2.638-1.212A2.794,2.794,0,0,0,24.8,52.9a2.338,2.338,0,0,0,.971-1.005V49.991H24.525q-2.922,0-2.922,1.71a1.444,1.444,0,0,0,.5,1.169,1.918,1.918,0,0,0,1.28.421" transform="translate(1212 6864)" fill="#999"/>
    <path id="Path_4039" data-name="Path 4039" d="M34.347,46.631a4.807,4.807,0,0,0-.783-.06A2.092,2.092,0,0,0,31.442,47.9v6.6h-1.59v-9.3H31.4l.025,1.074a2.474,2.474,0,0,1,2.217-1.246,1.622,1.622,0,0,1,.706.12Z" transform="translate(1212 6864)" fill="#999"/>
    <path id="Path_4040" data-name="Path 4040" d="M39.374,53.377a2.3,2.3,0,0,0,1.487-.516,1.814,1.814,0,0,0,.7-1.289h1.505a2.9,2.9,0,0,1-.551,1.521,3.619,3.619,0,0,1-1.352,1.152,3.908,3.908,0,0,1-1.792.43,3.826,3.826,0,0,1-3.02-1.268,5.042,5.042,0,0,1-1.123-3.467v-.267a5.583,5.583,0,0,1,.5-2.414,3.792,3.792,0,0,1,1.43-1.642,4.069,4.069,0,0,1,2.2-.584,3.737,3.737,0,0,1,2.6.937,3.356,3.356,0,0,1,1.1,2.432H41.564a2.194,2.194,0,0,0-.682-1.483,2.131,2.131,0,0,0-1.518-.58,2.226,2.226,0,0,0-1.877.872,4.1,4.1,0,0,0-.666,2.523v.3a4.017,4.017,0,0,0,.662,2.475,2.233,2.233,0,0,0,1.891.868" transform="translate(1212 6864)" fill="#999"/>
    <path id="Path_4041" data-name="Path 4041" d="M46.446,46.33a3.381,3.381,0,0,1,2.75-1.3q2.946,0,2.973,3.326V54.5h-1.59V48.349a2.144,2.144,0,0,0-.459-1.486,1.843,1.843,0,0,0-1.4-.481,2.293,2.293,0,0,0-1.358.412,2.8,2.8,0,0,0-.911,1.083V54.5h-1.59V41.3h1.59Z" transform="translate(1212 6864)" fill="#999"/>
    <path id="Path_4042" data-name="Path 4042" d="M77.015,55.963l-4.5-4.5a6.922,6.922,0,1,0-1.239,1.24l4.494,4.5Zm-15.1-8.713A5.148,5.148,0,1,1,67.067,52.4a5.148,5.148,0,0,1-5.148-5.148" transform="translate(1212 6864)" fill="#999"/>
  </g>
</svg>
