<svg xmlns="http://www.w3.org/2000/svg" xml:space="preserve" id="Layer_1" x="0" y="0" style="enable-background:new 0 0 311.4 311.4" version="1.1" viewBox="0 0 311.4 311.4"><style>.st2{fill-rule:evenodd;clip-rule:evenodd;fill:#fff}</style><linearGradient id="SVGID_1_" x1="40.8" x2="276.2" y1="40.8" y2="276.3" gradientUnits="userSpaceOnUse"><stop offset="0" style="stop-color:#aa7a55"/><stop offset="1" style="stop-color:#8c5934"/></linearGradient><path d="M311 170a458 458 0 0 1-6 57v1c-8 39-38 69-77 77-48 8-97 8-144 0a95 95 0 0 1-77-77l-1-1a402 402 0 0 1-6-57v-29a458 458 0 0 1 6-51v-1l1-5a94 94 0 0 1 10-29C30 30 55 12 84 7c47-9 96-9 144 0a96 96 0 0 1 77 77l1 4v2a350 350 0 0 1 5 51v29z" style="fill:url(#SVGID_1_)"/><path d="M306 90A285 285 0 0 1 6 90v-2l1-4a94 94 0 0 1 10-29C30 30 55 12 84 7c47-9 96-9 144 0a96 96 0 0 1 77 77l1 4v2z" style="opacity:.15;fill:#fff;enable-background:new"/><path d="m55 169 3-3-5-4 2 7zm12-16a457 457 0 0 1-7-6l-5 8 6 6 6-8zm-8 22 7 7 5-6-8-7-4 6zm11-27 7-9-7-5-6 7 6 7zm-4 16 8 7 5-9-8-6-5 8zm19-34-7-4-5 4 6 6 6-6zm3 18-8-6-6 9 8 7 6-10z" class="st2"/><path d="m89 127-1 2 6 6-7-4-5 7 8 6 9-13-7 16 2 1 2 3h-3l-2-1-6 10 3 3 5 4 2-3-1 4 4 3a88 88 0 0 1 4-29l5-13c-8-3-15-4-24-5h-1l4 3h3z" class="st2"/><path d="M150 243h5l20 3 8 1h17v1l12-5c2-3 7-9 5-11s-20 4-22 1c-1-2 31-26 33-60l-6 1c-7 18-27 38-33 41l-3 1c1 0 0 0 0 0-6 1-16 0-20-3s-16-27-19-37c-11-3-24-9-26-15-2-8 19-31 22-29 1 1-7 16-5 20s14 12 26 11c10 0 20-7 26-12l2-5c1-3-1-3-3-3-2 1 0 4 0 5 1 1 0 2-1 0l-2-2h-1l-2-3-1-1v-1l1-1v-1l2-1c7-2 23-1 20 4l-4 6c-3 3 0-2 0-3 0-2-1-2-2-1l-1 7c4 4 13 10 21 11 10 0 22-7 24-12 1-4-18-46-30-52-13-6-66 4-68 3-3 0-7-9-9-10-3-1-11 7-11 10 0 1 6 6 6 9 1 2-5 4-20 42-7 18-5 45 5 49 5 3 4-13 6-13 9 0 12 19-1 19-9 0-16-7-19-16l-4-17-4-3-5 12c7 6 13 11 12 12 0 1-6-2-14-8l-4 10v1l7 5c2-4 3-9 4-8l-2 10c10 8 20 15 28 19 3 1 8 3 8 6 1 2-2 8-1 10s16 7 17 4l1-2-2-4h2l1 1 4 3v1zm20-113v1h-1l-3 1a6 6 0 1 1 3-10h1l1 5c1 1 0 2-1 3zm51-1v1c-1 2-3 2-5 2a6 6 0 1 1 2-10h1l1 1 2 3v1l-1 2zM82 184l-7-5-4 8 7 7a62 62 0 0 0 5-9l-1-1zm3-3 6-11-5-3-3-3-5 10 4 4 3 3z" class="st2"/><path d="m188 212 8-8c8-9 17-23 19-31l-6-4-11-12-7 30-1 3-8 23 6-1zm2-54c-8 8-24 18-32 19 2 8 6 18 10 26l7 8 4 1v-1l4-14 2-7 5-32zm-43-70c2-3 5-6 9-8l14-2c-4-9-7-12-11-15-14 2-30 8-32 19l8-4c3 0 9 7 12 10zm30-10h13l-8-10c-3-3-9-5-16-5 4 4 8 8 11 15zm-19 12 20-1h23c-3-10-31-9-43 1z" class="st2"/></svg>