<svg xmlns="http://www.w3.org/2000/svg" xml:space="preserve" style="enable-background:new 0 0 311.4 311.4" viewBox="0 0 311.4 311.4"><linearGradient id="a" x1="263.5" x2="49.4" y1="286.8" y2="26.5" gradientUnits="userSpaceOnUse"><stop offset="0" style="stop-color:#fa0"/><stop offset="1" style="stop-color:#ffce4f"/></linearGradient><path d="M311 170a458 458 0 0 1-6 57v1c-8 39-38 69-77 77-48 8-97 8-144 0a95 95 0 0 1-77-77l-1-1a402 402 0 0 1-6-57v-29a458 458 0 0 1 6-51v-1l1-5a94 94 0 0 1 10-29C30 30 55 12 84 7c47-9 96-9 144 0a96 96 0 0 1 77 77l1 4v2a350 350 0 0 1 5 51v29z" style="fill:url(#a)"/><path d="M85 85h71v71H85z" style="opacity:.7;fill:#fff"/><path d="M85 156h71v71H85z" style="fill:#fff"/><path d="M156 156h71v71h-71z" style="opacity:.6;fill:#fff"/><path d="M306 90A285 285 0 0 1 6 90v-2l1-4a94 94 0 0 1 10-29C30 30 55 12 84 7c47-9 96-9 144 0a96 96 0 0 1 77 77l1 4v2z" style="opacity:.15;fill:#fff;enable-background:new"/></svg>