<svg id="Layer_1" data-name="Layer 1" xmlns="http://www.w3.org/2000/svg" viewBox="0 0 168.97 168.97"><defs><linearGradient id="linear-gradient" x1="25.4" y1="29.58" x2="153.06" y2="150.09" gradientUnits="userSpaceOnUse"><stop offset="0" stop-color="#00a4fb"/><stop offset=".17" stop-color="#00a8e6"/><stop offset=".52" stop-color="#00b1b0"/><stop offset="1" stop-color="#00bf5c"/></linearGradient><style>.cls-3{fill:#fff}</style></defs><path d="M184.33 107.78q-.29 7.77-1.16 15.55t-2.29 15.56a2.4 2.4 0 0 1 0 .24 52.14 52.14 0 0 1-5.4 15.31 51.61 51.61 0 0 1-4.93 7.5 50.92 50.92 0 0 1-7.89 8.05 51.81 51.81 0 0 1-23.49 10.93 214 214 0 0 1-78.26-.08A52.14 52.14 0 0 1 37.41 170a52.37 52.37 0 0 1-12.91-15.56 51.79 51.79 0 0 1-5.42-15.31v-.24q-1.42-7.77-2.27-15.56t-1.12-15.55c-.12-3.2-.16-6.42-.12-9.62 0-2 .06-4 .14-5.94q.3-7.77 1.16-15.55.68-6.11 1.7-12.21c0-.31.1-.61.16-.91.14-.82.28-1.62.43-2.43v-.25a52.26 52.26 0 0 1 2.78-9.68 52.08 52.08 0 0 1 38.93-32.1 213.81 213.81 0 0 1 78.26.07A52.15 52.15 0 0 1 170.51 38a51.28 51.28 0 0 1 5 7.54 50 50 0 0 1 2.55 5.46 51.74 51.74 0 0 1 2.85 9.88 2 2 0 0 1 .05.24l.39 2.2c.05.31.11.63.15.94q1 6.19 1.73 12.41.86 7.77 1.12 15.55c.07 1.91.11 3.81.13 5.72.02 3.27-.02 6.56-.15 9.84Z" transform="translate(-15.52 -15.51)" style="fill:url(#linear-gradient)"/><path d="M181.5 64.26A154.64 154.64 0 0 1 99.86 87.4a154.74 154.74 0 0 1-81.33-22.94c0-.31.1-.61.16-.91.14-.82.28-1.62.43-2.43v-.25a52.26 52.26 0 0 1 2.78-9.68 52.08 52.08 0 0 1 38.93-32.1 213.81 213.81 0 0 1 78.26.07A52.15 52.15 0 0 1 170.51 38a51.28 51.28 0 0 1 5 7.54 50 50 0 0 1 2.55 5.46 51.74 51.74 0 0 1 2.85 9.88 2 2 0 0 1 .05.24l.39 2.2c.05.31.11.68.15.94Z" transform="translate(-15.52 -15.51)" style="opacity:.15;fill:#fff"/><path class="cls-3" d="M140.66 63.67h-29.33a3.86 3.86 0 0 0-3.86 3.86v7a3.86 3.86 0 0 0 3.86 3.86h36.34v-7.71a7 7 0 0 0-7.01-7.01Zm-21.1 10a3.09 3.09 0 1 1 2.56-2.56 3.1 3.1 0 0 1-2.56 2.57Zm10 0a3.09 3.09 0 1 1 2.57-2.56 3.09 3.09 0 0 1-2.53 2.57Zm10.05 0a3.09 3.09 0 1 1 2.57-2.56 3.09 3.09 0 0 1-2.53 2.57ZM147.67 83v46.33a7 7 0 0 1-7 7H59.6a7 7 0 0 1-7-7v-6.13a3.87 3.87 0 0 1 3.87-3.87h10.81a3.86 3.86 0 0 0 3.86-3.86 3.87 3.87 0 0 1 3.86-3.88h6.18a3.86 3.86 0 0 0 3.87-3.86v-4.64a3.86 3.86 0 0 1 3.86-3.86h14.69a3.86 3.86 0 0 0 3.86-3.87v-8.5a3.87 3.87 0 0 1 3.88-3.86Z" transform="translate(-15.52 -15.51)"/><rect class="cls-3" x="37.08" y="86.03" width="14.69" height="11.59" rx="3.55"/><rect class="cls-3" x="69.28" y="61.84" width="16.58" height="15.46" rx="3.55"/><rect class="cls-3" x="36.82" y="48.16" width="19.58" height="19.32" rx="3.55"/><rect class="cls-3" x="52.02" y="70.57" width="12" height="15.2" rx="3.55"/></svg>