<svg xmlns="http://www.w3.org/2000/svg" xmlns:xlink="http://www.w3.org/1999/xlink" width="97.085" height="97.093" viewBox="0 0 97.085 97.093">
  <defs>
    <linearGradient id="linear-gradient" x1="0.511" y1="1" x2="0.5" gradientUnits="objectBoundingBox">
      <stop offset="0" stop-color="#ff3d78"/>
      <stop offset="1" stop-color="#ff7faa"/>
    </linearGradient>
    <clipPath id="clip-path">
      <rect id="Rectangle_114" data-name="Rectangle 114" width="93.643" height="41.308" fill="#fff"/>
    </clipPath>
  </defs>
  <g id="Group_2212" data-name="Group 2212" transform="translate(-1219 -1580)">
    <g id="Group_2202" data-name="Group 2202" transform="translate(456 36)">
      <path id="Path_449" data-name="Path 449" d="M48.324,0a122.857,122.857,0,0,0-22.27,2.054A29.96,29.96,0,0,0,2.095,26.07a.7.7,0,0,0-.025.14c-.085.466-.167.928-.249,1.393-.031.177-.062.348-.089.526q-.583,3.521-.97,7.017-.5,4.466-.668,8.933-.064,1.7-.081,3.409Q0,48.247,0,49.005v.226q0,1.9.07,3.794.166,4.467.648,8.933t1.3,8.933a.826.826,0,0,1,.023.14A29.989,29.989,0,0,0,26.055,95a122.939,122.939,0,0,0,22.593,2.1h.02a123.007,123.007,0,0,0,22.353-2.051,29.942,29.942,0,0,0,23.969-24.02.705.705,0,0,0,.025-.14q.814-4.466,1.315-8.933T97,53.017q.086-2.338.088-4.675v-.219q0-.384,0-.768-.02-1.644-.075-3.282-.153-4.466-.647-8.933-.384-3.573-.99-7.13c-.027-.181-.058-.361-.089-.542q-.109-.633-.224-1.264a1.127,1.127,0,0,0-.025-.138,29.688,29.688,0,0,0-3.107-8.8,30.034,30.034,0,0,0-20.9-15.171A122.843,122.843,0,0,0,48.532,0Z" transform="translate(763 1544)" fill="url(#linear-gradient)"/>
      <g id="Group_2195" data-name="Group 2195" transform="translate(765.098 1544.057)" opacity="0.15">
        <g id="Group_2194" data-name="Group 2194" transform="translate(0)">
          <g id="Group_2193" data-name="Group 2193" clip-path="url(#clip-path)">
            <g id="Group_2192" data-name="Group 2192" transform="translate(0)">
              <g id="Group_2191" data-name="Group 2191" clip-path="url(#clip-path)">
                <path id="Path_450" data-name="Path 450" d="M100.589,28.01a88.907,88.907,0,0,1-46.914,13.3A88.907,88.907,0,0,1,6.946,28.124c.027-.177.058-.348.089-.526.081-.466.163-.928.249-1.393a.682.682,0,0,1,.025-.14,30.007,30.007,0,0,1,1.6-5.567,30.349,30.349,0,0,1,1.5-3.231A29.9,29.9,0,0,1,31.273,2.054a122.874,122.874,0,0,1,44.966.041,30.033,30.033,0,0,1,20.9,15.171,29.694,29.694,0,0,1,3.107,8.8,1.073,1.073,0,0,1,.025.138q.116.631.224,1.264c.031.18.072.361.089.542" transform="translate(-6.946 0)" fill="#fff"/>
              </g>
            </g>
          </g>
        </g>
      </g>
    </g>
    <g id="Group_2211" data-name="Group 2211" transform="translate(144.616)">
      <path id="Path_458" data-name="Path 458" d="M44.01,98.851v-.019a.617.617,0,0,1,.506-.609,5.9,5.9,0,0,0,2.288-.835,8.081,8.081,0,0,0,2.489-3.962c1.332-3.8,7.981-23.6,9.713-28.782a.619.619,0,0,1,.587-.423h2.464a.617.617,0,0,1,.586.416c2.257,6.553,9.32,28.176,10.065,30.313a4.279,4.279,0,0,0,1.778,2.387,6.331,6.331,0,0,0,2.2.88.617.617,0,0,1,.489.605v.027a.62.62,0,0,1-.62.62H61.493a.62.62,0,0,1-.094-1.233c1.562-.225,3.79-.832,3.79-1.967a3.167,3.167,0,0,0-.152-1.067L62.97,88.917a1.863,1.863,0,0,0-1.769-1.28H54.432a1.862,1.862,0,0,0-1.784,1.327c-.394,1.313-.914,3.076-1.019,3.5a13.105,13.105,0,0,0-.508,3.149c0,1.594,2.654,2.371,4.3,2.625a.618.618,0,0,1,.524.612v0a.62.62,0,0,1-.62.62H44.63a.62.62,0,0,1-.62-.62M54.566,85.656h6.458a.62.62,0,0,0,.587-.819l-3.289-9.706a.62.62,0,0,0-1.177.006l-3.168,9.706a.62.62,0,0,0,.59.813" transform="translate(1050.373 1545.523)" fill="#fff"/>
      <path id="Path_459" data-name="Path 459" d="M137.269,105.008a.619.619,0,0,1,.345.783c-1.639,4.462-3.638,7.368-6.81,7.368-2.692,0-5.13-1.27-5.232-4.571h-.1c-1.625,2.539-3.352,4.571-6.5,4.571-2.692,0-5.435-1.829-5.435-8.127,0-8.837,6.5-16.355,12.647-16.355a3.66,3.66,0,0,1,3.758,3.149h.051l.272-.817a2.594,2.594,0,0,1,2.46-1.773h3.742a.62.62,0,0,1,.593.8l-4.883,15.908a27.948,27.948,0,0,0-1.219,4.724.629.629,0,0,0,.66.711c1.791,0,3.26-2.076,4.757-6.052a.619.619,0,0,1,.817-.352Zm-7.878-11.161a.629.629,0,0,0,.016-.29c-.361-1.983-1.024-2.95-2.412-2.95-3.606,0-7.009,11.327-7.009,17.93,0,1.422.66,2.082,1.219,2.082,1.025,0,1.973-.759,2.88-1.917a13.138,13.138,0,0,0,2.221-4.4Z" transform="translate(1013.049 1532.394)" fill="#fff"/>
    </g>
  </g>
</svg>
