<svg xmlns="http://www.w3.org/2000/svg" xml:space="preserve" id="Layer_1" x="0" y="0" style="enable-background:new 0 0 311.4 311.4" version="1.1" viewBox="0 0 311.4 311.4"><style>.st1{fill:#fff}</style><linearGradient id="SVGID_1_" x1="263.5" x2="49.4" y1="286.8" y2="26.5" gradientUnits="userSpaceOnUse"><stop offset="0" style="stop-color:#5d00d4"/><stop offset=".2" style="stop-color:#6003d2"/><stop offset=".4" style="stop-color:#690ccc"/><stop offset=".5" style="stop-color:#791bc1"/><stop offset=".6" style="stop-color:#9030b2"/><stop offset=".8" style="stop-color:#ac4c9e"/><stop offset=".9" style="stop-color:#d06e86"/><stop offset="1" style="stop-color:#f9966a"/><stop offset="1" style="stop-color:#ff9b66"/></linearGradient><path d="M311 170a458 458 0 0 1-6 57v1c-8 39-38 69-77 77-48 8-97 8-144 0a95 95 0 0 1-77-77l-1-1a402 402 0 0 1-6-57v-29a458 458 0 0 1 6-51v-1l1-5a94 94 0 0 1 10-29C30 30 55 12 84 7c47-9 96-9 144 0a96 96 0 0 1 77 77l1 4v2a350 350 0 0 1 5 51v29z" style="fill:url(#SVGID_1_)"/><path d="M67 146a89 89 0 0 1 79-78 88 88 0 0 1 98 78c0 8 1 15-1 23-3 21-13 39-29 53a86 86 0 0 1-71 21c-26-3-46-16-61-37a81 81 0 0 1-15-48v-12zm162 23 1-10c1-25-8-45-27-61a75 75 0 1 0-51 132 73 73 0 0 0 77-61z" class="st1"/><path d="M125 139v-15c0-6 4-10 10-10h28c18 3 31 15 33 33v15l-1 4c-1 5-2 10-5 14-6 9-14 14-25 16-10 2-21 1-31 1-6 0-9-4-9-9v-49zm19 44h17c7-1 13-3 17-10l2-3c4-6 3-13 3-20-1-12-9-20-21-22h-20c-2 0-3 1-3 3v48c0 4 0 4 5 4z" class="st1"/><path d="M306 90A285 285 0 0 1 6 90v-2l1-4a94 94 0 0 1 10-29C30 30 55 12 84 7c47-9 96-9 144 0a96 96 0 0 1 77 77l1 4v2z" style="opacity:.15;fill:#fff;enable-background:new"/></svg>