<svg id="Layer_1" data-name="Layer 1" xmlns="http://www.w3.org/2000/svg" viewBox="0 0 168.97 168.97"><defs><linearGradient id="linear-gradient" x1="33.45" y1="24.43" x2="165.4" y2="174.27" gradientUnits="userSpaceOnUse"><stop offset="0" stop-color="#ffb359"/><stop offset="1" stop-color="#ff6845"/></linearGradient><style>.cls-3{fill:#fff}</style></defs><path d="M184.33 107.78q-.29 7.77-1.16 15.55t-2.29 15.56a2.4 2.4 0 0 1 0 .24 52.14 52.14 0 0 1-5.4 15.31 51.61 51.61 0 0 1-4.93 7.5 50.92 50.92 0 0 1-7.89 8.05 51.81 51.81 0 0 1-23.49 10.93 214 214 0 0 1-78.26-.08A52.14 52.14 0 0 1 37.41 170a52.37 52.37 0 0 1-12.91-15.56 51.79 51.79 0 0 1-5.42-15.31v-.24q-1.42-7.77-2.27-15.56t-1.12-15.55c-.12-3.2-.16-6.42-.12-9.62 0-2 .06-4 .14-5.94q.3-7.77 1.16-15.55.68-6.11 1.7-12.21c0-.31.1-.61.16-.91.14-.82.28-1.62.43-2.43v-.25a52.26 52.26 0 0 1 2.78-9.68 52.08 52.08 0 0 1 38.93-32.1 213.81 213.81 0 0 1 78.26.07A52.15 52.15 0 0 1 170.51 38a51.28 51.28 0 0 1 5 7.54 50 50 0 0 1 2.55 5.46 51.74 51.74 0 0 1 2.85 9.88 2 2 0 0 1 .05.24l.39 2.2c.05.31.11.63.15.94q1 6.19 1.73 12.41.86 7.77 1.12 15.55c.07 1.91.11 3.81.13 5.72.02 3.27-.02 6.56-.15 9.84Z" transform="translate(-15.52 -15.51)" style="fill:url(#linear-gradient)"/><path d="M181.5 64.26A154.64 154.64 0 0 1 99.86 87.4a154.74 154.74 0 0 1-81.33-22.94c0-.31.1-.61.16-.91.14-.82.28-1.62.43-2.43v-.25a52.26 52.26 0 0 1 2.78-9.68 52.08 52.08 0 0 1 38.93-32.1 213.81 213.81 0 0 1 78.26.07A52.15 52.15 0 0 1 170.51 38a51.28 51.28 0 0 1 5 7.54 50 50 0 0 1 2.55 5.46 51.74 51.74 0 0 1 2.85 9.88 2 2 0 0 1 .05.24l.39 2.2c.05.31.11.68.15.94Z" transform="translate(-15.52 -15.51)" style="opacity:.15;fill:#fff"/><path class="cls-3" d="M45.98 45.99h15.78v77H45.98z"/><path class="cls-3" transform="rotate(-90 99.885 69.385)" d="M107.51 46.29h15.78v46.2h-15.78z"/><path class="cls-3" transform="rotate(-90 99.885 100.005)" d="M107.51 76.9h15.78v46.2h-15.78z"/><path class="cls-3" transform="rotate(-90 99.885 130.615)" d="M107.51 107.51h15.78v46.2h-15.78z"/></svg>