<svg version="1.1" id="Layer_1" xmlns="http://www.w3.org/2000/svg" x="0" y="0" viewBox="0 0 200 200" style="enable-background:new 0 0 200 200" xml:space="preserve"><style>.st2{fill:#fff}</style><linearGradient id="SVGID_1_" gradientUnits="userSpaceOnUse" x1="57.491" y1="-4.421" x2="161.691" y2="251.548"><stop offset="0" style="stop-color:#7d00ff"/><stop offset="1" style="stop-color:#ffdf7f"/></linearGradient><path d="M199.82 109.21c-.23 6.13-.69 12.27-1.37 18.41-.67 6.13-1.58 12.27-2.71 18.41-.01.09-.03.19-.05.29a61.5 61.5 0 0 1-12.23 27 61.01 61.01 0 0 1-9.34 9.53 61.26 61.26 0 0 1-27.81 12.93c-30.72 5.66-61.6 5.64-92.63-.09a61.663 61.663 0 0 1-27.76-12.84 61.542 61.542 0 0 1-8.15-7.99c-2.72-3.21-5.11-6.7-7.13-10.42a61.153 61.153 0 0 1-6.41-18.13c-.02-.1-.03-.19-.05-.29-1.13-6.13-2.02-12.27-2.69-18.41A252.3 252.3 0 0 1 .16 109.2a254.282 254.282 0 0 1 .03-18.41c.23-6.13.69-12.27 1.37-18.41.53-4.81 1.2-9.63 2.01-14.45l.18-1.08.51-2.87c.01-.1.03-.19.05-.29A61.4 61.4 0 0 1 7.6 42.22c.9-2.29 1.94-4.51 3.1-6.66 2-3.72 4.37-7.19 7.06-10.39a61.46 61.46 0 0 1 8.11-8.02c7.87-6.46 17.37-11 27.81-12.93 30.72-5.67 61.6-5.64 92.63.09a61.737 61.737 0 0 1 27.78 12.84c3.45 2.82 6.59 6 9.37 9.49a61.28 61.28 0 0 1 5.91 8.92 58.2 58.2 0 0 1 3.02 6.44 60.72 60.72 0 0 1 3.38 11.69c.02.1.04.19.05.29.16.87.32 1.74.46 2.6.06.37.13.74.19 1.11.83 4.89 1.51 9.78 2.04 14.69a252.704 252.704 0 0 1 1.48 25.17c.03 3.89-.03 7.77-.17 11.66z" style="fill:url(#SVGID_1_)"/><path d="M196.47 57.7c-28.09 17.37-61.19 27.39-96.64 27.39-35.28 0-68.25-9.93-96.26-27.15l.18-1.08.51-2.87c.01-.1.03-.19.05-.29A61.4 61.4 0 0 1 7.6 42.23c.9-2.29 1.94-4.51 3.1-6.66 2-3.72 4.37-7.19 7.06-10.39a61.46 61.46 0 0 1 8.11-8.02c7.87-6.46 17.37-11 27.81-12.93 30.72-5.67 61.6-5.64 92.63.09a61.737 61.737 0 0 1 27.78 12.84c3.45 2.82 6.59 6 9.37 9.49a61.28 61.28 0 0 1 5.91 8.92 58.2 58.2 0 0 1 3.02 6.44 60.72 60.72 0 0 1 3.38 11.69c.02.1.04.19.05.29.16.87.32 1.74.46 2.6.07.36.13.74.19 1.11z" style="opacity:.15;fill:#fff"/><path class="st2" d="M149.48 56.4c2.97 0 5.38 2.41 5.38 5.38 0 2.97-2.41 5.38-5.38 5.38H50.52c-2.97 0-5.38-2.41-5.38-5.38 0-2.97 2.41-5.38 5.38-5.38h98.96m0-1.69H50.52c-3.9 0-7.07 3.17-7.07 7.07s3.17 7.07 7.07 7.07h98.95c3.9 0 7.07-3.17 7.07-7.07s-3.16-7.07-7.06-7.07z"/><path class="st2" d="M50.52 64.61c-1.56 0-2.83-1.27-2.83-2.83s1.27-2.83 2.83-2.83h59.58c1.56 0 2.83 1.27 2.83 2.83s-1.27 2.83-2.83 2.83H50.52z"/><g><path class="st2" d="M109.22 123.96H57.55a2.29 2.29 0 0 1-2.29-2.29V87.11a2.29 2.29 0 0 1 2.29-2.29h51.67a2.29 2.29 0 0 1 2.29 2.29v34.56c0 1.26-1.03 2.29-2.29 2.29zM142.53 123.96h-23.54a2.29 2.29 0 0 1-2.29-2.29V87.11a2.29 2.29 0 0 1 2.29-2.29h23.54a2.29 2.29 0 0 1 2.29 2.29v34.56c0 1.26-1.03 2.29-2.29 2.29zM142.53 145.29H57.55a2.29 2.29 0 0 1-2.29-2.29v-11.57a2.29 2.29 0 0 1 2.29-2.29h84.97a2.29 2.29 0 0 1 2.29 2.29V143a2.275 2.275 0 0 1-2.28 2.29zM67.5 79.63H57.37a2.11 2.11 0 0 1 0-4.22H67.5c1.16 0 2.11.94 2.11 2.11a2.117 2.117 0 0 1-2.11 2.11zM92.57 79.63H82.44a2.11 2.11 0 0 1 0-4.22h10.13c1.16 0 2.11.94 2.11 2.11a2.117 2.117 0 0 1-2.11 2.11zM117.64 79.63h-10.13a2.11 2.11 0 0 1 0-4.22h10.13a2.11 2.11 0 0 1 0 4.22zM142.71 79.63h-10.13a2.11 2.11 0 0 1 0-4.22h10.13a2.11 2.11 0 0 1 0 4.22z"/></g></svg>