<svg id="Layer_1" data-name="Layer 1" xmlns="http://www.w3.org/2000/svg" viewBox="0 0 168.97 168.97"><defs><linearGradient id="linear-gradient" x1="33.45" y1="24.43" x2="165.4" y2="174.27" gradientUnits="userSpaceOnUse"><stop offset="0" stop-color="#00d1e9"/><stop offset="1" stop-color="#037fff"/></linearGradient><style>.cls-3{fill:#fff}</style></defs><path d="M184.33 107.78q-.29 7.77-1.16 15.55t-2.29 15.56a2.4 2.4 0 0 1 0 .24 52.14 52.14 0 0 1-5.4 15.31 51.61 51.61 0 0 1-4.93 7.5 50.92 50.92 0 0 1-7.89 8.05 51.81 51.81 0 0 1-23.49 10.93 214 214 0 0 1-78.26-.08A52.14 52.14 0 0 1 37.41 170a52.37 52.37 0 0 1-12.91-15.56 51.79 51.79 0 0 1-5.42-15.31v-.24q-1.42-7.77-2.27-15.56t-1.12-15.55c-.12-3.2-.16-6.42-.12-9.62 0-2 .06-4 .14-5.94q.3-7.77 1.16-15.55.68-6.11 1.7-12.21c0-.31.1-.61.16-.91.14-.82.28-1.62.43-2.43v-.25a52.26 52.26 0 0 1 2.78-9.68 52.08 52.08 0 0 1 38.93-32.1 213.81 213.81 0 0 1 78.26.07A52.15 52.15 0 0 1 170.51 38a51.28 51.28 0 0 1 5 7.54 50 50 0 0 1 2.55 5.46 51.74 51.74 0 0 1 2.85 9.88 2 2 0 0 1 .05.24l.39 2.2c.05.31.11.63.15.94q1 6.19 1.73 12.41.86 7.77 1.12 15.55c.07 1.91.11 3.81.13 5.72.02 3.27-.02 6.56-.15 9.84Z" transform="translate(-15.52 -15.51)" style="fill:url(#linear-gradient)"/><path d="M181.5 64.26A154.64 154.64 0 0 1 99.86 87.4a154.74 154.74 0 0 1-81.33-22.94c0-.31.1-.61.16-.91.14-.82.28-1.62.43-2.43v-.25a52.26 52.26 0 0 1 2.78-9.68 52.08 52.08 0 0 1 38.93-32.1 213.81 213.81 0 0 1 78.26.07A52.15 52.15 0 0 1 170.51 38a51.28 51.28 0 0 1 5 7.54 50 50 0 0 1 2.55 5.46 51.74 51.74 0 0 1 2.85 9.88 2 2 0 0 1 .05.24l.39 2.2c.05.31.11.68.15.94Z" transform="translate(-15.52 -15.51)" style="opacity:.15;fill:#fff"/><g><path class="cls-3" d="m110.79 96-15.4-15.4a7.36 7.36 0 0 0-5.2-2.16H59.75a7.35 7.35 0 0 0-7.35 7.36v40.38h60.54v-25a7.33 7.33 0 0 0-2.15-5.18Zm-28.24 25.43a7.36 7.36 0 1 1 7.36-7.36 7.36 7.36 0 0 1-7.36 7.36ZM52.4 132.82h60.54v5.24a7.35 7.35 0 0 1-7.35 7.35H59.75a7.35 7.35 0 0 1-7.35-7.35Z" transform="translate(-15.52 -15.51)"/><path class="cls-3" d="M138.56 132h-19v-5.46h19a3.58 3.58 0 0 0 3.58-3.58V76a3.56 3.56 0 0 0-1-2.53L128.77 61.1a3.6 3.6 0 0 0-2.54-1.05H86.49a3.58 3.58 0 0 0-3.58 3.59v7h-5.47v-7a9.06 9.06 0 0 1 9-9h39.74a9 9 0 0 1 6.4 2.65L145 69.57a9 9 0 0 1 2.6 6.43v47a9 9 0 0 1-9.04 9Z" transform="translate(-15.52 -15.51)"/><path class="cls-3" d="M103.83 64.84h15.91v5.46h-15.91zM103.83 76h15.91v5.46h-15.91zM103.83 87.16h15.91v5.46h-15.91z"/></g></svg>