<svg id="Layer_1" data-name="Layer 1" xmlns="http://www.w3.org/2000/svg" viewBox="0 0 500 500.01"><defs><linearGradient id="linear-gradient" x1="55.98" y1="29.29" x2="446.44" y2="472.68" gradientUnits="userSpaceOnUse"><stop offset="0" stop-color="#3a40fa"/><stop offset="1" stop-color="#32c7aa"/></linearGradient><style>.cls-3{fill:#fff}</style></defs><path d="M502.46 275.94q-.85 23-3.43 46t-6.77 46c0 .23-.08.48-.13.72a154.2 154.2 0 0 1-123.44 123.7 633.2 633.2 0 0 1-231.57-.23A154.32 154.32 0 0 1 67.71 460a153.67 153.67 0 0 1-54.24-91.3c0-.24-.08-.49-.12-.72q-4.22-23-6.71-46t-3.34-46q-.51-14.27-.3-28.52.09-8.79.42-17.55.88-23 3.44-46 2-18 5-36.13c.14-.91.3-1.8.46-2.71.42-2.4.84-4.78 1.28-7.18 0-.25.08-.48.13-.72a154.52 154.52 0 0 1 8.22-28.67 156.31 156.31 0 0 1 7.74-16.64 154 154 0 0 1 107.43-78.37 632.76 632.76 0 0 1 231.57.21 154.67 154.67 0 0 1 107.65 78.13 152.91 152.91 0 0 1 16 45.32 5.55 5.55 0 0 1 .13.71q.6 3.25 1.16 6.51c.16.93.32 1.86.46 2.79q3.12 18.32 5.1 36.72 2.54 23 3.33 46 .28 8.43.38 16.9.1 14.58-.44 29.16Z" transform="translate(-2.91 -2.91)" style="fill:url(#linear-gradient)"/><path d="M494.09 147.16a457.86 457.86 0 0 1-241.6 68.48 457.87 457.87 0 0 1-240.65-67.89c.14-.91.3-1.8.46-2.71.42-2.4.84-4.78 1.28-7.18 0-.25.08-.48.13-.72a154.52 154.52 0 0 1 8.22-28.67 156.31 156.31 0 0 1 7.74-16.64 154 154 0 0 1 107.45-78.34 632.76 632.76 0 0 1 231.57.21 154.67 154.67 0 0 1 107.65 78.13 152.91 152.91 0 0 1 16 45.32 5.55 5.55 0 0 1 .13.71q.6 3.25 1.16 6.51c.16.93.37 1.86.46 2.79Z" transform="translate(-2.91 -2.91)" style="opacity:.15;fill:#fff"/><path class="cls-3" d="M273.57 307.23q-38.41-.24-76.83-.06c-4.9 0-8.8 2.19-9.5 7.7s3.27 9.46 10 9.54c12.53.14 25.07 0 37.6 0 12.73 0 25.46.13 38.18-.06 6.16-.09 10-3.7 9.94-8.61s-3.75-8.47-9.39-8.51ZM143.17 250.37c-13.93-4.6-28.41-7.45-42-13.11-6.37-2.65-11.78-6.54-12.21-14.32-.44-8.19 3.07-14.19 10.12-18.5 12.35-7.56 39.11-9.25 55.08 5.35 4.67 4.26 10.27 3.86 13.49-.19 3.35-4.21 2.46-9.39-2.3-13.42-20.93-17.7-53.81-20.14-77-5.71-18.54 11.53-22.88 37.43-8.71 53 6.66 7.34 15.67 10.8 24.85 13.78 13.4 4.35 27.26 7.23 40.34 12.52 6.29 2.55 11.14 6.68 11.41 14.23.3 7.93-2.78 14.07-9.77 18.08a40.41 40.41 0 0 1-16.2 4.81c-16.74 1.81-31.71-2.1-44.88-13-4.77-3.93-9.83-3-12.87 1.28-2.78 3.87-2 8.59 2.42 12.38 13.63 11.75 29.47 17.51 50.93 17.14a75 75 0 0 0 18.06-2.68c23.82-6.33 36.25-29.38 27-50.92-5.15-12.03-16.22-16.91-27.76-20.72ZM434 240.67c-5.42-33.38-35.22-58.64-69.81-59.18-33.1-.49-64.34 24.7-70.36 57.12-.79 4.26-2 6-6.58 5.87-13.71-.28-27.41-.13-41.14-.13-16.64 0-33.29 0-49.93.08-5.33 0-9 3.52-9.13 8.06s3.21 8.09 8.55 8.65a34.76 34.76 0 0 0 4.08.13h42.88s29.37.31 44.05 0c4.75-.1 6.28 1.48 7.3 6 6.2 27.31 22.94 45.79 49.48 53.9 50.77 15.52 99.11-27.82 90.61-80.5Zm-70.83 66.18c-28.89 0-53-24.35-53.18-53.85-.21-29.14 24.7-53.95 53.95-53.75s53.39 24.35 53.54 53.57c.13 29.45-24.55 54.01-54.36 54.03ZM197.19 198.46c12.55.18 25.11 0 37.66 0 12.75 0 25.5.12 38.24-.06 5.94-.09 9.56-3.38 9.79-8.11.25-4.91-3.56-8.94-9.52-9-25.49-.17-51-.12-76.49 0-3.65 0-7 1.26-8.84 4.79-3.15 6.04 1.31 12.27 9.16 12.38Z" transform="translate(-2.91 -2.91)"/></svg>