<svg xmlns="http://www.w3.org/2000/svg" xml:space="preserve" style="enable-background:new 0 0 311.4 311.4" viewBox="0 0 311.4 311.4"><linearGradient id="a" x1="274.4" x2="37.4" y1="274.4" y2="37.4" gradientUnits="userSpaceOnUse"><stop offset="0" style="stop-color:#0074af"/><stop offset=".2" style="stop-color:#0375b1"/><stop offset=".4" style="stop-color:#0c79b7"/><stop offset=".6" style="stop-color:#1c80c1"/><stop offset=".7" style="stop-color:#328acf"/><stop offset=".8" style="stop-color:#4f96e1"/><stop offset="1" style="stop-color:#72a6f7"/><stop offset="1" style="stop-color:#7fabff"/></linearGradient><path d="M311 170a458 458 0 0 1-6 57v1c-8 39-38 69-77 77-48 8-97 8-144 0a95 95 0 0 1-77-77l-1-1a402 402 0 0 1-6-57v-29a458 458 0 0 1 6-51v-1l1-5a94 94 0 0 1 10-29C30 30 55 12 84 7c47-9 96-9 144 0a96 96 0 0 1 77 77l1 4v2a350 350 0 0 1 5 51v29z" style="fill:url(#a)"/><path d="M152 192c-6 3-12 6-19 7-6 1-13 2-19 0-7-1-14-3-20-7-15-8-25-20-29-36-3-10-2-21 2-31 1-5 4-11 8-15 6-8 14-15 23-19a61 61 0 0 1 50 2c4 2 8 6 12 10l9 9c5 5 12 8 20 9 6 1 12 1 18-1-8 0-16-1-23-5h1l4-1 10-2a49 49 0 0 1 24 3c9 4 16 11 21 19l4 14c1 17-6 30-21 39-6 4-13 6-21 6-2 0-2 0-3 2l-8 28c0 1-1 2-2 1l-21-6h-19l-14 3c-6 1-10-2-13-6l-4-7 1-2c6-1 12-4 18-7 4-2 7-3 10-6l1-1z" style="fill:#fff"/><path d="M306 90A285 285 0 0 1 6 90v-2l1-4a94 94 0 0 1 10-29C30 30 55 12 84 7c47-9 96-9 144 0a96 96 0 0 1 77 77l1 4v2z" style="opacity:.15;fill:#fff;enable-background:new"/></svg>