<svg xmlns="http://www.w3.org/2000/svg" width="284.836" height="40" viewBox="0 0 284.836 40">
  <g id="Group_5531" data-name="Group 5531" transform="translate(-817.582 -6926.23)">
    <path id="Path_3963" data-name="Path 3963" d="M280.774,102.23a2.064,2.064,0,0,1,2.062,2.062v31.876a2.064,2.064,0,0,1-2.062,2.062H4.062A2.064,2.064,0,0,1,2,136.168V104.292a2.064,2.064,0,0,1,2.062-2.062Zm0-2H4.062A4.062,4.062,0,0,0,0,104.292v31.876a4.062,4.062,0,0,0,4.062,4.062H280.774a4.062,4.062,0,0,0,4.062-4.062V104.292a4.062,4.062,0,0,0-4.062-4.062" transform="translate(817.582 6826)" fill="#999"/>
    <path id="Path_3964" data-name="Path 3964" d="M19.964,119.564h-3.4v2.783h3.954v.847H15.525V115.34h4.936v.847h-3.9v2.53h3.4Z" transform="translate(817.582 6826)" fill="#999"/>
    <path id="Path_3965" data-name="Path 3965" d="M22.592,117.357l.032.734a2.13,2.13,0,0,1,1.748-.842q1.851,0,1.866,2.088v3.857h-1v-3.862a1.343,1.343,0,0,0-.289-.933,1.155,1.155,0,0,0-.882-.3,1.442,1.442,0,0,0-.852.259,1.749,1.749,0,0,0-.572.68v4.159h-1v-5.837Z" transform="translate(817.582 6826)" fill="#999"/>
    <path id="Path_3966" data-name="Path 3966" d="M29.1,115.944v1.413h1.089v.772H29.1v3.624a.8.8,0,0,0,.146.526.609.609,0,0,0,.5.176,2.442,2.442,0,0,0,.475-.065v.8a2.894,2.894,0,0,1-.766.108,1.241,1.241,0,0,1-1.009-.4,1.733,1.733,0,0,1-.34-1.149v-3.619H27.036v-.772H28.1v-1.413Z" transform="translate(817.582 6826)" fill="#999"/>
    <path id="Path_3967" data-name="Path 3967" d="M33.774,123.3a2.548,2.548,0,0,1-1.931-.779,2.9,2.9,0,0,1-.745-2.085v-.183a3.5,3.5,0,0,1,.332-1.551,2.6,2.6,0,0,1,.928-1.069,2.34,2.34,0,0,1,1.292-.385,2.187,2.187,0,0,1,1.77.75,3.252,3.252,0,0,1,.63,2.147v.415H32.1a2.081,2.081,0,0,0,.505,1.4,1.585,1.585,0,0,0,1.227.531,1.741,1.741,0,0,0,.9-.216,2.242,2.242,0,0,0,.641-.572l.61.475a2.452,2.452,0,0,1-2.2,1.127m-.124-5.232a1.33,1.33,0,0,0-1.014.439,2.13,2.13,0,0,0-.507,1.233h2.923v-.075a1.9,1.9,0,0,0-.409-1.179,1.254,1.254,0,0,0-.993-.418" transform="translate(817.582 6826)" fill="#999"/>
    <path id="Path_3968" data-name="Path 3968" d="M40.026,118.252a3.012,3.012,0,0,0-.491-.038,1.314,1.314,0,0,0-1.332.836v4.143h-1v-5.837h.97l.017.675a1.552,1.552,0,0,1,1.392-.782,1.029,1.029,0,0,1,.442.075Z" transform="translate(817.582 6826)" fill="#999"/>
    <path id="Path_3969" data-name="Path 3969" d="M45.588,121.732l1.359-4.375h1.068L45.669,124.1q-.546,1.457-1.732,1.456l-.189-.016-.372-.07v-.809l.27.021a1.325,1.325,0,0,0,.79-.205,1.482,1.482,0,0,0,.467-.749l.221-.594-2.082-5.772h1.089Z" transform="translate(817.582 6826)" fill="#999"/>
    <path id="Path_3970" data-name="Path 3970" d="M48.56,120.221a3.448,3.448,0,0,1,.337-1.543,2.525,2.525,0,0,1,.938-1.057,2.558,2.558,0,0,1,1.374-.372,2.462,2.462,0,0,1,1.928.825,3.176,3.176,0,0,1,.736,2.2v.07a3.47,3.47,0,0,1-.326,1.529,2.489,2.489,0,0,1-.933,1.055,2.594,2.594,0,0,1-1.395.377,2.453,2.453,0,0,1-1.923-.825,3.159,3.159,0,0,1-.736-2.185Zm1,.119a2.493,2.493,0,0,0,.451,1.559,1.526,1.526,0,0,0,2.414-.008,2.736,2.736,0,0,0,.448-1.67,2.491,2.491,0,0,0-.457-1.556,1.515,1.515,0,0,0-2.4-.008,2.711,2.711,0,0,0-.453,1.683" transform="translate(817.582 6826)" fill="#999"/>
    <path id="Path_3971" data-name="Path 3971" d="M58.729,122.617a2.119,2.119,0,0,1-1.71.685,1.817,1.817,0,0,1-1.422-.542,2.346,2.346,0,0,1-.493-1.605v-3.8h1v3.771q0,1.328,1.079,1.327A1.494,1.494,0,0,0,58.7,121.6v-4.246h1v5.837h-.95Z" transform="translate(817.582 6826)" fill="#999"/>
    <path id="Path_3972" data-name="Path 3972" d="M64.037,118.252a3.012,3.012,0,0,0-.491-.038,1.314,1.314,0,0,0-1.332.836v4.143h-1v-5.837h.97l.017.675a1.552,1.552,0,0,1,1.392-.782,1.029,1.029,0,0,1,.442.075Z" transform="translate(817.582 6826)" fill="#999"/>
    <path id="Path_3973" data-name="Path 3973" d="M71.087,121.646a.734.734,0,0,0-.305-.628,2.935,2.935,0,0,0-1.063-.386,5.018,5.018,0,0,1-1.2-.388,1.716,1.716,0,0,1-.659-.54,1.288,1.288,0,0,1-.213-.745,1.515,1.515,0,0,1,.607-1.213,2.369,2.369,0,0,1,1.551-.5,2.436,2.436,0,0,1,1.61.512,1.628,1.628,0,0,1,.618,1.311h-1a.9.9,0,0,0-.347-.707,1.3,1.3,0,0,0-.877-.3,1.365,1.365,0,0,0-.852.237.747.747,0,0,0-.308.62.6.6,0,0,0,.286.545,3.514,3.514,0,0,0,1.033.351,5.387,5.387,0,0,1,1.211.4,1.759,1.759,0,0,1,.688.558,1.376,1.376,0,0,1,.224.8,1.493,1.493,0,0,1-.626,1.254,2.621,2.621,0,0,1-1.623.472,2.943,2.943,0,0,1-1.241-.248,2.008,2.008,0,0,1-.844-.693,1.667,1.667,0,0,1-.305-.963h1a1.038,1.038,0,0,0,.4.8,1.561,1.561,0,0,0,.991.294,1.605,1.605,0,0,0,.908-.23.7.7,0,0,0,.343-.612" transform="translate(817.582 6826)" fill="#999"/>
    <path id="Path_3974" data-name="Path 3974" d="M75.807,123.3a2.548,2.548,0,0,1-1.931-.779,2.9,2.9,0,0,1-.744-2.085v-.183a3.5,3.5,0,0,1,.332-1.551,2.6,2.6,0,0,1,.927-1.069,2.341,2.341,0,0,1,1.293-.385,2.185,2.185,0,0,1,1.769.75,3.252,3.252,0,0,1,.63,2.147v.415H74.13a2.086,2.086,0,0,0,.5,1.4,1.586,1.586,0,0,0,1.227.531,1.738,1.738,0,0,0,.9-.216,2.242,2.242,0,0,0,.641-.572l.61.475a2.451,2.451,0,0,1-2.2,1.127m-.123-5.232a1.33,1.33,0,0,0-1.015.439,2.144,2.144,0,0,0-.507,1.233h2.923v-.075a1.893,1.893,0,0,0-.409-1.179,1.252,1.252,0,0,0-.992-.418" transform="translate(817.582 6826)" fill="#999"/>
    <path id="Path_3975" data-name="Path 3975" d="M82.841,123.194a2.116,2.116,0,0,1-.14-.615,2.227,2.227,0,0,1-1.662.723,2.06,2.06,0,0,1-1.416-.489,1.58,1.58,0,0,1-.553-1.237,1.648,1.648,0,0,1,.694-1.416,3.26,3.26,0,0,1,1.95-.505h.971V119.2a1.121,1.121,0,0,0-.313-.834,1.259,1.259,0,0,0-.923-.31,1.453,1.453,0,0,0-.895.27.793.793,0,0,0-.362.652h-1a1.377,1.377,0,0,1,.31-.844,2.127,2.127,0,0,1,.842-.645,2.832,2.832,0,0,1,1.168-.237,2.308,2.308,0,0,1,1.58.5,1.825,1.825,0,0,1,.594,1.389v2.687a3.273,3.273,0,0,0,.205,1.278v.087Zm-1.656-.761a1.753,1.753,0,0,0,.89-.243,1.468,1.468,0,0,0,.61-.631v-1.2H81.9q-1.833,0-1.834,1.073a.911.911,0,0,0,.313.734,1.205,1.205,0,0,0,.8.264" transform="translate(817.582 6826)" fill="#999"/>
    <path id="Path_3976" data-name="Path 3976" d="M88.069,118.252a3.012,3.012,0,0,0-.491-.038,1.314,1.314,0,0,0-1.332.836v4.143h-1v-5.837h.97l.017.675a1.552,1.552,0,0,1,1.392-.782,1.029,1.029,0,0,1,.442.075Z" transform="translate(817.582 6826)" fill="#999"/>
    <path id="Path_3977" data-name="Path 3977" d="M91.225,122.487a1.442,1.442,0,0,0,.934-.324,1.146,1.146,0,0,0,.442-.809h.944a1.827,1.827,0,0,1-.345.955,2.3,2.3,0,0,1-.85.723,2.454,2.454,0,0,1-1.125.269,2.408,2.408,0,0,1-1.9-.8,3.172,3.172,0,0,1-.7-2.177v-.167a3.511,3.511,0,0,1,.314-1.516,2.382,2.382,0,0,1,.9-1.03,2.551,2.551,0,0,1,1.384-.367,2.343,2.343,0,0,1,1.632.588,2.1,2.1,0,0,1,.694,1.526H92.6a1.384,1.384,0,0,0-.429-.93,1.336,1.336,0,0,0-.953-.364,1.4,1.4,0,0,0-1.179.547,2.578,2.578,0,0,0-.418,1.583v.189a2.526,2.526,0,0,0,.415,1.554,1.406,1.406,0,0,0,1.188.545" transform="translate(817.582 6826)" fill="#999"/>
    <path id="Path_3978" data-name="Path 3978" d="M95.664,118.064a2.122,2.122,0,0,1,1.726-.815q1.85,0,1.866,2.088v3.857h-1v-3.862a1.348,1.348,0,0,0-.289-.934,1.159,1.159,0,0,0-.882-.3,1.442,1.442,0,0,0-.852.259,1.749,1.749,0,0,0-.572.68v4.159h-1v-8.286h1Z" transform="translate(817.582 6826)" fill="#999"/>
    <path id="Path_3979" data-name="Path 3979" d="M103.243,120.227a3.425,3.425,0,0,1,.631-2.177,2.228,2.228,0,0,1,3.329-.105l.043-.588h.917v8.081h-1v-2.784a2.094,2.094,0,0,1-1.608.647,2.012,2.012,0,0,1-1.685-.822,3.5,3.5,0,0,1-.629-2.182Zm1,.113a2.591,2.591,0,0,0,.424,1.575,1.346,1.346,0,0,0,1.14.572,1.5,1.5,0,0,0,1.36-.788V118.84a1.5,1.5,0,0,0-1.349-.771,1.356,1.356,0,0,0-1.149.574,2.832,2.832,0,0,0-.426,1.7" transform="translate(817.582 6826)" fill="#999"/>
    <path id="Path_3980" data-name="Path 3980" d="M113.369,122.617a2.119,2.119,0,0,1-1.71.685,1.817,1.817,0,0,1-1.422-.542,2.346,2.346,0,0,1-.493-1.605v-3.8h1v3.771q0,1.328,1.079,1.327a1.494,1.494,0,0,0,1.521-.852v-4.246h1v5.837h-.95Z" transform="translate(817.582 6826)" fill="#999"/>
    <path id="Path_3981" data-name="Path 3981" d="M118.278,123.3a2.548,2.548,0,0,1-1.931-.779,2.9,2.9,0,0,1-.745-2.085v-.183a3.5,3.5,0,0,1,.332-1.551,2.6,2.6,0,0,1,.928-1.069,2.34,2.34,0,0,1,1.292-.385,2.187,2.187,0,0,1,1.77.75,3.252,3.252,0,0,1,.63,2.147v.415H116.6a2.081,2.081,0,0,0,.505,1.4,1.585,1.585,0,0,0,1.227.531,1.741,1.741,0,0,0,.9-.216,2.242,2.242,0,0,0,.641-.572l.61.475a2.452,2.452,0,0,1-2.2,1.127m-.124-5.232a1.33,1.33,0,0,0-1.014.439,2.13,2.13,0,0,0-.507,1.233h2.923v-.075a1.9,1.9,0,0,0-.409-1.179,1.254,1.254,0,0,0-.993-.418" transform="translate(817.582 6826)" fill="#999"/>
    <path id="Path_3982" data-name="Path 3982" d="M124.53,118.252a3.012,3.012,0,0,0-.491-.038,1.314,1.314,0,0,0-1.332.836v4.143h-1v-5.837h.97l.017.675a1.552,1.552,0,0,1,1.392-.782,1.029,1.029,0,0,1,.442.075Z" transform="translate(817.582 6826)" fill="#999"/>
    <path id="Path_3983" data-name="Path 3983" d="M127.453,121.732l1.359-4.375h1.068l-2.346,6.738q-.546,1.457-1.732,1.456l-.189-.016-.372-.07v-.809l.27.021a1.325,1.325,0,0,0,.79-.205,1.482,1.482,0,0,0,.467-.749l.221-.594-2.082-5.772H126Z" transform="translate(817.582 6826)" fill="#999"/>
    <path id="Path_3984" data-name="Path 3984" d="M130.216,122.67a.622.622,0,0,1,.154-.431.585.585,0,0,1,.461-.173.6.6,0,0,1,.467.173.617.617,0,0,1,.159.431.585.585,0,0,1-.159.416.617.617,0,0,1-.467.167.6.6,0,0,1-.461-.167.59.59,0,0,1-.154-.416" transform="translate(817.582 6826)" fill="#999"/>
    <path id="Path_3985" data-name="Path 3985" d="M133.123,122.67a.622.622,0,0,1,.154-.431.585.585,0,0,1,.461-.173.6.6,0,0,1,.467.173.617.617,0,0,1,.159.431.585.585,0,0,1-.159.416.617.617,0,0,1-.467.167.6.6,0,0,1-.461-.167.59.59,0,0,1-.154-.416" transform="translate(817.582 6826)" fill="#999"/>
    <path id="Path_3986" data-name="Path 3986" d="M136.031,122.67a.622.622,0,0,1,.154-.431.585.585,0,0,1,.461-.173.6.6,0,0,1,.467.173.617.617,0,0,1,.159.431.585.585,0,0,1-.159.416.617.617,0,0,1-.467.167.6.6,0,0,1-.461-.167.59.59,0,0,1-.154-.416" transform="translate(817.582 6826)" fill="#999"/>
    <path id="Path_3987" data-name="Path 3987" d="M138.938,122.67a.622.622,0,0,1,.154-.431.585.585,0,0,1,.461-.173.6.6,0,0,1,.467.173.617.617,0,0,1,.159.431.585.585,0,0,1-.159.416.617.617,0,0,1-.467.167.6.6,0,0,1-.461-.167.59.59,0,0,1-.154-.416" transform="translate(817.582 6826)" fill="#999"/>
    <path id="Path_3988" data-name="Path 3988" d="M275.418,132.647H205.647a2.01,2.01,0,0,1-2.01-2.011V109.823a2.01,2.01,0,0,1,2.01-2.01h69.771a2.011,2.011,0,0,1,2.011,2.01v20.813a2.011,2.011,0,0,1-2.011,2.011" transform="translate(817.582 6826)" fill="#999"/>
    <path id="Path_3989" data-name="Path 3989" d="M233.3,120.464a5.417,5.417,0,0,1-2.153-1.045,1.994,1.994,0,0,1-.674-1.531,2.111,2.111,0,0,1,.823-1.7,3.275,3.275,0,0,1,2.142-.673,3.579,3.579,0,0,1,1.6.347,2.629,2.629,0,0,1,1.09.958,2.45,2.45,0,0,1,.386,1.336h-1.156a1.591,1.591,0,0,0-.5-1.247,2.042,2.042,0,0,0-1.419-.454,2.1,2.1,0,0,0-1.327.375,1.252,1.252,0,0,0-.476,1.041,1.124,1.124,0,0,0,.452.9,4.436,4.436,0,0,0,1.539.675,7.111,7.111,0,0,1,1.7.675,2.578,2.578,0,0,1,.911.859,2.19,2.19,0,0,1,.3,1.156,2.037,2.037,0,0,1-.826,1.7,3.526,3.526,0,0,1-2.21.638,4.088,4.088,0,0,1-1.677-.344,2.821,2.821,0,0,1-1.2-.944,2.3,2.3,0,0,1-.423-1.359h1.156a1.5,1.5,0,0,0,.584,1.248,2.459,2.459,0,0,0,1.561.459,2.257,2.257,0,0,0,1.395-.372,1.2,1.2,0,0,0,.485-1.012,1.182,1.182,0,0,0-.449-.991,5.168,5.168,0,0,0-1.629-.692" transform="translate(817.582 6826)" fill="#fff"/>
    <path id="Path_3990" data-name="Path 3990" d="M240.527,124.471a2.831,2.831,0,0,1-2.145-.866,3.211,3.211,0,0,1-.826-2.315v-.2a3.9,3.9,0,0,1,.368-1.722,2.869,2.869,0,0,1,1.03-1.186,2.6,2.6,0,0,1,1.435-.428,2.43,2.43,0,0,1,1.965.832,3.606,3.606,0,0,1,.7,2.384v.461h-4.39a2.309,2.309,0,0,0,.56,1.549,1.762,1.762,0,0,0,1.363.59,1.938,1.938,0,0,0,.994-.24,2.509,2.509,0,0,0,.713-.635l.677.527a2.722,2.722,0,0,1-2.444,1.252m-.138-5.81a1.475,1.475,0,0,0-1.126.488,2.373,2.373,0,0,0-.563,1.369h3.246v-.084a2.108,2.108,0,0,0-.455-1.309,1.394,1.394,0,0,0-1.1-.464" transform="translate(817.582 6826)" fill="#fff"/>
    <path id="Path_3991" data-name="Path 3991" d="M248.338,124.351a2.332,2.332,0,0,1-.156-.683,2.472,2.472,0,0,1-1.845.8,2.283,2.283,0,0,1-1.572-.542,1.751,1.751,0,0,1-.614-1.374,1.832,1.832,0,0,1,.77-1.573,3.629,3.629,0,0,1,2.165-.56h1.078v-.509a1.247,1.247,0,0,0-.347-.925,1.4,1.4,0,0,0-1.024-.345,1.613,1.613,0,0,0-.995.3.884.884,0,0,0-.4.725h-1.114a1.528,1.528,0,0,1,.344-.938,2.358,2.358,0,0,1,.935-.716,3.15,3.15,0,0,1,1.3-.263,2.558,2.558,0,0,1,1.755.56,2.021,2.021,0,0,1,.659,1.542v2.983a3.642,3.642,0,0,0,.228,1.42v.1Zm-1.839-.845a1.944,1.944,0,0,0,.988-.27,1.626,1.626,0,0,0,.677-.7v-1.33H247.3q-2.037,0-2.037,1.192a1.01,1.01,0,0,0,.348.815,1.337,1.337,0,0,0,.892.293" transform="translate(817.582 6826)" fill="#fff"/>
    <path id="Path_3992" data-name="Path 3992" d="M254.141,118.865a3.323,3.323,0,0,0-.545-.042,1.461,1.461,0,0,0-1.48.928v4.6h-1.108v-6.481h1.079l.018.748a1.726,1.726,0,0,1,1.545-.868,1.132,1.132,0,0,1,.491.084Z" transform="translate(817.582 6826)" fill="#fff"/>
    <path id="Path_3993" data-name="Path 3993" d="M257.645,123.566a1.6,1.6,0,0,0,1.036-.359,1.263,1.263,0,0,0,.491-.9h1.049a2.012,2.012,0,0,1-.384,1.06,2.528,2.528,0,0,1-.943.8,2.721,2.721,0,0,1-1.249.3,2.668,2.668,0,0,1-2.1-.883,3.52,3.52,0,0,1-.782-2.417v-.186a3.912,3.912,0,0,1,.347-1.683,2.649,2.649,0,0,1,1-1.144,2.836,2.836,0,0,1,1.536-.407,2.6,2.6,0,0,1,1.812.653,2.337,2.337,0,0,1,.77,1.695h-1.049a1.528,1.528,0,0,0-.476-1.033,1.479,1.479,0,0,0-1.057-.4,1.552,1.552,0,0,0-1.309.608,2.859,2.859,0,0,0-.464,1.758v.21a2.8,2.8,0,0,0,.461,1.725,1.558,1.558,0,0,0,1.318.605" transform="translate(817.582 6826)" fill="#fff"/>
    <path id="Path_3994" data-name="Path 3994" d="M262.575,118.655a2.355,2.355,0,0,1,1.917-.9q2.053,0,2.072,2.318v4.282h-1.108v-4.288a1.5,1.5,0,0,0-.32-1.037,1.284,1.284,0,0,0-.98-.335,1.6,1.6,0,0,0-.946.287,1.957,1.957,0,0,0-.635.755v4.618h-1.108v-9.2h1.108Z" transform="translate(817.582 6826)" fill="#fff"/>
    <path id="Path_3995" data-name="Path 3995" d="M225.556,124.946l-2.941-2.94a4.53,4.53,0,1,0-.81.81l2.94,2.942Zm-9.876-5.7a3.368,3.368,0,1,1,3.368,3.368,3.368,3.368,0,0,1-3.368-3.368" transform="translate(817.582 6826)" fill="#fff"/>
  </g>
</svg>
