<svg xmlns="http://www.w3.org/2000/svg" width="284.836" height="40" viewBox="0 0 284.836 40">
  <g id="Group_5532" data-name="Group 5532" transform="translate(-817.582 -7043.01)">
    <path id="Path_3996" data-name="Path 3996" d="M280.774,257.01H186.8v-40h93.971a4.062,4.062,0,0,1,4.062,4.062v31.876a4.063,4.063,0,0,1-4.062,4.062" transform="translate(817.582 6826)" fill="#999"/>
    <path id="Path_3997" data-name="Path 3997" d="M184.8,219.01v36H4.062A2.064,2.064,0,0,1,2,252.948V221.072a2.064,2.064,0,0,1,2.062-2.062Zm2-2H4.062A4.062,4.062,0,0,0,0,221.072v31.876a4.062,4.062,0,0,0,4.062,4.062H186.8Z" transform="translate(817.582 6826)" fill="#999"/>
    <path id="Path_3998" data-name="Path 3998" d="M19.964,236.344h-3.4v2.783h3.954v.847H15.525V232.12h4.936v.847h-3.9v2.53h3.4Z" transform="translate(817.582 6826)" fill="#999"/>
    <path id="Path_3999" data-name="Path 3999" d="M22.592,234.137l.032.734a2.13,2.13,0,0,1,1.748-.842q1.851,0,1.866,2.088v3.857h-1v-3.862a1.343,1.343,0,0,0-.289-.933,1.155,1.155,0,0,0-.882-.3,1.442,1.442,0,0,0-.852.259,1.749,1.749,0,0,0-.572.68v4.159h-1v-5.837Z" transform="translate(817.582 6826)" fill="#999"/>
    <path id="Path_4000" data-name="Path 4000" d="M29.1,232.724v1.413h1.089v.772H29.1v3.624a.8.8,0,0,0,.146.526.609.609,0,0,0,.5.176,2.442,2.442,0,0,0,.475-.065v.8a2.894,2.894,0,0,1-.766.108,1.241,1.241,0,0,1-1.009-.4,1.733,1.733,0,0,1-.34-1.149v-3.619H27.036v-.772H28.1v-1.413Z" transform="translate(817.582 6826)" fill="#999"/>
    <path id="Path_4001" data-name="Path 4001" d="M33.774,240.082a2.548,2.548,0,0,1-1.931-.779,2.9,2.9,0,0,1-.745-2.085v-.183a3.5,3.5,0,0,1,.332-1.551,2.6,2.6,0,0,1,.928-1.069,2.34,2.34,0,0,1,1.292-.385,2.187,2.187,0,0,1,1.77.75,3.252,3.252,0,0,1,.63,2.147v.415H32.1a2.081,2.081,0,0,0,.505,1.4,1.585,1.585,0,0,0,1.227.531,1.741,1.741,0,0,0,.9-.216,2.242,2.242,0,0,0,.641-.572l.61.475a2.452,2.452,0,0,1-2.2,1.127m-.124-5.232a1.33,1.33,0,0,0-1.014.439,2.13,2.13,0,0,0-.507,1.233h2.923v-.075a1.9,1.9,0,0,0-.409-1.179,1.254,1.254,0,0,0-.993-.418" transform="translate(817.582 6826)" fill="#999"/>
    <path id="Path_4002" data-name="Path 4002" d="M40.026,235.033a3.011,3.011,0,0,0-.491-.038,1.314,1.314,0,0,0-1.332.836v4.143h-1v-5.837h.97l.017.675a1.552,1.552,0,0,1,1.392-.782,1.029,1.029,0,0,1,.442.075Z" transform="translate(817.582 6826)" fill="#999"/>
    <path id="Path_4003" data-name="Path 4003" d="M45.588,238.512l1.359-4.375h1.068l-2.346,6.738q-.546,1.456-1.732,1.456l-.189-.016-.372-.07v-.809l.27.021a1.325,1.325,0,0,0,.79-.205,1.482,1.482,0,0,0,.467-.749l.221-.594-2.082-5.772h1.089Z" transform="translate(817.582 6826)" fill="#999"/>
    <path id="Path_4004" data-name="Path 4004" d="M48.56,237a3.448,3.448,0,0,1,.337-1.543,2.525,2.525,0,0,1,.938-1.057,2.558,2.558,0,0,1,1.374-.372,2.462,2.462,0,0,1,1.928.825,3.176,3.176,0,0,1,.736,2.2v.07a3.47,3.47,0,0,1-.326,1.529,2.489,2.489,0,0,1-.933,1.055,2.594,2.594,0,0,1-1.395.377,2.453,2.453,0,0,1-1.923-.825,3.159,3.159,0,0,1-.736-2.185Zm1,.119a2.493,2.493,0,0,0,.451,1.559,1.526,1.526,0,0,0,2.414-.008,2.736,2.736,0,0,0,.448-1.67,2.491,2.491,0,0,0-.457-1.556,1.515,1.515,0,0,0-2.4-.008,2.711,2.711,0,0,0-.453,1.683" transform="translate(817.582 6826)" fill="#999"/>
    <path id="Path_4005" data-name="Path 4005" d="M58.729,239.4a2.119,2.119,0,0,1-1.71.685,1.817,1.817,0,0,1-1.422-.542,2.346,2.346,0,0,1-.493-1.6v-3.8h1v3.771q0,1.327,1.079,1.327a1.494,1.494,0,0,0,1.521-.852v-4.246h1v5.837h-.95Z" transform="translate(817.582 6826)" fill="#999"/>
    <path id="Path_4006" data-name="Path 4006" d="M64.037,235.033a3.011,3.011,0,0,0-.491-.038,1.314,1.314,0,0,0-1.332.836v4.143h-1v-5.837h.97l.017.675a1.552,1.552,0,0,1,1.392-.782,1.029,1.029,0,0,1,.442.075Z" transform="translate(817.582 6826)" fill="#999"/>
    <path id="Path_4007" data-name="Path 4007" d="M71.087,238.426a.734.734,0,0,0-.305-.628,2.935,2.935,0,0,0-1.063-.386,5.017,5.017,0,0,1-1.2-.388,1.716,1.716,0,0,1-.659-.54,1.288,1.288,0,0,1-.213-.745,1.515,1.515,0,0,1,.607-1.213,2.369,2.369,0,0,1,1.551-.5,2.436,2.436,0,0,1,1.61.512,1.628,1.628,0,0,1,.618,1.311h-1a.9.9,0,0,0-.347-.707,1.3,1.3,0,0,0-.877-.3,1.365,1.365,0,0,0-.852.237.747.747,0,0,0-.308.62.6.6,0,0,0,.286.545,3.514,3.514,0,0,0,1.033.351,5.387,5.387,0,0,1,1.211.4,1.759,1.759,0,0,1,.688.558,1.376,1.376,0,0,1,.224.8,1.493,1.493,0,0,1-.626,1.254,2.621,2.621,0,0,1-1.623.472,2.944,2.944,0,0,1-1.241-.248,2.008,2.008,0,0,1-.844-.693,1.667,1.667,0,0,1-.305-.963h1a1.038,1.038,0,0,0,.4.8,1.561,1.561,0,0,0,.991.294,1.605,1.605,0,0,0,.908-.23.7.7,0,0,0,.343-.612" transform="translate(817.582 6826)" fill="#999"/>
    <path id="Path_4008" data-name="Path 4008" d="M75.807,240.082a2.548,2.548,0,0,1-1.931-.779,2.9,2.9,0,0,1-.744-2.085v-.183a3.5,3.5,0,0,1,.332-1.551,2.6,2.6,0,0,1,.927-1.069,2.341,2.341,0,0,1,1.293-.385,2.185,2.185,0,0,1,1.769.75,3.252,3.252,0,0,1,.63,2.147v.415H74.13a2.086,2.086,0,0,0,.5,1.4,1.586,1.586,0,0,0,1.227.531,1.738,1.738,0,0,0,.9-.216,2.242,2.242,0,0,0,.641-.572l.61.475a2.451,2.451,0,0,1-2.2,1.127m-.123-5.232a1.33,1.33,0,0,0-1.015.439,2.144,2.144,0,0,0-.507,1.233h2.923v-.075a1.893,1.893,0,0,0-.409-1.179,1.252,1.252,0,0,0-.992-.418" transform="translate(817.582 6826)" fill="#999"/>
    <path id="Path_4009" data-name="Path 4009" d="M82.841,239.974a2.116,2.116,0,0,1-.14-.615,2.227,2.227,0,0,1-1.662.723,2.059,2.059,0,0,1-1.416-.489,1.58,1.58,0,0,1-.553-1.237,1.648,1.648,0,0,1,.694-1.416,3.26,3.26,0,0,1,1.95-.505h.971v-.458a1.121,1.121,0,0,0-.313-.834,1.259,1.259,0,0,0-.923-.31,1.453,1.453,0,0,0-.895.27.793.793,0,0,0-.362.652h-1a1.377,1.377,0,0,1,.31-.844,2.127,2.127,0,0,1,.842-.645,2.832,2.832,0,0,1,1.168-.237,2.308,2.308,0,0,1,1.58.5,1.825,1.825,0,0,1,.594,1.389v2.687a3.273,3.273,0,0,0,.205,1.278v.087Zm-1.656-.761a1.753,1.753,0,0,0,.89-.243,1.468,1.468,0,0,0,.61-.631v-1.2H81.9q-1.833,0-1.834,1.073a.911.911,0,0,0,.313.734,1.205,1.205,0,0,0,.8.264" transform="translate(817.582 6826)" fill="#999"/>
    <path id="Path_4010" data-name="Path 4010" d="M88.069,235.033a3.011,3.011,0,0,0-.491-.038,1.314,1.314,0,0,0-1.332.836v4.143h-1v-5.837h.97l.017.675a1.552,1.552,0,0,1,1.392-.782,1.029,1.029,0,0,1,.442.075Z" transform="translate(817.582 6826)" fill="#999"/>
    <path id="Path_4011" data-name="Path 4011" d="M91.225,239.268a1.442,1.442,0,0,0,.934-.324,1.146,1.146,0,0,0,.442-.809h.944a1.827,1.827,0,0,1-.345.955,2.3,2.3,0,0,1-.85.723,2.454,2.454,0,0,1-1.125.269,2.408,2.408,0,0,1-1.9-.795,3.172,3.172,0,0,1-.7-2.177v-.167a3.511,3.511,0,0,1,.314-1.516,2.382,2.382,0,0,1,.9-1.03,2.551,2.551,0,0,1,1.384-.367,2.343,2.343,0,0,1,1.632.588,2.1,2.1,0,0,1,.694,1.526H92.6a1.384,1.384,0,0,0-.429-.93,1.336,1.336,0,0,0-.953-.364,1.4,1.4,0,0,0-1.179.547,2.578,2.578,0,0,0-.418,1.583v.189a2.526,2.526,0,0,0,.415,1.554,1.406,1.406,0,0,0,1.188.545" transform="translate(817.582 6826)" fill="#999"/>
    <path id="Path_4012" data-name="Path 4012" d="M95.664,234.844a2.122,2.122,0,0,1,1.726-.815q1.85,0,1.866,2.088v3.857h-1v-3.862a1.348,1.348,0,0,0-.289-.934,1.159,1.159,0,0,0-.882-.3,1.442,1.442,0,0,0-.852.259,1.749,1.749,0,0,0-.572.68v4.159h-1v-8.286h1Z" transform="translate(817.582 6826)" fill="#999"/>
    <path id="Path_4013" data-name="Path 4013" d="M103.243,237.008a3.425,3.425,0,0,1,.631-2.177,2.228,2.228,0,0,1,3.329-.1l.043-.588h.917v8.081h-1v-2.784a2.094,2.094,0,0,1-1.608.647,2.012,2.012,0,0,1-1.685-.822,3.5,3.5,0,0,1-.629-2.182Zm1,.113a2.591,2.591,0,0,0,.424,1.575,1.346,1.346,0,0,0,1.14.572,1.5,1.5,0,0,0,1.36-.788v-2.859a1.5,1.5,0,0,0-1.349-.771,1.356,1.356,0,0,0-1.149.574,2.832,2.832,0,0,0-.426,1.7" transform="translate(817.582 6826)" fill="#999"/>
    <path id="Path_4014" data-name="Path 4014" d="M113.369,239.4a2.119,2.119,0,0,1-1.71.685,1.817,1.817,0,0,1-1.422-.542,2.346,2.346,0,0,1-.493-1.6v-3.8h1v3.771q0,1.327,1.079,1.327a1.494,1.494,0,0,0,1.521-.852v-4.246h1v5.837h-.95Z" transform="translate(817.582 6826)" fill="#999"/>
    <path id="Path_4015" data-name="Path 4015" d="M118.278,240.082a2.548,2.548,0,0,1-1.931-.779,2.9,2.9,0,0,1-.745-2.085v-.183a3.5,3.5,0,0,1,.332-1.551,2.6,2.6,0,0,1,.928-1.069,2.34,2.34,0,0,1,1.292-.385,2.187,2.187,0,0,1,1.77.75,3.252,3.252,0,0,1,.63,2.147v.415H116.6a2.081,2.081,0,0,0,.505,1.4,1.585,1.585,0,0,0,1.227.531,1.741,1.741,0,0,0,.9-.216,2.242,2.242,0,0,0,.641-.572l.61.475a2.452,2.452,0,0,1-2.2,1.127m-.124-5.232a1.33,1.33,0,0,0-1.014.439,2.13,2.13,0,0,0-.507,1.233h2.923v-.075a1.9,1.9,0,0,0-.409-1.179,1.254,1.254,0,0,0-.993-.418" transform="translate(817.582 6826)" fill="#999"/>
    <path id="Path_4016" data-name="Path 4016" d="M124.53,235.033a3.011,3.011,0,0,0-.491-.038,1.314,1.314,0,0,0-1.332.836v4.143h-1v-5.837h.97l.017.675a1.552,1.552,0,0,1,1.392-.782,1.029,1.029,0,0,1,.442.075Z" transform="translate(817.582 6826)" fill="#999"/>
    <path id="Path_4017" data-name="Path 4017" d="M127.453,238.512l1.359-4.375h1.068l-2.346,6.738q-.546,1.456-1.732,1.456l-.189-.016-.372-.07v-.809l.27.021a1.325,1.325,0,0,0,.79-.205,1.482,1.482,0,0,0,.467-.749l.221-.594-2.082-5.772H126Z" transform="translate(817.582 6826)" fill="#999"/>
    <path id="Path_4018" data-name="Path 4018" d="M130.216,239.451a.622.622,0,0,1,.154-.431.585.585,0,0,1,.461-.173.6.6,0,0,1,.467.173.617.617,0,0,1,.159.431.585.585,0,0,1-.159.416.617.617,0,0,1-.467.167.6.6,0,0,1-.461-.167.59.59,0,0,1-.154-.416" transform="translate(817.582 6826)" fill="#999"/>
    <path id="Path_4019" data-name="Path 4019" d="M133.123,239.451a.622.622,0,0,1,.154-.431.585.585,0,0,1,.461-.173.6.6,0,0,1,.467.173.617.617,0,0,1,.159.431.585.585,0,0,1-.159.416.617.617,0,0,1-.467.167.6.6,0,0,1-.461-.167.59.59,0,0,1-.154-.416" transform="translate(817.582 6826)" fill="#999"/>
    <path id="Path_4020" data-name="Path 4020" d="M136.031,239.451a.622.622,0,0,1,.154-.431.585.585,0,0,1,.461-.173.6.6,0,0,1,.467.173.617.617,0,0,1,.159.431.585.585,0,0,1-.159.416.617.617,0,0,1-.467.167.6.6,0,0,1-.461-.167.59.59,0,0,1-.154-.416" transform="translate(817.582 6826)" fill="#999"/>
    <path id="Path_4021" data-name="Path 4021" d="M138.938,239.451a.622.622,0,0,1,.154-.431.585.585,0,0,1,.461-.173.6.6,0,0,1,.467.173.617.617,0,0,1,.159.431.585.585,0,0,1-.159.416.617.617,0,0,1-.467.167.6.6,0,0,1-.461-.167.59.59,0,0,1-.154-.416" transform="translate(817.582 6826)" fill="#999"/>
    <path id="Path_4022" data-name="Path 4022" d="M227.157,237.1a7.056,7.056,0,0,1-2.809-1.363,2.6,2.6,0,0,1-.879-2,2.75,2.75,0,0,1,1.075-2.223,4.268,4.268,0,0,1,2.793-.879,4.666,4.666,0,0,1,2.09.453,3.442,3.442,0,0,1,1.421,1.25,3.2,3.2,0,0,1,.5,1.742h-1.507a2.081,2.081,0,0,0-.657-1.627,2.669,2.669,0,0,0-1.851-.591,2.734,2.734,0,0,0-1.731.489,1.63,1.63,0,0,0-.621,1.357,1.467,1.467,0,0,0,.59,1.179,5.794,5.794,0,0,0,2.008.88,9.351,9.351,0,0,1,2.219.88,3.372,3.372,0,0,1,1.187,1.121,2.861,2.861,0,0,1,.387,1.508,2.66,2.66,0,0,1-1.078,2.215,4.6,4.6,0,0,1-2.883.832,5.342,5.342,0,0,1-2.188-.45,3.681,3.681,0,0,1-1.566-1.23,3.005,3.005,0,0,1-.551-1.774h1.508a1.958,1.958,0,0,0,.762,1.629,3.2,3.2,0,0,0,2.035.6,2.948,2.948,0,0,0,1.82-.484,1.575,1.575,0,0,0,.633-1.321,1.544,1.544,0,0,0-.586-1.293,6.781,6.781,0,0,0-2.125-.9" transform="translate(817.582 6826)" fill="#fff"/>
    <path id="Path_4023" data-name="Path 4023" d="M236.579,242.322a3.692,3.692,0,0,1-2.8-1.129,4.189,4.189,0,0,1-1.078-3.019v-.266a5.075,5.075,0,0,1,.48-2.246,3.74,3.74,0,0,1,1.344-1.547,3.379,3.379,0,0,1,1.871-.558,3.17,3.17,0,0,1,2.563,1.085,4.706,4.706,0,0,1,.914,3.11v.6h-5.727a3.008,3.008,0,0,0,.73,2.02,2.3,2.3,0,0,0,1.778.769,2.524,2.524,0,0,0,1.3-.312,3.241,3.241,0,0,0,.929-.828l.883.687a3.548,3.548,0,0,1-3.187,1.633m-.18-7.578a1.928,1.928,0,0,0-1.469.637,3.1,3.1,0,0,0-.734,1.785h4.234v-.109a2.752,2.752,0,0,0-.594-1.708,1.816,1.816,0,0,0-1.437-.6" transform="translate(817.582 6826)" fill="#fff"/>
    <path id="Path_4024" data-name="Path 4024" d="M246.766,242.167a3.052,3.052,0,0,1-.2-.891,3.225,3.225,0,0,1-2.406,1.047,2.987,2.987,0,0,1-2.051-.707,2.29,2.29,0,0,1-.8-1.793,2.391,2.391,0,0,1,1-2.051,4.734,4.734,0,0,1,2.825-.73h1.406v-.664a1.627,1.627,0,0,0-.453-1.208,1.824,1.824,0,0,0-1.336-.449,2.1,2.1,0,0,0-1.3.391,1.15,1.15,0,0,0-.523.945h-1.454a1.99,1.99,0,0,1,.45-1.222,3.053,3.053,0,0,1,1.218-.934,4.088,4.088,0,0,1,1.692-.344,3.338,3.338,0,0,1,2.289.731,2.634,2.634,0,0,1,.859,2.011v3.891a4.756,4.756,0,0,0,.3,1.852v.125Zm-2.4-1.1a2.534,2.534,0,0,0,1.289-.352,2.13,2.13,0,0,0,.883-.914v-1.734h-1.133q-2.656,0-2.656,1.555a1.315,1.315,0,0,0,.453,1.062,1.742,1.742,0,0,0,1.164.383" transform="translate(817.582 6826)" fill="#fff"/>
    <path id="Path_4025" data-name="Path 4025" d="M254.336,235.01a4.386,4.386,0,0,0-.711-.055,1.906,1.906,0,0,0-1.93,1.211v6H250.25v-8.453h1.406l.024.977a2.249,2.249,0,0,1,2.015-1.133,1.476,1.476,0,0,1,.641.109Z" transform="translate(817.582 6826)" fill="#fff"/>
    <path id="Path_4026" data-name="Path 4026" d="M258.907,241.143a2.081,2.081,0,0,0,1.352-.469,1.65,1.65,0,0,0,.64-1.172h1.367a2.612,2.612,0,0,1-.5,1.383,3.29,3.29,0,0,1-1.23,1.047,3.544,3.544,0,0,1-1.629.391,3.481,3.481,0,0,1-2.746-1.153,4.588,4.588,0,0,1-1.02-3.152v-.242a5.087,5.087,0,0,1,.453-2.2,3.457,3.457,0,0,1,1.3-1.493,3.7,3.7,0,0,1,2-.531,3.387,3.387,0,0,1,2.363.852,3.041,3.041,0,0,1,1,2.211H260.9a1.994,1.994,0,0,0-.621-1.348,1.929,1.929,0,0,0-1.379-.527,2.022,2.022,0,0,0-1.707.793,3.719,3.719,0,0,0-.6,2.292v.274a3.65,3.65,0,0,0,.6,2.25,2.033,2.033,0,0,0,1.719.789" transform="translate(817.582 6826)" fill="#fff"/>
    <path id="Path_4027" data-name="Path 4027" d="M265.336,234.737a3.075,3.075,0,0,1,2.5-1.18q2.679,0,2.7,3.024v5.586h-1.445v-5.594a1.954,1.954,0,0,0-.418-1.352,1.674,1.674,0,0,0-1.277-.437,2.087,2.087,0,0,0-1.235.375,2.549,2.549,0,0,0-.828.984v6.024h-1.445v-12h1.445Z" transform="translate(817.582 6826)" fill="#fff"/>
    <path id="Path_4028" data-name="Path 4028" d="M218,244.219l-4.495-4.495a6.922,6.922,0,1,0-1.239,1.24l4.494,4.5Zm-15.1-8.713a5.148,5.148,0,1,1,5.148,5.148,5.148,5.148,0,0,1-5.148-5.148" transform="translate(817.582 6826)" fill="#fff"/>
  </g>
</svg>
