<svg xmlns="http://www.w3.org/2000/svg" width="140" height="161.818" viewBox="0 0 140 161.818">
  <g id="Group_4109" data-name="Group 4109" transform="translate(1778 -4452)">
    <path id="Path_2145" data-name="Path 2145" d="M81.878,17.887s-2.656.241-3.531,11.323-13.4,10.879-13.4,10.879A16.533,16.533,0,0,0,70.95,29.125c.764-7.159,3.56-12.818,10.928-11.238" transform="translate(-1778 4452)" fill="#88f28c"/>
    <path id="Path_2146" data-name="Path 2146" d="M74.382,31.2s-9.832-1.869-9.8-14.581S50.1,0,50.1,0s8.073,5.435,8.685,19.67C59.3,31.809,74.382,31.2,74.382,31.2" transform="translate(-1778 4452)" fill="#88f28c"/>
    <path id="Path_2147" data-name="Path 2147" d="M74.277,30.728s-8.985,4.409-16.6-5.775-21.56-4.6-21.56-4.6,9.72-.5,18.755,10.516c7.707,9.395,19.4-.143,19.4-.143" transform="translate(-1778 4452)" fill="#88f28c"/>
    <path id="Path_2148" data-name="Path 2148" d="M77.623,19.29a.965.965,0,1,1-.965.965.965.965,0,0,1,.965-.965" transform="translate(-1778 4452)" fill="#49b749"/>
    <path id="Path_2149" data-name="Path 2149" d="M95.108,35.229a4.861,4.861,0,1,1-4.861,4.861,4.861,4.861,0,0,1,4.861-4.861" transform="translate(-1778 4452)" fill="#f99"/>
    <path id="Path_2150" data-name="Path 2150" d="M31.156,30.844a7.419,7.419,0,1,1-7.419,7.419,7.42,7.42,0,0,1,7.419-7.419" transform="translate(-1778 4452)" fill="#eae47d"/>
    <path id="Path_2151" data-name="Path 2151" d="M11.86,59.514A11.86,11.86,0,1,1,0,71.374a11.861,11.861,0,0,1,11.86-11.86" transform="translate(-1778 4452)" fill="#abe5ff"/>
    <path id="Path_2152" data-name="Path 2152" d="M131.769,126.761a10.109,10.109,0,0,1-10.113,10.113,9.938,9.938,0,0,1-5.18-1.437v17.381a9,9,0,0,1-9,9H78.681a9.991,9.991,0,0,0,1.438-5.189,10.114,10.114,0,1,0-20.227,0,9.991,9.991,0,0,0,1.438,5.189h-28.8a9,9,0,0,1-9-9V135.437a10,10,0,0,1-5.19,1.437,10.113,10.113,0,1,1,0-20.226,10,10,0,0,1,5.19,1.437V100.7a9,9,0,0,1,9-9h28.8a9.991,9.991,0,0,0-1.438,5.189,10.114,10.114,0,1,0,20.227,0A9.991,9.991,0,0,0,78.681,91.7h28.794a9,9,0,0,1,9,9v17.381a9.938,9.938,0,0,1,5.18-1.437,10.109,10.109,0,0,1,10.113,10.113" transform="translate(-1778 4452)" fill="#00d14b"/>
    <path id="Path_2153" data-name="Path 2153" d="M95.108,119.461a5.91,5.91,0,0,1-5.909-5.909V78.023a19.2,19.2,0,0,0-37.858-4.548,5.909,5.909,0,0,1-11.484-2.787,31.021,31.021,0,0,1,61.16,7.335v35.529a5.91,5.91,0,0,1-5.909,5.909" transform="translate(-1778 4452)" fill="#00d14b"/>
    <path id="Path_2154" data-name="Path 2154" d="M76.255,122.864A6.254,6.254,0,1,1,70,116.609a6.255,6.255,0,0,1,6.255,6.255" transform="translate(-1778 4452)" fill="#006b24"/>
    <path id="Path_2155" data-name="Path 2155" d="M70.593,136.912H69.407a1.275,1.275,0,0,1-1.275-1.275v-8.008a1.275,1.275,0,0,1,1.275-1.275h1.186a1.275,1.275,0,0,1,1.275,1.275v8.008a1.275,1.275,0,0,1-1.275,1.275" transform="translate(-1778 4452)" fill="#006b24"/>
    <path id="Path_2156" data-name="Path 2156" d="M124.5,34.768c-3.516,3.271-6.321,8.145-8.132,11.333a55.185,55.185,0,0,0-6.685,35.257c-.29-2.094,1.431-5.787,2.152-7.816a47.4,47.4,0,0,1,3.688-8,50.078,50.078,0,0,1,12.555-14.084c2.688-2.084,5.8-3.4,8.527-5.381a8.01,8.01,0,0,0,3.04-8.91,8.357,8.357,0,0,0-6.516-5.745c-3.177-.549-6.089.978-8.629,3.341" transform="translate(-1778 4452)" fill="#ffa471"/>
    <path id="Path_2157" data-name="Path 2157" d="M125.749,74.543a15.519,15.519,0,0,0-4.374.845,17.632,17.632,0,0,0-9.288,6.712,7.133,7.133,0,0,1,2.215-1.341,15.1,15.1,0,0,1,2.61-1.045,15.984,15.984,0,0,1,6-.513c1.081.106,2.091.484,3.159.623a2.556,2.556,0,0,0,2.66-1.4,2.668,2.668,0,0,0-.251-2.763,3.264,3.264,0,0,0-2.734-1.118" transform="translate(-1778 4452)" fill="#ff8080"/>
  </g>
</svg>
