<svg xmlns="http://www.w3.org/2000/svg" width="139.867" height="161.818" viewBox="0 0 139.867 161.818">
  <g id="Group_4111" data-name="Group 4111" transform="translate(1341 -4443)">
    <path id="Path_2175" data-name="Path 2175" d="M95.576,20.1s-2.985.271-3.968,12.724S76.546,45.051,76.546,45.051A18.585,18.585,0,0,0,83.3,32.729c.859-8.044,4-14.4,12.28-12.628" transform="translate(-1341 4443)" fill="#ffa6b5"/>
    <path id="Path_2176" data-name="Path 2176" d="M87.153,35.062s-11.048-2.1-11.016-16.385S59.863,0,59.863,0s9.072,6.107,9.76,22.1c.586,13.641,17.53,12.958,17.53,12.958" transform="translate(-1341 4443)" fill="#ffa6b5"/>
    <path id="Path_2177" data-name="Path 2177" d="M87.035,34.531s-10.1,4.954-18.649-6.49-24.228-5.166-24.228-5.166,10.923-.562,21.076,11.817c8.661,10.558,21.8-.161,21.8-.161" transform="translate(-1341 4443)" fill="#ffa6b5"/>
    <path id="Path_2178" data-name="Path 2178" d="M90.795,21.677a1.084,1.084,0,1,1-1.084,1.084,1.084,1.084,0,0,1,1.084-1.084" transform="translate(-1341 4443)" fill="#d3536e"/>
    <path id="Path_2179" data-name="Path 2179" d="M120.394,117.065v34.959a9.794,9.794,0,0,1-9.794,9.794H29.135a9.794,9.794,0,0,1-9.794-9.794V107.776a9.794,9.794,0,0,1,9.794-9.794h72.176a10.087,10.087,0,0,1,7.132,2.954l9,9a10.087,10.087,0,0,1,2.954,7.132" transform="translate(-1341 4443)" fill="#00d14b"/>
    <path id="Path_2180" data-name="Path 2180" d="M76.819,125.968a6.312,6.312,0,1,1-6.312-6.312,6.312,6.312,0,0,1,6.312,6.312" transform="translate(-1341 4443)" fill="#006b24"/>
    <path id="Path_2181" data-name="Path 2181" d="M71.118,140.144H69.9a1.275,1.275,0,0,1-1.275-1.275v-8.1A1.275,1.275,0,0,1,69.9,129.49h1.221a1.275,1.275,0,0,1,1.274,1.275v8.1a1.275,1.275,0,0,1-1.274,1.275" transform="translate(-1341 4443)" fill="#006b24"/>
    <path id="Path_2182" data-name="Path 2182" d="M93.812,120.968a5.715,5.715,0,0,1-5.715-5.715V80.888a18.574,18.574,0,0,0-36.618-4.4,5.715,5.715,0,0,1-11.108-2.695,30,30,0,0,1,59.156,7.1v34.365a5.715,5.715,0,0,1-5.715,5.715" transform="translate(-1341 4443)" fill="#00d14b"/>
    <path id="Path_2183" data-name="Path 2183" d="M115.051,114.762l-11.438-11.438a1.016,1.016,0,0,0-1.733.719V116.5h12.453a1.016,1.016,0,0,0,.718-1.734" transform="translate(-1341 4443)" fill="#fff"/>
    <path id="Path_2184" data-name="Path 2184" d="M36.715,130.005v-.211l10.215-6.431-.105,3.553-5.25,2.984,5.25,2.973v3.563Z" transform="translate(-1341 4443)" fill="#fff"/>
    <path id="Path_2185" data-name="Path 2185" d="M91.769,132.873l5.25-2.973-5.25-2.984-.105-3.553,10.215,6.431v.211l-10.11,6.431Z" transform="translate(-1341 4443)" fill="#fff"/>
    <path id="Path_2186" data-name="Path 2186" d="M32.548,35.4H19.89a5.1,5.1,0,0,0-3.607,1.494L1.5,51.682a5.1,5.1,0,0,0,0,7.218L14.163,71.567a5.1,5.1,0,0,0,7.218,0L42.5,50.45a5.1,5.1,0,0,0,0-7.218l-6.341-6.341A5.1,5.1,0,0,0,32.548,35.4M17.577,52.624,16.566,56.29l3.66-1.016,1.588,1.588L14.449,58.5l-.093-.093L16.04,51Zm7.9,3.646L24.153,57.6,18.5,45.867l1.333-1.333Zm3.949-12.752-1.636,7.365L26.2,49.295l1.013-3.657-3.663,1.008-1.63-1.534,7.411-1.687Z" transform="translate(-1341 4443)" fill="#eae47d"/>
    <path id="Path_2187" data-name="Path 2187" d="M125.16,63.719a14.707,14.707,0,1,1-14.707,14.707A14.708,14.708,0,0,1,125.16,63.719" transform="translate(-1341 4443)" fill="#abe5ff"/>
    <path id="Path_2188" data-name="Path 2188" d="M101.879,47.772a6.458,6.458,0,1,1-6.458,6.458,6.458,6.458,0,0,1,6.458-6.458" transform="translate(-1341 4443)" fill="#c1f7a4"/>
    <path id="Path_2189" data-name="Path 2189" d="M26.857,81.067A4.861,4.861,0,1,1,22,85.928a4.861,4.861,0,0,1,4.861-4.861" transform="translate(-1341 4443)" fill="#f99"/>
  </g>
</svg>
