<?xml version="1.0" encoding="utf-8"?>
<!-- Generator: Adobe Illustrator 25.3.0, SVG Export Plug-In . SVG Version: 6.00 Build 0)  -->
<svg version="1.1" id="Layer_1" xmlns="http://www.w3.org/2000/svg" xmlns:xlink="http://www.w3.org/1999/xlink" x="0px" y="0px"
	 viewBox="0 0 300 350" style="enable-background:new 0 0 300 350;" xml:space="preserve">
<style type="text/css">
	.st0{fill:#AEDAFF;}
	.st1{fill:#FFFFFF;}
	.st2{fill:#76C8FF;}
	.st3{fill:#D2EFFF;}
	.st4{fill:#FF8080;}
	.st5{fill:#FFBF40;}
	.st6{fill:#52DD91;}
	.st7{fill:#4874FF;}
	.st8{fill:#F2F2F2;}
	.st9{opacity:0.57;}
	.st10{opacity:0.63;}
	.st11{clip-path:url(#SVGID_2_);}
	.st12{fill:#037FFF;}
	.st13{fill:#3BABFF;}
	.st14{fill:#69C6FF;}
	.st15{fill:#71DEFF;}
	.st16{opacity:0.24;}
	.st17{fill:#F6BB8F;}
	.st18{fill:#BF7640;}
	.st19{opacity:0.55;}
	.st20{fill:#EFA16C;}
	.st21{fill:#FFC586;}
	.st22{fill:#3623C1;}
	.st23{fill:#232323;}
	.st24{fill:none;}
	.st25{fill:#E04E4D;}
	.st26{fill:#57B4DD;}
	.st27{fill:#A0DAEA;}
</style>
<g>
	<g id="Group_457">
		<path class="st0" d="M217.8,48.3v247.8c0,3.1-1.4,5.8-3.6,7.7c-0.5,0.5-1.1,0.9-1.7,1.2c-1.4,0.8-3.1,1.2-4.8,1.2H10.1
			c-5.6,0-10.1-4.5-10.1-10.1V48.3c0-5.6,4.5-10.1,10.1-10.1h197.6C213.3,38.2,217.8,42.8,217.8,48.3z"/>
	</g>
	<g id="Group_458">
		<path id="Path_88" class="st1" d="M20,286.1L13.4,51.6h191.1v241.3L20,286.1z"/>
	</g>
	<g id="Group_459">
		<path id="Path_89" class="st2" d="M64.2,46.9c0,0-2.5,10.9-5.6,4.6c-5.5-11.2-4-13.3-4-13.3h7.6L64.2,46.9z"/>
	</g>
	<g id="Group_460">
		<path id="Path_90" class="st0" d="M125.8,25.3c3.9-9.3-0.6-20-9.9-23.9c-9.3-3.9-20,0.6-23.9,9.9c-1.9,4.5-1.9,9.6,0.1,14.1
			c0.9,2.3-0.2,4.9-2.4,5.8c-0.5,0.2-1.1,0.3-1.7,0.3H72.7c-7.8,0-14.1,6.3-14.1,14.1v5.8c0,3.1,2.5,5.6,5.6,5.6l0,0h89.4
			c3.1,0,5.6-2.5,5.6-5.6c0,0,0,0,0,0v-5.8c0-7.8-6.3-14.1-14.1-14.1h-15.2c-2.5,0-4.5-2-4.5-4.5C125.4,26.4,125.6,25.8,125.8,25.3z
			"/>
	</g>
	<g id="Group_461">
		<path id="Path_91" class="st1" d="M153.6,52.9H64.2c-0.5,0-0.8-0.4-0.8-0.8c0-0.5,0.4-0.8,0.8-0.8h89.2v-5.6
			c0-4.6-3.7-8.3-8.3-8.3c-0.5,0-0.8-0.4-0.8-0.8c0-0.5,0.4-0.8,0.8-0.8c5.5,0,9.9,4.5,10,10v5.8C155.1,52.3,154.4,53,153.6,52.9z"
			/>
	</g>
	<g id="Group_462">
		<circle id="Ellipse_9" class="st1" cx="108.9" cy="15.5" r="4.4"/>
	</g>
	<g id="Group_463">
		<path id="Path_92" class="st3" d="M109.1,171.2H29.5l-0.7-22.4L27.1,99h79.6l0.5,15L109.1,171.2z"/>
	</g>
	<g id="Group_472">
		<g id="Group_464">
			<path id="Path_93" class="st3" d="M192.3,123.2h-3.4v-1.7h1.6l-0.1-1.6l1.7-0.1L192.3,123.2z"/>
		</g>
		<g id="Group_465">
			<path id="Path_94" class="st3" d="M183.9,123.2h-5v-1.7h5V123.2z M173.9,123.2h-5v-1.7h5V123.2z M164,123.2h-5v-1.7h5V123.2z
				 M154,123.2h-5v-1.7h5V123.2z M144.1,123.2h-5v-1.7h5V123.2z M134.1,123.2h-5v-1.7h5L134.1,123.2z M124.2,123.2h-5v-1.7h5V123.2z
				"/>
		</g>
		<g id="Group_466">
			<path id="Path_95" class="st3" d="M114.2,123.2h-3.3l-0.2-3.3l1.7-0.1l0.1,1.7h1.7L114.2,123.2z"/>
		</g>
		<g id="Group_467">
			
				<rect id="Rectangle_565" x="110.3" y="107.6" transform="matrix(0.9987 -5.118558e-02 5.118558e-02 0.9987 -5.5183 5.834)" class="st3" width="1.7" height="6.1"/>
		</g>
		<g id="Group_468">
			<path id="Path_96" class="st3" d="M109.8,101.5l-0.2-3.4h3.4v1.7h-1.6l0.1,1.6L109.8,101.5z"/>
		</g>
		<g id="Group_469">
			<path id="Path_97" class="st3" d="M182.7,99.8h-5v-1.7h5V99.8z M172.7,99.8h-5v-1.7h5V99.8z M162.8,99.8h-5v-1.7h5V99.8z
				 M152.8,99.8h-5v-1.7h5V99.8z M142.9,99.8h-5v-1.7h5V99.8z M132.9,99.8h-5v-1.7h5L132.9,99.8z M123,99.8h-5v-1.7h5V99.8z"/>
		</g>
		<g id="Group_470">
			<path id="Path_98" class="st3" d="M189.4,101.5l-0.1-1.7h-1.7v-1.7h3.3l0.1,3.3L189.4,101.5z"/>
		</g>
		<g id="Group_471">
			
				<rect id="Rectangle_566" x="189.7" y="107.6" transform="matrix(0.9994 -3.401434e-02 3.401434e-02 0.9994 -3.654 6.5446)" class="st3" width="1.7" height="6.1"/>
		</g>
	</g>
	<g id="Group_473">
		<path id="Path_99" class="st3" d="M192.3,170.9l-78.8,0.2l-1.4-44.9h79.6l0.5,15L192.3,170.9z"/>
	</g>
	<g id="Group_474">
		<path id="Path_100" class="st2" d="M13.4,51.6l-1.5,241.3h192.6L20,286.1L13.4,51.6z"/>
	</g>
	<g id="Group_478">
		<g id="Group_475">
			<circle id="Ellipse_10" class="st4" cx="21" cy="58.6" r="2.3"/>
		</g>
		<g id="Group_476">
			<circle id="Ellipse_11" class="st5" cx="28.3" cy="58.6" r="2.3"/>
		</g>
		<g id="Group_477">
			<circle id="Ellipse_12" class="st6" cx="35.2" cy="58.6" r="2.3"/>
		</g>
	</g>
	<g id="Group_479">
		<path id="Path_101" class="st7" d="M36.7,86.9H14.4l-0.6-22.2h22.5L36.7,86.9z"/>
	</g>
	<g id="Group_480">
		<path id="Path_102" class="st8" d="M204.5,65.2l0,21.1L36.7,86.9l-0.4-22.2L204.5,65.2z"/>
	</g>
	<g id="Group_482">
		<g id="Group_481">
			<path id="Path_103" class="st1" d="M18,75.8c0-4,3.2-7.2,7.2-7.2s7.2,3.2,7.2,7.2s-3.2,7.2-7.2,7.2c0,0,0,0,0,0
				C21.2,83,18,79.8,18,75.8z M28.3,81.5c0.5-0.2,0.9-0.6,1.3-0.9c1.2-1.1,2-2.7,2.1-4.4c0.1-1-0.1-1.9-0.5-2.8
				c-0.1-0.2-0.2-0.5-0.3-0.7c0,0.1,0,0.1,0,0.1c0.1,0.7,0,1.5-0.3,2.2c-0.8,2.1-1.5,4.2-2.3,6.4C28.3,81.4,28.3,81.5,28.3,81.5
				L28.3,81.5L28.3,81.5L28.3,81.5z M28.4,79.5c0.1-0.3,0.2-0.6,0.3-1c0.3-0.7,0.5-1.5,0.7-2.2c0.2-0.9,0.1-1.9-0.4-2.7
				c-0.4-0.7-1.1-1.4-0.3-2.2c0.2-0.2,0.6-0.3,0.9-0.3c-2.6-2.4-6.7-2.3-9.1,0.3c-0.2,0.3-0.5,0.5-0.7,0.8H20c0.7,0,1.3,0,2,0
				c0.1,0,0.2,0,0.2,0.2c0,0.1,0,0.2,0,0.3c0,0.1,0,0.1-0.1,0.1c-0.2,0-0.5,0-0.8,0l2.3,6.6c0,0,0,0,0,0c0.4-1.2,0.8-2.4,1.3-3.6
				c0-0.1,0-0.1,0-0.2c-0.3-0.9-0.6-1.8-0.9-2.7c0-0.1-0.1-0.1-0.2-0.1c0,0,0,0,0,0c-0.2,0-0.5,0-0.7,0c-0.1,0-0.1,0-0.1-0.1
				c0-0.1,0-0.3,0-0.4c0-0.1,0-0.1,0.1-0.1c1.3,0,2.5,0,3.8,0c0.1,0,0.1,0,0.1,0.1c0,0.1,0,0.3,0,0.4c0,0.1,0,0.1-0.1,0.1
				c-0.3,0-0.5,0-0.8,0L28.4,79.5z M25.2,76.7c0,0,0,0.1,0,0.1c-0.6,1.7-1.3,3.4-1.9,5.1c0,0.1,0,0.1,0.1,0.2c1.2,0.4,2.5,0.4,3.6,0
				c0.1,0,0.1-0.1,0.1-0.2c-0.4-1.1-0.8-2.3-1.2-3.4C25.7,77.9,25.4,77.3,25.2,76.7L25.2,76.7z M22.1,81.6l-2.9-8.3
				C17.9,76.4,19.2,80,22.1,81.6L22.1,81.6z"/>
		</g>
	</g>
	<g id="Group_484" class="st9">
		<g id="Group_483">
			<path id="Path_104" class="st1" d="M109.1,171.2H29.5l-0.7-22.4c2-4.3,4.7-8.3,7.9-11.9c3.7-4.2,9.3-8,14.5-6
				c4.7,1.8,7.2,7.6,12,8.5c4.1,0.8,8-2.4,10.1-6c2.1-3.6,2.9-7.9,4.9-11.5c4.1-7.3,12.1-11.5,20.5-10.9c3,0.3,5.9,1.3,8.5,2.9
				L109.1,171.2z"/>
		</g>
	</g>
	<g id="Group_545" class="st9">
		<circle id="Ellipse_13" class="st1" cx="58.6" cy="117" r="7.5"/>
	</g>
	<g id="Group_567" class="st10">
		<g id="Group_566">
			<g id="Group_565">
				<g id="Group_564">
					<g>
						<defs>
							<path id="SVGID_1_" d="M128.8,75.7L128.8,75.7l-0.1-2.7c0-0.5-0.4-0.8-0.8-0.8h-3h-0.1v-0.1c0-0.5-0.4-0.8-0.8-0.8h-3
								c-0.5,0-0.8,0.4-0.8,0.8v3c0,0.5,0.4,0.8,0.8,0.8h0.1v2.7c0,0.5,0.4,0.8,0.8,0.8h3h0.1v0.1c0,0.5,0.4,0.8,0.8,0.8h3
								c0.5,0,0.8-0.4,0.8-0.8v-3C129.7,76.1,129.3,75.7,128.8,75.7z"/>
						</defs>
						<clipPath id="SVGID_2_">
							<use xlink:href="#SVGID_1_"  style="overflow:visible;"/>
						</clipPath>
						<g id="Group_563" class="st11">
							<g id="Group_562">
								<g id="Group_549">
									
										<image style="overflow:visible;opacity:0.2;enable-background:new    ;" width="281" height="281" id="Rectangle_569" xlink:href="947E3AE4757652F.png"  transform="matrix(2.411388e-02 0 0 2.411388e-02 119.6251 69.9497)">
									</image>
									<g id="Group_548">
										<g id="Group_547">
											<g id="Group_546">
												<path id="Rectangle_570" class="st12" d="M121.2,71.3h3c0.5,0,0.8,0.4,0.8,0.8v3c0,0.5-0.4,0.8-0.8,0.8h-3
													c-0.5,0-0.8-0.4-0.8-0.8v-3C120.4,71.7,120.7,71.3,121.2,71.3z"/>
											</g>
										</g>
									</g>
								</g>
								<g id="Group_553">
									
										<image style="overflow:visible;opacity:0.2;enable-background:new    ;" width="281" height="282" id="Rectangle_571" xlink:href="947E3AE4757652D.png"  transform="matrix(2.411348e-02 0 0 2.411348e-02 123.192 70.8177)">
									</image>
									<g id="Group_552">
										<g id="Group_551">
											<g id="Group_550">
												<path id="Rectangle_572" class="st13" d="M125,72.2h3c0.5,0,0.8,0.4,0.8,0.8v3c0,0.5-0.4,0.8-0.8,0.8h-3
													c-0.5,0-0.8-0.4-0.8-0.8v-3C124.2,72.6,124.6,72.2,125,72.2z"/>
											</g>
										</g>
									</g>
								</g>
								<g id="Group_557">
									
										<image style="overflow:visible;opacity:0.2;enable-background:new    ;" width="282" height="281" id="Rectangle_573" xlink:href="947E3AE47576533.png"  transform="matrix(2.411348e-02 0 0 2.411348e-02 124.3281 74.1628)">
									</image>
									<g id="Group_556">
										<g id="Group_555">
											<g id="Group_554">
												<path id="Rectangle_574" class="st14" d="M125.9,75.7h3c0.5,0,0.8,0.4,0.8,0.8v3c0,0.5-0.4,0.8-0.8,0.8h-3
													c-0.5,0-0.8-0.4-0.8-0.8v-3C125.1,76.1,125.4,75.7,125.9,75.7z"/>
											</g>
										</g>
									</g>
								</g>
								<g id="Group_561">
									
										<image style="overflow:visible;opacity:0.2;enable-background:new    ;" width="282" height="282" id="Rectangle_575" xlink:href="947E3AE47576535.png"  transform="matrix(2.411348e-02 0 0 2.411348e-02 120.694 73.3817)">
									</image>
									<g id="Group_560">
										<g id="Group_559">
											<g id="Group_558">
												<path id="Rectangle_576" class="st15" d="M122.1,74.9h3c0.5,0,0.8,0.4,0.8,0.8v3c0,0.5-0.4,0.8-0.8,0.8h-3
													c-0.5,0-0.8-0.4-0.8-0.8v-3C121.2,75.2,121.6,74.9,122.1,74.9z"/>
											</g>
										</g>
									</g>
								</g>
							</g>
						</g>
					</g>
				</g>
			</g>
		</g>
	</g>
	<g id="Group_568">
		<path id="Path_128" class="st1" d="M149.8,78.9h-14.9l-0.2-7h14.9L149.8,78.9z"/>
	</g>
	<g id="Group_569">
		<path id="Path_129" class="st1" d="M169.9,78.9H155l-0.2-7h14.9L169.9,78.9z"/>
	</g>
	<g id="Group_570">
		<path id="Path_130" class="st0" d="M196.9,78.9h-21.8l-0.3-7h21.8L196.9,78.9z"/>
	</g>
	<g id="Group_571">
		<path id="Path_131" class="st0" d="M47.8,79.2h-5c-0.5,0-0.8-0.4-0.9-0.8l-0.2-5.1c0-0.4,0.3-0.8,0.8-0.8c0,0,0,0,0,0h5
			c0.5,0,0.8,0.4,0.9,0.8l0.2,5.1C48.6,78.8,48.3,79.2,47.8,79.2C47.8,79.2,47.8,79.2,47.8,79.2z"/>
	</g>
	<g id="Group_572">
		<path id="Path_132" class="st0" d="M59.8,79.2h-5c-0.5,0-0.8-0.4-0.9-0.8l-0.2-5.1c0-0.4,0.3-0.8,0.8-0.8c0,0,0,0,0,0h5
			c0.5,0,0.8,0.4,0.9,0.8l0.2,5.1C60.6,78.8,60.3,79.2,59.8,79.2C59.8,79.2,59.8,79.2,59.8,79.2z"/>
	</g>
	<g id="Group_573">
		<path id="Path_133" class="st0" d="M71.9,79.2h-5c-0.5,0-0.8-0.4-0.9-0.8l-0.2-5.1c0-0.4,0.3-0.8,0.8-0.8c0,0,0,0,0,0h5
			c0.5,0,0.8,0.4,0.9,0.8l0.2,5.1C72.7,78.8,72.3,79.2,71.9,79.2C71.9,79.2,71.9,79.2,71.9,79.2z"/>
	</g>
	<g id="Group_574">
		<path id="Path_134" class="st0" d="M83.9,79.2h-5c-0.5,0-0.8-0.4-0.9-0.8l-0.2-5.1c0-0.4,0.3-0.8,0.8-0.8c0,0,0,0,0,0h5
			c0.5,0,0.8,0.4,0.9,0.8l0.2,5.1C84.7,78.8,84.4,79.2,83.9,79.2C83.9,79.2,83.9,79.2,83.9,79.2z"/>
	</g>
	<g>
		<g id="Group_544">
			<g id="Group_485" class="st16">
				<path class="st2" d="M207.5,264.9l-3.1,11.1l-0.4,1.4l-0.6,2.1l-3,11v0l-0.6,2.3l0,0.2l-3.7,13.4l-0.4,1.5l-0.6-1.5h-21.2
					l-5-13.4l-0.1-0.2c-0.1-0.4-0.2-0.7-0.3-1.1c-0.5-2.2,0.1-4.6,1.5-6.4l3.2-4c1.2-1.5,1.8-3.5,1.4-5.5l-4.1-24.5
					c-0.5-3.1-1.8-6-3.8-8.5l-41-51.7l11.1-3.3l58.6,39.4l3,9.4l6.1,19L207.5,264.9z"/>
			</g>
			<g id="Group_534">
				<g id="Group_487">
					<g id="Group_486">
						<path id="Path_106" class="st17" d="M254.4,155.3l-0.3,24.9l-0.3,28.2l-0.1,8.9c0,2.1,0.3,4.2,0.9,6.2l8.4,28.9l-65,29.4
							l-17.3-39c-1-2.2-2.4-4.2-4.2-5.8l-49.4-44.8c-0.5-0.5-1-1-1.5-1.5l18.3-25.5l5.7,9.7c2.1,3.6,6.4,5.2,10.4,4l10.4-3.1
							c4.8-1.5,7.5-6.5,6-11.3c0-0.1-0.1-0.2-0.1-0.3l-8.3-24.1c-1.2-3.4-4.4-5.6-8-5.5l-5.2,0.2l-23.5-8.2l-3.4-6.3l43-3.2
							c0.3,0,0.6,0,0.8,0.2l4.2,2.3c0.7,0.4,1.6,0.1,2-0.6c0.1-0.1,0.1-0.2,0.1-0.4l0.6-2.3c0.2-0.6,0.7-1.1,1.3-1.1l11-0.6
							c0.4,0,0.8,0.1,1.1,0.4l2.2,2c0.6,0.5,1.5,0.5,2.1-0.1c0.1-0.1,0.2-0.2,0.2-0.4l0.9-2c0.3-0.5,0.8-0.9,1.4-0.8l12.7,0.8
							c0.4,0,0.8,0.2,1,0.5l5.1,6c0.5,0.6,1.4,0.7,2,0.2c0,0,0.1-0.1,0.1-0.1l1.1-1.1l4.9-1.1c2.9-0.7,6,0.1,8.2,2.2l9.4,8.6
							C250.5,136.3,254.5,145.6,254.4,155.3z"/>
					</g>
				</g>
				<g id="Group_489">
					<g id="Group_488">
						<path id="Path_107" class="st18" d="M207.3,161.7l-1.8,0.4l-3.1-13.5l-26.3-28.4l1.3-1.2l26.7,28.8L207.3,161.7z"/>
					</g>
				</g>
				<g id="Group_491">
					<g id="Group_490">
						<path id="Path_108" class="st18" d="M228.6,156.9l-1.8,0.4l-1.8-7.8l-29.7-32.3l1.3-1.2l30,32.6L228.6,156.9z"/>
					</g>
				</g>
				<g id="Group_493" class="st19">
					<g id="Group_492">
						<path id="Path_109" class="st20" d="M245.2,196.8l-5.2,10c-0.8,1.5-2.7,2.1-4.2,1.3c-0.1,0-0.1-0.1-0.2-0.1l-60.2-36
							c1.1-1.9,1.5-4.1,1.1-6.3l5.1-1.2l62,28c1.6,0.7,2.3,2.6,1.6,4.1C245.3,196.7,245.3,196.8,245.2,196.8z"/>
					</g>
				</g>
				<g id="Group_495">
					<g id="Group_494">
						<path id="Path_110" class="st18" d="M236.4,143.2l-3.5-7.2l-16.3-15.5l1.2-1.3l16.5,15.7l3.7,7.5L236.4,143.2z"/>
					</g>
				</g>
				<g id="Group_521">
					<g id="Group_498">
						<g id="Group_497">
							<g id="Group_496">
								<path id="Path_111" class="st21" d="M98.6,115.6l-7.5,20.8c-0.4-0.3-0.8-0.6-1.2-0.9l-11.2-10.8l2.8-8.1l15-1.1
									C97.2,115.4,97.9,115.5,98.6,115.6z"/>
							</g>
						</g>
					</g>
					<g id="Group_501">
						<g id="Group_500">
							<g id="Group_499">
								<path id="Path_112" class="st22" d="M236.9,168.8l-3.4,10.8c-0.9,2.7-3.7,4.2-6.4,3.4c0,0-0.1,0-0.1,0l-5.3-1.8l-5-1.7
									L93,137.4c-0.7-0.2-1.3-0.5-1.9-0.9l7.5-20.8c0.4,0.1,0.8,0.2,1.2,0.3l123.8,43l4.7,1.6l5.4,1.9
									C236.3,163.3,237.7,166.2,236.9,168.8z"/>
							</g>
						</g>
					</g>
					<g id="Group_504">
						<g id="Group_503">
							<g id="Group_502">
								<path id="Path_113" class="st23" d="M81.4,116.6l-2.8,8.1l-7-6.7c-0.1-0.1-0.1-0.4,0-0.5c0.1-0.1,0.1-0.1,0.2-0.1
									L81.4,116.6z"/>
							</g>
						</g>
					</g>
					<g id="Group_509">
						<g id="Group_506">
							<g id="Group_505">
								<line id="Line_6" class="st24" x1="93.4" y1="130" x2="233.9" y2="178.3"/>
							</g>
						</g>
						<g id="Group_508">
							<g id="Group_507">
								
									<rect id="Rectangle_567" x="163.1" y="79.9" transform="matrix(0.3258 -0.9455 0.9455 0.3258 -35.4124 258.6768)" class="st1" width="1.2" height="148.5"/>
							</g>
						</g>
					</g>
					<g id="Group_514">
						<g id="Group_511">
							<g id="Group_510">
								<line id="Line_7" class="st24" x1="96.2" y1="122.7" x2="236.2" y2="170.9"/>
							</g>
						</g>
						<g id="Group_513">
							<g id="Group_512">
								
									<rect id="Rectangle_568" x="165.6" y="72.6" transform="matrix(0.3256 -0.9455 0.9455 0.3256 -26.7003 256.067)" class="st1" width="1.2" height="148.3"/>
							</g>
						</g>
					</g>
					<g id="Group_517">
						<g id="Group_516">
							<g id="Group_515">
								<path id="Path_114" class="st1" d="M228.2,160.5l-6.6,20.6l-5-1.7l6.9-20.5L228.2,160.5z"/>
							</g>
						</g>
					</g>
					<g id="Group_520">
						<g id="Group_519">
							<g id="Group_518">
								<path id="Path_115" class="st25" d="M236.9,168.8l-3.4,10.8c-0.9,2.7-3.7,4.2-6.4,3.4c0,0-0.1,0-0.1,0l-5.3-1.8l6.6-20.6
									l5.4,1.9C236.3,163.3,237.7,166.2,236.9,168.8z"/>
							</g>
						</g>
					</g>
				</g>
				<g id="Group_523">
					<g id="Group_522">
						<path id="Path_116" class="st17" d="M143.9,165.4l-18.3,25.5c-2.9-3.2-4.8-7.2-5.4-11.5l-6.4-46.2l5.4-0.2
							c3.3-0.1,6.5,1.6,8.1,4.5L143.9,165.4z"/>
					</g>
				</g>
				<g id="Group_525">
					<g id="Group_524">
						<path id="Path_117" class="st17" d="M157.5,112.2L157.5,112.2z"/>
					</g>
				</g>
				<g id="Group_527">
					<g id="Group_526">
						<path id="Path_118" class="st17" d="M154.7,135l-8.7,0.3c-6.2,0.2-11.9-3.1-14.8-8.5l0,0L154.7,135z"/>
					</g>
				</g>
				<g id="Group_529">
					<g id="Group_528">
						<path id="Path_119" class="st1" d="M115.6,134.8c0,0,5.1-0.8,6.8,2.2c1,2.1,1.5,4.4,1.6,6.7c0.1,1.2-0.8,2.3-2,2.4l-4.8,0.7
							L115.6,134.8z"/>
					</g>
				</g>
				<g id="Group_531">
					<g id="Group_530">
						<path id="Path_120" class="st1" d="M133.2,121.2l1.3,2.7c0.5,1,1.5,1.7,2.6,1.7l2.7,0c1.8,0,3.2-1.5,3.2-3.2
							c0-0.2,0-0.4-0.1-0.6l-0.1-0.3c0-0.1-0.1-0.2-0.2-0.2L133.2,121.2z"/>
					</g>
				</g>
				<g id="Group_533">
					<g id="Group_532">
						<path id="Path_121" class="st17" d="M159.1,159.8c0,0-3.2,10.6,0.1,14.4c3.3,3.8,10-4.4,10.5-10.8L159.1,159.8z"/>
					</g>
				</g>
			</g>
			<g id="Group_536">
				<g id="Group_535">
					<path class="st2" d="M296.2,315c-0.1,0-0.2,0.1-0.3,0.1l-10.8,4.9l-1.9,0.8l-15.4,7l-1.9,0.8l-15.7,7.1l-1.9,0.8l-16.2,7.4
						l-1.9,0.8h0l-10,4.5c-3.5,1.6-7.5,0-9.1-3.4c0-0.1-0.1-0.1-0.1-0.2l-15.7-38l-0.6-1.5l-4.7-11.3l4.6-2.1l0.7-0.3h0l4.8-2.2
						l4-1.8l0.5-0.2h0l1-0.4l0.5-0.2l0.4-0.2l11-5l3.9-1.8l1.9-0.8l15.7-7.1l0.4-0.2l1.5-0.7l15.4-7l1.9-0.8l16-7.2l24.9,48.9
						C301,309.2,299.6,313.3,296.2,315z"/>
				</g>
			</g>
			<g id="Group_537">
				<path id="Path_123" class="st1" d="M274.3,256.9l-84,38.1l-1.9-4.7c-1.1-2.7,0.1-5.8,2.7-7l73.5-33.9c2.7-1.2,5.8-0.1,7.1,2.5
					L274.3,256.9z"/>
			</g>
			<g id="Group_539">
				<g id="Group_538">
					<path id="Path_124" class="st1" d="M250.4,335.8l-1.9,0.8l-26.8-55.9l-0.6-1.3l1.8-0.9l0.6,1.3L250.4,335.8z"/>
				</g>
			</g>
			<g id="Group_541">
				<g id="Group_540">
					<path id="Path_125" class="st1" d="M268,327.9l-1.9,0.9l-26.8-56l-0.1-0.1l1.8-0.9l0.1,0.1L268,327.9z"/>
				</g>
			</g>
			<g id="Group_543">
				<g id="Group_542">
					<path id="Path_126" class="st1" d="M285.2,320.1l-1.9,0.9l-26.8-56l0-0.1l1.8-0.9l0,0.1L285.2,320.1z"/>
				</g>
			</g>
		</g>
		<g id="Group_576">
			<g id="Group_575">
				<path id="Path_135" class="st1" d="M232.4,344l-1.9,0.8L205,288.3l1.9-0.9L232.4,344z"/>
			</g>
		</g>
	</g>
	<g id="Group_578">
		<path id="Path_136" class="st26" d="M40,226.1c0,0.1-0.1,0.2-0.2,0.2c-0.1,0.1-0.2,0.1-0.3,0.1c-0.2,0-0.3-0.1-0.4-0.2
			c-0.2-0.1-0.4-0.3-0.6-0.4c-0.3-0.2-0.6-0.3-0.9-0.4c-0.4-0.1-0.8-0.2-1.2-0.2c-0.4,0-0.8,0-1.2,0.2c-0.3,0.1-0.6,0.3-0.8,0.5
			c-0.2,0.2-0.4,0.4-0.5,0.7c-0.1,0.3-0.2,0.6-0.2,0.9c0,0.4,0.1,0.7,0.3,1c0.2,0.3,0.5,0.5,0.8,0.7c0.4,0.2,0.7,0.4,1.1,0.5
			c0.4,0.1,0.9,0.3,1.3,0.5c0.4,0.2,0.9,0.3,1.3,0.5c0.4,0.2,0.8,0.4,1.1,0.7c0.3,0.3,0.6,0.7,0.8,1.1c0.2,0.5,0.3,1,0.3,1.5
			c0,0.6-0.1,1.2-0.3,1.8c-0.2,0.5-0.5,1-0.9,1.4c-0.4,0.4-1,0.7-1.5,0.9c-0.7,0.2-1.4,0.3-2.1,0.3c-0.9,0-1.8-0.2-2.6-0.6
			c-0.8-0.3-1.5-0.8-2-1.4l0.6-0.9c0.1-0.1,0.1-0.1,0.2-0.2c0.1,0,0.2-0.1,0.3-0.1c0.1,0,0.2,0,0.3,0.1c0.1,0.1,0.2,0.2,0.4,0.3
			c0.1,0.1,0.3,0.2,0.5,0.4c0.2,0.1,0.4,0.3,0.6,0.4c0.3,0.1,0.5,0.2,0.8,0.3c0.3,0.1,0.7,0.1,1,0.1c0.4,0,0.9,0,1.3-0.2
			c0.3-0.1,0.7-0.3,0.9-0.5c0.3-0.2,0.4-0.5,0.6-0.8c0.1-0.3,0.2-0.7,0.2-1.1c0-0.4-0.1-0.8-0.3-1.1c-0.2-0.3-0.5-0.5-0.8-0.7
			c-0.4-0.2-0.7-0.4-1.1-0.5c-0.4-0.1-0.9-0.3-1.3-0.4s-0.9-0.3-1.3-0.5c-0.4-0.2-0.8-0.4-1.1-0.7c-0.3-0.3-0.6-0.7-0.8-1.1
			c-0.2-0.5-0.3-1.1-0.3-1.6c0-0.5,0.1-1,0.3-1.5c0.2-0.5,0.5-0.9,0.9-1.3c0.4-0.4,0.9-0.7,1.4-0.9c0.6-0.2,1.3-0.3,1.9-0.3
			c0.8,0,1.5,0.2,2.2,0.4c0.7,0.3,1.3,0.7,1.8,1.2L40,226.1z"/>
		<path id="Path_137" class="st26" d="M53.5,225.8l-4.8-0.1l0.3,12.9l-2,0l-0.3-12.9l-4.8-0.1l0-1.7l11.5,0.3L53.5,225.8z"/>
		<path id="Path_138" class="st26" d="M66.5,239l-1.5,0c-0.2,0-0.3,0-0.4-0.1c-0.1-0.1-0.2-0.2-0.3-0.3l-1.4-3.6l-6.6-0.2l-1.3,3.5
			c0,0.1-0.1,0.2-0.2,0.3c-0.1,0.1-0.3,0.1-0.4,0.1l-1.5,0l5.6-14.5l2,0L66.5,239z M62.2,233.5l-2.4-6c-0.1-0.2-0.1-0.4-0.2-0.6
			s-0.2-0.5-0.2-0.8c-0.1,0.5-0.2,0.9-0.4,1.4l-2.2,5.9L62.2,233.5z"/>
		<path id="Path_139" class="st26" d="M79.3,239.3l-1.8,0c-0.3,0-0.6-0.2-0.8-0.4l-3.9-5.3c-0.1-0.1-0.2-0.3-0.4-0.4
			c-0.2-0.1-0.4-0.1-0.6-0.1l-1.5,0l0.1,6.1l-2,0l-0.3-14.6l4.2,0.1c0.8,0,1.6,0.1,2.4,0.3c0.6,0.2,1.2,0.5,1.7,0.8
			c0.4,0.3,0.8,0.8,1,1.3c0.2,0.5,0.3,1.1,0.4,1.7c0,0.5-0.1,1-0.2,1.4c-0.1,0.4-0.4,0.8-0.7,1.2c-0.3,0.4-0.7,0.7-1.1,0.9
			c-0.5,0.3-1,0.4-1.5,0.5c0.3,0.2,0.5,0.4,0.7,0.6L79.3,239.3z M72.3,231.6c0.5,0,1,0,1.5-0.2c0.4-0.1,0.8-0.3,1.1-0.6
			c0.3-0.2,0.5-0.6,0.7-0.9c0.1-0.4,0.2-0.8,0.2-1.2c0-0.8-0.3-1.5-0.9-2c-0.8-0.5-1.7-0.8-2.6-0.7l-2.2,0l0.1,5.5L72.3,231.6z"/>
		<path id="Path_140" class="st26" d="M90.4,226.7l-4.8-0.1l0.3,12.9l-2,0l-0.3-12.9l-4.8-0.1l0-1.7l11.5,0.3L90.4,226.7z"/>
		<path id="Path_141" class="st26" d="M99.2,226.8l0.1,5.1l6,0.1l0,1.6l-6-0.1l0.1,6.3l-2,0l-0.3-14.6l9.1,0.2l0,1.6L99.2,226.8z"/>
		<path id="Path_142" class="st26" d="M120,240.3l-1.8,0c-0.3,0-0.6-0.2-0.8-0.4l-3.9-5.3c-0.1-0.1-0.2-0.3-0.4-0.4
			c-0.2-0.1-0.4-0.1-0.6-0.1l-1.5,0l0.1,6.1l-2,0l-0.3-14.6l4.2,0.1c0.8,0,1.6,0.1,2.4,0.3c0.6,0.2,1.2,0.5,1.7,0.8
			c0.4,0.3,0.8,0.8,1,1.3c0.2,0.5,0.3,1.1,0.4,1.7c0,0.5-0.1,1-0.2,1.4c-0.2,0.4-0.4,0.8-0.7,1.2c-0.3,0.4-0.7,0.7-1.1,0.9
			c-0.5,0.3-1,0.4-1.5,0.5c0.3,0.2,0.5,0.4,0.7,0.6L120,240.3z M113,232.6c0.5,0,1,0,1.5-0.2c0.4-0.1,0.8-0.3,1.1-0.6
			c0.3-0.2,0.5-0.6,0.7-0.9c0.1-0.4,0.2-0.8,0.2-1.2c0-0.8-0.3-1.5-0.9-2c-0.8-0.5-1.7-0.8-2.6-0.7l-2.2,0l0.1,5.5L113,232.6z"/>
		<path id="Path_143" class="st26" d="M135.2,233.3c0,1-0.1,2-0.5,3c-0.3,0.9-0.8,1.7-1.4,2.3c-0.6,0.7-1.4,1.2-2.3,1.5
			c-0.9,0.4-1.9,0.5-2.9,0.5c-1,0-2-0.2-3-0.6c-0.9-0.4-1.7-0.9-2.3-1.6c-0.7-0.7-1.2-1.5-1.5-2.4c-0.4-1-0.6-2-0.6-3
			c0-1,0.1-2,0.5-3c0.3-0.9,0.8-1.7,1.4-2.3c0.6-0.7,1.4-1.2,2.3-1.5c0.9-0.4,1.9-0.5,2.9-0.5c1,0,2,0.2,3,0.6
			c0.9,0.4,1.7,0.9,2.3,1.6c0.7,0.7,1.2,1.5,1.5,2.4C135,231.3,135.2,232.3,135.2,233.3z M133.2,233.3c0-0.8-0.1-1.6-0.4-2.4
			c-0.2-0.7-0.6-1.3-1.1-1.8c-0.5-0.5-1-0.9-1.7-1.2c-0.7-0.3-1.4-0.4-2.2-0.4c-0.7,0-1.5,0.1-2.1,0.3c-0.6,0.2-1.2,0.6-1.6,1.1
			c-0.5,0.5-0.8,1.1-1,1.8c-0.2,0.8-0.3,1.6-0.3,2.4c0,0.8,0.1,1.6,0.4,2.4c0.2,0.7,0.6,1.3,1.1,1.8c0.5,0.5,1,0.9,1.7,1.2
			c0.7,0.3,1.4,0.4,2.2,0.4c0.7,0,1.5-0.1,2.1-0.3c0.6-0.2,1.2-0.6,1.6-1.1c0.5-0.5,0.8-1.1,1-1.8
			C133.1,234.9,133.2,234.1,133.2,233.3L133.2,233.3z"/>
		<path id="Path_144" class="st26" d="M153.2,226.4l0.3,14.6l-1.7,0l-0.2-10.7c0-0.1,0-0.3,0-0.5s0-0.3,0-0.5l-4.9,9
			c-0.1,0.3-0.4,0.5-0.7,0.4l-0.3,0c-0.3,0-0.6-0.2-0.7-0.5l-5.3-9.3c0,0.3,0.1,0.7,0.1,1l0.2,10.7l-1.7,0l-0.3-14.6l1.5,0
			c0.1,0,0.3,0,0.4,0.1c0.1,0.1,0.2,0.2,0.3,0.3l5.3,9.1c0.1,0.2,0.2,0.3,0.3,0.5c0.1,0.2,0.2,0.4,0.2,0.5c0.1-0.2,0.1-0.4,0.2-0.5
			c0.1-0.2,0.1-0.3,0.2-0.5l4.8-8.9c0-0.1,0.1-0.2,0.3-0.3c0.1,0,0.3,0,0.4,0L153.2,226.4z"/>
		<path id="Path_145" class="st27" d="M42.9,251.3c-0.1,0.2-0.3,0.4-0.4,0.5c-0.2,0.1-0.4,0.2-0.6,0.2c-0.2,0-0.5-0.1-0.7-0.2
			c-0.3-0.1-0.5-0.3-0.9-0.5c-0.3-0.2-0.7-0.3-1.1-0.5c-0.4-0.1-0.9-0.2-1.4-0.2c-0.7-0.1-1.4,0.1-2,0.5c-0.4,0.4-0.7,0.9-0.6,1.5
			c0,0.4,0.1,0.8,0.4,1c0.3,0.3,0.7,0.5,1,0.7c0.5,0.2,1,0.4,1.5,0.6c0.6,0.2,1.1,0.4,1.7,0.6c0.6,0.2,1.1,0.5,1.7,0.7
			c0.5,0.3,1,0.6,1.5,1.1c0.4,0.4,0.8,1,1.1,1.6c0.3,0.7,0.4,1.4,0.4,2.2c0,0.9-0.1,1.8-0.4,2.6c-0.3,0.8-0.8,1.5-1.4,2.1
			c-0.7,0.6-1.4,1.1-2.3,1.4c-1,0.3-2,0.5-3.1,0.5c-0.7,0-1.3-0.1-1.9-0.2c-0.7-0.1-1.3-0.3-1.9-0.6c-0.6-0.2-1.2-0.5-1.8-0.9
			c-0.5-0.3-1-0.7-1.4-1.1l1.4-2.2c0.1-0.2,0.3-0.3,0.4-0.4c0.2-0.1,0.4-0.2,0.6-0.1c0.3,0,0.6,0.1,0.9,0.3c0.3,0.2,0.6,0.4,1,0.6
			c0.4,0.2,0.8,0.4,1.3,0.6c0.5,0.2,1.1,0.3,1.7,0.3c0.7,0.1,1.4-0.1,2-0.5c0.5-0.4,0.8-1.1,0.7-1.8c0-0.4-0.1-0.8-0.4-1.2
			c-0.3-0.3-0.7-0.6-1-0.8c-0.5-0.2-1-0.4-1.5-0.5c-0.5-0.2-1.1-0.3-1.7-0.5c-0.6-0.2-1.1-0.4-1.7-0.7c-0.5-0.3-1-0.6-1.5-1.1
			c-0.5-0.5-0.8-1-1.1-1.6c-0.3-0.8-0.4-1.6-0.4-2.4c0-0.8,0.1-1.5,0.4-2.2c0.3-0.7,0.7-1.4,1.3-1.9c0.6-0.6,1.4-1,2.2-1.3
			c1-0.3,2-0.5,3-0.4c0.6,0,1.2,0.1,1.8,0.2c0.6,0.1,1.1,0.3,1.7,0.5c0.5,0.2,1,0.4,1.5,0.7c0.5,0.3,0.9,0.6,1.3,0.9L42.9,251.3z"/>
		<path id="Path_146" class="st27" d="M60.9,262.6c0.3,0,0.5,0.1,0.7,0.3l1.9,2c-0.8,1-1.8,1.9-3,2.4c-1.4,0.5-2.9,0.8-4.4,0.7
			c-1.4,0-2.9-0.3-4.2-0.9c-1.2-0.5-2.3-1.3-3.2-2.2c-0.9-1-1.6-2.1-2-3.3c-0.5-1.3-0.8-2.7-0.8-4.2c0-1.4,0.2-2.8,0.7-4.2
			c0.4-1.2,1.1-2.3,2-3.2c0.9-0.9,2-1.6,3.2-2.1c1.3-0.5,2.7-0.7,4.1-0.7c1.4,0,2.8,0.3,4.1,0.9c0.6,0.2,1.1,0.5,1.6,0.9
			c0.5,0.3,0.9,0.7,1.3,1.1l-1.6,2.1c-0.1,0.1-0.2,0.2-0.4,0.3c-0.2,0.1-0.4,0.2-0.6,0.1c-0.2,0-0.3,0-0.5-0.1
			c-0.2-0.1-0.3-0.2-0.5-0.3l-0.6-0.4c-0.2-0.1-0.5-0.3-0.7-0.4c-0.3-0.1-0.6-0.2-1-0.3c-0.4-0.1-0.9-0.1-1.3-0.1
			c-0.7,0-1.5,0.1-2.1,0.4c-0.6,0.3-1.2,0.7-1.7,1.2c-0.5,0.6-0.8,1.3-1.1,2c-0.3,0.9-0.4,1.8-0.3,2.7c0,0.9,0.2,1.9,0.5,2.8
			c0.3,0.8,0.7,1.5,1.2,2.1c0.5,0.6,1.1,1,1.7,1.3c0.7,0.3,1.4,0.5,2.1,0.5c0.4,0,0.8,0,1.2,0c0.3,0,0.7-0.1,1-0.2
			c0.3-0.1,0.6-0.2,0.9-0.4c0.3-0.2,0.6-0.4,0.8-0.6c0.1-0.1,0.2-0.2,0.4-0.2C60.7,262.7,60.8,262.6,60.9,262.6z"/>
		<path id="Path_147" class="st27" d="M82.1,268.4l-4.3-0.1c-0.7,0-1.4-0.3-1.7-0.9l-3.5-6c-0.1-0.2-0.3-0.4-0.5-0.6
			c-0.3-0.1-0.6-0.2-0.8-0.2l-1.2,0l0.2,7.5l-4.7-0.1l-0.4-20.3l6.7,0.2c1.3,0,2.6,0.2,3.8,0.5c0.9,0.3,1.8,0.7,2.6,1.3
			c0.6,0.5,1.2,1.2,1.5,1.9c0.3,0.8,0.5,1.6,0.5,2.4c0,0.6-0.1,1.3-0.2,1.9c-0.2,0.6-0.4,1.1-0.8,1.6c-0.3,0.5-0.8,0.9-1.3,1.3
			c-0.5,0.4-1.1,0.7-1.7,0.9c0.3,0.2,0.6,0.4,0.9,0.6c0.3,0.3,0.5,0.5,0.7,0.9L82.1,268.4z M71.8,257.4c0.6,0,1.1,0,1.6-0.2
			c0.4-0.1,0.8-0.4,1.1-0.6c0.3-0.3,0.5-0.6,0.6-1c0.1-0.4,0.2-0.8,0.2-1.2c0-0.8-0.3-1.6-0.9-2.1c-0.8-0.6-1.8-0.9-2.7-0.8l-1.9,0
			l0.1,6L71.8,257.4z"/>
		<path id="Path_148" class="st27" d="M103.2,268.9l-3.7-0.1c-0.4,0-0.7-0.1-1-0.3c-0.3-0.2-0.5-0.5-0.6-0.7l-1.3-3.6l-7.8-0.2
			l-1.1,3.5c-0.1,0.3-0.3,0.5-0.5,0.7c-0.3,0.2-0.6,0.3-1,0.3l-3.7-0.1l7.5-20.1l4.9,0.1L103.2,268.9z M95.5,260.9l-2-5.6
			c-0.1-0.4-0.3-0.8-0.5-1.3s-0.3-1-0.5-1.6c-0.1,0.6-0.3,1.1-0.4,1.6c-0.2,0.5-0.3,0.9-0.4,1.2l-1.8,5.5L95.5,260.9z"/>
		<path id="Path_149" class="st27" d="M116.9,252.6l-5.8-0.1l0.3,16.6l-4.7-0.1l-0.3-16.6l-5.8-0.1l-0.1-3.7l16.3,0.4L116.9,252.6z"
			/>
		<path id="Path_150" class="st27" d="M132.5,264.3c0.3,0,0.5,0.1,0.7,0.3l1.9,2c-0.8,1-1.8,1.9-3,2.4c-1.4,0.5-2.9,0.8-4.4,0.7
			c-1.4,0-2.9-0.3-4.2-0.9c-1.2-0.5-2.3-1.3-3.2-2.2c-0.9-1-1.6-2.1-2-3.3c-0.5-1.3-0.8-2.7-0.8-4.2c0-1.4,0.2-2.8,0.7-4.2
			c0.4-1.2,1.1-2.3,2-3.2c0.9-0.9,2-1.6,3.2-2.1c1.3-0.5,2.7-0.7,4.1-0.7c0.7,0,1.5,0.1,2.2,0.3c0.7,0.1,1.3,0.3,1.9,0.6
			c0.6,0.2,1.1,0.5,1.6,0.9c0.5,0.3,0.9,0.7,1.3,1.1l-1.6,2.1c-0.1,0.1-0.2,0.2-0.4,0.3c-0.2,0.1-0.4,0.2-0.6,0.1
			c-0.2,0-0.3,0-0.5-0.1c-0.2-0.1-0.3-0.2-0.5-0.3l-0.6-0.4c-0.2-0.1-0.5-0.3-0.7-0.4c-0.3-0.1-0.6-0.2-1-0.3
			c-0.4-0.1-0.9-0.1-1.3-0.1c-0.7,0-1.5,0.1-2.1,0.4c-0.6,0.3-1.2,0.7-1.7,1.2c-0.5,0.6-0.8,1.3-1.1,2c-0.3,0.9-0.4,1.8-0.3,2.7
			c0,0.9,0.2,1.9,0.5,2.8c0.3,0.8,0.7,1.5,1.2,2.1c1,1.1,2.4,1.8,3.9,1.8c0.4,0,0.8,0,1.2,0c0.3,0,0.7-0.1,1-0.2
			c0.3-0.1,0.6-0.2,0.9-0.4c0.3-0.2,0.6-0.4,0.8-0.6c0.1-0.1,0.2-0.2,0.4-0.2C132.2,264.3,132.4,264.3,132.5,264.3z"/>
		<path id="Path_151" class="st27" d="M154.4,249.7l0.4,20.3l-4.8-0.1l-0.2-8.6l-8.3-0.2l0.2,8.6l-4.8-0.1l-0.4-20.3l4.8,0.1
			l0.2,8.5l8.3,0.2l-0.2-8.5L154.4,249.7z"/>
	</g>
</g>
</svg>
