<svg xmlns="http://www.w3.org/2000/svg" width="139.973" height="161.918" viewBox="0 0 139.973 161.918">
  <g id="Group_4110" data-name="Group 4110" transform="translate(1527 -4451.9)">
    <path id="Path_2158" data-name="Path 2158" d="M93.991,20.1s-2.985.271-3.968,12.724S74.961,45.051,74.961,45.051a18.585,18.585,0,0,0,6.75-12.322c.859-8.044,4-14.4,12.28-12.628" transform="translate(-1527 4451.899)" fill="#f7bf66"/>
    <path id="Path_2159" data-name="Path 2159" d="M85.567,35.063s-11.048-2.1-11.016-16.385S58.277,0,58.277,0s9.072,6.107,9.76,22.1c.586,13.641,17.53,12.958,17.53,12.958" transform="translate(-1527 4451.899)" fill="#f7bf66"/>
    <path id="Path_2160" data-name="Path 2160" d="M85.449,34.531s-10.1,4.954-18.649-6.49-24.228-5.166-24.228-5.166,10.923-.562,21.076,11.817c8.661,10.558,21.8-.161,21.8-.161" transform="translate(-1527 4451.899)" fill="#f7bf66"/>
    <path id="Path_2161" data-name="Path 2161" d="M89.209,21.678a1.084,1.084,0,1,1-1.084,1.084,1.084,1.084,0,0,1,1.084-1.084" transform="translate(-1527 4451.899)" fill="#b27722"/>
    <path id="Path_2162" data-name="Path 2162" d="M90.374,161.919H35.288a8.593,8.593,0,0,1-8.593-8.593V113.591A8.594,8.594,0,0,1,35.288,105H90.374a8.594,8.594,0,0,1,8.593,8.594v39.735a8.593,8.593,0,0,1-8.593,8.593" transform="translate(-1527 4451.899)" fill="#bcf7a1"/>
    <path id="Path_2163" data-name="Path 2163" d="M97.7,154.6H42.611A8.593,8.593,0,0,1,34.018,146V106.268a8.594,8.594,0,0,1,8.593-8.594H97.7a8.594,8.594,0,0,1,8.593,8.594V146A8.593,8.593,0,0,1,97.7,154.6" transform="translate(-1527 4451.899)" fill="#8be869"/>
    <path id="Path_2164" data-name="Path 2164" d="M105.02,147.273H49.934a8.593,8.593,0,0,1-8.593-8.593V98.945a8.594,8.594,0,0,1,8.593-8.594H105.02a8.594,8.594,0,0,1,8.593,8.594V138.68a8.593,8.593,0,0,1-8.593,8.593" transform="translate(-1527 4451.899)" fill="#3dc117"/>
    <path id="Path_2165" data-name="Path 2165" d="M83.828,114.855a6.352,6.352,0,1,1-6.352-6.352,6.352,6.352,0,0,1,6.352,6.352" transform="translate(-1527 4451.899)" fill="#036800"/>
    <path id="Path_2166" data-name="Path 2166" d="M78.1,129.121H76.855a1.275,1.275,0,0,1-1.275-1.275v-8.171a1.275,1.275,0,0,1,1.275-1.275H78.1a1.275,1.275,0,0,1,1.275,1.275v8.171a1.275,1.275,0,0,1-1.275,1.275" transform="translate(-1527 4451.899)" fill="#036800"/>
    <path id="Path_2167" data-name="Path 2167" d="M96.727,109.968a4.6,4.6,0,0,1-4.595-4.6V77.746a14.932,14.932,0,0,0-29.439-3.538,4.595,4.595,0,1,1-8.93-2.167,24.122,24.122,0,0,1,47.559,5.705v27.627a4.6,4.6,0,0,1-4.6,4.6" transform="translate(-1527 4451.899)" fill="#3dc117"/>
    <path id="Path_2168" data-name="Path 2168" d="M118.177,42.513c1.9,3.788,2.712,8.681,3.226,11.875a48.684,48.684,0,0,1-5.345,31.2c.886-1.643.6-5.224.631-7.124a41.694,41.694,0,0,0-.583-7.745,44.171,44.171,0,0,0-6.034-15.512c-1.579-2.552-3.742-4.6-5.389-7.077a7.068,7.068,0,0,1,.235-8.3,7.371,7.371,0,0,1,7.157-2.739c2.8.526,4.731,2.686,6.1,5.422" transform="translate(-1527 4451.899)" fill="#abe5ff"/>
    <path id="Path_2169" data-name="Path 2169" d="M131.947,71.256a18.529,18.529,0,0,0-4.707,2.472,21.037,21.037,0,0,0-8.3,10.871c.259-.764,1.476-1.727,2.069-2.3a17.959,17.959,0,0,1,2.621-2.093,19.071,19.071,0,0,1,6.684-2.654c1.272-.251,2.556-.168,3.825-.376a3.053,3.053,0,0,0,2.558-2.517,3.184,3.184,0,0,0-1.238-3.07,3.9,3.9,0,0,0-3.511-.337" transform="translate(-1527 4451.899)" fill="#9fb8ff"/>
    <path id="Path_2170" data-name="Path 2170" d="M138.98,46.144a4.688,4.688,0,1,1-6.579-.81,4.688,4.688,0,0,1,6.579.81" transform="translate(-1527 4451.899)" fill="#f99"/>
    <path id="Path_2171" data-name="Path 2171" d="M39.832,79.115l-24.2,9.207a2.439,2.439,0,0,1-3.147-1.412L.16,54.512a2.439,2.439,0,0,1,1.412-3.147l24.2-9.207a2.44,2.44,0,0,1,3.147,1.412l12.326,32.4a2.438,2.438,0,0,1-1.412,3.146" transform="translate(-1527 4451.899)" fill="#c1f7a4"/>
    <path id="Path_2172" data-name="Path 2172" d="M4.812,53.626a.979.979,0,1,1-1.264-.567.981.981,0,0,1,1.264.567" transform="translate(-1527 4451.899)" fill="#3dc117"/>
    <path id="Path_2173" data-name="Path 2173" d="M7.888,52.455a.979.979,0,1,1-1.264-.567.981.981,0,0,1,1.264.567" transform="translate(-1527 4451.899)" fill="#3dc117"/>
    <path id="Path_2174" data-name="Path 2174" d="M10.964,51.285A.98.98,0,1,1,9.7,50.718a.982.982,0,0,1,1.265.567" transform="translate(-1527 4451.899)" fill="#3dc117"/>
  </g>
</svg>
