<svg xmlns="http://www.w3.org/2000/svg" width="500" height="545.25" viewBox="0 0 500 545.25">
  <g id="Group_369" data-name="Group 369" transform="translate(-186.633 600.012)">
    <g id="Group_365" data-name="Group 365">
      <g id="Group_350" data-name="Group 350">
        <path id="Path_71" data-name="Path 71" d="M382.36-172.981l-2.668-3q2.966-2.64,5.808-5.412l2.8,2.875Q385.4-175.683,382.36-172.981Zm11.629-11.344-2.934-2.742q2.709-2.9,5.294-5.923l3.052,2.608Q396.764-187.292,393.989-184.325Zm10.549-12.351-3.17-2.468q2.439-3.134,4.741-6.374l3.276,2.326Q407.032-199.882,404.538-196.676Zm9.4-13.24-3.373-2.177q2.155-3.342,4.164-6.771l3.468,2.032Q416.147-213.331,413.943-209.916Zm8.207-14.011-3.55-1.879q1.855-3.51,3.56-7.1l3.629,1.722Q424.049-227.519,422.15-223.927Zm6.959-14.672-3.7-1.561q1.545-3.663,2.93-7.387l3.766,1.4Q430.691-242.339,429.109-238.6Zm5.665-15.222-3.825-1.232q1.221-3.784,2.275-7.615L437.1-261.6Q436.02-257.687,434.774-253.821Zm4.3-15.657-3.916-.89q.881-3.876,1.589-7.784l3.955.714Q439.98-273.442,439.076-269.478Zm2.9-15.984-3.982-.533q.527-3.937.877-7.9l4,.353Q442.513-289.492,441.973-285.462Zm1.418-16.184-4.013-.167q.108-2.66.135-5.321l.008-1.6,0-1.014,4.017-.023,0,1.037-.008,1.644Q443.5-304.369,443.391-301.646Zm-4.108-16.039q-.208-3.966-.6-7.918l4-.4q.4,4.039.618,8.1Zm-1.567-15.8q-.573-3.93-1.322-7.834l3.947-.757q.765,3.99,1.349,8.011Zm-2.993-15.6q-.921-3.864-2.012-7.685l3.864-1.1q1.114,3.9,2.055,7.858Zm-4.362-15.27q-1.263-3.775-2.68-7.485l3.751-1.436q1.453,3.792,2.738,7.648ZM424.678-379.2q-1.58-3.645-3.316-7.22l3.613-1.757q1.773,3.654,3.391,7.381Zm-6.949-14.291q-1.889-3.5-3.931-6.9l3.448-2.064q2.084,3.484,4.017,7.058Zm-87.16-7.52q-2.092,0-4.18-.155l.3-4.006a54.094,54.094,0,0,0,7.744.01l.271,4.01Q332.633-401.013,330.569-401.01Zm12.326-1.189-.726-3.95c2.452-.451,5.023-1.052,7.644-1.783l1.079,3.868C348.157-403.3,345.466-402.672,342.895-402.2Zm-24.768-.292a40.934,40.934,0,0,1-7.922-2.9L311.966-409a36.768,36.768,0,0,0,7.142,2.616Zm40.552-4.051-1.342-3.785q3.725-1.322,7.362-2.878l1.58,3.692Q362.529-407.906,358.679-406.542Zm50.89-.578q-2.186-3.316-4.521-6.534l3.252-2.358q2.387,3.286,4.623,6.679Zm-106.525-2.756a35.617,35.617,0,0,1-6.024-5.99l3.158-2.48a31.687,31.687,0,0,0,5.349,5.312Zm70.628-3.08-1.8-3.589q3.529-1.774,6.951-3.772l2.024,3.472Q377.319-414.792,373.672-412.956Zm26.566-7.02q-2.474-3.106-5.086-6.1l3.029-2.64q2.672,3.06,5.2,6.239Zm-12.475-1.188-2.232-3.343q3.289-2.195,6.446-4.588l2.428,3.2Q391.155-423.432,387.763-421.164Zm-95.078-2.081a28.421,28.421,0,0,1-1.406-4.465,27.075,27.075,0,0,1-.589-3.931l4.006-.3a23.364,23.364,0,0,0,.5,3.347,24.253,24.253,0,0,0,1.206,3.824Zm108.063-7.774-2.616-3.048q3-2.577,5.843-5.331l2.8,2.883Q403.844-433.676,400.748-431.019Zm-10.95-.924q-2.744-2.868-5.618-5.609l2.769-2.907q2.946,2.8,5.752,5.739Zm-94.481-7.341-3.9-.95a31.6,31.6,0,0,1,3.152-7.946l3.507,1.958A27.68,27.68,0,0,0,295.317-439.284Zm117.134-3.082-2.966-2.711q2.669-2.918,5.147-6l3.13,2.519Q415.2-445.381,412.451-442.366Zm-34.144-.524-.688-.6c-1.764-1.51-3.576-2.993-5.437-4.427l2.451-3.181c1.917,1.477,3.784,3,5.6,4.56l.7.6Zm-75.8-9.458-2.977-2.7a42.113,42.113,0,0,1,6.261-5.633l2.377,3.236A38.129,38.129,0,0,0,302.5-452.348Zm63.269-.172c-2.24-1.489-4.5-2.866-6.72-4.09l1.942-3.519c2.317,1.279,4.673,2.713,7,4.266Zm56.909-2.546-3.28-2.323q2.286-3.225,4.358-6.592l3.421,2.106Q425.037-458.4,422.68-455.066Zm-70.658-4.988a64.45,64.45,0,0,0-7.327-2.631l1.119-3.86a69.073,69.073,0,0,1,7.785,2.8Zm-37.3-1.289-1.706-3.637a41.057,41.057,0,0,1,7.961-2.789l.922,3.911A36.918,36.918,0,0,0,314.726-461.343Zm22.406-2.978a47.925,47.925,0,0,0-6.645-.47l-1.04.011-.086-4.017,1.126-.012a51.851,51.851,0,0,1,7.206.51Z" fill="#49b749"/>
      </g>
      <g id="Group_351" data-name="Group 351">
        <circle id="Ellipse_12" data-name="Ellipse 12" cx="77.479" cy="77.479" r="77.479" transform="translate(211.74 -260.635)" fill="#e7d4ff"/>
      </g>
      <g id="Group_352" data-name="Group 352">
        <circle id="Ellipse_13" data-name="Ellipse 13" cx="49.282" cy="49.282" r="49.282" transform="translate(541.249 -224.001)" fill="#c1f7a4"/>
      </g>
      <g id="Group_353" data-name="Group 353">
        <path id="Path_72" data-name="Path 72" d="M531.063-233.468h0v-56.784a87.623,87.623,0,0,0-87.523-87.523,87.623,87.623,0,0,0-87.524,87.523,20.362,20.362,0,0,0,20.362,20.362,20.361,20.361,0,0,0,20.361-20.362,46.853,46.853,0,0,1,46.8-46.8,46.853,46.853,0,0,1,46.8,46.8v56.688H358.967a43.418,43.418,0,0,0-43.424,43.411v91.966a43.421,43.421,0,0,0,43.424,43.425H528.1a43.42,43.42,0,0,0,43.424-43.425v-91.966A43.423,43.423,0,0,0,531.063-233.468Zm-75.935,96.554a3.874,3.874,0,0,0-1.71,3.19V-123.5a9.892,9.892,0,0,1-9.91,9.9,9.962,9.962,0,0,1-9.854-9.991v-10.126a3.845,3.845,0,0,0-1.684-3.177,20.683,20.683,0,0,1-9.108-17.388,20.628,20.628,0,0,1,20.728-20.43,20.673,20.673,0,0,1,20.619,20.674A20.659,20.659,0,0,1,455.128-136.914Z" fill="#00d14b"/>
      </g>
      <g id="Group_354" data-name="Group 354">
        <path id="Path_73" data-name="Path 73" d="M599.983-411.882c-11.415,10.62-20.519,26.442-26.4,36.791-19.986,35.177-27.228,74.518-21.7,114.456-.941-6.8,4.645-18.787,6.987-25.375a153.65,153.65,0,0,1,11.971-25.952c10.276-17.618,24.668-33.248,40.756-45.722,8.726-6.766,18.818-11.038,27.682-17.468a26.007,26.007,0,0,0,9.87-28.925,27.129,27.129,0,0,0-21.154-18.65C617.681-424.51,608.229-419.553,599.983-411.882Z" fill="#ffa471"/>
      </g>
      <g id="Group_355" data-name="Group 355">
        <path id="Path_74" data-name="Path 74" d="M221.556-355.326c13.81,2.777,28.3,10.653,37.721,15.839a161.89,161.89,0,0,1,70.837,77.847c-2.493-5.682-12.461-12.265-17.38-16.23a138.858,138.858,0,0,0-21.488-14.317c-16.243-8.7-34.715-13.929-53-15.924-9.918-1.081-19.707.4-29.571-.355a23.5,23.5,0,0,1-21.278-17.6,24.512,24.512,0,0,1,7.465-24.361C201.959-356.678,211.58-357.332,221.556-355.326Z" fill="#abe5ff"/>
      </g>
      <g id="Group_356" data-name="Group 356">
        <path id="Path_75" data-name="Path 75" d="M324.71-333.525c-2.015,5.07-2.52,11.438-2.826,15.592A62.706,62.706,0,0,0,332.2-278.492c-1.319-2.009-1.35-6.636-1.6-9.07a53.721,53.721,0,0,1-.11-10,56.879,56.879,0,0,1,6.025-20.57c1.744-3.448,4.293-6.313,6.131-9.676a9.1,9.1,0,0,0-1.22-10.625,9.492,9.492,0,0,0-9.485-2.722C328.41-340.172,326.166-337.187,324.71-333.525Z" fill="#9fb8ff"/>
      </g>
      <g id="Group_357" data-name="Group 357">
        <path id="Path_76" data-name="Path 76" d="M604.044-282.761c-4.979-.041-10.563,1.632-14.2,2.743a57.218,57.218,0,0,0-30.15,21.791c1.274-1.785,5.2-3.339,7.189-4.354a49.1,49.1,0,0,1,8.472-3.394,51.929,51.929,0,0,1,19.488-1.664c3.509.345,6.788,1.569,10.255,2.022a8.3,8.3,0,0,0,8.637-4.545,8.662,8.662,0,0,0-.815-8.968C610.92-281.807,607.64-282.731,604.044-282.761Z" fill="#ff8080"/>
      </g>
      <g id="Group_358" data-name="Group 358">
        <path id="Path_77" data-name="Path 77" d="M674.584-265.292a92.084,92.084,0,0,0-19.2,1.307c-5.632.989-12.171,2.192-17.249,4.895-6.493,3.456-9.646,11.041-5.873,17.735a103.71,103.71,0,0,0,22.543,27.345c7.53,6.555,16.514,1.968,20.69-5.671a104.74,104.74,0,0,0,10.9-30.513A12.631,12.631,0,0,0,674.584-265.292Z" fill="#abe5ff"/>
      </g>
      <g id="Group_359" data-name="Group 359">
        <path id="Path_78" data-name="Path 78" d="M492.831-536.31s-9.459.859-12.575,40.323-47.732,38.745-47.732,38.745a58.884,58.884,0,0,0,21.389-39.047C456.635-521.782,466.59-541.937,492.831-536.31Z" fill="#88f28c"/>
      </g>
      <g id="Group_360" data-name="Group 360">
        <path id="Path_79" data-name="Path 79" d="M466.137-488.895s-35.013-6.657-34.912-51.926-51.574-59.191-51.574-59.191,28.751,19.356,30.93,70.05C412.44-486.73,466.137-488.895,466.137-488.895Z" fill="#88f28c"/>
      </g>
      <g id="Group_361" data-name="Group 361">
        <path id="Path_80" data-name="Path 80" d="M465.762-490.58s-32,15.7-59.1-20.567-76.781-16.373-76.781-16.373,34.614-1.781,66.791,37.451C424.119-456.611,465.762-490.58,465.762-490.58Z" fill="#88f28c"/>
      </g>
      <g id="Group_362" data-name="Group 362">
        <circle id="Ellipse_14" data-name="Ellipse 14" cx="3.436" cy="3.436" r="3.436" transform="translate(474.241 -531.315)" fill="#49b749"/>
      </g>
      <g id="Group_363" data-name="Group 363">
        <circle id="Ellipse_15" data-name="Ellipse 15" cx="15.585" cy="15.585" r="15.585" transform="translate(258.049 -402.415)" fill="#f99"/>
      </g>
      <g id="Group_364" data-name="Group 364">
        <circle id="Ellipse_16" data-name="Ellipse 16" cx="36.26" cy="36.26" r="36.26" transform="translate(486.542 -470.011)" fill="#eae47d"/>
      </g>
    </g>
    <g id="Group_366" data-name="Group 366">
      <circle id="Ellipse_17" data-name="Ellipse 17" cx="5.199" cy="5.199" r="5.199" transform="translate(242.163 -458.553)" fill="#e7d4ff"/>
    </g>
    <g id="Group_367" data-name="Group 367">
      <circle id="Ellipse_18" data-name="Ellipse 18" cx="7.304" cy="7.304" r="7.304" transform="translate(535.479 -518.755)" fill="#c1f7a4"/>
    </g>
    <g id="Group_368" data-name="Group 368">
      <circle id="Ellipse_19" data-name="Ellipse 19" cx="6.555" cy="6.555" r="6.555" transform="translate(337.26 -593.317)" fill="#abe5ff"/>
    </g>
  </g>
</svg>
