<svg xmlns="http://www.w3.org/2000/svg" width="29" height="29" viewBox="0 0 29 29">
    <path data-name="Path 2503" d="M14.5 6.55 0 0v22.44L14.5 29 29 22.44V0zM11.05 22.6l-7.6-3.37v-1.64l7.6 3.38zm0-5.6-7.6-3.37v-1.64l7.6 3.38zm0-5.6-7.6-3.37V6.39l7.6 3.38zm10.38-3.62h.64v2.63h-.64zm-4.2 1.74 1.85 1.86-.45.45-1.85-1.86zm5.96 10.25a1.44 1.44 0 0 1-2.88 0v-.09h2.88zm.86-2.72a2.88 2.88 0 0 0-.86 2.07v.03h-2.88v-.01a2.869 2.869 0 0 0-.86-2.09 3.3 3.3 0 0 1-1.01-2.71 3.327 3.327 0 0 1 6.64.31 3.3 3.3 0 0 1-1.03 2.4m.82-5.22-.45-.45 1.85-1.86.46.45z" style="fill:#8d8d8d"/>
</svg>
