<svg xmlns="http://www.w3.org/2000/svg" width="34" height="24.885" viewBox="0 0 50 24.885">
  <g id="Group_2" data-name="Group 2" transform="translate(-976.139 -527.648)">
    <path id="Path_4" data-name="Path 4" d="M126.932,15.548a1.309,1.309,0,0,1,1.307,1.307v16.47a1.309,1.309,0,0,1-1.307,1.308H85.347a1.31,1.31,0,0,1-1.308-1.308V16.855a1.31,1.31,0,0,1,1.308-1.307Zm0-2.9H85.347a4.208,4.208,0,0,0-4.208,4.207v16.47a4.208,4.208,0,0,0,4.208,4.208h41.585a4.207,4.207,0,0,0,4.207-4.208V16.855a4.207,4.207,0,0,0-4.207-4.207" transform="translate(895 515)" fill="#037fff"/>
    <path id="Path_5" data-name="Path 5" d="M113.058,26.541H99.22a1.45,1.45,0,1,1,0-2.9h13.838a1.45,1.45,0,1,1,0,2.9" transform="translate(895 515)" fill="#037fff"/>
  </g>
</svg>
