<svg xmlns="http://www.w3.org/2000/svg" width="50" height="50" viewBox="0 0 50 50">
  <g id="Group_1989" data-name="Group 1989" transform="translate(-2289 -4479)">
    <path id="Path_320" data-name="Path 320" d="M10.808,47.089h-7.9V2.911h7.9ZM12.2,0H1.518A1.518,1.518,0,0,0,0,1.518V48.482A1.518,1.518,0,0,0,1.518,50H12.2a1.518,1.518,0,0,0,1.518-1.518V1.518A1.518,1.518,0,0,0,12.2,0" transform="translate(2289 4479)" fill="#037fff"/>
    <path id="Path_321" data-name="Path 321" d="M28.949,47.089h-7.9V2.911h7.9ZM30.342,0H19.659a1.518,1.518,0,0,0-1.518,1.518V48.482A1.518,1.518,0,0,0,19.659,50H30.342a1.518,1.518,0,0,0,1.518-1.518V1.518A1.518,1.518,0,0,0,30.342,0" transform="translate(2289 4479)" fill="#037fff"/>
    <path id="Path_322" data-name="Path 322" d="M47.089,47.089h-7.9V2.911h7.9ZM48.482,0H37.8a1.518,1.518,0,0,0-1.518,1.518V48.482A1.518,1.518,0,0,0,37.8,50H48.482A1.518,1.518,0,0,0,50,48.482V1.518A1.518,1.518,0,0,0,48.482,0" transform="translate(2289 4479)" fill="#037fff"/>
  </g>
</svg>
