<svg xmlns="http://www.w3.org/2000/svg" width="40" height="24" viewBox="0 0 77 26.412"><g data-name="Group 1045" transform="translate(0 -5.794)" fill="#037fff"><path data-name="Path 251" d="M75.147 5.794H1.853A1.852 1.852 0 0 0 0 7.647v22.7a1.856 1.856 0 0 0 1.853 1.858h73.294A1.856 1.856 0 0 0 77 30.348V7.647a1.852 1.852 0 0 0-1.853-1.853ZM15.906 19.389l-.4-.168c-.566-.254-.833-.6-.8-1.034a.892.892 0 0 1 .207-.532 1.219 1.219 0 0 1 .521-.363 1.882 1.882 0 0 1 .725-.126 1.251 1.251 0 0 1 .854.309 1 1 0 0 1 .317.8h-.833a.506.506 0 0 0-.086-.327.379.379 0 0 0-.309-.128.643.643 0 0 0-.375.1.4.4 0 0 0-.188.275c-.032.165.086.3.361.4a3.66 3.66 0 0 1 .6.27.986.986 0 0 1 .552.948 1 1 0 0 1-.2.542 1.124 1.124 0 0 1-.5.356 1.93 1.93 0 0 1-1.249.037 1.224 1.224 0 0 1-.424-.254 1.088 1.088 0 0 1-.343-.867h.843a.58.58 0 0 0 .1.416.511.511 0 0 0 .405.142.578.578 0 0 0 .351-.1.4.4 0 0 0 .176-.264c.032-.186-.067-.33-.305-.432Zm-12.55-2.173h.822l.851 2.251.39-2.251h.84l-.623 3.568h-.811l-.854-2.251-.393 2.251h-.84Zm3.854 0H9.6l-.115.662h-1.55l-.136.754h1.317l-.11.636H7.692l-.15.854H9.1l-.115.662H6.592Zm5.732 3.568h-.87l-.146-2.021-.768 2.021h-.869l-.178-3.568h.817l.047 2.22.82-2.22h.715l.133 2.228.746-2.228h.849Zm46.036 10.444H12.706l8.929-11.738a.907.907 0 0 0 0-.983L12.706 6.772h46.272Zm7.274-9.052a.552.552 0 0 1-.391.946.554.554 0 0 1-.394-.158L61.505 19l3.962-3.96a.554.554 0 0 1 .785 0 .558.558 0 0 1 0 .785L63.074 19Zm4.42.788a.555.555 0 0 1-.783-.788L73.062 19l-3.173-3.175a.549.549 0 0 1 0-.785.539.539 0 0 1 .389-.163.55.55 0 0 1 .394.163L74.631 19Z"/><rect data-name="Rectangle 1737" width="21.02" height="2.827" rx="1.413" transform="translate(23.519 17.582)"/><rect data-name="Rectangle 1738" width="10.22" height="2.827" rx="1.413" transform="translate(46.786 17.582)"/></g></svg>