<svg viewBox="0 0 56 45" xmlns="http://www.w3.org/2000/svg"><g fill="none" fill-rule="evenodd"><path d="M32.614 0C34.539 0 35 .538 35 3.631V40.91c0 3.093-.134 4.09-2.059 4.09H2.461C.534 45 0 44.003 0 40.91V4.287C0 1.193.135 0 2.06 0h30.555z" fill="#037fff" fill-rule="nonzero"/><rect x="5" y="35" width="17" height="1.5" rx=".5" fill="#fff"/><rect x="5" y="29" width="23" height="2" rx=".5" fill="#fff" fill-rule="nonzero"/><g transform="translate(38)"><path d="M16.55 0C17.54 0 18 .258 18 1.77v18.386C18 21.67 17.54 22 16.55 22H1.439c-.99 0-1.44-.331-1.44-1.844V1.77C0 .258.66 0 1.65 0h14.9z" fill="#037fff" fill-rule="nonzero"/><rect x="3" y="15" width="8" height="1.2" rx=".5" fill="#fff"/><rect x="3" y="10" width="11" height="1.5" rx=".5" fill="#fff" fill-rule="nonzero"/></g><g transform="translate(38 25)"><path d="M16.469 0C17.459 0 18 .327 18 1.702v16.425C18 19.502 17.565 20 16.575 20H1.47C.48 20 0 19.666 0 18.29V1.704C0 .328.48 0 1.47 0h15z" fill="#037fff" fill-rule="nonzero"/><rect x="3" y="13" width="7" height="1.2" rx=".5" fill="#fff"/><rect x="3" y="8.5" width="11" height="1.5" rx=".5" fill="#fff" fill-rule="nonzero"/></g></g></svg>