<svg width="65" height="46" xmlns="http://www.w3.org/2000/svg"><g fill-rule="nonzero" fill="none"><g transform="translate(-.014)"><path d="M35.028 3.71v39.075c0 3.163-.134 3.214-2.06 3.214H2.019c-1.926 0-2.004-.051-2.004-3.214L.028 3.711C.028.548-.254-.001 1.671-.001h30.971c2.386 0 2.386 0 2.386 3.712Z" fill="#037fff"/><rect fill="#FFF" x="5.014" y="37.999" width="24" height="2" rx=".75"/><rect fill="#FFF" x="5.014" y="31.999" width="8" height="1.5" rx=".75"/></g><g transform="translate(53)"><path d="M12 1.48v20.185c0 1.581-.307 1.335-.967 1.335H.96C.3 23 0 23.246 0 21.665V1.17C0 0 0 0 1.1 0h9.933C12 0 12-.101 12 1.48Z" fill="#037fff"/><rect fill="#FFF" x="2" y="18" width="8" height="1.5" rx=".6"/><rect fill="#FFF" x="2" y="13" width="5" height="1.5" rx=".75"/></g><g transform="translate(38)"><path d="M12 2.982V41.69c0 3.162-.018 4.308-.678 4.308H.98c-.66 0-.98.166-.98-2.996V2.982C0-.18.263.002.923.002L10.98.006C11.64.003 12-.18 12 2.982Z" fill="#037fff"/><rect fill="#FFF" x="2" y="41" width="8" height="1.5" rx=".6"/><rect fill="#FFF" x="2" y="37" width="6" height="1.5" rx=".75"/></g><g transform="translate(53 26)"><path d="M12 1.295v16.832c0 1.375-.018 1.873-.678 1.873H.98c-.66 0-.98.072-.98-1.303V1.295C0-.08.263 0 .923 0H10.98C11.64 0 12-.08 12 1.296Z" fill="#037fff"/><rect fill="#FFF" x="2" y="15" width="8" height="1.5" rx=".6"/><rect fill="#FFF" x="2" y="11" width="6" height="1.5" rx=".75"/></g></g></svg>