<svg width="66" height="47" xmlns="http://www.w3.org/2000/svg"><g fill-rule="nonzero" fill="none"><g transform="translate(-.014)"><path d="M35.028 3.792v39.923c0 3.232-.134 3.284-2.06 3.284H2.019c-1.926 0-2.004-.052-2.004-3.284L.028 3.792C.028.56-.254-.001 1.671-.001h30.971c2.386 0 2.386 0 2.386 3.793Z" fill="#037fff"/><rect fill="#FFF" x="5.014" y="38.999" width="24" height="2" rx=".75"/><rect fill="#FFF" x="5.014" y="32.999" width="8" height="1.5" rx=".75"/></g><g transform="translate(39)"><path d="M12 1.47v20.155c0 1.58-.307 1.375-.967 1.375H.96C.3 23 0 23.206 0 21.625V1.47C0-.112.056-.001.716-.001L11.033 0c.66 0 .967-.112.967 1.47Z" fill="#037fff"/><rect fill="#FFF" x="2" y="18" width="8" height="1.5" rx=".6"/><rect fill="#FFF" x="2" y="13" width="5" height="1.5" rx=".75"/></g><g transform="translate(54)"><path d="M12 1.48v20.185c0 1.581-.307 1.335-.967 1.335H.96C.3 23 0 23.246 0 21.665V1.17C0 0 0 0 1.1 0h9.933C12 0 12-.101 12 1.48Z" fill="#037fff"/><rect fill="#FFF" x="2" y="18" width="8" height="1.5" rx=".6"/><rect fill="#FFF" x="2" y="13" width="5" height="1.5" rx=".75"/></g><g transform="translate(39 27)"><path d="M27 1.295v16.832C27 19.502 26.959 20 25.473 20H2.205C.72 20 0 20.072 0 18.697V1.295C0-.08.592 0 2.077 0h22.627C26.188 0 27-.08 27 1.296Z" fill="#037fff"/><rect fill="#FFF" x="4" y="14" width="17" height="1.5" rx=".6"/><rect fill="#FFF" x="4" y="9" width="6" height="1.5" rx=".75"/></g></g></svg>