<svg width="46" height="70" xmlns="http://www.w3.org/2000/svg"><g fill-rule="nonzero" fill="none"><g transform="translate(1)"><path d="M41.932 0C44.407 0 45 .346 45 2.34v24.023C45 28.357 44.828 29 42.353 29H3.163C.687 29 0 28.357 0 26.363V2.762C0 .768.172 0 2.647 0h39.285Z" fill="#037fff"/><rect fill="#FFF" x="5" y="21" width="25" height="2" rx="1"/><rect fill="#FFF" x="5" y="14" width="13" height="2" rx="1"/></g><g transform="translate(2 37)"><path d="M15.649 0c.94 0 1.424.675 1.424 1.5v9c0 .825-.485 1.5-1.424 1.5H1.311c-.94 0-1.315-.675-1.315-1.5V1.714C-.004.89.372 0 1.311 0h14.338Z" stroke="#037fff" stroke-width="2"/><path fill="#037fff" d="m10.926 5.75 3.443 3H2.985l2.912-2.28 2.102 1.538z"/><rect fill="#037fff" x="22.769" y="7" width="20" height="2" rx="1"/><rect fill="#037fff" x="22.769" y="1.5" width="9" height="2" rx="1"/></g><g transform="translate(2 57)"><path d="M15.649 0c.94 0 1.424.675 1.424 1.5v9c0 .825-.485 1.5-1.424 1.5H1.311c-.94 0-1.315-.675-1.315-1.5V1.714C-.004.89.372 0 1.311 0h14.338Z" stroke="#037fff" stroke-width="2"/><path fill="#037fff" d="m10.926 5.75 3.443 3H2.985l2.912-2.28 2.102 1.538z"/><rect fill="#037fff" x="22.769" y="7" width="20" height="2" rx=".75"/><rect fill="#037fff" x="22.769" y="1.5" width="9" height="2" rx="1"/></g></g></svg>