<svg viewBox="0 0 48 34" xmlns="http://www.w3.org/2000/svg"><g fill="none" fill-rule="evenodd"><path d="M12.872 0C13.642 0 14 .188 14 1.287V14.66c0 1.1-.358 1.341-1.128 1.341H1.119c-.77 0-1.12-.24-1.12-1.34V1.286C0 .187.513 0 1.283 0h11.59z" fill="#037fff" fill-rule="nonzero"/><rect x="2" y="11" width="6" height="1" rx=".5" fill="#fff"/><rect x="2" y="7.5" width="9" height="1.5" rx=".5" fill="#fff" fill-rule="nonzero"/><g transform="translate(16)"><path d="M13.724 0C14.549 0 15 .262 15 1.361v13.14c0 1.1-.362 1.5-1.187 1.5H1.225C.4 16 0 15.732 0 14.632V1.362C0 .262.4 0 1.225 0h12.499z" fill="#037fff" fill-rule="nonzero"/><rect x="2" y="11" width="7" height="1" rx=".5" fill="#fff"/><rect x="2" y="7.5" width="10" height="1.5" rx=".5" fill="#fff" fill-rule="nonzero"/></g><g transform="translate(33)"><path d="M13.724 0C14.549 0 15 .262 15 1.361v13.14c0 1.1-.362 1.5-1.187 1.5H1.225C.4 16 0 15.732 0 14.632V1.362C0 .262.4 0 1.225 0h12.499z" fill="#037fff" fill-rule="nonzero"/><rect x="2" y="11" width="7" height="1" rx=".5" fill="#fff"/><rect x="2" y="7.5" width="10" height="1.5" rx=".5" fill="#fff" fill-rule="nonzero"/></g><g transform="translate(0 18)"><path d="M12.872 0C13.642 0 14 .188 14 1.287V14.66c0 1.1-.358 1.341-1.128 1.341H1.119c-.77 0-1.12-.24-1.12-1.34V1.286C0 .187.513 0 1.283 0h11.59z" fill="#037fff" fill-rule="nonzero"/><rect x="2" y="11" width="6" height="1" rx=".5" fill="#fff"/><rect x="2" y="7.5" width="9" height="1.5" rx=".5" fill="#fff" fill-rule="nonzero"/></g><g transform="translate(16 18)"><path d="M13.724 0C14.549 0 15 .262 15 1.361v13.14c0 1.1-.362 1.5-1.187 1.5H1.225C.4 16 0 15.732 0 14.632V1.362C0 .262.4 0 1.225 0h12.499z" fill="#037fff" fill-rule="nonzero"/><rect x="2" y="11" width="7" height="1" rx=".5" fill="#fff"/><rect x="2" y="7.5" width="10" height="1.5" rx=".5" fill="#fff" fill-rule="nonzero"/></g><g transform="translate(33 18)"><path d="M13.724 0C14.549 0 15 .262 15 1.361v13.14c0 1.1-.362 1.5-1.187 1.5H1.225C.4 16 0 15.732 0 14.632V1.362C0 .262.4 0 1.225 0h12.499z" fill="#037fff" fill-rule="nonzero"/><rect x="2" y="11" width="7" height="1" rx=".5" fill="#fff"/><rect x="2" y="7.5" width="10" height="1.5" rx=".5" fill="#fff" fill-rule="nonzero"/></g></g></svg>