<svg viewBox="0 0 33 40" xmlns="http://www.w3.org/2000/svg"><g fill-rule="nonzero" fill="none"><path d="M12.7 1c.715 0 1.3.69 1.3 1.535v9.208c0 .844-.585 1.535-1.3 1.535H2.3c-.715 0-1.3-.69-1.3-1.535V2.535C1 1.69 1.585 1 2.3 1h10.4z" fill="#fff" stroke="#037fff" stroke-width="1.5"/><path fill="#037fff" d="m9.335 8.556 2.808 2.833H2.857l2.376-2.153 1.714 1.452zM1.558 16.111c-.308 0-.558-.211-.558-.472s.25-.472.558-.472h10.027c.308 0 .558.211.558.472s-.25.472-.558.472H1.558zM1.419 18C1.187 18 1 17.789 1 17.528s.187-.472.419-.472h7.52c.23 0 .418.211.418.472 0 .26-.187.472-.418.472h-7.52z"/><path d="M30.6 1c.77 0 1.4.69 1.4 1.535v9.208c0 .844-.63 1.535-1.4 1.535H19.4c-.77 0-1.4-.69-1.4-1.535V2.535C18 1.69 18.63 1 19.4 1h11.2z" fill="#fff" stroke="#037fff" stroke-width="1.5"/><path fill="#037fff" d="m26.377 8.556 2.823 2.833h-9.333l2.388-2.153 1.723 1.452zM18.561 16.111c-.31 0-.561-.211-.561-.472s.251-.472.561-.472h10.078c.31 0 .561.211.561.472s-.251.472-.561.472H18.561zM18.42 18c-.232 0-.42-.211-.42-.472s.188-.472.42-.472h7.56c.232 0 .42.211.42.472 0 .26-.188.472-.42.472h-7.56z"/><g><path d="M12.7 23c.715 0 1.3.69 1.3 1.535v9.208c0 .844-.585 1.535-1.3 1.535H2.3c-.715 0-1.3-.69-1.3-1.535v-9.208C1 23.69 1.585 23 2.3 23h10.4z" fill="#fff" stroke="#037fff" stroke-width="1.5"/><path fill="#037fff" d="m9.335 30.556 2.808 2.833H2.857l2.376-2.153 1.714 1.452zM1.558 38.111c-.308 0-.558-.211-.558-.472s.25-.472.558-.472h10.027c.308 0 .558.211.558.472s-.25.472-.558.472H1.558zM1.419 40C1.187 40 1 39.789 1 39.528s.187-.472.419-.472h7.52c.23 0 .418.211.418.472 0 .26-.187.472-.418.472h-7.52z"/></g><g><path d="M29.7 23c.715 0 1.3.69 1.3 1.535v9.208c0 .844-.585 1.535-1.3 1.535H19.3c-.715 0-1.3-.69-1.3-1.535v-9.208c0-.844.585-1.535 1.3-1.535h10.4z" fill="#fff" stroke="#037fff" stroke-width="1.5"/><path fill="#037fff" d="m26.335 30.556 2.808 2.833h-9.286l2.376-2.153 1.714 1.452zM18.558 38.111c-.308 0-.558-.211-.558-.472s.25-.472.558-.472h10.027c.308 0 .558.211.558.472s-.25.472-.558.472H18.558zM18.419 40c-.232 0-.419-.211-.419-.472s.187-.472.419-.472h7.52c.23 0 .418.211.418.472 0 .26-.187.472-.418.472h-7.52z"/></g></g></svg>