<svg viewBox="0 0 36 26" xmlns="http://www.w3.org/2000/svg"><g transform="translate(0 1)" fill="none" fill-rule="evenodd"><path d="M27.355 0C28.565 0 29 .229 29 1.604V18.18c0 1.375-.435 1.82-1.645 1.82H8.902C7.692 20 7 19.728 7 18.353V1.604C7 .23 7.526 0 8.736 0h18.62z" stroke="#037fff" stroke-width="2"/><rect x="15" y="12" width="6" height="1.5" rx=".5" fill="#037fff"/><rect x="12" y="24" width="3" height="1" rx=".5" fill="#037fff"/><rect x="20" y="24" width="3" height="1" rx=".5" fill="#037fff"/><rect x="16" y="24" width="3" height="1" rx=".5" fill="#037fff" fill-opacity=".672"/><rect x="12" y="8" width="12" height="2" rx=".5" fill="#037fff" fill-rule="nonzero"/><path d="M2.442 13c-.11 0-.222-.065-.333-.13L.278 11.183l-.056-.065C0 10.858 0 10.664 0 10.469s.056-.39.222-.649l.056-.065 1.831-1.622c.222-.195.61-.195.777.13.167.26.167.713-.11.908L1.331 10.47l1.443 1.298c.222.195.278.649.111.908-.11.195-.277.325-.444.325zM33.558 13c.111 0 .222-.065.333-.13l1.832-1.687.055-.065c.222-.26.222-.454.222-.649s-.055-.39-.222-.649l-.055-.065-1.832-1.622c-.222-.195-.61-.195-.777.13-.167.26-.167.713.111.908l1.443 1.298-1.443 1.298c-.222.195-.278.649-.111.908.111.195.277.325.444.325z" fill="#037fff" fill-rule="nonzero"/></g></svg>