<svg viewBox="0 0 33 33" xmlns="http://www.w3.org/2000/svg"><g fill-rule="nonzero" fill="none"><path d="M13.6 1c.77 0 1.4.731 1.4 1.625v9.75c0 .894-.63 1.625-1.4 1.625H2.4c-.77 0-1.4-.731-1.4-1.625v-9.75C1 1.731 1.63 1 2.4 1h11.2z" fill="#fff" stroke="#037fff" stroke-width="1.5"/><path fill="#037fff" d="m9.732 9.429 3.033 2.785H2.735l2.566-2.117 1.852 1.429zM18.751 4.864a.75.75 0 1 1 0-1.5h13.497a.75.75 0 1 1 0 1.5H18.751zM18.411 8.4c-.227 0-.411-.313-.411-.7s.184-.7.411-.7h7.384c.227 0 .41.313.41.7s-.183.7-.41.7H18.41z"/><path d="M13.6 19c.77 0 1.4.731 1.4 1.625v9.75c0 .894-.63 1.625-1.4 1.625H2.4c-.77 0-1.4-.731-1.4-1.625v-9.75C1 19.731 1.63 19 2.4 19h11.2z" fill="#fff" stroke="#037fff" stroke-width="1.5"/><path fill="#037fff" d="m9.732 27.429 3.033 2.785H2.735l2.566-2.117 1.852 1.429zM18.751 22.864a.75.75 0 1 1 0-1.5h13.497a.75.75 0 1 1 0 1.5H18.751zM18.451 26.4c-.249 0-.45-.313-.45-.7s.201-.7.45-.7h8.098c.25 0 .451.313.451.7s-.202.7-.45.7H18.45z"/></g></svg>