<svg viewBox="0 0 26 59" xmlns="http://www.w3.org/2000/svg"><g transform="translate(0 1)" fill-rule="nonzero" fill="none"><path d="M23.462 0c1.32 0 1.537.9 1.537 2v11.582c0 1.1.097 2.418-1.223 2.418H2.425c-1.32 0-1.424-.9-1.424-2V2c0-1.1.104-2 1.424-2h21.037z" fill="#fff" stroke="#037fff" stroke-width="2"/><path fill="#037fff" d="M16.859 8 22 12H5l4.349-3.04 3.139 2.051z"/><rect y="20" width="23" height="2" rx=".5" fill="#037fff"/><rect y="24" width="19.2" height="1.5" rx=".5" fill="#037fff"/><g transform="translate(0 32)"><path d="M23.462 0c1.32 0 1.537.9 1.537 2v11.582c0 1.1.097 2.418-1.223 2.418H2.425c-1.32 0-1.424-.9-1.424-2V2c0-1.1.104-2 1.424-2h21.037z" fill="#fff" stroke="#037fff" stroke-width="2"/><path fill="#037fff" d="M16.859 8 22 12H5l4.349-3.04 3.139 2.051z"/><rect y="20" width="22" height="2" rx=".5" fill="#037fff"/><rect y="24" width="19.2" height="1.5" rx=".5" fill="#037fff"/></g></g></svg>