<svg viewBox="0 0 39 78" xmlns="http://www.w3.org/2000/svg"><g transform="translate(1 2)" fill-rule="nonzero" fill="none"><path d="M33.785 0c1.9 0 2.213 1.282 2.213 2.85v16.504c0 1.568.14 3.446-1.76 3.446H3.49c-1.9 0-2.05-1.283-2.05-2.85V2.85C1.44 1.282 1.59 0 3.49 0h30.294z" fill="#fff" stroke="#037fff" stroke-width="2.5"/><path fill="#037fff" d="m24.277 12.16 7.403 6.08H7.2l6.263-4.621 4.52 3.118z"/><rect y="28.88" width="30.24" height="3.04" rx=".5" fill="#037fff"/><rect y="34.96" width="24.48" height="2.28" rx=".5" fill="#037fff"/><g transform="translate(0 45)"><path d="M16.649 0c.94 0 1.424.675 1.424 1.5v9c0 .825-.485 1.5-1.424 1.5H2.311c-.94 0-1.315-.675-1.315-1.5V1.714C.996.89 1.372 0 2.311 0h14.338z" fill="#fff" stroke="#037fff" stroke-width="2"/><path fill="#037fff" d="m11.926 5.75 3.443 3H3.985l2.912-2.28 2.102 1.538z"/><rect x="23.769" y="7" width="11.385" height="1.5" rx=".5" fill="#037fff"/><rect x="23.769" y="1.5" width="14.231" height="2.25" rx=".5" fill="#037fff"/></g><g transform="translate(0 63)"><path d="M16.649 0c.94 0 1.424.675 1.424 1.5v9c0 .825-.485 1.5-1.424 1.5H2.311c-.94 0-1.315-.675-1.315-1.5V1.714C.996.89 1.372 0 2.311 0h14.338z" fill="#fff" stroke="#037fff" stroke-width="2"/><path fill="#037fff" d="m11.926 5.75 3.443 3H3.985l2.912-2.28 2.102 1.538z"/><rect x="23.769" y="7" width="11.385" height="1.5" rx=".5" fill="#037fff"/><rect x="23.769" y="1.5" width="14.231" height="2.25" rx=".5" fill="#037fff"/></g></g></svg>