<svg width="71" height="38" xmlns="http://www.w3.org/2000/svg"><g fill-rule="nonzero" fill="none"><g transform="translate(0 1)"><path d="M23.462 0c1.32 0 1.537 1.125 1.537 2.5v14.477c0 1.375.097 3.023-1.223 3.023H2.425c-1.32 0-1.424-1.125-1.424-2.5v-15C1 1.125 1.105 0 2.425 0h21.037Z" stroke="#037fff" stroke-width="2"/><path fill="#037fff" d="M15.859 11 21 15H4l4.349-3.04 3.139 2.051z"/><rect fill="#037fff" y="25" width="10" height="2" rx="1"/><rect fill="#037fff" y="30" width="25" height="2" rx="1"/><rect fill="#037fff" y="35" width="25" height="2" rx="1"/></g><g transform="translate(35 1)"><path d="M11.231 0c.66 0 .769.45.769 1v5.791c0 .55.048 1.209-.612 1.209H.713C.053 8 0 7.55 0 7V1c0-.55.052-1 .712-1H11.23Z" stroke="#037fff" stroke-width="1.5"/><path fill="#037fff" d="M7.581 4 10 5.882H2l2.047-1.43 1.477.965z"/><rect fill="#037fff" x="16" width="8" height="2" rx="1"/><rect fill="#037fff" x="16" y="5" width="20" height="2" rx="1"/></g><g transform="translate(35 15)"><path d="M11.231 0c.66 0 .769.45.769 1v5.791c0 .55.048 1.209-.612 1.209H.713C.053 8 0 7.55 0 7V1c0-.55.052-1 .712-1H11.23Z" stroke="#037fff" stroke-width="1.5"/><path fill="#037fff" d="M7.581 4 10 5.882H2l2.047-1.43 1.477.965z"/><rect fill="#037fff" x="16" width="8" height="2" rx="1"/><rect fill="#037fff" x="16" y="5" width="20" height="2" rx="1"/></g><g transform="translate(35 29)"><path d="M11.231 0c.66 0 .769.45.769 1v5.791c0 .55.048 1.209-.612 1.209H.713C.053 8 0 7.55 0 7V1c0-.55.052-1 .712-1H11.23Z" stroke="#037fff" stroke-width="1.5"/><path fill="#037fff" d="M7.581 4 10 5.882H2l2.047-1.43 1.477.965z"/><rect fill="#037fff" x="16" width="8" height="2" rx="1"/><rect fill="#037fff" x="16" y="5" width="20" height="2" rx="1"/></g></g></svg>