<svg width="77" height="38" xmlns="http://www.w3.org/2000/svg"><g fill-rule="nonzero" fill="none"><path d="M30.75 0C32.565 0 33 .454 33 3.066v31.479C33 37.158 32.874 38 31.059 38H2.319C.504 38 0 37.158 0 34.545V3.619c0-2.613.126-3.62 1.941-3.62H30.75Z" fill="#037fff"/><rect fill="#FFF" x="6" y="28" width="22" height="2" rx="1"/><rect fill="#FFF" x="6" y="21" width="11" height="2" rx="1"/><g transform="translate(41 1)"><path d="M11.231 0c.66 0 .769.45.769 1v5.791c0 .55.048 1.209-.612 1.209H.713C.053 8 0 7.55 0 7V1c0-.55.052-1 .712-1H11.23Z" stroke="#037fff" stroke-width="1.5"/><path fill="#037fff" d="M7.581 4 10 5.882H2l2.047-1.43 1.477.965z"/><rect fill="#037fff" x="16" width="8" height="2" rx="1"/><rect fill="#037fff" x="16" y="5" width="20" height="2" rx="1"/></g><g transform="translate(41 15)"><path d="M11.231 0c.66 0 .769.45.769 1v5.791c0 .55.048 1.209-.612 1.209H.713C.053 8 0 7.55 0 7V1c0-.55.052-1 .712-1H11.23Z" stroke="#037fff" stroke-width="1.5"/><path fill="#037fff" d="M7.581 4 10 5.882H2l2.047-1.43 1.477.965z"/><rect fill="#037fff" x="16" width="8" height="2" rx="1"/><rect fill="#037fff" x="16" y="5" width="20" height="2" rx="1"/></g><g transform="translate(41 29)"><path d="M11.231 0c.66 0 .769.45.769 1v5.791c0 .55.048 1.209-.612 1.209H.713C.053 8 0 7.55 0 7V1c0-.55.052-1 .712-1H11.23Z" stroke="#037fff" stroke-width="1.5"/><path fill="#037fff" d="M7.581 4 10 5.882H2l2.047-1.43 1.477.965z"/><rect fill="#037fff" x="16" width="8" height="2" rx="1"/><rect fill="#037fff" x="16" y="5" width="20" height="2" rx="1"/></g></g></svg>