<svg xmlns="http://www.w3.org/2000/svg" width="91.556" height="86.45"><g data-name="Group 3406"><g data-name="Group 3405"><g data-name="Group 3397" transform="translate(-1343.999 -439.835)"><rect width="54.329" height="86.451" fill="#037fff" data-name="Rectangle 2681" rx="2.685" transform="translate(1362.612 439.835)"/></g><g data-name="Group 3398" transform="translate(-1343.999 -439.835)"><rect width="12.613" height="70.917" fill="#037fff" data-name="Rectangle 2682" rx="2.685" transform="translate(1422.941 447.602)"/></g><g data-name="Group 3399" transform="translate(-1343.999 -439.835)"><rect width="12.613" height="70.917" fill="#037fff" data-name="Rectangle 2683" rx="2.685" transform="translate(1343.999 447.602)"/></g><g data-name="Group 3402"><g data-name="Group 3400"><path fill="#fff" d="M31.674 47.502a1.247 1.247 0 0 1-.884-.366l-6.911-6.91 6.911-6.912a1.25 1.25 0 0 1 1.768 1.768l-5.144 5.144 5.144 5.143a1.249 1.249 0 0 1-.884 2.133Z" data-name="Path 2214"/></g><g data-name="Group 3401"><path fill="#fff" d="M59.882 47.502a1.249 1.249 0 0 1-.881-2.137l5.144-5.143-5.144-5.14a1.25 1.25 0 0 1 1.768-1.768l6.911 6.912-6.911 6.91a1.246 1.246 0 0 1-.887.366Z" data-name="Path 2215"/></g></g><g data-name="Group 3403"><path fill="#fff" d="M63.568 67.425H27.986a1.25 1.25 0 0 1 0-2.5h35.582a1.25 1.25 0 0 1 0 2.5Z" data-name="Path 2216"/></g><g data-name="Group 3404"><path fill="#fff" d="M46.901 76.625H27.984a1.25 1.25 0 0 1 0-2.5h18.917a1.25 1.25 0 0 1 0 2.5Z" data-name="Path 2217"/></g></g></g></svg>