<svg xmlns="http://www.w3.org/2000/svg" width="50" height="50" viewBox="0 0 50 50">
  <g id="Group_1988" data-name="Group 1988" transform="translate(-2348 -4479)">
    <path id="Path_317" data-name="Path 317" d="M47.089,15.811H2.911V2.911H47.089ZM48.482,0H1.518A1.518,1.518,0,0,0,0,1.518V17.2a1.518,1.518,0,0,0,1.518,1.518H48.482A1.518,1.518,0,0,0,50,17.2V1.518A1.518,1.518,0,0,0,48.482,0" transform="translate(2348 4479)" fill="#037fff"/>
    <path id="Path_318" data-name="Path 318" d="M19.878,47.089H2.911V26.054H19.878Zm1.393-23.946H1.517A1.518,1.518,0,0,0,0,24.661V48.482A1.518,1.518,0,0,0,1.517,50H21.271a1.518,1.518,0,0,0,1.518-1.518V24.661a1.518,1.518,0,0,0-1.518-1.518" transform="translate(2348 4479)" fill="#037fff"/>
    <path id="Path_319" data-name="Path 319" d="M47.089,47.089H30.122V26.054H47.089Zm1.393-23.946H28.728a1.518,1.518,0,0,0-1.517,1.518V48.482A1.518,1.518,0,0,0,28.728,50H48.482A1.518,1.518,0,0,0,50,48.482V24.661a1.518,1.518,0,0,0-1.518-1.518" transform="translate(2348 4479)" fill="#037fff"/>
  </g>
</svg>
