<svg viewBox="0 0 41 41" xmlns="http://www.w3.org/2000/svg"><g fill="none" fill-rule="evenodd"><path d="M36.629 1c2.583 0 3.37 1.95 3.37 5.625v27.273c.002.304.002.443.002.615-.007 3.728-.536 5.487-2.888 5.487H4.197c-2.586 0-3.196-1.735-3.196-5.625V6.625c0-3.89.61-5.625 3.196-5.625H36.63z" stroke="#037fff" stroke-width="2"/><g transform="translate(6 6)" fill="#037fff" fill-rule="nonzero"><rect width="7" height="7" rx="1"/><rect transform="translate(11)" width="7" height="7" rx="1"/><rect transform="translate(22)" width="7" height="7" rx="1"/></g><g transform="translate(6 17)" fill="#037fff" fill-rule="nonzero"><rect width="7" height="7" rx="1"/><rect transform="translate(11)" width="7" height="7" rx="1"/><rect transform="translate(22)" width="7" height="7" rx="1"/></g><g transform="translate(6 28)" fill="#037fff" fill-rule="nonzero"><rect width="7" height="7" rx="1"/><rect transform="translate(11)" width="7" height="7" rx="1"/><rect transform="translate(22)" width="7" height="7" rx="1"/></g></g></svg>