<svg xmlns="http://www.w3.org/2000/svg" xmlns:xlink="http://www.w3.org/1999/xlink" id="Layer_1" x="0px" y="0px" viewBox="0 0 512 512" style="enable-background:new 0 0 512 512;" xml:space="preserve"> <style type="text/css"> .st0{fill:#FFFFFF;} </style> <g> <path class="st0" d="M216.3,17.7c-12.2,0-22.7,9.1-24.4,21.1l-32,251c-0.5,3.8-2.4,7.3-5.4,9.7l-31.6,25.6l55.5,56.4l56-56 c4.4-4.4,6.8-10.2,6.8-16.3V42.4C241,28.8,230,17.7,216.3,17.7L216.3,17.7z"></path> <path class="st0" d="M175.3,421.2l-96.5-98.1l-73,56.3c-7,5.4-7.8,15.6-1.8,22l81.8,88.1c5.8,6.2,15.6,6.4,21.6,0.3L175.3,421.2z"></path> <path class="st0" d="M389.2,325.2l-31.6-25.6c-3-2.4-4.9-5.9-5.4-9.7l-32-251c-1.8-12.1-12.3-21.1-24.4-21.1 C282,17.7,271,28.8,271,42.4v266.8c0,6.2,2.4,12,6.8,16.3l56,56L389.2,325.2z"></path> <path class="st0" d="M433.2,323.1l-96.5,98.1l67.9,68.6c6,6,15.8,5.9,21.6-0.3l81.8-88.1c6-6.5,5.2-16.7-1.8-22L433.2,323.1z"></path> </g> </svg>