<svg xmlns="http://www.w3.org/2000/svg" viewBox="0 0 41.4 48"><g><path d="M7.689 34.989a3.728 3.728 0 0 0 3.717 3.717h1.24v6.2a3.1 3.1 0 1 0 6.195 0v-6.2h3.718v6.2a3.1 3.1 0 1 0 6.195 0v-6.2h1.239a3.728 3.728 0 0 0 3.718-3.717V16.4H7.689Z"/><path d="M38.3 15.529a3.1 3.1 0 0 0-3.1 3.1v12.389a3.1 3.1 0 1 0 6.2 0V18.627a3.1 3.1 0 0 0-3.1-3.1"/><path d="M3.1 15.529a3.1 3.1 0 0 0-3.1 3.1v12.389a3.1 3.1 0 1 0 6.2 0V18.627a3.1 3.1 0 0 0-3.1-3.1"/><path d="M27.742 3.979 29.414.917a.62.62 0 0 0-1.087-.594l-1.658 3.034a12.942 12.942 0 0 0-11.939 0L13.073.323a.62.62 0 0 0-1.087.594l1.672 3.062a12.989 12.989 0 0 0-5.969 10.93h26.022a12.989 12.989 0 0 0-5.969-10.93m-12.618 6.593a1.239 1.239 0 1 1 1.239-1.239 1.239 1.239 0 0 1-1.239 1.239m11.152 0a1.239 1.239 0 1 1 1.239-1.239 1.239 1.239 0 0 1-1.239 1.239"/></g></svg>