<svg xmlns="http://www.w3.org/2000/svg" viewBox="0 0 48 48"><g><path d="M24 4.1A19.9 19.9 0 1 1 4.1 24 19.767 19.767 0 0 1 24 4.1M24 0a24 24 0 1 0 16.97 7.03A24.006 24.006 0 0 0 24 0"/><path d="M31.79 36.919a1.5 1.5 0 0 1-1.28-.717 7.644 7.644 0 0 0-13.02 0 1.5 1.5 0 1 1-2.558-1.566 10.642 10.642 0 0 1 18.136 0 1.5 1.5 0 0 1-1.278 2.283"/><path d="M19.003 17.219a1.482 1.482 0 0 1-.778-.219l-4.079-2.481a1.5 1.5 0 0 1 1.558-2.563l4.079 2.482a1.5 1.5 0 0 1-.78 2.781"/><path d="M28.996 17.219a1.5 1.5 0 0 1-.78-2.781l4.079-2.482a1.5 1.5 0 0 1 1.558 2.563L29.774 17a1.482 1.482 0 0 1-.778.219"/><path d="M35.355 22.728c0 2.49-1.45 4.53-3.25 4.53s-3.28-2.04-3.28-4.53c0-2.51 1.48-4.52 3.28-4.52 1.77 0 3.25 2.01 3.25 4.52"/><path d="M19.175 22.728c0 2.49-1.48 4.53-3.28 4.53s-3.25-2.04-3.25-4.53c0-2.51 1.44-4.52 3.25-4.52s3.28 2.01 3.28 4.52"/></g></svg>