<svg xmlns="http://www.w3.org/2000/svg" viewBox="0 0 39.1 48"><g><path d="M37.851 16.352a10.875 10.875 0 0 0-5.2 9.149 10.585 10.585 0 0 0 6.445 9.71 25.175 25.175 0 0 1-3.3 6.815c-2.055 2.958-4.2 5.912-7.467 5.912s-4.107-1.9-7.876-1.9c-3.674 0-4.981 1.959-7.968 1.959s-5.071-2.737-7.468-6.1A29.422 29.422 0 0 1 0 25.997C0 16.661 6.07 11.71 12.044 11.71c3.175 0 5.821 2.084 7.814 2.084 1.9 0 4.855-2.209 8.467-2.209a11.323 11.323 0 0 1 9.523 4.764"/><path d="M29.162.78a10.4 10.4 0 0 1-9.774 10.385c-.02-.251-.03-.521-.03-.781A10.387 10.387 0 0 1 29.132-.003c.02.25.03.52.03.78"/></g></svg>