<svg xmlns="http://www.w3.org/2000/svg" viewBox="0 0 49.01 49"><g><path stroke="rgba(0,0,0,0)" stroke-miterlimit="10" d="M22.827 48.441A24 24 0 0 1 25.213.51c12.848.371 23.3 11.359 23.3 24.492a10.359 10.359 0 0 1-10.349 10.352 6.9 6.9 0 0 1-5.878-3.289 10.854 10.854 0 1 1-1.022-16.055v-.313a2.05 2.05 0 1 1 4.1 0v12.757a2.8 2.8 0 0 0 2.8 2.8 6.255 6.255 0 0 0 6.249-6.252c0-10.94-8.663-20.091-19.312-20.4a20.089 20.089 0 0 0-15 6.172 19.723 19.723 0 0 0-5.426 15.328 19.9 19.9 0 0 0 32.162 14.02 2.05 2.05 0 1 1 2.542 3.217 23.974 23.974 0 0 1-14.887 5.163q-.832 0-1.665-.061Zm-5.071-23.939a6.754 6.754 0 1 0 6.757-6.757 6.762 6.762 0 0 0-6.757 6.757Z"/></g></svg>