<svg xmlns="http://www.w3.org/2000/svg" x="0" y="0" viewBox="0 0 28.1 36.6"><path class="st0" d="M14 16.8c-7.8 0-14 6.3-14 14 0 3.9 7 5.8 14 5.8s14-1.9 14-5.8c.1-7.7-6.2-14-14-14zm0 17.3c-7.5 0-11.6-2.2-11.6-3.3 0-6.4 5.2-11.6 11.6-11.6 6.4 0 11.6 5.2 11.6 11.6 0 1.2-4.1 3.3-11.6 3.3zM9 14.5h2.6c-1.8-1-3.1-3.1-3.1-5.5 0-.5 0-.9.1-1.4.1-.6.5-1.1 1.1-1.4l1.7-1c.6-.3 1.3-.4 1.9-.2l4.9 1.7c.9.3 1.5 1.1 1.5 2V9c0 2.4-1.3 4.5-3.1 5.5h2.5c1.2 0 2.2-1 2.2-2.2v-5c0-4.3-3.8-7.8-8.2-7.2-3.7.4-6.3 3.7-6.3 7.4v4.8c0 1.2 1 2.2 2.2 2.2z"/></svg>