<svg xmlns="http://www.w3.org/2000/svg" viewBox="0 0 44.45 44.14"><g><path d="M16.72 37.679a3.232 3.232 0 1 0 3.232 3.231 3.234 3.234 0 0 0-3.232-3.231"/><path d="M33.751 37.679a3.232 3.232 0 1 0 3.232 3.231 3.234 3.234 0 0 0-3.232-3.231"/><path d="M43.4 6.841A4.557 4.557 0 0 0 39.888 5.2H9.727A6.3 6.3 0 0 0 3.567 0H2.05a2.05 2.05 0 1 0 0 4.1h1.517a2.177 2.177 0 0 1 2.14 1.844l3.2 21.424a8.818 8.818 0 0 0 8.669 7.47h19.2a2.05 2.05 0 1 0 0-4.1h-19.2a4.694 4.694 0 0 1-4.614-3.977l-.022-.145h23.628a5.817 5.817 0 0 0 5.718-4.755l2.091-11.266a4.558 4.558 0 0 0-.977-3.754m-5.145 14.271a1.715 1.715 0 0 1-1.687 1.4H12.332L10.354 9.3h29.534a.466.466 0 0 1 .458.551Z"/></g></svg>