<svg xmlns="http://www.w3.org/2000/svg" viewBox="0 0 44.46 44.14"><defs><clipPath><path d="M0 0h44.458v44.14H0z"/></clipPath></defs><g><path d="M19.95 40.91a3.23 3.23 0 1 1-3.23-3.23 3.235 3.235 0 0 1 3.23 3.23"/><path d="M36.99 40.91a3.235 3.235 0 1 1-3.24-3.23 3.237 3.237 0 0 1 3.24 3.23"/><path d="M43.4 6.84a4.568 4.568 0 0 0-3.51-1.64H9.73A6.3 6.3 0 0 0 3.57 0H2.05a2.05 2.05 0 0 0 0 4.1h1.52a2.179 2.179 0 0 1 2.14 1.84l3.2 21.43a8.826 8.826 0 0 0 8.67 7.47h19.2a2.05 2.05 0 1 0 0-4.1h-19.2a4.693 4.693 0 0 1-4.61-3.98l-.02-.14h23.62a5.819 5.819 0 0 0 5.72-4.76l2.09-11.26a4.567 4.567 0 0 0-.98-3.76m-10.96 9.79a.48.48 0 0 1-.48.48h-4.08a.48.48 0 0 0-.48.48v4.08a.48.48 0 0 1-.48.48h-2.04a.487.487 0 0 1-.48-.48v-4.08a.474.474 0 0 0-.48-.48h-4.08a.487.487 0 0 1-.48-.48v-2.04a.48.48 0 0 1 .48-.48h4.08a.48.48 0 0 0 .48-.48V9.55a.48.48 0 0 1 .48-.48h2.04a.474.474 0 0 1 .48.48v4.08a.487.487 0 0 0 .48.48h4.08a.474.474 0 0 1 .48.48Z"/></g></svg>