<svg xmlns="http://www.w3.org/2000/svg" viewBox="0 0 41.903 50"><g><path d="M41.904.999v17.31l-.453.813-1.846 1.143a3.248 3.248 0 0 0-1.546 2.766v17.817a1 1 0 0 1-1 1h-1.6a2.141 2.141 0 0 0-.366.021V11.046a3.265 3.265 0 0 0-3.255-3.255H3.888A3.883 3.883 0 0 1 1.142 1.16 3.8 3.8 0 0 1 3.888 0h37.02a1 1 0 0 1 .996.999Z"/><path d="M31.222 10.68H3.885A6.73 6.73 0 0 1 0 9.459v36.656A3.885 3.885 0 0 0 3.885 50h27.337a.978.978 0 0 0 .979-.978V11.658a.978.978 0 0 0-.979-.978Zm-12.243 34.5H6.916a1.444 1.444 0 0 1 0-2.888h12.063a1.444 1.444 0 0 1 0 2.888Zm0-6.55H6.916a1.444 1.444 0 1 1 0-2.888h12.063a1.444 1.444 0 0 1 0 2.888Z"/></g></svg>