<svg xmlns="http://www.w3.org/2000/svg" viewBox="0 0 42.76 50"><g><path d="M39.837 0H6.08A6.081 6.081 0 0 0 .001 6.081v37.841A6.085 6.085 0 0 0 6.08 50h25.051a2.927 2.927 0 0 0 2.923-2.923v-4.068a.331.331 0 0 1 .33-.331h2.006a2.926 2.926 0 0 0 2.923-2.923V23.23a.33.33 0 0 1 .155-.281l1.919-1.2a2.908 2.908 0 0 0 1.374-2.479V2.923A2.927 2.927 0 0 0 39.837 0Zm-8.376 47.077a.331.331 0 0 1-.331.331H6.08a3.49 3.49 0 0 1-3.487-3.486V11.06a6.048 6.048 0 0 0 3.487 1.1h25.051a.331.331 0 0 1 .331.331Zm8.707-27.8a.331.331 0 0 1-.156.281l-1.918 1.2a2.906 2.906 0 0 0-1.374 2.479v16.522a.331.331 0 0 1-.331.331h-2.006a2.76 2.76 0 0 0-.33.019V12.493A2.927 2.927 0 0 0 31.13 9.57H6.08a3.489 3.489 0 0 1 0-6.978h33.757a.332.332 0 0 1 .331.331Z"/><path d="M19.602 34.623h-10.8a1.3 1.3 0 1 0 0 2.592h10.8a1.3 1.3 0 0 0 0-2.592ZM19.602 40.484h-10.8a1.3 1.3 0 0 0 0 2.592h10.8a1.3 1.3 0 0 0 0-2.592Z"/></g></svg>