<svg xmlns="http://www.w3.org/2000/svg" viewBox="0 0 50 42.669"><path d="M43.86 42.669H6.141a6.146 6.146 0 0 1-6.139-6.14V13.972a6.146 6.146 0 0 1 6.139-6.139h16.146a2.578 2.578 0 0 0 1.559-.529l7.778-5.95a6.607 6.607 0 0 1 4-1.354h8.243a6.146 6.146 0 0 1 6.14 6.139v30.39a6.146 6.146 0 0 1-6.147 6.14ZM6.141 11.843a2.134 2.134 0 0 0-2.13 2.131v22.557a2.133 2.133 0 0 0 2.13 2.131h37.721a2.133 2.133 0 0 0 2.131-2.131V6.143a2.133 2.133 0 0 0-2.131-2.13h-8.243a2.583 2.583 0 0 0-1.559.528l-7.777 5.95a6.606 6.606 0 0 1-3.995 1.353Z"/></svg>