<svg xmlns="http://www.w3.org/2000/svg" viewBox="0 0 50 41.557"><g><path d="M28.107 12.77a5.549 5.549 0 0 0 3.7-1.4l5.451-4.809a3.206 3.206 0 0 1 2.124-.8h5.036v-3.9A1.853 1.853 0 0 0 42.561.005h-10.1a1.888 1.888 0 0 0-1.229.454l-5.45 4.821a6.926 6.926 0 0 1-4.6 1.737H1.852a1.864 1.864 0 0 0-1.857 1.87V33.93a1.865 1.865 0 0 0 1.857 1.87h3.714V15.98a3.216 3.216 0 0 1 3.206-3.206Z"/><path d="M48.876 8.429h-9.26l-.753.285-5.279 4.657a8.291 8.291 0 0 1-5.477 2.071H9.382a1.142 1.142 0 0 0-1.139 1.139v23.837a1.142 1.142 0 0 0 1.139 1.139h39.48a1.142 1.142 0 0 0 1.139-1.139V9.554a1.125 1.125 0 0 0-1.125-1.125Z"/></g></svg>