<svg xmlns="http://www.w3.org/2000/svg" viewBox="0 0 50.001 40.271"><g><path d="M49.354 15.089a4.21 4.21 0 0 0-3.416-1.5h-1.842v-1.774a4.741 4.741 0 0 0-4.734-4.738h-18.2a2.348 2.348 0 0 1-2.348-2.343A4.741 4.741 0 0 0 14.08-.004H4.735A4.744 4.744 0 0 0-.004 4.734v30.8a4.725 4.725 0 0 0 1.544 3.492 4.178 4.178 0 0 0 2.745 1.222c.041 0 .077.005.107.006h.092c.083 0 .164.011.249.011H39.36c2.5 0 4.894-1.614 5.452-3.676l5.065-18.7a3.157 3.157 0 0 0-.523-2.8ZM4.739 2.389h9.341a2.349 2.349 0 0 1 2.344 2.348 4.741 4.741 0 0 0 4.738 4.734h18.2a2.347 2.347 0 0 1 2.343 2.347v1.774h-30.39c-2.5 0-4.894 1.615-5.452 3.676L2.391 30.085V4.738A2.35 2.35 0 0 1 4.739 2.39ZM47.57 17.268l-5.065 18.7a3.326 3.326 0 0 1-3.068 1.908h-34.7a1.783 1.783 0 0 1-.179-.009l-.078-.006a2.319 2.319 0 0 1-1.266-.549.786.786 0 0 1-.111-.72l5.065-18.7a3.343 3.343 0 0 1 3.145-1.91h34.623a1.908 1.908 0 0 1 1.517.558.789.789 0 0 1 .117.729Z"/><path d="M36.805 25.737H14.26a.513.513 0 0 0-.495.377l-.375 1.364a.514.514 0 0 0 .495.65h22.546a.515.515 0 0 0 .495-.378l.374-1.364a.513.513 0 0 0-.495-.649Z"/></g></svg>