<svg xmlns="http://www.w3.org/2000/svg" viewBox="0 0 40.902 50"><g><path d="M39.721 9.573a3.6 3.6 0 0 1-.934-7.073 1.228 1.228 0 0 0 .934-1.177v-.11A1.208 1.208 0 0 0 38.513.004H5.974A5.968 5.968 0 0 0 .001 5.949v36.814a7.249 7.249 0 0 0 7.241 7.241h31.939a1.724 1.724 0 0 0 1.722-1.721V10.756a1.187 1.187 0 0 0-1.182-1.183ZM3.431 3.432a3.588 3.588 0 0 1 2.548-1.054h28.976a5.969 5.969 0 0 0 0 7.195H5.975a3.6 3.6 0 0 1-2.548-6.141Zm3.816 44.2a4.873 4.873 0 0 1-4.867-4.868V10.653a6.167 6.167 0 0 0 3.75 1.29h32.4v6.609H23.644a1.2 1.2 0 0 0-1.2 1.2v7.541a1.2 1.2 0 0 0 1.2 1.2h14.885v19.142Z"/><path d="M31.201 35.2H9.283a1.187 1.187 0 0 0 0 2.374h21.918a1.187 1.187 0 1 0 0-2.374ZM31.201 41.362H9.283a1.187 1.187 0 0 0 0 2.374h21.918a1.187 1.187 0 0 0 0-2.374Z"/></g></svg>