<svg xmlns="http://www.w3.org/2000/svg" viewBox="0 0 47.02 47.02"><g><path d="m26.755 4.404 3.5.939-.432 3.236-.324 2.43 1.987 1.435a12.34 12.34 0 0 1 3.091 3.091l1.435 1.987 2.43-.324 3.236-.432.939 3.5-3 1.237-2.272.937-.246 2.444a13.573 13.573 0 0 1-1.143 4.222l-1 2.238 1.5 1.944 1.989 2.582-2.565 2.565-2.583-1.989-1.944-1.5-2.238 1.006a13.632 13.632 0 0 1-4.221 1.143l-2.445.245-.936 2.272-1.237 3-3.5-.939.432-3.235.324-2.429-1.986-1.436a12.3 12.3 0 0 1-3.092-3.092l-1.436-1.986-2.429.324-3.236.431-.938-3.5 3-1.237 2.271-.936.246-2.445a13.644 13.644 0 0 1 1.143-4.222l1.005-2.238-1.5-1.943-1.989-2.583 2.564-2.565 2.583 1.989 1.944 1.5 2.238-1.005a13.613 13.613 0 0 1 4.222-1.144l2.444-.245.936-2.271Zm-.928-4.4a2.529 2.529 0 0 0-2.337 1.565l-1.763 4.278a17.735 17.735 0 0 0-5.492 1.483l-3.677-2.832a2.527 2.527 0 0 0-3.33.216L4.71 9.231a2.528 2.528 0 0 0-.215 3.33l2.831 3.677a17.765 17.765 0 0 0-1.483 5.492l-4.277 1.764a2.527 2.527 0 0 0-1.479 2.991l1.654 6.171a2.53 2.53 0 0 0 2.776 1.852l4.6-.614a16.438 16.438 0 0 0 4.013 4.013l-.614 4.6a2.527 2.527 0 0 0 1.852 2.776l6.17 1.654a2.56 2.56 0 0 0 .656.086 2.528 2.528 0 0 0 2.336-1.565l1.763-4.278a17.732 17.732 0 0 0 5.493-1.482l3.676 2.831a2.53 2.53 0 0 0 3.331-.215l4.517-4.518a2.528 2.528 0 0 0 .216-3.33l-2.832-3.677a17.738 17.738 0 0 0 1.483-5.492l4.278-1.763a2.529 2.529 0 0 0 1.478-2.992l-1.653-6.171a2.528 2.528 0 0 0-2.44-1.874 2.562 2.562 0 0 0-.337.022l-4.6.615a16.347 16.347 0 0 0-4.013-4.013l.614-4.6a2.528 2.528 0 0 0-1.851-2.776L26.482.092a2.506 2.506 0 0 0-.655-.087"/><path d="M23.513 19.631a3.877 3.877 0 1 1-2.742 1.136 3.851 3.851 0 0 1 2.742-1.136m0-4.1a7.977 7.977 0 1 0 5.641 2.337 7.952 7.952 0 0 0-5.641-2.337"/></g></svg>