<svg xmlns="http://www.w3.org/2000/svg" viewBox="0 0 48 48"><path d="m47.916 20.964-1.7-6.3a2.568 2.568 0 0 0-2.828-1.889l-4.706.623a19.016 19.016 0 0 0-1.868-2.225 18.136 18.136 0 0 0-2.225-1.868l.622-4.7a2.579 2.579 0 0 0-1.888-2.838l-6.3-1.684a2.569 2.569 0 0 0-3.052 1.511l-1.8 4.358a18.146 18.146 0 0 0-5.614 1.521L12.81 4.585a2.57 2.57 0 0 0-3.4.214L4.796 9.413a2.584 2.584 0 0 0-.225 3.4l2.889 3.756a18.282 18.282 0 0 0-1.511 5.6l-4.369 1.8a2.58 2.58 0 0 0-1.5 3.052l1.685 6.3a2.578 2.578 0 0 0 2.838 1.888l4.7-.622a16.716 16.716 0 0 0 4.093 4.093l-.623 4.706a2.561 2.561 0 0 0 1.889 2.827l6.3 1.695a2.58 2.58 0 0 0 3.052-1.511l1.807-4.369a18.124 18.124 0 0 0 5.6-1.511l3.747 2.889a2.6 2.6 0 0 0 3.409-.224l4.6-4.6a2.585 2.585 0 0 0 .225-3.4l-2.889-3.757a18.143 18.143 0 0 0 1.511-5.6l4.369-1.806a2.591 2.591 0 0 0 1.511-3.052m-17.622 9.327a8.9 8.9 0 1 1 0-12.592 8.895 8.895 0 0 1 0 12.592"/></svg>