<svg xmlns="http://www.w3.org/2000/svg" x="0" y="0" viewBox="0 0 61.9 50.1"><path class="st0" d="M61.9 15.6C61.9 7 54.8 0 46.2 0H27.5c-8.6 0-15.6 7-15.6 15.6v4.2C5.3 20.3 0 25.8 0 32.5v17.6h27.4c7 0 12.6-5.6 12.7-12.6h21.7V15.6zM27.4 47.4H2.7V32.5c0-5.2 4.1-9.5 9.2-9.9.4 8.3 7.2 15 15.6 15h9.8c0 5.4-4.4 9.8-9.9 9.8zm31.7-12.6H27.5c-7.1 0-12.9-5.8-12.9-12.9v-6.3c0-7.1 5.8-12.9 12.9-12.9h18.7c7.1 0 12.9 5.8 12.9 12.9v19.2z"/><path class="st0" d="M42.9 24.5H24.6c-.8 0-1.4.6-1.4 1.4 0 .8.6 1.4 1.4 1.4h18.3c.8 0 1.4-.6 1.4-1.4 0-.8-.6-1.4-1.4-1.4zM49.2 17.4H24.6c-.8 0-1.4.6-1.4 1.4 0 .8.6 1.4 1.4 1.4h24.6c.8 0 1.4-.6 1.4-1.4-.1-.8-.7-1.4-1.4-1.4zM49.2 10.3H24.6c-.8 0-1.4.6-1.4 1.4 0 .8.6 1.4 1.4 1.4h24.6c.8 0 1.4-.6 1.4-1.4-.1-.8-.7-1.4-1.4-1.4z"/></svg>