<svg xmlns="http://www.w3.org/2000/svg" viewBox="0 0 49.2 38"><path d="M30.7 0C24 0 17.9 3.2 14.6 8.3h-.5C6.3 8.2 0 13.9 0 20.8c0 3.7 1.8 7.2 4.9 9.5v6.9l7.2-4c.7.1 1.4.1 2 .1 2.9 0 5.7-.8 8-2.2 2.6 1.2 5.6 1.9 8.6 1.9 1 0 1.9-.1 2.8-.2l9.1 5.1v-8.8c4.2-3.1 6.6-7.7 6.6-12.7 0-9-8.3-16.4-18.5-16.4zM12 30.4l-.5-.1-3.8 2.1v-3.6l-.6-.4c-2.7-1.9-4.3-4.6-4.3-7.6 0-5.1 4.5-9.3 10.3-9.7-.7 1.7-1 3.5-1 5.4 0 5.1 2.7 9.9 7.1 13-2.2 1-4.5 1.3-7.2.9zm28.4-3.1-.6.4v5.4L34 29.9l-.5.1c-.9.2-1.8.2-2.8.2-2.8 0-5.6-.7-8.1-1.9-4.8-2.5-7.7-6.9-7.7-11.8 0-2.1.6-4.2 1.6-6.1 2.7-4.7 8.1-7.6 14.1-7.6 8.7 0 15.7 6.1 15.7 13.7.1 4.3-2.1 8.2-5.9 10.8z"/></svg>