<svg xmlns="http://www.w3.org/2000/svg" x="0" y="0" viewBox="0 0 49.2 50.2"><path class="st0" d="M24.6 0C11 0 0 9.8 0 21.9c0 6.6 3.2 12.7 8.8 16.8v11.5l12-6.7c1.3.2 2.5.3 3.8.3 13.6 0 24.6-9.8 24.6-21.9S38.2 0 24.6 0zm0 40.5c-1.3 0-2.6-.1-3.8-.3l-.6-.2-8 4.4V37l-.7-.5C6.3 33 3.4 27.7 3.4 21.9c0-10.2 9.5-18.5 21.2-18.5s21.2 8.3 21.2 18.5-9.5 18.6-21.2 18.6z"/><path class="st0" d="M33.8 15.9H15.4c-.9 0-1.7.8-1.7 1.7s.8 1.7 1.7 1.7h18.5c.9 0 1.7-.8 1.7-1.7s-.8-1.7-1.8-1.7zM29.6 24.5h-10c-.9 0-1.7.8-1.7 1.7s.8 1.7 1.7 1.7h10.1c.9 0 1.7-.8 1.7-1.7s-.8-1.7-1.8-1.7z"/></svg>