<svg xmlns="http://www.w3.org/2000/svg" x="0" y="0" viewBox="0 0 61.9 54.7"><path class="st0" d="M49.8 0H12.1C5.4 0 0 5.4 0 12.1v19.7c0 6.6 5.4 12.1 12.1 12.1h5.8v8.7c0 .9.5 1.7 1.3 2.1.3.2.7.2 1 .2.5 0 1-.2 1.4-.5L34.8 44h15.1C56.5 44 62 38.6 62 31.9V12.1C61.9 5.4 56.4 0 49.8 0zm8 31.7c0 4.4-3.6 8-8 8H33.3l-11.3 9v-9h-9.9c-4.4 0-8-3.6-8-8V12.1c0-4.4 3.6-8 8-8h37.7c4.4 0 8 3.6 8 8v19.6z"/><circle class="st0" cx="17.2" cy="21.9" r="4"/><circle class="st0" cx="30.9" cy="21.9" r="4"/><circle class="st0" cx="44.6" cy="21.9" r="4"/></svg>