<svg xmlns="http://www.w3.org/2000/svg" x="0" y="0" viewBox="0 0 77.5 56"><path class="st0" d="M51.2 0H26.3C11.8 0 0 11.8 0 26.3V56h51.2c14.5 0 26.3-11.8 26.3-26.3v-3.4C77.5 11.8 65.7 0 51.2 0zm21.9 29.7c0 12.1-9.8 21.9-21.9 21.9H4.4V26.3c0-12.1 9.8-21.9 21.9-21.9h24.9c12.1 0 21.9 9.8 21.9 21.9v3.4z"/><path class="st0" d="M58.1 15.2H19.4c-1.2 0-2.2 1-2.2 2.2 0 1.2 1 2.2 2.2 2.2H58c1.2 0 2.2-1 2.2-2.2.1-1.2-.9-2.2-2.1-2.2zM58.1 25.8H19.4c-1.2 0-2.2 1-2.2 2.2 0 1.2 1 2.2 2.2 2.2H58c1.2 0 2.2-1 2.2-2.2.1-1.2-.9-2.2-2.1-2.2zM58.1 36.4H19.4c-1.2 0-2.2 1-2.2 2.2s1 2.2 2.2 2.2H58c1.2 0 2.2-1 2.2-2.2s-.9-2.2-2.1-2.2z"/></svg>