<svg xmlns="http://www.w3.org/2000/svg" viewBox="0 0 48 48"><g><path d="M24 4.1A19.9 19.9 0 1 1 4.1 24 19.767 19.767 0 0 1 24 4.1M24 0a24 24 0 1 0 16.97 7.03A24.006 24.006 0 0 0 24 0"/><path d="M19.633 37.082a1.5 1.5 0 0 1-1.418-1.983 12.827 12.827 0 0 1 6.2-6.838c3.287-1.57 7.2-1.546 11.637.069a1.5 1.5 0 0 1-1.027 2.818c-3.633-1.323-6.756-1.388-9.283-.2a9.923 9.923 0 0 0-4.694 5.125 1.506 1.506 0 0 1-1.418 1.005"/><path d="M35.355 17.11c0 2.49-1.45 4.53-3.25 4.53s-3.28-2.04-3.28-4.53c0-2.51 1.48-4.52 3.28-4.52 1.77 0 3.25 2.01 3.25 4.52"/><path d="M19.175 17.11c0 2.49-1.48 4.53-3.28 4.53s-3.25-2.04-3.25-4.53c0-2.51 1.44-4.52 3.25-4.52s3.28 2.01 3.28 4.52"/></g></svg>