<svg xmlns="http://www.w3.org/2000/svg" viewBox="0 0 48 48"><path d="M40.97 7.03A24 24 0 1 0 48 24a23.934 23.934 0 0 0-7.03-16.97m-8.85 4.4c1.78 0 3.25 2.01 3.25 4.52 0 2.49-1.44 4.53-3.25 4.53s-3.28-2.04-3.28-4.53c0-2.51 1.48-4.52 3.28-4.52m-16.21 9.05c-1.8 0-3.25-2.04-3.25-4.53 0-2.51 1.45-4.52 3.25-4.52s3.28 2.01 3.28 4.52c0 2.49-1.48 4.53-3.28 4.53m21.17 9.84a1.658 1.658 0 0 1-2.09.98c-3.6-1.32-6.68-1.39-9.17-.22a9.783 9.783 0 0 0-4.62 5.04 1.659 1.659 0 0 1-1.55 1.11 1.3 1.3 0 0 1-.56-.11 1.562 1.562 0 0 1-.9-.78 1.713 1.713 0 0 1-.1-1.26 13.126 13.126 0 0 1 6.29-6.93c3.3-1.59 7.25-1.57 11.73.07a1.564 1.564 0 0 1 .92.83 1.6 1.6 0 0 1 .05 1.27"/></svg>