<svg xmlns="http://www.w3.org/2000/svg" x="0" y="0" viewBox="0 0 94.9 89.8"><path class="st0" d="M85.2 8.9H73.6V3.2c0-1.8-1.4-3.2-3.2-3.2-1.8 0-3.2 1.4-3.2 3.2v5.7H27.7V3.2c0-1.8-1.4-3.2-3.2-3.2s-3.2 1.4-3.2 3.2v5.7H9.7C4.3 8.9 0 13.3 0 18.6V80c0 5.4 4.3 9.7 9.7 9.7h75.5c5.4 0 9.7-4.4 9.7-9.7V18.6c0-5.3-4.4-9.7-9.7-9.7zm0 74.5H9.7c-1.8 0-3.3-1.5-3.3-3.3V30.4h82.1V80c0 1.9-1.5 3.4-3.3 3.4z"/><path class="st0" d="M16 40.4h8.5v8.5H16zM43.2 40.4h8.5v8.5h-8.5zM70.4 40.4h8.5v8.5h-8.5zM16 65.1h8.5v8.5H16zM43.2 65.1h8.5v8.5h-8.5zM70.4 65.1h8.5v8.5h-8.5z"/></svg>