<svg xmlns="http://www.w3.org/2000/svg" x="0" y="0" viewBox="0 0 94.9 88.7"><path class="st0" d="M84.5 7.9H71.8V3.2c0-1.8-1.5-3.2-3.2-3.2s-3.2 1.5-3.2 3.2v4.7H50.7V3.2c0-1.8-1.5-3.2-3.2-3.2-1.8 0-3.2 1.5-3.2 3.2v4.7H29.6V3.2c0-1.8-1.5-3.2-3.2-3.2s-3.2 1.5-3.2 3.2v4.7H10.4C4.7 7.9 0 12.6 0 18.3v60C0 84 4.7 88.7 10.4 88.7h74.1c5.7 0 10.4-4.7 10.4-10.4v-60c0-5.7-4.7-10.4-10.4-10.4zm3.9 70.4c0 2.1-1.7 3.9-3.9 3.9H10.4c-2.1 0-3.9-1.7-3.9-3.9v-60c0-2.1 1.7-3.9 3.9-3.9h12.8V20c0 1.8 1.5 3.2 3.2 3.2s3.2-1.5 3.2-3.2v-5.6h14.6V20c0 1.8 1.5 3.2 3.2 3.2 1.8 0 3.2-1.5 3.2-3.2v-5.6h14.6V20c0 1.8 1.5 3.2 3.2 3.2s3.2-1.5 3.2-3.2v-5.6h12.8c2.1 0 3.9 1.7 3.9 3.9v60z"/><circle class="st0" cx="26.4" cy="36.8" r="3.6"/><path class="st0" d="M47.4 33.2c-2 0-3.6 1.6-3.6 3.6s1.6 3.6 3.6 3.6 3.6-1.6 3.6-3.6-1.6-3.6-3.6-3.6z"/><circle class="st0" cx="68.5" cy="36.8" r="3.6"/><circle class="st0" cx="26.4" cy="51.9" r="3.6"/><path class="st0" d="M47.4 48.3c-2 0-3.6 1.6-3.6 3.6s1.6 3.6 3.6 3.6 3.6-1.6 3.6-3.6-1.6-3.6-3.6-3.6z"/><circle class="st0" cx="68.5" cy="51.9" r="3.6"/><circle class="st0" cx="26.4" cy="67" r="3.6"/><path class="st0" d="M47.4 63.4c-2 0-3.6 1.6-3.6 3.6s1.6 3.6 3.6 3.6S51 69 51 67s-1.6-3.6-3.6-3.6z"/><circle class="st0" cx="68.5" cy="67" r="3.6"/></svg>