<svg xmlns="http://www.w3.org/2000/svg" viewBox="0 0 84.8 79.3"><path d="M75.6 7.1H64.1V2.9c0-1.6-1.3-2.9-2.9-2.9-1.6 0-2.9 1.3-2.9 2.9v4.2H26.4V2.9c0-1.6-1.3-2.9-2.9-2.9s-2.9 1.3-2.9 2.9v4.2H9.2C4.1 7.1 0 11.2 0 16.2v53.9c0 5.1 4.1 9.2 9.2 9.2h66.4c5.1 0 9.2-4.1 9.2-9.2V16.2c0-5-4.1-9.1-9.2-9.1zM9.2 12.8h11.5v5c0 1.6 1.3 2.9 2.9 2.9s2.9-1.3 2.9-2.9v-5h31.9v5c0 1.6 1.3 2.9 2.9 2.9 1.6 0 2.9-1.3 2.9-2.9v-5h11.5c1.9 0 3.4 1.5 3.4 3.4v9.5H5.7v-9.5c0-1.8 1.6-3.4 3.5-3.4zm66.4 60.7H9.2c-1.9 0-3.4-1.5-3.4-3.4V31.5h73.3v38.6c0 1.9-1.6 3.4-3.5 3.4z"/></svg>