<svg xmlns="http://www.w3.org/2000/svg" x="0" y="0" viewBox="0 0 92.8 84"><path class="st0" d="M87.2 6.7h-5.9V2.4c0-1.3-1.1-2.4-2.4-2.4-1.3 0-2.4 1.1-2.4 2.4v4.3H64.1V2.4C64.1 1.1 63 0 61.6 0s-2.4 1.1-2.4 2.4v4.3H46.8V2.4c0-1.3-1.1-2.4-2.4-2.4S42 1.1 42 2.4v4.3h-6c-2.7 0-5.3 1.5-6.7 3.9l-28 48.9C-.2 62.2-.4 64.8.9 67c1.3 2.3 4.1 3.6 7.7 3.6h21.9v1.5c0 2.5.8 4.9 2.2 6.9 2.2 3.1 5.8 5 9.7 5H81c6.5 0 11.8-5.3 11.8-11.8V12.3c0-3-2.5-5.6-5.6-5.6zM5.1 64.6c-.4-.6-.2-1.5.4-2.6l28-48.9c.5-.9 1.4-1.4 2.4-1.4h49c.3 0 .5.2.6.3.1.2.2.4 0 .7L58.7 59.6c-1.9 3.4-7.2 6.2-11.6 6.2H8.5c-1.7 0-3-.5-3.4-1.2zM81 79.1H42.3c-2.3 0-4.4-1.1-5.7-2.9-.8-1.2-1.3-2.6-1.3-4v-1.5h11.8c6.1 0 13-3.8 15.8-8.7l25-43.6v53.8c0 3.8-3.1 6.9-6.9 6.9z"/><path class="st0" d="M41.8 23.8h-6.7l-3 5.3h6.7zM56.6 23.8H50l-3.1 5.3h6.7zM71.4 23.8h-6.6l-3 5.3h6.6zM28.1 36.1l-3 5.3h6.6l3-5.3zM46.5 41.4l3.1-5.3h-6.7l-3 5.3zM61.4 41.4l3-5.3h-6.7l-3 5.3zM18 53.7h6.7l3-5.3H21zM42.5 48.4h-6.6l-3.1 5.3h6.7zM47.7 53.7h6.6l3.1-5.3h-6.7z"/></svg>