<svg xmlns="http://www.w3.org/2000/svg" viewBox="0 0 48 41.6"><g><path d="M30.777 0a17.252 17.252 0 0 0-15.969 10.734 12.026 12.026 0 1 0-5.2 23.479 2.084 2.084 0 0 0 .413.042 2.051 2.051 0 0 0 .409-4.06 7.924 7.924 0 0 1 1.6-15.686 7.84 7.84 0 0 1 3.231.691l2.2.986.617-2.333a13.132 13.132 0 0 1 25.821 3.372 12.993 12.993 0 0 1-4.169 9.6 2.052 2.052 0 0 0 2.8 3A17.229 17.229 0 0 0 30.779.002"/><path d="M34.188 29.466h-5.18V15.578a1.164 1.164 0 0 0-1.164-1.164h-3.94a1.164 1.164 0 0 0-1.164 1.164v13.888h-5.18a1.164 1.164 0 0 0-.888 1.917l8.314 9.8a1.164 1.164 0 0 0 1.775 0l8.315-9.8a1.164 1.164 0 0 0-.888-1.917"/></g></svg>