<svg xmlns="http://www.w3.org/2000/svg" viewBox="0 0 48 35.9"><g><path d="M24.001 4.1c6.315 0 12.993 4.6 19.847 13.684a.3.3 0 0 1 0 .337c-6.854 9.08-13.532 13.683-19.847 13.683s-12.993-4.6-19.847-13.683a.3.3 0 0 1 0-.337C11.008 8.704 17.686 4.1 24.001 4.1m0-4.1Q12.44 0 .881 15.313a4.395 4.395 0 0 0 0 5.278q11.559 15.312 23.12 15.313T47.12 20.591a4.393 4.393 0 0 0 0-5.277Q35.561.001 24.001 0"/><path d="M24.001 13.284a4.669 4.669 0 1 1-4.669 4.669 4.674 4.674 0 0 1 4.669-4.669m0-4.1a8.769 8.769 0 1 0 8.769 8.769 8.769 8.769 0 0 0-8.769-8.769"/></g></svg>