<svg xmlns="http://www.w3.org/2000/svg" viewBox="0 0 49.24 41"><g><path stroke="rgba(0,0,0,0)" stroke-miterlimit="10" d="m41.124 39.9-5.14-5.14a20.7 20.7 0 0 1-11.36 3.69q-11.565 0-23.12-15.311a4.409 4.409 0 0 1 0-5.279 56.335 56.335 0 0 1 8.44-9.14L5.224 4a2.051 2.051 0 0 1 2.9-2.9l35.9 35.9a2.05 2.05 0 0 1-2.9 2.9ZM4.771 20.33a.3.3 0 0 0 0 .34c6.861 9.08 13.531 13.68 19.853 13.68a16.26 16.26 0 0 0 8.38-2.57l-3.8-3.8a8.771 8.771 0 0 1-13.353-7.48 8.584 8.584 0 0 1 1.3-4.57l-4.3-4.3a51.722 51.722 0 0 0-8.08 8.7Zm15.18.17a4.675 4.675 0 0 0 4.673 4.67 4.743 4.743 0 0 0 1.52-.25l-5.93-5.93a4.437 4.437 0 0 0-.262 1.51Zm19.46 6.09a60.236 60.236 0 0 0 5.06-5.92.3.3 0 0 0 0-.34c-6.86-9.08-13.53-13.68-19.847-13.68a14.119 14.119 0 0 0-4.42.73l-3.18-3.18a18.991 18.991 0 0 1 7.6-1.65q11.565 0 23.12 15.31a4.409 4.409 0 0 1 0 5.279 62.616 62.616 0 0 1-5.431 6.35Z"/></g></svg>