<svg xmlns="http://www.w3.org/2000/svg" viewBox="0 0 42 42"><path d="m21.002 4.511 16.9 13.6V37.9h-9.05V22.61a4.215 4.215 0 0 0-4.21-4.21h-7.28a4.215 4.215 0 0 0-4.21 4.21V37.9h-9.05V18.111Zm0-4.511a2.647 2.647 0 0 0-1.663.586L.992 15.352a2.65 2.65 0 0 0-.99 2.068v21.93a2.652 2.652 0 0 0 2.652 2.652h11.948a2.652 2.652 0 0 0 2.652-2.652V22.61a.11.11 0 0 1 .11-.11h7.28a.11.11 0 0 1 .11.11v16.738A2.652 2.652 0 0 0 27.406 42h11.946a2.652 2.652 0 0 0 2.652-2.652V17.42a2.653 2.653 0 0 0-.989-2.066L22.667.588a2.645 2.645 0 0 0-1.663-.586"/></svg>