<svg xmlns="http://www.w3.org/2000/svg" viewBox="0 0 42 42"><path d="M37.53 0H4.47A4.468 4.468 0 0 0 0 4.47v33.06A4.468 4.468 0 0 0 4.47 42h33.06A4.468 4.468 0 0 0 42 37.53V4.47A4.468 4.468 0 0 0 37.53 0M12.49 35.12c0 .51-.09.59-.59.59H6.87c-.5 0-.59-.17-.59-.59V16.43c0-.5.09-.67.67-.67h5.03c.42 0 .59.08.59.59-.08 6.28-.08 12.49-.08 18.77m-3.1-22.04a3.583 3.583 0 0 1-3.61-3.61 3.626 3.626 0 0 1 3.61-3.6 3.572 3.572 0 0 1 3.6 3.6 3.692 3.692 0 0 1-3.6 3.61m25.65 22.63h-4.78c-.5 0-.75-.08-.75-.67v-9.3a13.485 13.485 0 0 0-.26-2.6 2.664 2.664 0 0 0-2.43-2.35 3.264 3.264 0 0 0-3.69 1.68 6.537 6.537 0 0 0-.58 2.51v9.98c0 .67-.17.84-.84.75-1.59-.08-3.19 0-4.78 0-.42 0-.59-.17-.59-.59V16.35c0-.42.09-.59.51-.59h4.86c.42 0 .5.17.5.5v2.1a7.617 7.617 0 0 1 3.69-2.77 8.813 8.813 0 0 1 6.2.51 5.948 5.948 0 0 1 3.11 4.44 20.4 20.4 0 0 1 .42 3.94v10.56c.08.59-.09.67-.59.67"/></svg>