<svg xmlns="http://www.w3.org/2000/svg" viewBox="0 0 50 50"><path d="M25.034 7.11h21.1c.6 0 1.2.1 1.7.3.4.2.5.3.1.6-1.9 1.8-3.8 3.6-5.8 5.4l-14.9 14.1c-1.1 1.3-2.9 1.4-4.2.4l-.4-.4-20.5-19.5c-.5-.4-.5-.4.2-.7.5-.1.9-.2 1.4-.2h21.3z"/><path d="M48.134 42.41c-.6.3-1.2.5-1.9.4h-42.4c-.6 0-1.1-.1-1.6-.3-.4-.2-.4-.3-.1-.6l5.1-4.8c3.5-3.3 7-6.6 10.5-10 .3-.3.5-.3.8 0 1.3 1.3 2.6 2.5 4 3.8 1.3 1.5 3.6 1.6 5 .2.1-.1.2-.1.2-.2 1.3-1.3 2.7-2.5 4-3.8.2-.2.3-.2.6 0 5.2 5 10.5 10 15.8 15-.1.2 0 .2 0 .3zM.234 9.71c1.8 2.1 3.8 3.8 5.8 5.7 3.2 3.1 6.5 6.2 9.7 9.3.3.3.3.5 0 .7-4.8 4.5-9.6 9.1-14.4 13.7-.5.4-.8.9-1.1 1.4-.3-1.1-.3-30 0-30.8zM49.934 9.71c.1 10.2.1 20.4 0 30.6-.9-1-1.8-2-2.9-2.8-4.2-4-8.5-8.1-12.7-12.1-.3-.3-.3-.5 0-.8 4.8-4.6 9.6-9.1 14.4-13.7.4-.3.8-.8 1.2-1.2z"/></svg>