<svg xmlns="http://www.w3.org/2000/svg" viewBox="0 0 45.9 46"><path d="M45.878 21.53a22.829 22.829 0 0 0-11.4-18.668A24.873 24.873 0 0 0 29.601.83c-8-2.207-17.84 0-23.634 6.161a22.752 22.752 0 0 0-3.4 25.841 18.3 18.3 0 0 0 3.954 5.242A3.676 3.676 0 0 1 7.9 40.833c0 1.287-.368 3.678.736 4.69 1.1 1.1 3.035 0 4.23-.552a7.059 7.059 0 0 1 5.426-.828 25.827 25.827 0 0 0 7.541.276 22.567 22.567 0 0 0 17.38-11.4 21.2 21.2 0 0 0 2.667-11.5m-14.1 2.964ZM30.632 26.155a6.715 6.715 0 0 1-1.584 2.2 3.2 3.2 0 0 1-4.137.088c-1.672-1.232-3.344-2.464-5.016-3.784a1.454 1.454 0 0 0-1.761 0c-2.288 1.76-4.576 3.432-6.864 5.192a1.048 1.048 0 0 1-1.5-1.408c1.849-2.9 3.7-5.9 5.545-8.8.264-.44.616-.88.88-1.408a3.172 3.172 0 0 1 2.817-1.584 3.526 3.526 0 0 1 2.024.7c1.584.968 3.08 2.376 4.664 3.52l.792.528c.969.352 2.025-.792 2.729-1.32 1.232-.968 2.464-1.848 3.7-2.816.616-.44 1.144-.88 1.76-1.32a1.08 1.08 0 0 1 1.409.088.966.966 0 0 1 .176 1.32Z"/></svg>