<svg xmlns="http://www.w3.org/2000/svg" viewBox="0 0 48 48"><path d="M48.004 23.995a24 24 0 0 1-24 24.005 23.735 23.735 0 0 1-10.948-2.65h.086a15.084 15.084 0 0 0 4.8-6.914 35.685 35.685 0 0 0 1.729-7.009v-.192c.1-.384.192-.384.48-.192.1 0 .1.1.192.1a7.385 7.385 0 0 0 4.322 2.112 11.879 11.879 0 0 0 7.491-.96 16.739 16.739 0 0 0 4.513-3.649 11.277 11.277 0 0 0 1-1.354 17.413 17.413 0 0 0 2.574-7.278 16.381 16.381 0 0 0-1.1-8.555 13.1 13.1 0 0 0-4.774-5.569 17.523 17.523 0 0 0-8.067-2.977A20.935 20.935 0 0 0 15.45 4.065a15.91 15.91 0 0 0-9.028 8.258 11.865 11.865 0 0 0-.288 9.89 8.5 8.5 0 0 0 5.859 4.993c.288.1.384 0 .384-.288.192-1.056.384-2.112.576-3.073 0-.192 0-.384-.192-.48a8.869 8.869 0 0 1-1.825-2.688 6.966 6.966 0 0 1 .1-5.377 12.226 12.226 0 0 1 7.875-7.778 14.92 14.92 0 0 1 7.4-.672c5.475.912 7.914 6.625 7.559 11.685a15.147 15.147 0 0 1-2.757 7.423 7.589 7.589 0 0 1-4.129 2.976 5.108 5.108 0 0 1-4.226-.768 2.864 2.864 0 0 1-1.153-2.3 9.668 9.668 0 0 1 .769-3.745c.48-1.44 1.056-2.785 1.44-4.225a10.787 10.787 0 0 0 .384-3.072 3.408 3.408 0 0 0-4.206-2.977 5.336 5.336 0 0 0-2.641 1.364c-1.892 1.785-2.4 5.175-1.6 7.566a7.772 7.772 0 0 1-.1 4.9c-.864 2.976-1.825 6.049-2.5 9.122a28.284 28.284 0 0 0-.672 7.489 8.268 8.268 0 0 0 .576 3.063 24 24 0 1 1 34.949-21.356"/></svg>