<svg xmlns="http://www.w3.org/2000/svg" x="0" y="0" viewBox="0 0 18.1 30"><path class="st0" d="M12.1 15.9c-.3-.6-.3-1.3 0-1.8l5.6-9.7c.5-.9.5-2 0-2.9-.5-1-1.5-1.5-2.5-1.5H2.9C1.8 0 .9.5.4 1.5c-.5.9-.5 2 0 2.9L6 14.1c.3.6.3 1.3 0 1.8L.4 25.6c-.5.9-.5 2 0 2.9.5.9 1.5 1.5 2.5 1.5h12.2c1.1 0 2-.5 2.5-1.5.5-.9.5-2 0-2.9l-5.5-9.7zM16.7 28c-.3.6-.9.9-1.6.9H2.9c-.7 0-1.3-.3-1.6-.9-.3-.6-.3-1.3 0-1.8l5.6-9.7c.5-.9.5-2 0-2.9L1.4 3.9C1 3.3 1 2.6 1.4 2c.3-.6.9-.9 1.6-.9h12.2c.7 0 1.3.3 1.6.9s.3 1.3 0 1.8l-5.6 9.7c-.5.9-.5 2 0 2.9l5.6 9.7c.3.6.3 1.3-.1 1.9z"/><path class="st0" d="M15 25.2c-.3-.5-.8-.8-1.4-.8h-3.1c-.4 0-.8-.3-.8-.8V15c0-.7.2-1.4.5-2l2.5-4.4c.3-.5-.1-1.1-.7-1.1H6c-.6 0-.9.6-.7 1.1L7.9 13c.4.6.5 1.3.5 2v8.7c0 .4-.3.8-.8.8h-3c-.6 0-1.1.3-1.4.8l-.8 1.5c-.2.3-.1.6 0 .7.1.1.3.4.6.4h12.2c.4 0 .6-.2.6-.4.1-.1.2-.4 0-.7l-.8-1.6z"/></svg>