<svg xmlns="http://www.w3.org/2000/svg" x="0" y="0" viewBox="0 0 33.7 33.6"><path class="st0" d="M4.8 22.3h12.1v2H4.8zM4.8 27.2h9.7v2H4.8z"/><path class="st0" d="M33.7 11.3C33.7 5.1 28.6 0 22.4 0c-6.2 0-11.3 5.1-11.3 11.3 0 1.2.2 2.4.6 3.6H9.4C4.2 14.9 0 19 0 24.2v9.4h17.9c2.5 0 4.8-1 6.6-2.7 1.8-1.8 2.7-4.1 2.7-6.6 0-.9-.1-1.7-.4-2.6 4.1-1.8 6.9-5.8 6.9-10.4zm-8.4 12.9c0 2-.8 3.8-2.2 5.2-1.4 1.4-3.2 2.2-5.2 2.2H2v-7.4c0-4.1 3.3-7.4 7.4-7.4h3.2c1.9 3.4 5.6 5.7 9.8 5.7.9 0 1.8-.1 2.6-.3.2.7.3 1.3.3 2zm-2.9-3.6c-5.1 0-9.3-4.2-9.3-9.3S17.3 2 22.4 2s9.3 4.2 9.3 9.3-4.2 9.3-9.3 9.3z"/><path class="st0" d="M23.4 5.8h-2v5.9l3.9 3.9 1.4-1.4-3.3-3.3z"/></svg>