<svg xmlns="http://www.w3.org/2000/svg" x="0" y="0" viewBox="0 0 28.5 31.3"><path class="st0" d="M22 17.9c-.4 0-.8.3-.8.8v4.9H5.3V7.2h4.5c.4 0 .8-.3.8-.8s-.3-.8-.8-.8h-6C1.7 5.7 0 7.4 0 9.6v17.9c0 1 .4 2 1.1 2.7.7.7 1.7 1.1 2.7 1.1H22c.4 0 .8-.3.8-.8s-.3-.8-.8-.8H3.8c-.6 0-1.2-.2-1.7-.7-.4-.4-.7-1-.7-1.7 0-.6.2-1.2.7-1.7.4-.4 1-.7 1.7-.7h18.8v-6.4c.1-.2-.2-.6-.6-.6zM1.5 24.4V9.6c0-1.3 1-2.3 2.3-2.3v16.4c-.8-.1-1.6.2-2.3.7z"/><path class="st0" d="M3.6 26.7c-.4 0-.8.3-.8.8s.3.8.8.8H22c.4 0 .8-.3.8-.8s-.3-.8-.8-.8H3.6zM19.9 0c-4.8 0-8.7 3.9-8.7 8.7s3.9 8.7 8.7 8.7 8.7-3.9 8.7-8.7-4-8.7-8.7-8.7zm0 15.9c-4 0-7.2-3.2-7.2-7.2s3.2-7.2 7.2-7.2S27 4.7 27 8.7s-3.2 7.2-7.1 7.2z"/><path class="st0" d="M20.6 8.4V3.8c0-.4-.3-.8-.8-.8s-.8.3-.8.8V9l3.6 3.6c.1.1.3.2.5.2s.4-.1.5-.2c.3-.3.3-.8 0-1.1l-3-3.1z"/></svg>