<svg xmlns="http://www.w3.org/2000/svg" viewBox="0 0 45.85 48"><path d="M44.492 25.179a6.625 6.625 0 0 0 .192-7.766 6.482 6.482 0 0 0-9.492-1.151c-.192.1-.288.192-.384.1a28.339 28.339 0 0 0-9.684-2.493c-.192 0-.287-.095-.192-.287.288-.959.672-1.822 1.055-2.781a29.239 29.239 0 0 1 3.068-5.657 7.62 7.62 0 0 1 2.017-1.919 2.338 2.338 0 0 1 2.493 0 6.138 6.138 0 0 1 1.246.959c.192.191.192.287.192.575a3.868 3.868 0 0 0 3.26 4.506 3.786 3.786 0 0 0 4.309-3.739 3.8 3.8 0 0 0-5.463-3.547.358.358 0 0 1-.479-.1 4.481 4.481 0 0 0-1.151-.863 5.486 5.486 0 0 0-6.232-.1 14.609 14.609 0 0 0-3.26 3.643 38.376 38.376 0 0 0-4.123 9.013c-.1.287-.192.383-.479.383a26.861 26.861 0 0 0-10.163 2.493c-.192.1-.288.1-.48-.1a6.631 6.631 0 0 0-8.054-.383 6.539 6.539 0 0 0-1.246 9.4c.192.192.192.288.1.479a13.425 13.425 0 0 0-.959 3.74 14.384 14.384 0 0 0 2.3 8.821 20.414 20.414 0 0 0 7.191 6.519 27.739 27.739 0 0 0 12.752 3.069 27.311 27.311 0 0 0 12.464-2.781 19.211 19.211 0 0 0 7.282-5.933c3.068-4.219 3.835-8.725 1.822-13.615a.865.865 0 0 1 .1-.48m-12.656 5.421a3.645 3.645 0 1 1 3.024-3.023 3.646 3.646 0 0 1-3.024 3.023m-.192 8.1a14.556 14.556 0 0 1-9.013 3.26 14.886 14.886 0 0 1-8.533-3.164 1.469 1.469 0 1 1 1.822-2.3 11.081 11.081 0 0 0 7.862 2.493 11.805 11.805 0 0 0 5.369-2.014c.288-.191.479-.383.767-.575a1.488 1.488 0 0 1 2.014.288 1.6 1.6 0 0 1-.288 2.013m-16.683-15.34a3.646 3.646 0 1 1-3.644 3.643 3.526 3.526 0 0 1 3.644-3.643m-12.464.767a4.959 4.959 0 0 1 7.095-6.808 18.573 18.573 0 0 0-7.095 6.808m41.036-.288a18.259 18.259 0 0 0-6.807-6.424c-.1-.1-.192-.1-.288-.192a5.75 5.75 0 0 1 2.4-.959 4.811 4.811 0 0 1 4.794 2.206 4.978 4.978 0 0 1 .1 5.273c0 .1-.1.384-.192.1"/></svg>