<svg xmlns="http://www.w3.org/2000/svg" viewBox="0 0 49.04 47.56"><path stroke="rgba(0,0,0,0)" stroke-miterlimit="10" d="M12.959 43.4a8.527 8.527 0 0 1-8.527-14.745 21.412 21.412 0 0 1-.071-1.763 20.16 20.16 0 0 1 11.64-18.264 8.527 8.527 0 0 1 17.035-.01 20.194 20.194 0 0 1 11.638 18.274c0 .6-.024 1.189-.071 1.761A8.528 8.528 0 0 1 36.078 43.4a20.121 20.121 0 0 1-23.119 0Zm11.564-.447a15.859 15.859 0 0 0 8.388-2.373 8.53 8.53 0 0 1 7.088-13.28q.285 0 .571.019.005-.211.005-.425a16.1 16.1 0 0 0-8.4-14.116 8.53 8.53 0 0 1-15.318.007 16.062 16.062 0 0 0-8.4 14.109q0 .213.005.425.287-.019.573-.019a8.53 8.53 0 0 1 7.087 13.286 15.885 15.885 0 0 0 8.401 2.371Zm11.634-9.339a4.432 4.432 0 0 0 1.62 6.048 4.374 4.374 0 0 0 2.206.595 4.447 4.447 0 0 0 3.842-2.217 4.428 4.428 0 0 0-3.826-6.64 4.448 4.448 0 0 0-3.842 2.214Zm-29.325-1.62a4.421 4.421 0 1 0 2.207-.6 4.358 4.358 0 0 0-2.207.6Zm17.685-18.538a4.428 4.428 0 1 0-4.427-4.428 4.433 4.433 0 0 0 4.427 4.428Z"/></svg>