<svg xmlns="http://www.w3.org/2000/svg" viewBox="0 0 36 42.16"><path d="M30.478 30.796a5.339 5.339 0 0 0-2.867.85l-12.319-8.39a7.556 7.556 0 0 0 .319-2.23 7.133 7.133 0 0 0-.637-2.973l11.787-8.071a5.362 5.362 0 0 0 3.611 1.274A5.665 5.665 0 0 0 36 5.628 5.574 5.574 0 0 0 30.478 0a5.665 5.665 0 0 0-5.628 5.628 4.409 4.409 0 0 0 .318 1.7l-11.894 8.071a7.619 7.619 0 0 0-5.416-2.23 7.859 7.859 0 0 0 0 15.717 7.571 7.571 0 0 0 5.947-2.762l11.576 7.859a5.042 5.042 0 0 0-.638 2.549 5.629 5.629 0 1 0 5.735-5.735"/></svg>