<svg xmlns="http://www.w3.org/2000/svg" viewBox="0 0 100 99.964"><path d="M97.637 61.79a3.8 3.8 0 0 1-.265-2.338c2.854-16.467-1.618-30.679-13.443-42.449A46.289 46.289 0 0 0 57.307 3.971a45.987 45.987 0 0 0-13.429.031 3.88 3.88 0 0 1-2.678-.468 27.868 27.868 0 0 0-37.106 9.469 27.009 27.009 0 0 0-.722 27.349 2.2 2.2 0 0 1 .268 1.577c-4.109 21.989 7.627 42.639 27.735 51.084a48.685 48.685 0 0 0 26.784 3.2 3.168 3.168 0 0 1 2.058.3 28.253 28.253 0 0 0 14.99 3.392 24.78 24.78 0 0 0 10.7-3.344 28.036 28.036 0 0 0 13.784-19.714 26.476 26.476 0 0 0-2.054-15.057Zm-22.9 2.118c-1.145 6.065-5.1 9.919-10.639 12.005a34.579 34.579 0 0 1-25.014.047 17.5 17.5 0 0 1-10.124-9.767 10.7 10.7 0 0 1-.823-3.5 4.786 4.786 0 0 1 2.69-4.8 5.42 5.42 0 0 1 5.954.641 8.434 8.434 0 0 1 1.858 2.609c.575 1.166 1.117 2.344 1.763 3.477a10.145 10.145 0 0 0 8.116 5.239c3.849.439 7.6.181 11.051-1.866 3.034-1.8 4.327-4.8 3.344-7.958a6.789 6.789 0 0 0-3.821-3.96 36.8 36.8 0 0 0-8.484-2.527c-4.659-1.075-9.32-2.134-13.636-4.306-6.146-3.093-8.925-8.983-7.25-15.629a12.974 12.974 0 0 1 5.917-7.83 26.362 26.362 0 0 1 12.494-3.723c1.1-.089 2.212-.11 2.953-.145 5.344.04 10.179.739 14.54 3.347 3.038 1.816 5.483 4.183 6.521 7.712a5.465 5.465 0 0 1-1.221 5.8 5.212 5.212 0 0 1-8.142-.932c-.8-1.185-1.506-2.436-2.312-3.618a9.062 9.062 0 0 0-6.6-4.222c-3.583-.437-7.092-.415-10.344 1.435a5.654 5.654 0 0 0-3.072 3.721c-.446 2.16.408 3.849 2.36 5.136 2.449 1.616 5.253 2.209 8.032 2.887a123.979 123.979 0 0 1 12.525 3.358 19.776 19.776 0 0 1 8.3 4.956c3.252 3.573 3.917 7.862 3.06 12.414Z"/></svg>