<svg xmlns="http://www.w3.org/2000/svg" viewBox="0 0 48 48"><path d="M40.96 7.03A23.992 23.992 0 1 0 48 24a23.928 23.928 0 0 0-7.04-16.97m-8.859 6.43c1.769 0 3.25 2.01 3.25 4.52 0 2.49-1.451 4.53-3.25 4.53s-3.281-2.04-3.281-4.53c0-2.51 1.481-4.52 3.281-4.52m-16.211 0c1.8 0 3.281 2.01 3.281 4.52 0 2.49-1.481 4.53-3.281 4.53s-3.25-2.04-3.25-4.53c0-2.51 1.44-4.52 3.25-4.52m20.791 17.22A14.737 14.737 0 0 1 24 37.78a14.754 14.754 0 0 1-12.69-7.1 1.622 1.622 0 0 1-.19-1.25 1.6 1.6 0 0 1 .731-.99 1.687 1.687 0 0 1 1.26-.18 1.545 1.545 0 0 1 .979.73 11.645 11.645 0 0 0 19.821 0 1.57 1.57 0 0 1 1.01-.75 1.533 1.533 0 0 1 1.229.21 1.553 1.553 0 0 1 .72.97 1.641 1.641 0 0 1-.189 1.26"/></svg>