<svg xmlns="http://www.w3.org/2000/svg" viewBox="0 0 48 48"><g><path d="M24 4.1A19.9 19.9 0 1 1 4.1 24 19.766 19.766 0 0 1 24 4.1M24 0a24 24 0 1 0 16.97 7.03A24.006 24.006 0 0 0 24 0"/><path d="M24 37.641a14.635 14.635 0 0 1-12.576-7.034 1.5 1.5 0 1 1 2.558-1.567 11.76 11.76 0 0 0 20.036 0 1.5 1.5 0 1 1 2.558 1.567A14.638 14.638 0 0 1 24 37.641"/><path d="M35.355 17.962c0 2.49-1.45 4.53-3.25 4.53s-3.28-2.04-3.28-4.53c0-2.51 1.48-4.52 3.28-4.52 1.77 0 3.25 2.01 3.25 4.52"/><path d="M19.175 17.962c0 2.49-1.48 4.53-3.28 4.53s-3.25-2.04-3.25-4.53c0-2.51 1.44-4.52 3.25-4.52s3.28 2.01 3.28 4.52"/></g></svg>