<svg xmlns="http://www.w3.org/2000/svg" viewBox="0 0 49.996 50"><g><path d="M21.897 50a5.435 5.435 0 0 1-3.87-1.6L1.6 31.976a5.48 5.48 0 0 1 0-7.741L24.227 1.607a5.5 5.5 0 0 1 3.864-1.6h.029l16.369.052a5.483 5.483 0 0 1 5.456 5.457l.051 16.368a5.5 5.5 0 0 1-1.6 3.893L25.768 48.404A5.435 5.435 0 0 1 21.897 50Zm6.2-47.422a2.906 2.906 0 0 0-2.043.847L3.42 26.052a2.895 2.895 0 0 0 0 4.1l16.429 16.424a2.9 2.9 0 0 0 4.1 0l22.627-22.627a2.9 2.9 0 0 0 .847-2.055l-.052-16.372a2.9 2.9 0 0 0-2.885-2.886l-16.377-.06Zm10.711 14.559a5.911 5.911 0 0 1-4.205-1.742 5.945 5.945 0 1 1 4.205 1.742Zm0-9.31a3.366 3.366 0 0 0-2.388 5.749 3.366 3.366 0 1 0 2.382-5.745Z"/></g></svg>