<svg xmlns="http://www.w3.org/2000/svg" viewBox="0 0 45.945 50"><g><path d="m41.499 29.13 3.459-12.847a4.647 4.647 0 0 0-1.2-4.48l-.695-.694-3.78 3.78a4.693 4.693 0 1 1-4.167-4.168l3.78-3.779-.691-.692a4.633 4.633 0 0 0-4.48-1.2L20.869 8.501a4.73 4.73 0 0 0-2.075 1.2L1.353 27.146a4.629 4.629 0 0 0 .008 6.547l14.955 14.955a4.629 4.629 0 0 0 6.539 0l17.441-17.439a4.6 4.6 0 0 0 1.203-2.079ZM22.064 40.809 9.192 27.937l1.647-1.647 12.872 12.872Zm5.2-5.2L14.392 22.738l1.647-1.647 12.872 12.871Z"/><path d="M38.587 3.298a1.01 1.01 0 0 0 1.429 0l.734-.734a1.86 1.86 0 0 1 2.631 2.631l-9.486 9.486a1.01 1.01 0 0 0 1.429 1.428l9.486-9.486a3.881 3.881 0 0 0-5.489-5.489l-.734.734a1.012 1.012 0 0 0 0 1.43Z"/></g></svg>