<svg xmlns="http://www.w3.org/2000/svg" viewBox="0 0 50.003 50"><g><g><path d="m46.162 27.099 3.633-13.513a6.171 6.171 0 0 0-1.591-5.943l-.775-.776-1.8 1.8.776.776a3.612 3.612 0 0 1 .929 3.478l-3.631 13.51a3.631 3.631 0 0 1-.933 1.614L24.42 46.394a3.6 3.6 0 0 1-5.087 0L3.606 30.666a3.6 3.6 0 0 1 0-5.087L21.951 7.238a3.617 3.617 0 0 1 1.612-.933l13.513-3.628a3.61 3.61 0 0 1 3.48.929l.772.773 1.8-1.8-.772-.773a6.172 6.172 0 0 0-5.944-1.59l-13.517 3.63a6.179 6.179 0 0 0-2.752 1.592L1.798 23.779a6.156 6.156 0 0 0 0 8.7l15.73 15.723a6.156 6.156 0 0 0 8.7 0l18.35-18.349a6.183 6.183 0 0 0 1.584-2.754Z"/><path d="M31.065 10.164a6.2 6.2 0 1 0 9.578 1l8.52-8.52-1.8-1.8-8.52 8.519a6.211 6.211 0 0 0-7.778.801Zm6.967 6.967a3.651 3.651 0 1 1 0-5.163 3.656 3.656 0 0 1-.004 5.163Z"/></g><g><path d="m17.406 21.542 1.414-1.414 11.052 11.051-1.415 1.414z"/></g><g><path d="m12.949 25.999 1.414-1.414 11.052 11.051L24 37.05z"/></g></g></svg>