<svg xmlns="http://www.w3.org/2000/svg" viewBox="0 0 48 39.17"><path d="M48 4.636a18.306 18.306 0 0 1-5.675 1.539A10.236 10.236 0 0 0 46.653.692a20.583 20.583 0 0 1-6.252 2.4 9.83 9.83 0 0 0-16.834 5 10.847 10.847 0 0 0 .1 3.944 27.716 27.716 0 0 1-20.392-10.2 9.857 9.857 0 0 0 3.078 13.179 11.676 11.676 0 0 1-4.521-1.251v.1a9.908 9.908 0 0 0 7.887 9.716 12.123 12.123 0 0 1-2.6.385 10.566 10.566 0 0 1-1.827-.193 9.851 9.851 0 0 0 9.234 6.83A19.926 19.926 0 0 1 0 34.744a27.812 27.812 0 0 0 15.1 4.425c18.187 0 28.087-15.006 28.087-28.088v-.289a2.371 2.371 0 0 1 .77-1.635 22.67 22.67 0 0 0 4.04-4.521"/></svg>