<svg xmlns="http://www.w3.org/2000/svg" viewBox="0 0 48 41.6"><g><path d="M30.777 0a17.253 17.253 0 0 0-15.97 10.731 12.026 12.026 0 1 0-5.2 23.48 2.09 2.09 0 0 0 .413.042 2.051 2.051 0 0 0 .409-4.06 7.924 7.924 0 0 1 1.6-15.685 7.85 7.85 0 0 1 3.23.689l2.2.988.618-2.333a13.132 13.132 0 0 1 25.821 3.372 13 13 0 0 1-4.17 9.6 2.052 2.052 0 0 0 2.8 3A17.227 17.227 0 0 0 30.778.003"/><path d="M26.761 14.824a1.164 1.164 0 0 0-1.775 0l-8.314 9.8a1.164 1.164 0 0 0 .888 1.917h5.179v13.888a1.164 1.164 0 0 0 1.164 1.164h3.941a1.164 1.164 0 0 0 1.164-1.164V26.546h5.179a1.164 1.164 0 0 0 .888-1.917Z"/></g></svg>