<svg xmlns="http://www.w3.org/2000/svg" viewBox="0 0 100 53.5"><path d="M98.9 25.1C87.6 9.4 69.4 0 50 0 30.7 0 12.4 9.4 1.2 25.1L0 26.7l1.2 1.6C12.4 44.1 30.7 53.5 50 53.5c19.3 0 37.6-9.4 48.8-25.1l1.2-1.6-1.1-1.7zm-27.8 1.6c0 11.6-9.5 21.1-21.1 21.1-11.6 0-21.1-9.5-21.1-21.1 0-11.6 9.5-21.1 21.1-21.1 11.7.1 21.1 9.5 21.1 21.1zM7 26.7c5.9-7.6 13.7-13.4 22.4-17-3.8 4.6-6.1 10.6-6.1 17 0 6.5 2.3 12.4 6.1 17-8.7-3.5-16.5-9.3-22.4-17zm63.6 17.1c3.8-4.6 6.1-10.6 6.1-17 0-6.5-2.3-12.4-6.1-17 8.7 3.6 16.5 9.4 22.4 17-5.8 7.6-13.6 13.4-22.4 17z"/></svg>