<svg xmlns="http://www.w3.org/2000/svg" viewBox="0 0 48 43.19"><g><path d="M23.999 27.248a2.05 2.05 0 0 1-2.05-2.05V14.907a2.05 2.05 0 0 1 4.1 0v10.291a2.05 2.05 0 0 1-2.05 2.05"/><path d="M23.999 34.621a2.05 2.05 0 1 1 2.05-2.05 2.05 2.05 0 0 1-2.05 2.05"/><path d="M23.999 4.1a1.975 1.975 0 0 1 1.739 1l17.887 30.978a2.009 2.009 0 0 1-1.739 3.013H6.116a2.009 2.009 0 0 1-1.739-3.013L22.26 5.104a1.975 1.975 0 0 1 1.739-1m0-4.1a6.051 6.051 0 0 0-5.29 3.055L.825 34.029a6.107 6.107 0 0 0 5.289 9.161H41.88a6.108 6.108 0 0 0 5.29-9.161L29.287 3.055A6.05 6.05 0 0 0 23.997 0"/></g></svg>