<svg xmlns="http://www.w3.org/2000/svg" viewBox="0 0 44 44.26"><path d="M22.311 0A21.555 21.555 0 0 0 .798 21.6a22.259 22.259 0 0 0 3.01 11.067l-3.807 11.6 11.951-3.805A21.656 21.656 0 0 0 44 21.517 21.687 21.687 0 0 0 22.311 0m10.637 29.915a5.156 5.156 0 0 1-3.487 2.414c-4.559.983-9.387-2.593-12.338-5.633a22.894 22.894 0 0 1-5.275-8.046c-.983-2.861.358-8.583 4.381-7.689.984.179 1.163 1.073 1.431 1.878.447 1.162.8 2.235 1.251 3.4a1.514 1.514 0 0 1 0 .894c-.357.805-1.162 1.341-1.7 2.056-.805 1.252 2.324 4.292 3.218 5.1 1.163 1.072 2.951 2.682 4.56 2.861.894.089 2.056-1.7 2.5-2.325.358-.447.626-.536 1.073-.358 1.52.626 2.951 1.52 4.47 2.325a.811.811 0 0 1 .537.983 3.565 3.565 0 0 1-.626 2.146"/></svg>