<svg xmlns="http://www.w3.org/2000/svg" viewBox="0 0 48 48"><path d="M24 0a24 24 0 1 0 24 24A24 24 0 0 0 24 0M2.724 24a21.149 21.149 0 0 1 1.844-8.657L14.716 43.15A21.283 21.283 0 0 1 2.724 24M24 45.278a21.317 21.317 0 0 1-6.01-.865l6.384-18.55 6.538 17.917a1.806 1.806 0 0 0 .154.293 21.224 21.224 0 0 1-7.066 1.2m2.931-31.249c1.282-.065 2.436-.2 2.436-.2a.88.88 0 0 0-.135-1.754s-3.447.272-5.671.272c-2.09 0-5.6-.272-5.6-.272a.88.88 0 0 0-.133 1.754s1.084.136 2.23.2l3.317 9.084-4.657 13.963-7.754-23.047a42.05 42.05 0 0 0 2.436-.2.88.88 0 0 0-.135-1.754s-3.447.272-5.671.272c-.4 0-.871-.009-1.371-.025a21.273 21.273 0 0 1 32.144-4.006c-.093-.006-.182-.015-.275-.015a3.682 3.682 0 0 0-3.573 3.774c0 1.754 1.01 3.237 2.091 4.991a11.211 11.211 0 0 1 1.754 5.869 24.615 24.615 0 0 1-1.547 7.014l-2.2 6.952Zm7.764 28.366 6.5-18.788a20.025 20.025 0 0 0 1.618-7.62 16.1 16.1 0 0 0-.142-2.189 21.276 21.276 0 0 1-7.974 28.6"/></svg>