<svg xmlns="http://www.w3.org/2000/svg" viewBox="0 0 48 48"><g><path d="M4 23.999a20 20 0 0 0 11.272 18L5.732 15.86A19.923 19.923 0 0 0 4 24m33.5-1.009a10.531 10.531 0 0 0-1.646-5.517c-1.014-1.648-1.964-3.042-1.964-4.69a3.463 3.463 0 0 1 3.358-3.55c.089 0 .173.011.259.016A20 20 0 0 0 7.29 13.013c.47.015.912.025 1.288.025 2.091 0 5.33-.254 5.33-.254a.827.827 0 0 1 .128 1.648s-1.084.127-2.289.19l7.283 21.664 4.378-13.127-3.117-8.535c-1.078-.063-2.1-.19-2.1-.19a.827.827 0 0 1 .127-1.648s3.3.254 5.267.254c2.092 0 5.331-.254 5.331-.254a.827.827 0 0 1 .128 1.648s-1.085.127-2.289.19l7.228 21.5 2.063-6.538a23.047 23.047 0 0 0 1.454-6.593m-13.146 2.755-6 17.437a20.006 20.006 0 0 0 12.292-.319 1.835 1.835 0 0 1-.143-.276Zm17.2-11.344a15.342 15.342 0 0 1 .134 2.057 18.884 18.884 0 0 1-1.524 7.163l-6.11 17.661a20 20 0 0 0 7.5-26.881"/><path d="M24 0a24 24 0 1 0 24 24A24 24 0 0 0 24 0m0 46.56A22.56 22.56 0 1 1 46.56 24 22.559 22.559 0 0 1 24 46.56"/></g></svg>