<svg xmlns="http://www.w3.org/2000/svg" viewBox="0 0 48 33.86"><path d="M47.134 5.29a5.893 5.893 0 0 0-4.232-4.232C39.055 0 24.05 0 24.05 0S9.044 0 5.293.962A6.146 6.146 0 0 0 .965 5.29C.003 9.041.003 16.929.003 16.929s0 7.887.962 11.638A5.894 5.894 0 0 0 5.197 32.8c3.847 1.058 18.853 1.058 18.853 1.058s15.005 0 18.756-1.058a6.059 6.059 0 0 0 4.232-4.233C48 24.816 48 16.929 48 16.929s.1-7.888-.866-11.639M19.141 21.928v-10a1.237 1.237 0 0 1 1.845-1.077l8.85 5a1.237 1.237 0 0 1 0 2.153l-8.85 5a1.237 1.237 0 0 1-1.845-1.077"/></svg>