<svg xmlns="http://www.w3.org/2000/svg" width="144.33" height="110.381"><g data-name="Group 3303" fill="#5a5a5a"><path data-name="Path 2167" d="M0 99.38h46.2V0H0Zm6-26.53a.2.2 0 0 1 .2-.2h12.247a.2.2 0 0 1 .2.2v2.54a.2.2 0 0 1-.2.2H6.197a.2.2 0 0 1-.2-.2Zm10.48 20.41a.445.445 0 0 1-.29.12H6.41a.412.412 0 0 1-.41-.41.407.407 0 0 1 .12-.29.385.385 0 0 1 .29-.12h9.78a.412.412 0 0 1 .41.41.445.445 0 0 1-.12.29m15.71 0a.407.407 0 0 1-.29.12h-9.77a.421.421 0 0 1-.42-.41.41.41 0 0 1 .42-.41h9.77a.406.406 0 0 1 .41.41.4.4 0 0 1-.12.29m2.35-4.73a1.435 1.435 0 0 1-1.02.42H7.43a1.43 1.43 0 0 1 0-2.86h26.09a1.432 1.432 0 0 1 1.44 1.43 1.412 1.412 0 0 1-.42 1.01m5.27-6.68a1.435 1.435 0 0 1-1.02.42H7.43a1.43 1.43 0 0 1 0-2.86h31.36a1.438 1.438 0 0 1 1.44 1.43 1.454 1.454 0 0 1-.42 1.01"/><path data-name="Path 2168" d="M50.02 47.79h44.29V0H50.02Zm6-26.53a.2.2 0 0 1 .2-.2h12.25a.2.2 0 0 1 .2.2v2.54a.2.2 0 0 1-.2.2H56.22a.2.2 0 0 1-.2-.2ZM66.5 41.67a.445.445 0 0 1-.29.12h-9.78a.412.412 0 0 1-.41-.41.407.407 0 0 1 .12-.29.385.385 0 0 1 .29-.12h9.78a.412.412 0 0 1 .41.41.445.445 0 0 1-.12.29m15.71 0a.407.407 0 0 1-.29.12h-9.773a.421.421 0 0 1-.42-.41.41.41 0 0 1 .42-.41h9.77a.406.406 0 0 1 .41.41.4.4 0 0 1-.12.29m2.35-4.73a1.435 1.435 0 0 1-1.02.42h-26.09a1.43 1.43 0 0 1 0-2.86h26.09a1.432 1.432 0 0 1 1.44 1.43 1.412 1.412 0 0 1-.42 1.01m5.27-6.68a1.435 1.435 0 0 1-1.02.42h-31.36a1.43 1.43 0 0 1 0-2.86h31.36a1.438 1.438 0 0 1 1.44 1.43 1.454 1.454 0 0 1-.42 1.01"/><path data-name="Path 2169" d="M50.02 99.38h44.29V51.59H50.02Zm6-26.53a.2.2 0 0 1 .2-.2h12.25a.2.2 0 0 1 .2.2v2.54a.2.2 0 0 1-.2.2H56.22a.2.2 0 0 1-.2-.2ZM66.5 93.26a.445.445 0 0 1-.29.12h-9.78a.412.412 0 0 1-.41-.41.407.407 0 0 1 .12-.29.385.385 0 0 1 .29-.12h9.78a.412.412 0 0 1 .41.41.445.445 0 0 1-.12.29m15.71 0a.407.407 0 0 1-.29.12h-9.773a.421.421 0 0 1-.42-.41.41.41 0 0 1 .42-.41h9.77a.406.406 0 0 1 .41.41.4.4 0 0 1-.12.29m2.35-4.73a1.435 1.435 0 0 1-1.02.42h-26.09a1.43 1.43 0 0 1 0-2.86h26.09a1.432 1.432 0 0 1 1.44 1.43 1.412 1.412 0 0 1-.42 1.01m5.27-6.68a1.435 1.435 0 0 1-1.02.42h-31.36a1.43 1.43 0 0 1 0-2.86h31.36a1.438 1.438 0 0 1 1.44 1.43 1.454 1.454 0 0 1-.42 1.01"/><path data-name="Path 2170" d="M98.12 99.38h46.21V0H98.12Zm6-26.53a.2.2 0 0 1 .2-.2h12.25a.2.2 0 0 1 .2.2v2.54a.2.2 0 0 1-.2.2h-12.25a.2.2 0 0 1-.2-.2Zm10.48 20.41a.446.446 0 0 1-.29.12h-9.78a.412.412 0 0 1-.41-.41.407.407 0 0 1 .12-.29.385.385 0 0 1 .29-.12h9.78a.412.412 0 0 1 .41.41.446.446 0 0 1-.12.29m15.71 0a.407.407 0 0 1-.29.12h-9.773a.421.421 0 0 1-.42-.41.41.41 0 0 1 .42-.41h9.77a.406.406 0 0 1 .41.41.4.4 0 0 1-.12.29m2.35-4.73a1.435 1.435 0 0 1-1.02.42h-26.09a1.43 1.43 0 0 1 0-2.86h26.09a1.432 1.432 0 0 1 1.44 1.43 1.412 1.412 0 0 1-.42 1.01m5.27-6.68a1.435 1.435 0 0 1-1.02.42h-31.36a1.43 1.43 0 0 1 0-2.86h31.36a1.438 1.438 0 0 1 1.44 1.43 1.454 1.454 0 0 1-.42 1.01"/></g></svg>